<svg xmlns="http://www.w3.org/2000/svg" xmlns:xlink="http://www.w3.org/1999/xlink" contentStyleType="text/css" height="772px" preserveAspectRatio="none" style="width:728px;height:772px;background:#FFFFFF;" version="1.1" viewBox="0 0 728 772" width="728px" zoomAndPan="magnify"><defs/><g><!--cluster ??????????? ? ?????????? AI-????????--><g id="cluster_&#1054;&#1088;&#1075;&#1072;&#1085;&#1080;&#1079;&#1072;&#1094;&#1080;&#1103; &#1080; &#1087;&#1088;&#1086;&#1074;&#1077;&#1076;&#1077;&#1085;&#1080;&#1077; AI-&#1080;&#1085;&#1090;&#1077;&#1088;&#1074;&#1100;&#1102;"><rect fill="none" height="759" rx="2.5" ry="2.5" style="stroke:#181818;stroke-width:1.0;" width="413.94" x="309" y="7"/><text fill="#000000" font-family="sans-serif" font-size="14" font-weight="bold" lengthAdjust="spacing" textLength="330" x="350.97" y="21.9951">&#1054;&#1088;&#1075;&#1072;&#1085;&#1080;&#1079;&#1072;&#1094;&#1080;&#1103; &#1080; &#1087;&#1088;&#1086;&#1074;&#1077;&#1076;&#1077;&#1085;&#1080;&#1077; AI-&#1080;&#1085;&#1090;&#1077;&#1088;&#1074;&#1100;&#1102;</text></g><g id="elem_uc1"><ellipse cx="515.9656" cy="172.9971" fill="#F1F1F1" rx="127.8356" ry="27.9671" style="stroke:#181818;stroke-width:0.5;"/><text fill="#000000" font-family="sans-serif" font-size="14" lengthAdjust="spacing" textLength="224" x="403.9656" y="175.8438">UC1.1: &#1055;&#1086;&#1083;&#1091;&#1095;&#1080;&#1090;&#1100; &#1087;&#1088;&#1080;&#1075;&#1083;&#1072;&#1096;&#1077;&#1085;&#1080;&#1077;</text></g><g id="elem_uc2"><ellipse cx="515.9739" cy="284.0028" fill="#F1F1F1" rx="144.0139" ry="31.2028" style="stroke:#181818;stroke-width:0.5;"/><text fill="#000000" font-family="sans-serif" font-size="14" lengthAdjust="spacing" textLength="258" x="386.9739" y="286.8495">UC1.2: &#1055;&#1086;&#1076;&#1087;&#1080;&#1089;&#1072;&#1090;&#1100; &#1089;&#1086;&#1075;&#1083;&#1072;&#1089;&#1080;&#1077; &#1085;&#1072; &#1055;&#1044;&#1085;</text></g><g id="elem_uc3"><ellipse cx="515.9676" cy="75.9975" fill="#F1F1F1" rx="156.9876" ry="33.7975" style="stroke:#181818;stroke-width:0.5;"/><text fill="#000000" font-family="sans-serif" font-size="14" lengthAdjust="spacing" textLength="285" x="373.4676" y="78.8442">UC1.3: &#1055;&#1088;&#1086;&#1081;&#1090;&#1080; &#1080;&#1085;&#1090;&#1077;&#1088;&#1074;&#1100;&#1102; &#1089; AI-&#1072;&#1074;&#1072;&#1090;&#1072;&#1088;&#1086;&#1084;</text></g><g id="elem_uc4"><ellipse cx="515.9686" cy="491.9997" fill="#F1F1F1" rx="160.8486" ry="34.5697" style="stroke:#181818;stroke-width:0.5;"/><text fill="#000000" font-family="sans-serif" font-size="14" lengthAdjust="spacing" textLength="293" x="369.4686" y="494.8464">UC1.4: &#1053;&#1072;&#1089;&#1090;&#1088;&#1086;&#1080;&#1090;&#1100; &#1087;&#1072;&#1088;&#1072;&#1084;&#1077;&#1090;&#1088;&#1099; &#1080;&#1085;&#1090;&#1077;&#1088;&#1074;&#1100;&#1102;</text></g><g id="elem_uc5"><ellipse cx="515.9686" cy="602.0037" fill="#F1F1F1" rx="190.9686" ry="40.5937" style="stroke:#181818;stroke-width:0.5;"/><text fill="#000000" font-family="sans-serif" font-size="14" lengthAdjust="spacing" textLength="355" x="338.4686" y="604.8504">UC1.5: &#1052;&#1086;&#1085;&#1080;&#1090;&#1086;&#1088;&#1080;&#1090;&#1100; &#1089;&#1077;&#1089;&#1089;&#1080;&#1102; &#1074; &#1088;&#1077;&#1072;&#1083;&#1100;&#1085;&#1086;&#1084; &#1074;&#1088;&#1077;&#1084;&#1077;&#1085;&#1080;</text></g><g id="elem_uc6"><ellipse cx="515.9651" cy="385.995" fill="#F1F1F1" rx="169.0751" ry="36.215" style="stroke:#181818;stroke-width:0.5;"/><text fill="#000000" font-family="sans-serif" font-size="14" lengthAdjust="spacing" textLength="310" x="360.9651" y="388.8417">UC1.6: &#1055;&#1088;&#1080;&#1085;&#1091;&#1076;&#1080;&#1090;&#1077;&#1083;&#1100;&#1085;&#1086; &#1079;&#1072;&#1074;&#1077;&#1088;&#1096;&#1080;&#1090;&#1100; &#1089;&#1077;&#1089;&#1089;&#1080;&#1102;</text></g><g id="elem_uc7"><ellipse cx="515.9698" cy="714.002" fill="#F1F1F1" rx="169.5598" ry="36.312" style="stroke:#181818;stroke-width:0.5;"/><text fill="#000000" font-family="sans-serif" font-size="14" lengthAdjust="spacing" textLength="311" x="360.4698" y="716.8486">UC1.7: &#1055;&#1086;&#1083;&#1091;&#1095;&#1080;&#1090;&#1100; &#1090;&#1077;&#1093;&#1085;&#1080;&#1095;&#1077;&#1089;&#1082;&#1080;&#1077; &#1083;&#1086;&#1075;&#1080; &#1089;&#1077;&#1089;&#1089;&#1080;&#1080;</text></g><!--entity candidate--><g id="elem_candidate"><ellipse cx="108" cy="143.35" fill="#F1F1F1" rx="8" ry="8" style="stroke:#181818;stroke-width:0.5;"/><path d="M108,151.35 L108,178.35 M95,159.35 L121,159.35 M108,178.35 L95,193.35 M108,178.35 L121,193.35 " fill="none" style="stroke:#181818;stroke-width:0.5;"/><text fill="#000000" font-family="sans-serif" font-size="14" lengthAdjust="spacing" textLength="73" x="71.5" y="207.8451">&#1050;&#1072;&#1085;&#1076;&#1080;&#1076;&#1072;&#1090;</text></g><!--entity hr--><g id="elem_hr"><ellipse cx="108" cy="462.35" fill="#F1F1F1" rx="8" ry="8" style="stroke:#181818;stroke-width:0.5;"/><path d="M108,470.35 L108,497.35 M95,478.35 L121,478.35 M108,497.35 L95,512.35 M108,497.35 L121,512.35 " fill="none" style="stroke:#181818;stroke-width:0.5;"/><text fill="#000000" font-family="sans-serif" font-size="14" lengthAdjust="spacing" textLength="103" x="56.5" y="526.8451">HR-&#1084;&#1077;&#1085;&#1077;&#1076;&#1078;&#1077;&#1088;</text></g><!--entity admin--><g id="elem_admin"><ellipse cx="108" cy="684.35" fill="#F1F1F1" rx="8" ry="8" style="stroke:#181818;stroke-width:0.5;"/><path d="M108,692.35 L108,719.35 M95,700.35 L121,700.35 M108,719.35 L95,734.35 M108,719.35 L121,734.35 " fill="none" style="stroke:#181818;stroke-width:0.5;"/><text fill="#000000" font-family="sans-serif" font-size="14" lengthAdjust="spacing" textLength="204" x="6" y="748.8451">&#1057;&#1080;&#1089;&#1090;&#1077;&#1084;&#1085;&#1099;&#1081; &#1072;&#1076;&#1084;&#1080;&#1085;&#1080;&#1089;&#1090;&#1088;&#1072;&#1090;&#1086;&#1088;</text></g><!--link candidate to uc1--><g id="link_candidate_uc1"><path d="M144.67,173 C198.56,173 297.38,173 381.79,173 " fill="none" id="candidate-to-uc1" style="stroke:#181818;stroke-width:1.0;"/><polygon fill="#181818" points="387.79,173,378.79,169,382.79,173,378.79,177,387.79,173" style="stroke:#181818;stroke-width:1.0;"/></g><!--link candidate to uc2--><g id="link_candidate_uc2"><path d="M144.93,195.28 C170.53,210.17 206.25,228.97 240,240 C285.61,254.9 331.2509,264.0075 377.3009,270.6175 " fill="none" id="candidate-to-uc2" style="stroke:#181818;stroke-width:1.0;"/><polygon fill="#181818" points="383.24,271.47,374.8996,266.2318,378.2907,270.7596,373.763,274.1507,383.24,271.47" style="stroke:#181818;stroke-width:1.0;"/></g><!--link candidate to uc3--><g id="link_candidate_uc3"><path d="M144.67,164.48 C203.3,150.47 316.3842,123.4441 403.7042,102.5841 " fill="none" id="candidate-to-uc3" style="stroke:#181818;stroke-width:1.0;"/><polygon fill="#181818" points="409.54,101.19,399.8569,99.3907,404.6768,102.3518,401.7157,107.1717,409.54,101.19" style="stroke:#181818;stroke-width:1.0;"/></g><!--link hr to uc4--><g id="link_hr_uc4"><path d="M159.6,492 C208.48,492 279.16,492 348.8,492 " fill="none" id="hr-to-uc4" style="stroke:#181818;stroke-width:1.0;"/><polygon fill="#181818" points="354.8,492,345.8,488,349.8,492,345.8,496,354.8,492" style="stroke:#181818;stroke-width:1.0;"/></g><!--link hr to uc5--><g id="link_hr_uc5"><path d="M159.6,505.71 C218.58,521.69 312.2289,547.0606 390.9389,568.3906 " fill="none" id="hr-to-uc5" style="stroke:#181818;stroke-width:1.0;"/><polygon fill="#181818" points="396.73,569.96,389.0896,563.7452,391.9041,568.6522,386.9971,571.4667,396.73,569.96" style="stroke:#181818;stroke-width:1.0;"/></g><!--link hr to uc6--><g id="link_hr_uc6"><path d="M159.87,477.97 C198.53,467.36 253.06,452.54 301,440 C334.54,431.23 365.2922,423.3776 398.5522,414.9876 " fill="none" id="hr-to-uc6" style="stroke:#181818;stroke-width:1.0;"/><polygon fill="#181818" points="404.37,413.52,394.665,411.8428,399.5219,414.743,396.6217,419.5998,404.37,413.52" style="stroke:#181818;stroke-width:1.0;"/></g><!--link admin to uc7--><g id="link_admin_uc7"><path d="M210.4,714 C251.5,714 294.08,714 340.23,714 " fill="none" id="admin-to-uc7" style="stroke:#181818;stroke-width:1.0;"/><polygon fill="#181818" points="346.23,714,337.23,710,341.23,714,337.23,718,346.23,714" style="stroke:#181818;stroke-width:1.0;"/></g><!--link uc1 to uc2--><g id="link_uc1_uc2"><path d="M515.97,201.18 C515.97,216.83 515.97,230.34 515.97,246.49 " fill="none" id="uc1-to-uc2" style="stroke:#181818;stroke-width:1.0;stroke-dasharray:7.0,7.0;"/><polygon fill="#181818" points="515.97,252.49,519.97,243.49,515.97,247.49,511.97,243.49,515.97,252.49" style="stroke:#181818;stroke-width:1.0;"/><text fill="#000000" font-family="sans-serif" font-size="13" lengthAdjust="spacing" textLength="51" x="478.97" y="231.4469">extends</text></g><!--link uc2 to uc3--><g id="link_uc2_uc3"><path d="M371.65,282.7 C337.07,275.05 303.77,260.1 281.58,232.5 C262,208.15 225.32,205.13 301,128 C319.62,109.02 338.1852,98.328 363.6952,90.168 " fill="none" id="uc2-to-uc3" style="stroke:#181818;stroke-width:1.0;stroke-dasharray:7.0,7.0;"/><polygon fill="#181818" points="369.41,88.34,359.6192,87.2722,364.6477,89.8633,362.0565,94.8918,369.41,88.34" style="stroke:#181818;stroke-width:1.0;"/><text fill="#000000" font-family="sans-serif" font-size="13" lengthAdjust="spacing" textLength="51" x="241" y="228.5669">extends</text></g><!--SRC=[RPBDQjjG48Ntzoa6xntmFsHHADaasq8VG4YgBKXba1K8X4BYaDXWasow2cbBtq2uLgB4Ftc5kM-KC-CRkoXP2Avcvdvppfqv3h-bbFOfYRgzb88e2VqqwiV6yzD-GXM-uunNFES2NsQ75V86v7jn40LU6hvL7Nwfyf9p5EOeU-3SdcjXBzbo_d9XB-mG1KjUsGa_4S1p_1IufIbxBWruxUvwmVSeDaRqU77tE0JZDqh-gPw27r5yZOktn0Nn2p9hdcdxNFCvVJwg2bnw8ZkpKtjJeJD3T388VMy0uDU3sbvjd_WFxYxifHs1DxJJ3Qv0gmMQZD-0gkh4hvK9TKUOyuiO4HDWuB1sX0kL0qWcXJzvvKZrCgaX97No1DMmLP8FgBhAu5IUAjFQfSCrohWcSB-alxxjUcjExsKoC4dO2Rr_9WKsoy0MWFS0oS1qK0u9Xpcwm2SqyeoGoD5WOQSeXK34DBHPaSBXMsLyszaNDPUoShekZa8oSPam58y_wEkWxJAqyy5yrUkLsXW9WPyt4rheo8h_k5kn7VF3cEtUKxNwILUX7Ac_YpHCBt77vkxOsXtRHZVT_NMC0PVs54Rx59wcOHmCZFnfiB4BlW80]--></g></svg>