<svg xmlns="http://www.w3.org/2000/svg" xmlns:xlink="http://www.w3.org/1999/xlink" contentStyleType="text/css" height="740px" preserveAspectRatio="none" style="width:511px;height:740px;background:#FFFFFF;" version="1.1" viewBox="0 0 511 740" width="511px" zoomAndPan="magnify"><defs/><g><text fill="#000000" font-family="sans-serif" font-size="14" font-weight="bold" lengthAdjust="spacing" textLength="232" x="132.75" y="22.9951">&#1050;&#1083;&#1072;&#1089;&#1089;&#1099; &#1084;&#1086;&#1076;&#1091;&#1083;&#1103; AI-&#1080;&#1085;&#1090;&#1077;&#1088;&#1074;&#1100;&#1102;</text><!--class InterviewSession--><g id="elem_InterviewSession"><rect codeLine="3" fill="#F1F1F1" height="210.9688" id="InterviewSession" rx="2.5" ry="2.5" style="stroke:#181818;stroke-width:0.5;" width="177" x="204" y="44.2969"/><ellipse cx="232.05" cy="60.2969" fill="#ADD1B2" rx="11" ry="11" style="stroke:#181818;stroke-width:1.0;"/><path d="M235.0188,65.9375 Q234.4406,66.2344 233.8,66.375 Q233.1594,66.5313 232.4563,66.5313 Q229.9563,66.5313 228.6281,64.8906 Q227.3156,63.2344 227.3156,60.1094 Q227.3156,56.9844 228.6281,55.3281 Q229.9563,53.6719 232.4563,53.6719 Q233.1594,53.6719 233.8,53.8281 Q234.4563,53.9844 235.0188,54.2813 L235.0188,57 Q234.3938,56.4219 233.8,56.1563 Q233.2063,55.875 232.5813,55.875 Q231.2375,55.875 230.55,56.9531 Q229.8625,58.0156 229.8625,60.1094 Q229.8625,62.2031 230.55,63.2813 Q231.2375,64.3438 232.5813,64.3438 Q233.2063,64.3438 233.8,64.0781 Q234.3938,63.7969 235.0188,63.2188 L235.0188,65.9375 Z " fill="#000000"/><text fill="#000000" font-family="sans-serif" font-size="14" lengthAdjust="spacing" textLength="116" x="248.95" y="65.1436">InterviewSession</text><line style="stroke:#181818;stroke-width:0.5;" x1="205" x2="380" y1="76.2969" y2="76.2969"/><rect fill="none" height="6" style="stroke:#C82930;stroke-width:1.0;" width="6" x="212" y="86.9453"/><text fill="#000000" font-family="sans-serif" font-size="14" lengthAdjust="spacing" textLength="109" x="224" y="93.292">sessionId: UUID</text><rect fill="none" height="6" style="stroke:#C82930;stroke-width:1.0;" width="6" x="212" y="103.2422"/><text fill="#000000" font-family="sans-serif" font-size="14" lengthAdjust="spacing" textLength="123" x="224" y="109.5889">candidateId: UUID</text><rect fill="none" height="6" style="stroke:#C82930;stroke-width:1.0;" width="6" x="212" y="119.5391"/><text fill="#000000" font-family="sans-serif" font-size="14" lengthAdjust="spacing" textLength="110" x="224" y="125.8857">vacancyId: UUID</text><rect fill="none" height="6" style="stroke:#C82930;stroke-width:1.0;" width="6" x="212" y="135.8359"/><text fill="#000000" font-family="sans-serif" font-size="14" lengthAdjust="spacing" textLength="141" x="224" y="142.1826">startTime: DateTime</text><rect fill="none" height="6" style="stroke:#C82930;stroke-width:1.0;" width="6" x="212" y="152.1328"/><text fill="#000000" font-family="sans-serif" font-size="14" lengthAdjust="spacing" textLength="137" x="224" y="158.4795">endTime: DateTime</text><rect fill="none" height="6" style="stroke:#C82930;stroke-width:1.0;" width="6" x="212" y="168.4297"/><text fill="#000000" font-family="sans-serif" font-size="14" lengthAdjust="spacing" textLength="151" x="224" y="174.7764">status: SessionStatus</text><line style="stroke:#181818;stroke-width:0.5;" x1="205" x2="380" y1="182.0781" y2="182.0781"/><ellipse cx="215" cy="195.7266" fill="#84BE84" rx="3" ry="3" style="stroke:#038048;stroke-width:1.0;"/><text fill="#000000" font-family="sans-serif" font-size="14" lengthAdjust="spacing" textLength="96" x="224" y="199.0732">startSession()</text><ellipse cx="215" cy="212.0234" fill="#84BE84" rx="3" ry="3" style="stroke:#038048;stroke-width:1.0;"/><text fill="#000000" font-family="sans-serif" font-size="14" lengthAdjust="spacing" textLength="92" x="224" y="215.3701">endSession()</text><ellipse cx="215" cy="228.3203" fill="#84BE84" rx="3" ry="3" style="stroke:#038048;stroke-width:1.0;"/><text fill="#000000" font-family="sans-serif" font-size="14" lengthAdjust="spacing" textLength="108" x="224" y="231.667">pauseSession()</text><ellipse cx="215" cy="244.6172" fill="#84BE84" rx="3" ry="3" style="stroke:#038048;stroke-width:1.0;"/><text fill="#000000" font-family="sans-serif" font-size="14" lengthAdjust="spacing" textLength="83" x="224" y="247.9639">getMetrics()</text></g><!--class MediaStream--><g id="elem_MediaStream"><rect codeLine="16" fill="#F1F1F1" height="178.375" id="MediaStream" rx="2.5" ry="2.5" style="stroke:#181818;stroke-width:0.5;" width="157" x="7" y="316.2669"/><ellipse cx="37.75" cy="332.2669" fill="#ADD1B2" rx="11" ry="11" style="stroke:#181818;stroke-width:1.0;"/><path d="M40.7188,337.9075 Q40.1406,338.2044 39.5,338.345 Q38.8594,338.5012 38.1563,338.5012 Q35.6563,338.5012 34.3281,336.8606 Q33.0156,335.2044 33.0156,332.0794 Q33.0156,328.9544 34.3281,327.2981 Q35.6563,325.6419 38.1563,325.6419 Q38.8594,325.6419 39.5,325.7981 Q40.1563,325.9544 40.7188,326.2512 L40.7188,328.97 Q40.0938,328.3919 39.5,328.1262 Q38.9063,327.845 38.2813,327.845 Q36.9375,327.845 36.25,328.9231 Q35.5625,329.9856 35.5625,332.0794 Q35.5625,334.1731 36.25,335.2512 Q36.9375,336.3137 38.2813,336.3137 Q38.9063,336.3137 39.5,336.0481 Q40.0938,335.7669 40.7188,335.1887 L40.7188,337.9075 Z " fill="#000000"/><text fill="#000000" font-family="sans-serif" font-size="14" lengthAdjust="spacing" textLength="90" x="55.25" y="337.1136">MediaStream</text><line style="stroke:#181818;stroke-width:0.5;" x1="8" x2="163" y1="348.2669" y2="348.2669"/><rect fill="none" height="6" style="stroke:#C82930;stroke-width:1.0;" width="6" x="15" y="358.9153"/><text fill="#000000" font-family="sans-serif" font-size="14" lengthAdjust="spacing" textLength="103" x="27" y="365.262">streamId: UUID</text><rect fill="none" height="6" style="stroke:#C82930;stroke-width:1.0;" width="6" x="15" y="375.2122"/><text fill="#000000" font-family="sans-serif" font-size="14" lengthAdjust="spacing" textLength="109" x="27" y="381.5589">sessionId: UUID</text><rect fill="none" height="6" style="stroke:#C82930;stroke-width:1.0;" width="6" x="15" y="391.5091"/><text fill="#000000" font-family="sans-serif" font-size="14" lengthAdjust="spacing" textLength="130" x="27" y="397.8557">videoCodec: string</text><rect fill="none" height="6" style="stroke:#C82930;stroke-width:1.0;" width="6" x="15" y="407.8059"/><text fill="#000000" font-family="sans-serif" font-size="14" lengthAdjust="spacing" textLength="131" x="27" y="414.1526">audioCodec: string</text><rect fill="none" height="6" style="stroke:#C82930;stroke-width:1.0;" width="6" x="15" y="424.1028"/><text fill="#000000" font-family="sans-serif" font-size="14" lengthAdjust="spacing" textLength="70" x="27" y="430.4495">quality: int</text><line style="stroke:#181818;stroke-width:0.5;" x1="8" x2="163" y1="437.7512" y2="437.7512"/><ellipse cx="18" cy="451.3997" fill="#84BE84" rx="3" ry="3" style="stroke:#038048;stroke-width:1.0;"/><text fill="#000000" font-family="sans-serif" font-size="14" lengthAdjust="spacing" textLength="112" x="27" y="454.7464">startRecording()</text><ellipse cx="18" cy="467.6966" fill="#84BE84" rx="3" ry="3" style="stroke:#038048;stroke-width:1.0;"/><text fill="#000000" font-family="sans-serif" font-size="14" lengthAdjust="spacing" textLength="112" x="27" y="471.0432">stopRecording()</text><ellipse cx="18" cy="483.9934" fill="#84BE84" rx="3" ry="3" style="stroke:#038048;stroke-width:1.0;"/><text fill="#000000" font-family="sans-serif" font-size="14" lengthAdjust="spacing" textLength="114" x="27" y="487.3401">getStreamData()</text></g><!--class AIAnalysis--><g id="elem_AIAnalysis"><rect codeLine="27" fill="#F1F1F1" height="178.375" id="AIAnalysis" rx="2.5" ry="2.5" style="stroke:#181818;stroke-width:0.5;" width="186" x="199.5" y="316.2669"/><ellipse cx="254.75" cy="332.2669" fill="#ADD1B2" rx="11" ry="11" style="stroke:#181818;stroke-width:1.0;"/><path d="M257.7188,337.9075 Q257.1406,338.2044 256.5,338.345 Q255.8594,338.5012 255.1563,338.5012 Q252.6563,338.5012 251.3281,336.8606 Q250.0156,335.2044 250.0156,332.0794 Q250.0156,328.9544 251.3281,327.2981 Q252.6563,325.6419 255.1563,325.6419 Q255.8594,325.6419 256.5,325.7981 Q257.1563,325.9544 257.7188,326.2512 L257.7188,328.97 Q257.0938,328.3919 256.5,328.1262 Q255.9063,327.845 255.2813,327.845 Q253.9375,327.845 253.25,328.9231 Q252.5625,329.9856 252.5625,332.0794 Q252.5625,334.1731 253.25,335.2512 Q253.9375,336.3137 255.2813,336.3137 Q255.9063,336.3137 256.5,336.0481 Q257.0938,335.7669 257.7188,335.1887 L257.7188,337.9075 Z " fill="#000000"/><text fill="#000000" font-family="sans-serif" font-size="14" lengthAdjust="spacing" textLength="67" x="275.25" y="337.1136">AIAnalysis</text><line style="stroke:#181818;stroke-width:0.5;" x1="200.5" x2="384.5" y1="348.2669" y2="348.2669"/><rect fill="none" height="6" style="stroke:#C82930;stroke-width:1.0;" width="6" x="207.5" y="358.9153"/><text fill="#000000" font-family="sans-serif" font-size="14" lengthAdjust="spacing" textLength="109" x="219.5" y="365.262">analysisId: UUID</text><rect fill="none" height="6" style="stroke:#C82930;stroke-width:1.0;" width="6" x="207.5" y="375.2122"/><text fill="#000000" font-family="sans-serif" font-size="14" lengthAdjust="spacing" textLength="109" x="219.5" y="381.5589">sessionId: UUID</text><rect fill="none" height="6" style="stroke:#C82930;stroke-width:1.0;" width="6" x="207.5" y="391.5091"/><text fill="#000000" font-family="sans-serif" font-size="14" lengthAdjust="spacing" textLength="149" x="219.5" y="397.8557">timestamp: DateTime</text><rect fill="none" height="6" style="stroke:#C82930;stroke-width:1.0;" width="6" x="207.5" y="407.8059"/><text fill="#000000" font-family="sans-serif" font-size="14" lengthAdjust="spacing" textLength="156" x="219.5" y="414.1526">transcribedText: string</text><rect fill="none" height="6" style="stroke:#C82930;stroke-width:1.0;" width="6" x="207.5" y="424.1028"/><text fill="#000000" font-family="sans-serif" font-size="14" lengthAdjust="spacing" textLength="150" x="219.5" y="430.4495">emotionVector: float[]</text><rect fill="none" height="6" style="stroke:#C82930;stroke-width:1.0;" width="6" x="207.5" y="440.3997"/><text fill="#000000" font-family="sans-serif" font-size="14" lengthAdjust="spacing" textLength="160" x="219.5" y="446.7464">microExpressions: Map</text><line style="stroke:#181818;stroke-width:0.5;" x1="200.5" x2="384.5" y1="454.0481" y2="454.0481"/><ellipse cx="210.5" cy="467.6966" fill="#84BE84" rx="3" ry="3" style="stroke:#038048;stroke-width:1.0;"/><text fill="#000000" font-family="sans-serif" font-size="14" lengthAdjust="spacing" textLength="107" x="219.5" y="471.0432">analyzeChunk()</text><ellipse cx="210.5" cy="483.9934" fill="#84BE84" rx="3" ry="3" style="stroke:#038048;stroke-width:1.0;"/><text fill="#000000" font-family="sans-serif" font-size="14" lengthAdjust="spacing" textLength="147" x="219.5" y="487.3401">getRealTimeMetrics()</text></g><!--class DialogueContext--><g id="elem_DialogueContext"><rect codeLine="38" fill="#F1F1F1" height="162.0781" id="DialogueContext" rx="2.5" ry="2.5" style="stroke:#181818;stroke-width:0.5;" width="278" x="226.5" y="571.6369"/><ellipse cx="303.75" cy="587.6369" fill="#ADD1B2" rx="11" ry="11" style="stroke:#181818;stroke-width:1.0;"/><path d="M306.7188,593.2775 Q306.1406,593.5744 305.5,593.715 Q304.8594,593.8712 304.1563,593.8712 Q301.6563,593.8712 300.3281,592.2306 Q299.0156,590.5744 299.0156,587.4494 Q299.0156,584.3244 300.3281,582.6681 Q301.6563,581.0119 304.1563,581.0119 Q304.8594,581.0119 305.5,581.1681 Q306.1563,581.3244 306.7188,581.6212 L306.7188,584.34 Q306.0938,583.7619 305.5,583.4962 Q304.9063,583.215 304.2813,583.215 Q302.9375,583.215 302.25,584.2931 Q301.5625,585.3556 301.5625,587.4494 Q301.5625,589.5431 302.25,590.6212 Q302.9375,591.6837 304.2813,591.6837 Q304.9063,591.6837 305.5,591.4181 Q306.0938,591.1369 306.7188,590.5587 L306.7188,593.2775 Z " fill="#000000"/><text fill="#000000" font-family="sans-serif" font-size="14" lengthAdjust="spacing" textLength="115" x="324.25" y="592.4836">DialogueContext</text><line style="stroke:#181818;stroke-width:0.5;" x1="227.5" x2="503.5" y1="603.6369" y2="603.6369"/><rect fill="none" height="6" style="stroke:#C82930;stroke-width:1.0;" width="6" x="234.5" y="614.2853"/><text fill="#000000" font-family="sans-serif" font-size="14" lengthAdjust="spacing" textLength="107" x="246.5" y="620.632">contextId: UUID</text><rect fill="none" height="6" style="stroke:#C82930;stroke-width:1.0;" width="6" x="234.5" y="630.5822"/><text fill="#000000" font-family="sans-serif" font-size="14" lengthAdjust="spacing" textLength="109" x="246.5" y="636.9289">sessionId: UUID</text><rect fill="none" height="6" style="stroke:#C82930;stroke-width:1.0;" width="6" x="234.5" y="646.8791"/><text fill="#000000" font-family="sans-serif" font-size="14" lengthAdjust="spacing" textLength="161" x="246.5" y="653.2257">currentQuestion: string</text><rect fill="none" height="6" style="stroke:#C82930;stroke-width:1.0;" width="6" x="234.5" y="663.1759"/><text fill="#000000" font-family="sans-serif" font-size="14" lengthAdjust="spacing" textLength="213" x="246.5" y="669.5226">previousAnswers: List&lt;string&gt;</text><rect fill="none" height="6" style="stroke:#C82930;stroke-width:1.0;" width="6" x="234.5" y="679.4728"/><text fill="#000000" font-family="sans-serif" font-size="14" lengthAdjust="spacing" textLength="252" x="246.5" y="685.8195">competenciesCovered: Set&lt;string&gt;</text><line style="stroke:#181818;stroke-width:0.5;" x1="227.5" x2="503.5" y1="693.1212" y2="693.1212"/><ellipse cx="237.5" cy="706.7697" fill="#84BE84" rx="3" ry="3" style="stroke:#038048;stroke-width:1.0;"/><text fill="#000000" font-family="sans-serif" font-size="14" lengthAdjust="spacing" textLength="167" x="246.5" y="710.1164">generateNextQuestion()</text><ellipse cx="237.5" cy="723.0666" fill="#84BE84" rx="3" ry="3" style="stroke:#038048;stroke-width:1.0;"/><text fill="#000000" font-family="sans-serif" font-size="14" lengthAdjust="spacing" textLength="113" x="246.5" y="726.4132">updateContext()</text></g><!--reverse link InterviewSession to MediaStream--><g id="link_InterviewSession_MediaStream"><path codeLine="48" d="M199.523,264.7241 C183.153,284.7841 173.74,296.3069 157.83,315.8069 " fill="none" id="InterviewSession-backto-MediaStream" style="stroke:#181818;stroke-width:1.0;"/><polygon fill="#181818" points="207.11,255.4269,200.2174,257.5465,199.523,264.7241,206.4156,262.6045,207.11,255.4269" style="stroke:#181818;stroke-width:1.0;"/><text fill="#000000" font-family="sans-serif" font-size="13" lengthAdjust="spacing" textLength="8" x="192.8248" y="275.454">1</text><text fill="#000000" font-family="sans-serif" font-size="13" lengthAdjust="spacing" textLength="23" x="139.6774" y="305.1376">1..*</text></g><!--reverse link InterviewSession to AIAnalysis--><g id="link_InterviewSession_AIAnalysis"><path codeLine="49" d="M292.5,267.4269 C292.5,287.4869 292.5,296.3069 292.5,315.8069 " fill="none" id="InterviewSession-backto-AIAnalysis" style="stroke:#181818;stroke-width:1.0;"/><polygon fill="#181818" points="292.5,255.4269,288.5,261.4269,292.5,267.4269,296.5,261.4269,292.5,255.4269" style="stroke:#181818;stroke-width:1.0;"/><text fill="#000000" font-family="sans-serif" font-size="13" lengthAdjust="spacing" textLength="8" x="284.2188" y="275.454">1</text><text fill="#000000" font-family="sans-serif" font-size="13" lengthAdjust="spacing" textLength="23" x="268.5836" y="305.1376">1..*</text></g><!--reverse link InterviewSession to DialogueContext--><g id="link_InterviewSession_DialogueContext"><path codeLine="50" d="M381.1562,266.0048 C392.4362,285.2148 396.22,295.4569 402.5,316.2669 C428.08,400.9469 410.61,502.4269 391.98,571.4269 " fill="none" id="InterviewSession-backto-DialogueContext" style="stroke:#181818;stroke-width:1.0;"/><polygon fill="#181818" points="375.08,255.6569,374.6688,262.8562,381.1562,266.0048,381.5674,258.8054,375.08,255.6569" style="stroke:#181818;stroke-width:1.0;"/><text fill="#000000" font-family="sans-serif" font-size="13" lengthAdjust="spacing" textLength="8" x="372.3596" y="275.3457">1</text><text fill="#000000" font-family="sans-serif" font-size="13" lengthAdjust="spacing" textLength="8" x="385.9821" y="560.5955">1</text></g><!--link AIAnalysis to DialogueContext--><g id="link_AIAnalysis_DialogueContext"><path codeLine="51" d="M318.85,494.9869 C326.29,519.9569 332.6184,541.2162 339.8984,565.6762 " fill="none" id="AIAnalysis-to-DialogueContext" style="stroke:#181818;stroke-width:1.0;"/><polygon fill="#181818" points="341.61,571.4269,342.8764,561.6598,340.1837,566.6346,335.2088,563.9419,341.61,571.4269" style="stroke:#181818;stroke-width:1.0;"/><text fill="#000000" font-family="sans-serif" font-size="13" lengthAdjust="spacing" textLength="52" x="332.19" y="537.7038">updates</text><text fill="#000000" font-family="sans-serif" font-size="13" lengthAdjust="spacing" textLength="8" x="312.631" y="514.7913">1</text><text fill="#000000" font-family="sans-serif" font-size="13" lengthAdjust="spacing" textLength="8" x="331.126" y="560.5955">1</text></g><!--SRC=[XPFFZjCm4CRlVGghfsLHLk8QePMgbaEaxKfiTxaW3iOUYhM97UnnjWKXyUS8WZjFWH18I0iyW_D6J19NRKf4bKCotqmylsziey8SMFWIRiFN-Yqz7rZu5Vw4x_NxS5j_PfCi2J_3x_fT-56_2T_gZ_MdqKZat3cMQGHRARXPW7FAQFPgn5Z2N1TbCcLNLzcirGJNKacEq5ChJhfOzpI7tEAbAY1bCwfllbeTj1nGgHgzIraaMBGXPUvswqJvw4uhqH9zeUJUGLzQ0iu1hHAEXDSRftEGYY_G0Yys9jkWJpxWkr8IpDH846dpYzBBLkPUgW7vXUUvmdNAbCQjYGiGnaggYOWEJRcl4NQ7HzFXk-IJRA9vldRAHN0UmuFeI3Ec_aMvDtAqN3jXrLEGbx32dW4e3D8wZq2WiIbxbXkEZv-qgK89QnwiIjkreZsRyx9bRubUmlIvrzTREnV0ywRdm6xC5C_DqiFKq05SOJGckkYWB-6j1OqFFRcZN8-Vw2fbl9jeTmEM6C-Km_jTmMdiKfI0e8K2DpKLM93DwTijQl0rM9hPEV5i-aHdlcnkGIJlJFrpZSRtnkmuIUXzSd8ytZry1skts_s_ql7-24SxnwH99ydfK1bB8x_x2m00]--></g></svg>