<svg xmlns="http://www.w3.org/2000/svg" xmlns:xlink="http://www.w3.org/1999/xlink" contentStyleType="text/css" height="1206px" preserveAspectRatio="none" style="width:349px;height:1206px;background:#FFFFFF;" version="1.1" viewBox="0 0 349 1206" width="349px" zoomAndPan="magnify"><defs/><g><text fill="#000000" font-family="sans-serif" font-size="14" font-weight="bold" lengthAdjust="spacing" textLength="306" x="20" y="32.9951">&#1055;&#1088;&#1086;&#1094;&#1077;&#1089;&#1089; &#1072;&#1085;&#1072;&#1083;&#1080;&#1079;&#1072; &#1080; &#1075;&#1077;&#1085;&#1077;&#1088;&#1072;&#1094;&#1080;&#1080; &#1086;&#1090;&#1095;&#1077;&#1090;&#1072;</text><ellipse cx="174.5" cy="57.2969" fill="#222222" rx="10" ry="10" style="stroke:#222222;stroke-width:1.0;"/><rect fill="#F1F1F1" height="33.9688" rx="12.5" ry="12.5" style="stroke:#181818;stroke-width:0.5;" width="253" x="48" y="87.2969"/><text fill="#000000" font-family="sans-serif" font-size="12" lengthAdjust="spacing" textLength="233" x="58" y="108.4355">&#1055;&#1086;&#1083;&#1091;&#1095;&#1077;&#1085;&#1080;&#1077; &#1089;&#1099;&#1088;&#1099;&#1093; &#1076;&#1072;&#1085;&#1085;&#1099;&#1093; &#1080;&#1085;&#1090;&#1077;&#1088;&#1074;&#1100;&#1102;</text><rect fill="none" height="298.1406" style="stroke:#000000;stroke-width:1.5;" width="313" x="18" y="131.2656"/><path d="M163,131.2656 L163,140.5625 L153,150.5625 L18,150.5625 " fill="none" style="stroke:#000000;stroke-width:1.5;"/><text fill="#000000" font-family="sans-serif" font-size="14" lengthAdjust="spacing" textLength="135" x="21" y="145.2607">&#1050;&#1086;&#1085;&#1074;&#1077;&#1081;&#1077;&#1088; &#1072;&#1085;&#1072;&#1083;&#1080;&#1079;&#1072;</text><rect fill="#F1F1F1" height="33.9688" rx="12.5" ry="12.5" style="stroke:#181818;stroke-width:0.5;" width="220" x="64.5" y="167.5625"/><text fill="#000000" font-family="sans-serif" font-size="12" lengthAdjust="spacing" textLength="200" x="74.5" y="188.7012">&#1058;&#1088;&#1072;&#1085;&#1089;&#1082;&#1088;&#1080;&#1073;&#1072;&#1094;&#1080;&#1103; &#1088;&#1077;&#1095;&#1080; (Whisper)</text><rect fill="#F1F1F1" height="33.9688" rx="12.5" ry="12.5" style="stroke:#181818;stroke-width:0.5;" width="231" x="59" y="221.5313"/><text fill="#000000" font-family="sans-serif" font-size="12" lengthAdjust="spacing" textLength="211" x="69" y="242.6699">&#1057;&#1077;&#1075;&#1084;&#1077;&#1085;&#1090;&#1072;&#1094;&#1080;&#1103; &#1087;&#1086; &#1082;&#1086;&#1084;&#1087;&#1077;&#1090;&#1077;&#1085;&#1094;&#1080;&#1103;&#1084;</text><rect fill="#F1F1F1" height="33.9688" rx="12.5" ry="12.5" style="stroke:#181818;stroke-width:0.5;" width="198" x="75.5" y="275.5"/><text fill="#000000" font-family="sans-serif" font-size="12" lengthAdjust="spacing" textLength="178" x="85.5" y="296.6387">&#1040;&#1085;&#1072;&#1083;&#1080;&#1079; &#1101;&#1084;&#1086;&#1094;&#1080;&#1081; (8 &#1073;&#1072;&#1079;&#1086;&#1074;&#1099;&#1093;)</text><rect fill="#F1F1F1" height="33.9688" rx="12.5" ry="12.5" style="stroke:#181818;stroke-width:0.5;" width="293" x="28" y="329.4688"/><text fill="#000000" font-family="sans-serif" font-size="12" lengthAdjust="spacing" textLength="273" x="38" y="350.6074">&#1040;&#1085;&#1072;&#1083;&#1080;&#1079; &#1084;&#1080;&#1082;&#1088;&#1086;&#1074;&#1099;&#1088;&#1072;&#1078;&#1077;&#1085;&#1080;&#1081; (43 &#1087;&#1072;&#1088;&#1072;&#1084;&#1077;&#1090;&#1088;&#1072;)</text><rect fill="#F1F1F1" height="33.9688" rx="12.5" ry="12.5" style="stroke:#181818;stroke-width:0.5;" width="256" x="46.5" y="383.4375"/><text fill="#000000" font-family="sans-serif" font-size="12" lengthAdjust="spacing" textLength="236" x="56.5" y="404.5762">&#1048;&#1079;&#1074;&#1083;&#1077;&#1095;&#1077;&#1085;&#1080;&#1077; &#1082;&#1083;&#1102;&#1095;&#1077;&#1074;&#1099;&#1093; &#1091;&#1090;&#1074;&#1077;&#1088;&#1078;&#1076;&#1077;&#1085;&#1080;&#1081;</text><rect fill="none" height="298.1406" style="stroke:#000000;stroke-width:1.5;" width="301" x="24" y="439.4063"/><path d="M146,439.4063 L146,448.7031 L136,458.7031 L24,458.7031 " fill="none" style="stroke:#000000;stroke-width:1.5;"/><text fill="#000000" font-family="sans-serif" font-size="14" lengthAdjust="spacing" textLength="112" x="27" y="453.4014">&#1057;&#1080;&#1085;&#1090;&#1077;&#1079; &#1086;&#1094;&#1077;&#1085;&#1082;&#1080;</text><rect fill="#F1F1F1" height="33.9688" rx="12.5" ry="12.5" style="stroke:#181818;stroke-width:0.5;" width="235" x="57" y="475.7031"/><text fill="#000000" font-family="sans-serif" font-size="12" lengthAdjust="spacing" textLength="215" x="67" y="496.8418">&#1057;&#1088;&#1072;&#1074;&#1085;&#1077;&#1085;&#1080;&#1077; &#1089; &#1101;&#1090;&#1072;&#1083;&#1086;&#1085;&#1086;&#1084; &#1074;&#1072;&#1082;&#1072;&#1085;&#1089;&#1080;&#1080;</text><rect fill="#F1F1F1" height="33.9688" rx="12.5" ry="12.5" style="stroke:#181818;stroke-width:0.5;" width="238" x="55.5" y="529.6719"/><text fill="#000000" font-family="sans-serif" font-size="12" lengthAdjust="spacing" textLength="218" x="65.5" y="550.8105">&#1056;&#1072;&#1089;&#1095;&#1077;&#1090; &#1073;&#1072;&#1083;&#1083;&#1086;&#1074; &#1087;&#1086; &#1082;&#1086;&#1084;&#1087;&#1077;&#1090;&#1077;&#1085;&#1094;&#1080;&#1103;&#1084;</text><rect fill="#F1F1F1" height="33.9688" rx="12.5" ry="12.5" style="stroke:#181818;stroke-width:0.5;" width="281" x="34" y="583.6406"/><text fill="#000000" font-family="sans-serif" font-size="12" lengthAdjust="spacing" textLength="261" x="44" y="604.7793">&#1054;&#1094;&#1077;&#1085;&#1082;&#1072; &#1101;&#1084;&#1086;&#1094;&#1080;&#1086;&#1085;&#1072;&#1083;&#1100;&#1085;&#1086;&#1075;&#1086; &#1089;&#1086;&#1086;&#1090;&#1074;&#1077;&#1090;&#1089;&#1090;&#1074;&#1080;&#1103;</text><rect fill="#F1F1F1" height="33.9688" rx="12.5" ry="12.5" style="stroke:#181818;stroke-width:0.5;" width="194" x="77.5" y="637.6094"/><text fill="#000000" font-family="sans-serif" font-size="12" lengthAdjust="spacing" textLength="174" x="87.5" y="658.748">&#1042;&#1099;&#1103;&#1074;&#1083;&#1077;&#1085;&#1080;&#1077; &#1088;&#1080;&#1089;&#1082;-&#1092;&#1072;&#1082;&#1090;&#1086;&#1088;&#1086;&#1074;</text><rect fill="#F1F1F1" height="33.9688" rx="12.5" ry="12.5" style="stroke:#181818;stroke-width:0.5;" width="221" x="64" y="691.5781"/><text fill="#000000" font-family="sans-serif" font-size="12" lengthAdjust="spacing" textLength="201" x="74" y="712.7168">&#1060;&#1086;&#1088;&#1084;&#1080;&#1088;&#1086;&#1074;&#1072;&#1085;&#1080;&#1077; &#1088;&#1077;&#1082;&#1086;&#1084;&#1077;&#1085;&#1076;&#1072;&#1094;&#1080;&#1080;</text><rect fill="none" height="298.1406" style="stroke:#000000;stroke-width:1.5;" width="294" x="27.5" y="747.5469"/><path d="M172.5,747.5469 L172.5,756.8438 L162.5,766.8438 L27.5,766.8438 " fill="none" style="stroke:#000000;stroke-width:1.5;"/><text fill="#000000" font-family="sans-serif" font-size="14" lengthAdjust="spacing" textLength="135" x="30.5" y="761.542">&#1043;&#1077;&#1085;&#1077;&#1088;&#1072;&#1094;&#1080;&#1103; &#1086;&#1090;&#1095;&#1077;&#1090;&#1072;</text><rect fill="#F1F1F1" height="33.9688" rx="12.5" ry="12.5" style="stroke:#181818;stroke-width:0.5;" width="161" x="94" y="783.8438"/><text fill="#000000" font-family="sans-serif" font-size="12" lengthAdjust="spacing" textLength="141" x="104" y="804.9824">&#1047;&#1072;&#1087;&#1086;&#1083;&#1085;&#1077;&#1085;&#1080;&#1077; &#1096;&#1072;&#1073;&#1083;&#1086;&#1085;&#1072;</text><rect fill="#F1F1F1" height="33.9688" rx="12.5" ry="12.5" style="stroke:#181818;stroke-width:0.5;" width="235" x="57" y="837.8125"/><text fill="#000000" font-family="sans-serif" font-size="12" lengthAdjust="spacing" textLength="215" x="67" y="858.9512">&#1055;&#1088;&#1080;&#1082;&#1088;&#1077;&#1087;&#1083;&#1077;&#1085;&#1080;&#1077; &#1074;&#1088;&#1077;&#1084;&#1077;&#1085;&#1085;&#1099;&#1093; &#1084;&#1077;&#1090;&#1086;&#1082;</text><rect fill="#F1F1F1" height="33.9688" rx="12.5" ry="12.5" style="stroke:#181818;stroke-width:0.5;" width="274" x="37.5" y="891.7813"/><text fill="#000000" font-family="sans-serif" font-size="12" lengthAdjust="spacing" textLength="254" x="47.5" y="912.9199">&#1057;&#1086;&#1079;&#1076;&#1072;&#1085;&#1080;&#1077; &#1089;&#1089;&#1099;&#1083;&#1086;&#1082; &#1085;&#1072; &#1074;&#1080;&#1076;&#1077;&#1086;&#1092;&#1088;&#1072;&#1075;&#1084;&#1077;&#1085;&#1090;&#1099;</text><rect fill="#F1F1F1" height="33.9688" rx="12.5" ry="12.5" style="stroke:#181818;stroke-width:0.5;" width="266" x="41.5" y="945.75"/><text fill="#000000" font-family="sans-serif" font-size="12" lengthAdjust="spacing" textLength="246" x="51.5" y="966.8887">&#1043;&#1077;&#1085;&#1077;&#1088;&#1072;&#1094;&#1080;&#1103; &#1075;&#1088;&#1072;&#1092;&#1080;&#1082;&#1086;&#1074; &#1080; &#1074;&#1080;&#1079;&#1091;&#1072;&#1083;&#1080;&#1079;&#1072;&#1094;&#1080;&#1081;</text><rect fill="#F1F1F1" height="33.9688" rx="12.5" ry="12.5" style="stroke:#181818;stroke-width:0.5;" width="145" x="102" y="999.7188"/><text fill="#000000" font-family="sans-serif" font-size="12" lengthAdjust="spacing" textLength="125" x="112" y="1020.8574">&#1042;&#1072;&#1083;&#1080;&#1076;&#1072;&#1094;&#1080;&#1103; &#1086;&#1090;&#1095;&#1077;&#1090;&#1072;</text><rect fill="#F1F1F1" height="33.9688" rx="12.5" ry="12.5" style="stroke:#181818;stroke-width:0.5;" width="131" x="109" y="1065.6875"/><text fill="#000000" font-family="sans-serif" font-size="12" lengthAdjust="spacing" textLength="111" x="119" y="1086.8262">&#1057;&#1086;&#1093;&#1088;&#1072;&#1085;&#1077;&#1085;&#1080;&#1077; &#1074; &#1041;&#1044;</text><rect fill="#F1F1F1" height="33.9688" rx="12.5" ry="12.5" style="stroke:#181818;stroke-width:0.5;" width="128" x="110.5" y="1119.6563"/><text fill="#000000" font-family="sans-serif" font-size="12" lengthAdjust="spacing" textLength="108" x="120.5" y="1140.7949">&#1059;&#1074;&#1077;&#1076;&#1086;&#1084;&#1083;&#1077;&#1085;&#1080;&#1077; HR</text><ellipse cx="174.5" cy="1184.625" fill="none" rx="11" ry="11" style="stroke:#222222;stroke-width:1.0;"/><ellipse cx="174.5" cy="1184.625" fill="#222222" rx="6" ry="6" style="stroke:#222222;stroke-width:1.0;"/><line style="stroke:#181818;stroke-width:1.0;" x1="174.5" x2="174.5" y1="67.2969" y2="87.2969"/><polygon fill="#181818" points="170.5,77.2969,174.5,87.2969,178.5,77.2969,174.5,81.2969" style="stroke:#181818;stroke-width:1.0;"/><line style="stroke:#181818;stroke-width:1.0;" x1="174.5" x2="174.5" y1="201.5313" y2="221.5313"/><polygon fill="#181818" points="170.5,211.5313,174.5,221.5313,178.5,211.5313,174.5,215.5313" style="stroke:#181818;stroke-width:1.0;"/><line style="stroke:#181818;stroke-width:1.0;" x1="174.5" x2="174.5" y1="255.5" y2="275.5"/><polygon fill="#181818" points="170.5,265.5,174.5,275.5,178.5,265.5,174.5,269.5" style="stroke:#181818;stroke-width:1.0;"/><line style="stroke:#181818;stroke-width:1.0;" x1="174.5" x2="174.5" y1="309.4688" y2="329.4688"/><polygon fill="#181818" points="170.5,319.4688,174.5,329.4688,178.5,319.4688,174.5,323.4688" style="stroke:#181818;stroke-width:1.0;"/><line style="stroke:#181818;stroke-width:1.0;" x1="174.5" x2="174.5" y1="363.4375" y2="383.4375"/><polygon fill="#181818" points="170.5,373.4375,174.5,383.4375,178.5,373.4375,174.5,377.4375" style="stroke:#181818;stroke-width:1.0;"/><line style="stroke:#181818;stroke-width:1.0;" x1="174.5" x2="174.5" y1="121.2656" y2="167.5625"/><polygon fill="#181818" points="170.5,157.5625,174.5,167.5625,178.5,157.5625,174.5,161.5625" style="stroke:#181818;stroke-width:1.0;"/><line style="stroke:#181818;stroke-width:1.0;" x1="174.5" x2="174.5" y1="509.6719" y2="529.6719"/><polygon fill="#181818" points="170.5,519.6719,174.5,529.6719,178.5,519.6719,174.5,523.6719" style="stroke:#181818;stroke-width:1.0;"/><line style="stroke:#181818;stroke-width:1.0;" x1="174.5" x2="174.5" y1="563.6406" y2="583.6406"/><polygon fill="#181818" points="170.5,573.6406,174.5,583.6406,178.5,573.6406,174.5,577.6406" style="stroke:#181818;stroke-width:1.0;"/><line style="stroke:#181818;stroke-width:1.0;" x1="174.5" x2="174.5" y1="617.6094" y2="637.6094"/><polygon fill="#181818" points="170.5,627.6094,174.5,637.6094,178.5,627.6094,174.5,631.6094" style="stroke:#181818;stroke-width:1.0;"/><line style="stroke:#181818;stroke-width:1.0;" x1="174.5" x2="174.5" y1="671.5781" y2="691.5781"/><polygon fill="#181818" points="170.5,681.5781,174.5,691.5781,178.5,681.5781,174.5,685.5781" style="stroke:#181818;stroke-width:1.0;"/><line style="stroke:#181818;stroke-width:1.0;" x1="174.5" x2="174.5" y1="417.4063" y2="475.7031"/><polygon fill="#181818" points="170.5,465.7031,174.5,475.7031,178.5,465.7031,174.5,469.7031" style="stroke:#181818;stroke-width:1.0;"/><line style="stroke:#181818;stroke-width:1.0;" x1="174.5" x2="174.5" y1="817.8125" y2="837.8125"/><polygon fill="#181818" points="170.5,827.8125,174.5,837.8125,178.5,827.8125,174.5,831.8125" style="stroke:#181818;stroke-width:1.0;"/><line style="stroke:#181818;stroke-width:1.0;" x1="174.5" x2="174.5" y1="871.7813" y2="891.7813"/><polygon fill="#181818" points="170.5,881.7813,174.5,891.7813,178.5,881.7813,174.5,885.7813" style="stroke:#181818;stroke-width:1.0;"/><line style="stroke:#181818;stroke-width:1.0;" x1="174.5" x2="174.5" y1="925.75" y2="945.75"/><polygon fill="#181818" points="170.5,935.75,174.5,945.75,178.5,935.75,174.5,939.75" style="stroke:#181818;stroke-width:1.0;"/><line style="stroke:#181818;stroke-width:1.0;" x1="174.5" x2="174.5" y1="979.7188" y2="999.7188"/><polygon fill="#181818" points="170.5,989.7188,174.5,999.7188,178.5,989.7188,174.5,993.7188" style="stroke:#181818;stroke-width:1.0;"/><line style="stroke:#181818;stroke-width:1.0;" x1="174.5" x2="174.5" y1="725.5469" y2="783.8438"/><polygon fill="#181818" points="170.5,773.8438,174.5,783.8438,178.5,773.8438,174.5,777.8438" style="stroke:#181818;stroke-width:1.0;"/><line style="stroke:#181818;stroke-width:1.0;" x1="174.5" x2="174.5" y1="1033.6875" y2="1065.6875"/><polygon fill="#181818" points="170.5,1055.6875,174.5,1065.6875,178.5,1055.6875,174.5,1059.6875" style="stroke:#181818;stroke-width:1.0;"/><line style="stroke:#181818;stroke-width:1.0;" x1="174.5" x2="174.5" y1="1099.6563" y2="1119.6563"/><polygon fill="#181818" points="170.5,1109.6563,174.5,1119.6563,178.5,1109.6563,174.5,1113.6563" style="stroke:#181818;stroke-width:1.0;"/><line style="stroke:#181818;stroke-width:1.0;" x1="174.5" x2="174.5" y1="1153.625" y2="1173.625"/><polygon fill="#181818" points="170.5,1163.625,174.5,1173.625,178.5,1163.625,174.5,1167.625" style="stroke:#181818;stroke-width:1.0;"/><!--SRC=[ZLIzRjH04Exz5ADKIK451OfVW9g6cY8I9o5oIjmXfDYv1AJyyIU1A3WEU037PoSRtztUAyo-KRwPMTyv90M5fTtPcM- - -MR6sI1xlKCy3WVimp4t8GyvSSaBV3DsVCqbiIEUSWDR0xSIRavCFXJXFKm5bqcodxtSov9j7hFdMJYK1_WxRWY89-40tn5nhSWBkpWS2eMimcauJvDa28n1DjXzGnly0q0BhW1p8px_SDgWjmdHDlyMGi39kSN9yQNH2nU4QmCMZZPVl1hi3tVsjbADc01nodEX9yoZDo_P4xV8ESTHQf9tVUEv1NvSvwTm1Z-lGjpGvbEIlA3bKGbAsxeV07Ud5Cr5I5z5XG3mvB4GADKyb-noYYZVWLi1fUb92gApSAu6JKWGl12j47S5aIDmchoxg-caqrmOQRlXsBBhr9meWqeQlMeUQXMTm43w0Nq83YMYJ7PCWl7y1VwvpOF9CTEGwd-a_RcYKlQbzIPWEDN4Ky0WePUvqreBv9CJW0pcCxIuCB4w-fW9cOr7OIISuUwj1nRmLwzeZHbrn69O4naBKjtD_3r1lzpT2XcatbPqidu3y5BseY_i1nWlewgbqHdh2BUQVTch0aqMav69owDZWk2scsgFEQdN5UIoTWhVacIGhZaT3Hz6skRL4eGJmtYWcAbUHiBAUkaCvpeShdVHrY2s89hh1mLH_PHiEBB5xTL8_8c_fdZ-erjVg_nh4PuzJ_6JsHtU0W00]--></g></svg>