<svg xmlns="http://www.w3.org/2000/svg" xmlns:xlink="http://www.w3.org/1999/xlink" contentStyleType="text/css" height="1204px" preserveAspectRatio="none" style="width:741px;height:1204px;background:#FFFFFF;" version="1.1" viewBox="0 0 741 1204" width="741px" zoomAndPan="magnify"><defs/><g><text fill="#000000" font-family="sans-serif" font-size="14" font-weight="bold" lengthAdjust="spacing" textLength="291" x="223.5" y="32.9951">&#1055;&#1088;&#1086;&#1094;&#1077;&#1089;&#1089; &#1086;&#1073;&#1088;&#1072;&#1073;&#1086;&#1090;&#1082;&#1080; &#1055;&#1044;&#1085; &#1087;&#1086; 152-&#1060;&#1047;</text><ellipse cx="370.5" cy="57.2969" fill="#222222" rx="10" ry="10" style="stroke:#222222;stroke-width:1.0;"/><rect fill="#F1F1F1" height="33.9688" rx="12.5" ry="12.5" style="stroke:#181818;stroke-width:0.5;" width="244" x="248.5" y="135.6992"/><text fill="#000000" font-family="sans-serif" font-size="12" lengthAdjust="spacing" textLength="224" x="258.5" y="156.8379">&#1055;&#1088;&#1077;&#1076;&#1086;&#1089;&#1090;&#1072;&#1074;&#1083;&#1077;&#1085;&#1080;&#1077; &#1092;&#1086;&#1088;&#1084;&#1099; &#1089;&#1086;&#1075;&#1083;&#1072;&#1089;&#1080;&#1103;</text><rect fill="#F1F1F1" height="33.9688" rx="12.5" ry="12.5" style="stroke:#181818;stroke-width:0.5;" width="219" x="261" y="189.668"/><text fill="#000000" font-family="sans-serif" font-size="12" lengthAdjust="spacing" textLength="199" x="271" y="210.8066">&#1054;&#1073;&#1098;&#1103;&#1089;&#1085;&#1077;&#1085;&#1080;&#1077; &#1094;&#1077;&#1083;&#1077;&#1081; &#1086;&#1073;&#1088;&#1072;&#1073;&#1086;&#1090;&#1082;&#1080;</text><rect fill="#F1F1F1" height="33.9688" rx="12.5" ry="12.5" style="stroke:#181818;stroke-width:0.5;" width="184" x="278.5" y="243.6367"/><text fill="#000000" font-family="sans-serif" font-size="12" lengthAdjust="spacing" textLength="164" x="288.5" y="264.7754">&#1055;&#1086;&#1083;&#1091;&#1095;&#1077;&#1085;&#1080;&#1077; &#1069;&#1062;&#1055; &#1089;&#1086;&#1075;&#1083;&#1072;&#1089;&#1080;&#1103;</text><rect fill="#F1F1F1" height="33.9688" rx="12.5" ry="12.5" style="stroke:#181818;stroke-width:0.5;" width="249" x="246" y="297.6055"/><text fill="#000000" font-family="sans-serif" font-size="12" lengthAdjust="spacing" textLength="229" x="256" y="318.7441">&#1042;&#1072;&#1083;&#1080;&#1076;&#1072;&#1094;&#1080;&#1103; &#1087;&#1086;&#1076;&#1087;&#1080;&#1089;&#1080; (&#1043;&#1054;&#1057;&#1058; &#1056; 34.10)</text><rect fill="#F1F1F1" height="33.9688" rx="12.5" ry="12.5" style="stroke:#181818;stroke-width:0.5;" width="193" x="274" y="351.5742"/><text fill="#000000" font-family="sans-serif" font-size="12" lengthAdjust="spacing" textLength="173" x="284" y="372.7129">&#1047;&#1072;&#1087;&#1080;&#1089;&#1100; &#1074; &#1088;&#1077;&#1077;&#1089;&#1090;&#1088; &#1089;&#1086;&#1075;&#1083;&#1072;&#1089;&#1080;&#1081;</text><polygon fill="#F1F1F1" points="317.5,87.2969,423.5,87.2969,435.5,99.2969,423.5,111.2969,317.5,111.2969,305.5,99.2969,317.5,87.2969" style="stroke:#181818;stroke-width:0.5;"/><text fill="#000000" font-family="sans-serif" font-size="11" lengthAdjust="spacing" textLength="17" x="374.5" y="121.5073">&#1044;&#1072;</text><text fill="#000000" font-family="sans-serif" font-size="11" lengthAdjust="spacing" textLength="106" x="317.5" y="103.105">&#1053;&#1086;&#1074;&#1099;&#1081; &#1082;&#1072;&#1085;&#1076;&#1080;&#1076;&#1072;&#1090;?</text><text fill="#000000" font-family="sans-serif" font-size="11" lengthAdjust="spacing" textLength="94" x="435.5" y="96.7026">&#1057;&#1091;&#1097;&#1077;&#1089;&#1090;&#1074;&#1091;&#1102;&#1097;&#1080;&#1081;</text><polygon fill="#F1F1F1" points="370.5,405.543,382.5,417.543,370.5,429.543,358.5,417.543,370.5,405.543" style="stroke:#181818;stroke-width:0.5;"/><rect fill="none" height="244.1719" style="stroke:#000000;stroke-width:1.5;" width="292" x="224.5" y="439.543"/><path d="M372.5,439.543 L372.5,448.8398 L362.5,458.8398 L224.5,458.8398 " fill="none" style="stroke:#000000;stroke-width:1.5;"/><text fill="#000000" font-family="sans-serif" font-size="14" lengthAdjust="spacing" textLength="138" x="227.5" y="453.5381">&#1054;&#1073;&#1088;&#1072;&#1073;&#1086;&#1090;&#1082;&#1072; &#1076;&#1072;&#1085;&#1085;&#1099;&#1093;</text><rect fill="#F1F1F1" height="33.9688" rx="12.5" ry="12.5" style="stroke:#181818;stroke-width:0.5;" width="272" x="234.5" y="475.8398"/><text fill="#000000" font-family="sans-serif" font-size="12" lengthAdjust="spacing" textLength="252" x="244.5" y="496.9785">&#1064;&#1080;&#1092;&#1088;&#1086;&#1074;&#1072;&#1085;&#1080;&#1077; AES-256 &#1087;&#1088;&#1080; &#1089;&#1086;&#1093;&#1088;&#1072;&#1085;&#1077;&#1085;&#1080;&#1080;</text><rect fill="#F1F1F1" height="33.9688" rx="12.5" ry="12.5" style="stroke:#181818;stroke-width:0.5;" width="266" x="237.5" y="529.8086"/><text fill="#000000" font-family="sans-serif" font-size="12" lengthAdjust="spacing" textLength="246" x="247.5" y="550.9473">&#1055;&#1088;&#1080;&#1084;&#1077;&#1085;&#1077;&#1085;&#1080;&#1077; &#1087;&#1086;&#1083;&#1080;&#1090;&#1080;&#1082; &#1076;&#1086;&#1089;&#1090;&#1091;&#1087;&#1072; (RBAC)</text><rect fill="#F1F1F1" height="33.9688" rx="12.5" ry="12.5" style="stroke:#181818;stroke-width:0.5;" width="208" x="266.5" y="583.7773"/><text fill="#000000" font-family="sans-serif" font-size="12" lengthAdjust="spacing" textLength="188" x="276.5" y="604.916">&#1051;&#1086;&#1075;&#1080;&#1088;&#1086;&#1074;&#1072;&#1085;&#1080;&#1077; &#1074;&#1089;&#1077;&#1093; &#1086;&#1087;&#1077;&#1088;&#1072;&#1094;&#1080;&#1081;</text><rect fill="#F1F1F1" height="33.9688" rx="12.5" ry="12.5" style="stroke:#181818;stroke-width:0.5;" width="246" x="247.5" y="637.7461"/><text fill="#000000" font-family="sans-serif" font-size="12" lengthAdjust="spacing" textLength="226" x="257.5" y="658.8848">&#1054;&#1073;&#1077;&#1089;&#1087;&#1077;&#1095;&#1077;&#1085;&#1080;&#1077; &#1094;&#1077;&#1083;&#1086;&#1089;&#1090;&#1085;&#1086;&#1089;&#1090;&#1080; (&#1093;&#1077;&#1096;&#1080;)</text><rect fill="none" height="295.6172" style="stroke:#000000;stroke-width:1.5;" width="719" x="11" y="693.7148"/><path d="M165,693.7148 L165,703.0117 L155,713.0117 L11,713.0117 " fill="none" style="stroke:#000000;stroke-width:1.5;"/><text fill="#000000" font-family="sans-serif" font-size="14" lengthAdjust="spacing" textLength="144" x="14" y="707.71">&#1047;&#1072;&#1087;&#1088;&#1086;&#1089;&#1099; &#1089;&#1091;&#1073;&#1098;&#1077;&#1082;&#1090;&#1086;&#1074;</text><polygon fill="#F1F1F1" points="99,733.0117,177,733.0117,189,745.0117,177,757.0117,99,757.0117,87,745.0117,99,733.0117" style="stroke:#181818;stroke-width:0.5;"/><text fill="#000000" font-family="sans-serif" font-size="11" lengthAdjust="spacing" textLength="43" x="142" y="767.2222">&#1044;&#1086;&#1089;&#1090;&#1091;&#1087;</text><text fill="#000000" font-family="sans-serif" font-size="11" lengthAdjust="spacing" textLength="78" x="99" y="748.8198">&#1058;&#1080;&#1087; &#1079;&#1072;&#1087;&#1088;&#1086;&#1089;&#1072;?</text><rect fill="#F1F1F1" height="33.9688" rx="12.5" ry="12.5" style="stroke:#181818;stroke-width:0.5;" width="194" x="41" y="789.8164"/><text fill="#000000" font-family="sans-serif" font-size="12" lengthAdjust="spacing" textLength="174" x="51" y="810.9551">&#1048;&#1076;&#1077;&#1085;&#1090;&#1080;&#1092;&#1080;&#1082;&#1072;&#1094;&#1080;&#1103; &#1089;&#1091;&#1073;&#1098;&#1077;&#1082;&#1090;&#1072;</text><rect fill="#F1F1F1" height="33.9688" rx="12.5" ry="12.5" style="stroke:#181818;stroke-width:0.5;" width="177" x="49.5" y="856.5898"/><text fill="#000000" font-family="sans-serif" font-size="12" lengthAdjust="spacing" textLength="157" x="59.5" y="877.7285">&#1060;&#1086;&#1088;&#1084;&#1080;&#1088;&#1086;&#1074;&#1072;&#1085;&#1080;&#1077; &#1074;&#1099;&#1087;&#1080;&#1089;&#1082;&#1080;</text><rect fill="#F1F1F1" height="33.9688" rx="12.5" ry="12.5" style="stroke:#181818;stroke-width:0.5;" width="234" x="21" y="923.3633"/><text fill="#000000" font-family="sans-serif" font-size="12" lengthAdjust="spacing" textLength="214" x="31" y="944.502">&#1054;&#1090;&#1087;&#1088;&#1072;&#1074;&#1082;&#1072; &#1074; &#1091;&#1089;&#1090;&#1072;&#1085;&#1086;&#1074;&#1083;&#1077;&#1085;&#1085;&#1099;&#1081; &#1089;&#1088;&#1086;&#1082;</text><polygon fill="#F1F1F1" points="351.5,733.0117,428.5,733.0117,440.5,745.0117,428.5,757.0117,351.5,757.0117,339.5,745.0117,351.5,733.0117" style="stroke:#181818;stroke-width:0.5;"/><text fill="#000000" font-family="sans-serif" font-size="11" lengthAdjust="spacing" textLength="77" x="351.5" y="748.8198">&#1048;&#1089;&#1087;&#1088;&#1072;&#1074;&#1083;&#1077;&#1085;&#1080;&#1077;</text><text fill="#000000" font-family="sans-serif" font-size="11" lengthAdjust="spacing" textLength="56" x="440.5" y="742.4175">&#1059;&#1076;&#1072;&#1083;&#1077;&#1085;&#1080;&#1077;</text><rect fill="#F1F1F1" height="33.9688" rx="12.5" ry="12.5" style="stroke:#181818;stroke-width:0.5;" width="182" x="299" y="777.0117"/><text fill="#000000" font-family="sans-serif" font-size="12" lengthAdjust="spacing" textLength="162" x="309" y="798.1504">&#1055;&#1088;&#1086;&#1074;&#1077;&#1088;&#1082;&#1072; &#1082;&#1086;&#1088;&#1088;&#1077;&#1082;&#1090;&#1085;&#1086;&#1089;&#1090;&#1080;</text><rect fill="#F1F1F1" height="33.9688" rx="12.5" ry="12.5" style="stroke:#181818;stroke-width:0.5;" width="159" x="310.5" y="843.7852"/><text fill="#000000" font-family="sans-serif" font-size="12" lengthAdjust="spacing" textLength="139" x="320.5" y="864.9238">&#1042;&#1085;&#1077;&#1089;&#1077;&#1085;&#1080;&#1077; &#1080;&#1079;&#1084;&#1077;&#1085;&#1077;&#1085;&#1080;&#1081;</text><rect fill="#F1F1F1" height="33.9688" rx="12.5" ry="12.5" style="stroke:#181818;stroke-width:0.5;" width="230" x="275" y="910.5586"/><text fill="#000000" font-family="sans-serif" font-size="12" lengthAdjust="spacing" textLength="210" x="285" y="931.6973">&#1059;&#1074;&#1077;&#1076;&#1086;&#1084;&#1083;&#1077;&#1085;&#1080;&#1077; &#1089;&#1074;&#1103;&#1079;&#1072;&#1085;&#1085;&#1099;&#1093; &#1089;&#1080;&#1089;&#1090;&#1077;&#1084;</text><rect fill="#F1F1F1" height="33.9688" rx="12.5" ry="12.5" style="stroke:#181818;stroke-width:0.5;" width="157" x="544" y="786.4141"/><text fill="#000000" font-family="sans-serif" font-size="12" lengthAdjust="spacing" textLength="137" x="554" y="807.5527">&#1055;&#1088;&#1086;&#1074;&#1077;&#1088;&#1082;&#1072; &#1086;&#1089;&#1085;&#1086;&#1074;&#1072;&#1085;&#1080;&#1081;</text><rect fill="#F1F1F1" height="33.9688" rx="12.5" ry="12.5" style="stroke:#181818;stroke-width:0.5;" width="187" x="529" y="853.1875"/><text fill="#000000" font-family="sans-serif" font-size="12" lengthAdjust="spacing" textLength="167" x="539" y="874.3262">&#1041;&#1077;&#1079;&#1074;&#1086;&#1079;&#1074;&#1088;&#1072;&#1090;&#1085;&#1086;&#1077; &#1091;&#1076;&#1072;&#1083;&#1077;&#1085;&#1080;&#1077;</text><rect fill="#F1F1F1" height="33.9688" rx="12.5" ry="12.5" style="stroke:#181818;stroke-width:0.5;" width="195" x="525" y="919.9609"/><text fill="#000000" font-family="sans-serif" font-size="12" lengthAdjust="spacing" textLength="175" x="535" y="941.0996">&#1055;&#1086;&#1076;&#1090;&#1074;&#1077;&#1088;&#1078;&#1076;&#1077;&#1085;&#1080;&#1077; &#1091;&#1076;&#1072;&#1083;&#1077;&#1085;&#1080;&#1103;</text><rect fill="#F1F1F1" height="33.9688" rx="12.5" ry="12.5" style="stroke:#181818;stroke-width:0.5;" width="282" x="229.5" y="1009.332"/><text fill="#000000" font-family="sans-serif" font-size="12" lengthAdjust="spacing" textLength="262" x="239.5" y="1030.4707">&#1045;&#1078;&#1077;&#1076;&#1085;&#1077;&#1074;&#1085;&#1072;&#1103; &#1087;&#1088;&#1086;&#1074;&#1077;&#1088;&#1082;&#1072; &#1089;&#1088;&#1086;&#1082;&#1086;&#1074; &#1093;&#1088;&#1072;&#1085;&#1077;&#1085;&#1080;&#1103;</text><rect fill="#F1F1F1" height="33.9688" rx="12.5" ry="12.5" style="stroke:#181818;stroke-width:0.5;" width="346" x="197.5" y="1063.3008"/><text fill="#000000" font-family="sans-serif" font-size="12" lengthAdjust="spacing" textLength="326" x="207.5" y="1084.4395">&#1040;&#1074;&#1090;&#1086;&#1084;&#1072;&#1090;&#1080;&#1095;&#1077;&#1089;&#1082;&#1086;&#1077; &#1091;&#1076;&#1072;&#1083;&#1077;&#1085;&#1080;&#1077; &#1087;&#1088;&#1086;&#1089;&#1088;&#1086;&#1095;&#1077;&#1085;&#1085;&#1099;&#1093; &#1076;&#1072;&#1085;&#1085;&#1099;&#1093;</text><rect fill="#F1F1F1" height="33.9688" rx="12.5" ry="12.5" style="stroke:#181818;stroke-width:0.5;" width="313" x="214" y="1117.2695"/><text fill="#000000" font-family="sans-serif" font-size="12" lengthAdjust="spacing" textLength="293" x="224" y="1138.4082">&#1060;&#1086;&#1088;&#1084;&#1080;&#1088;&#1086;&#1074;&#1072;&#1085;&#1080;&#1077; &#1086;&#1090;&#1095;&#1077;&#1090;&#1086;&#1074; &#1076;&#1083;&#1103; &#1056;&#1086;&#1089;&#1082;&#1086;&#1084;&#1085;&#1072;&#1076;&#1079;&#1086;&#1088;&#1072;</text><ellipse cx="370.5" cy="1182.2383" fill="none" rx="11" ry="11" style="stroke:#222222;stroke-width:1.0;"/><ellipse cx="370.5" cy="1182.2383" fill="#222222" rx="6" ry="6" style="stroke:#222222;stroke-width:1.0;"/><line style="stroke:#181818;stroke-width:1.0;" x1="370.5" x2="370.5" y1="169.668" y2="189.668"/><polygon fill="#181818" points="366.5,179.668,370.5,189.668,374.5,179.668,370.5,183.668" style="stroke:#181818;stroke-width:1.0;"/><line style="stroke:#181818;stroke-width:1.0;" x1="370.5" x2="370.5" y1="223.6367" y2="243.6367"/><polygon fill="#181818" points="366.5,233.6367,370.5,243.6367,374.5,233.6367,370.5,237.6367" style="stroke:#181818;stroke-width:1.0;"/><line style="stroke:#181818;stroke-width:1.0;" x1="370.5" x2="370.5" y1="277.6055" y2="297.6055"/><polygon fill="#181818" points="366.5,287.6055,370.5,297.6055,374.5,287.6055,370.5,291.6055" style="stroke:#181818;stroke-width:1.0;"/><line style="stroke:#181818;stroke-width:1.0;" x1="370.5" x2="370.5" y1="331.5742" y2="351.5742"/><polygon fill="#181818" points="366.5,341.5742,370.5,351.5742,374.5,341.5742,370.5,345.5742" style="stroke:#181818;stroke-width:1.0;"/><line style="stroke:#181818;stroke-width:1.0;" x1="370.5" x2="370.5" y1="111.2969" y2="135.6992"/><polygon fill="#181818" points="366.5,125.6992,370.5,135.6992,374.5,125.6992,370.5,129.6992" style="stroke:#181818;stroke-width:1.0;"/><line style="stroke:#181818;stroke-width:1.0;" x1="435.5" x2="505" y1="99.2969" y2="99.2969"/><polygon fill="#181818" points="501,250.6211,505,260.6211,509,250.6211,505,254.6211" style="stroke:#181818;stroke-width:1.0;"/><line style="stroke:#181818;stroke-width:1.0;" x1="505" x2="505" y1="99.2969" y2="417.543"/><line style="stroke:#181818;stroke-width:1.0;" x1="505" x2="382.5" y1="417.543" y2="417.543"/><polygon fill="#181818" points="392.5,413.543,382.5,417.543,392.5,421.543,388.5,417.543" style="stroke:#181818;stroke-width:1.0;"/><line style="stroke:#181818;stroke-width:1.0;" x1="370.5" x2="370.5" y1="385.543" y2="405.543"/><polygon fill="#181818" points="366.5,395.543,370.5,405.543,374.5,395.543,370.5,399.543" style="stroke:#181818;stroke-width:1.0;"/><line style="stroke:#181818;stroke-width:1.0;" x1="370.5" x2="370.5" y1="67.2969" y2="87.2969"/><polygon fill="#181818" points="366.5,77.2969,370.5,87.2969,374.5,77.2969,370.5,81.2969" style="stroke:#181818;stroke-width:1.0;"/><line style="stroke:#181818;stroke-width:1.0;" x1="370.5" x2="370.5" y1="509.8086" y2="529.8086"/><polygon fill="#181818" points="366.5,519.8086,370.5,529.8086,374.5,519.8086,370.5,523.8086" style="stroke:#181818;stroke-width:1.0;"/><line style="stroke:#181818;stroke-width:1.0;" x1="370.5" x2="370.5" y1="563.7773" y2="583.7773"/><polygon fill="#181818" points="366.5,573.7773,370.5,583.7773,374.5,573.7773,370.5,577.7773" style="stroke:#181818;stroke-width:1.0;"/><line style="stroke:#181818;stroke-width:1.0;" x1="370.5" x2="370.5" y1="617.7461" y2="637.7461"/><polygon fill="#181818" points="366.5,627.7461,370.5,637.7461,374.5,627.7461,370.5,631.7461" style="stroke:#181818;stroke-width:1.0;"/><line style="stroke:#181818;stroke-width:1.0;" x1="370.5" x2="370.5" y1="429.543" y2="475.8398"/><polygon fill="#181818" points="366.5,465.8398,370.5,475.8398,374.5,465.8398,370.5,469.8398" style="stroke:#181818;stroke-width:1.0;"/><line style="stroke:#181818;stroke-width:1.0;" x1="138" x2="138" y1="823.7852" y2="856.5898"/><polygon fill="#181818" points="134,846.5898,138,856.5898,142,846.5898,138,850.5898" style="stroke:#181818;stroke-width:1.0;"/><line style="stroke:#181818;stroke-width:1.0;" x1="138" x2="138" y1="890.5586" y2="923.3633"/><polygon fill="#181818" points="134,913.3633,138,923.3633,142,913.3633,138,917.3633" style="stroke:#181818;stroke-width:1.0;"/><line style="stroke:#181818;stroke-width:1.0;" x1="390" x2="390" y1="810.9805" y2="843.7852"/><polygon fill="#181818" points="386,833.7852,390,843.7852,394,833.7852,390,837.7852" style="stroke:#181818;stroke-width:1.0;"/><line style="stroke:#181818;stroke-width:1.0;" x1="390" x2="390" y1="877.7539" y2="910.5586"/><polygon fill="#181818" points="386,900.5586,390,910.5586,394,900.5586,390,904.5586" style="stroke:#181818;stroke-width:1.0;"/><line style="stroke:#181818;stroke-width:1.0;" x1="622.5" x2="622.5" y1="820.3828" y2="853.1875"/><polygon fill="#181818" points="618.5,843.1875,622.5,853.1875,626.5,843.1875,622.5,847.1875" style="stroke:#181818;stroke-width:1.0;"/><line style="stroke:#181818;stroke-width:1.0;" x1="622.5" x2="622.5" y1="887.1563" y2="919.9609"/><polygon fill="#181818" points="618.5,909.9609,622.5,919.9609,626.5,909.9609,622.5,913.9609" style="stroke:#181818;stroke-width:1.0;"/><line style="stroke:#181818;stroke-width:1.0;" x1="138" x2="138" y1="757.0117" y2="789.8164"/><polygon fill="#181818" points="134,779.8164,138,789.8164,142,779.8164,138,783.8164" style="stroke:#181818;stroke-width:1.0;"/><line style="stroke:#181818;stroke-width:1.0;" x1="138" x2="138" y1="957.332" y2="977.332"/><polygon fill="#181818" points="134,967.332,138,977.332,142,967.332,138,971.332" style="stroke:#181818;stroke-width:1.0;"/><line style="stroke:#181818;stroke-width:1.0;" x1="390" x2="390" y1="757.0117" y2="777.0117"/><polygon fill="#181818" points="386,767.0117,390,777.0117,394,767.0117,390,771.0117" style="stroke:#181818;stroke-width:1.0;"/><line style="stroke:#181818;stroke-width:1.0;" x1="390" x2="390" y1="944.5273" y2="977.332"/><polygon fill="#181818" points="386,967.332,390,977.332,394,967.332,390,971.332" style="stroke:#181818;stroke-width:1.0;"/><line style="stroke:#181818;stroke-width:1.0;" x1="189" x2="339.5" y1="745.0117" y2="745.0117"/><polygon fill="#181818" points="329.5,741.0117,339.5,745.0117,329.5,749.0117,333.5,745.0117" style="stroke:#181818;stroke-width:1.0;"/><line style="stroke:#181818;stroke-width:1.0;" x1="370.5" x2="370.5" y1="671.7148" y2="718.0117"/><line style="stroke:#181818;stroke-width:1.0;" x1="370.5" x2="138" y1="718.0117" y2="718.0117"/><line style="stroke:#181818;stroke-width:1.0;" x1="138" x2="138" y1="718.0117" y2="733.0117"/><polygon fill="#181818" points="134,723.0117,138,733.0117,142,723.0117,138,727.0117" style="stroke:#181818;stroke-width:1.0;"/><line style="stroke:#181818;stroke-width:1.0;" x1="440.5" x2="622.5" y1="745.0117" y2="745.0117"/><line style="stroke:#181818;stroke-width:1.0;" x1="622.5" x2="622.5" y1="745.0117" y2="786.4141"/><polygon fill="#181818" points="618.5,776.4141,622.5,786.4141,626.5,776.4141,622.5,780.4141" style="stroke:#181818;stroke-width:1.0;"/><line style="stroke:#181818;stroke-width:1.0;" x1="622.5" x2="622.5" y1="953.9297" y2="977.332"/><polygon fill="#181818" points="618.5,967.332,622.5,977.332,626.5,967.332,622.5,971.332" style="stroke:#181818;stroke-width:1.0;"/><line style="stroke:#181818;stroke-width:1.0;" x1="138" x2="622.5" y1="977.332" y2="977.332"/><line style="stroke:#181818;stroke-width:1.0;" x1="370.5" x2="370.5" y1="977.332" y2="1009.332"/><polygon fill="#181818" points="366.5,999.332,370.5,1009.332,374.5,999.332,370.5,1003.332" style="stroke:#181818;stroke-width:1.0;"/><line style="stroke:#181818;stroke-width:1.0;" x1="370.5" x2="370.5" y1="1043.3008" y2="1063.3008"/><polygon fill="#181818" points="366.5,1053.3008,370.5,1063.3008,374.5,1053.3008,370.5,1057.3008" style="stroke:#181818;stroke-width:1.0;"/><line style="stroke:#181818;stroke-width:1.0;" x1="370.5" x2="370.5" y1="1097.2695" y2="1117.2695"/><polygon fill="#181818" points="366.5,1107.2695,370.5,1117.2695,374.5,1107.2695,370.5,1111.2695" style="stroke:#181818;stroke-width:1.0;"/><line style="stroke:#181818;stroke-width:1.0;" x1="370.5" x2="370.5" y1="1151.2383" y2="1171.2383"/><polygon fill="#181818" points="366.5,1161.2383,370.5,1171.2383,374.5,1161.2383,370.5,1165.2383" style="stroke:#181818;stroke-width:1.0;"/><!--SRC=[TLJDRX9X5DtFKznq1OiQMwqBM9XgV05z0XCXaZIqaTaP4tvAKJ6YjQPDZDBMnhWncIB8C33m2lTx8y-ztpV3Js3HAND_pptttF5B_a61k6kgF3KdF30rKoEUyYqC0T_2MEU8GqJm6SV4CvxIpjxkDj_mkUTL_EUlVAzKf0n_HrBFj7b4Y0yuvZw7-0jC_M6M_9U5CcBEECXwH3bjDu1tYdPrHFTuZFSO6GConp1NUMBQP6ee-XU-0Bz2qybhyW-0UsywCCNp943N6gCru6rQ5uwnQPXMciH_-1TtDtGvHOMn6-54p3exNcTuGHp6-G8eLtnDV4dtxj_PkPkrcUV8r23pWRX7EghmMZVLbLuyodk5Wqe1jQw0x9qD0uqDyn5ly6UzGlb5gUXvHo2wv9SEoxIb12mE692Wn52nQPlc5hrM6By1uLZM2dO3D_7-asVRktiFC0eSeQ8nJQsLK9cG9NwUg36bI-O79UWPSaJ9-am3Ze0oJn_jFtOCVDCXmvNccAk62PkoeHb-L2spGe9RgyolhjRgOgrGOlSVv9icmjvoY8vlbjbH-bNEDPKGy44lg18X4tWiFwhPQxIO4G_d6HmigZMTJrGh62ymD9091CWq5EwTE5Rw17cNSMF5l8wCjfEIKwXoWDIPxgDdzmhvDDoDn9flxoJMGuD3YaQIhJ8g5JDy8HIw4kbHPSarw3eOmhusY0IVIZHQ93W1T2hxbxKbi4EmjIYBKHBvKwgA9k1UEEOQ1kqemqwUf4ScJGOyIP5daD_NYqiGRm8yrRkVKva2-8pK8SnJUQguT1u1qLYkdMJ85w4lzwRL_zdTMjXB6VQJO0yHOilnLmJBh4923yz0lmuhI9FjY96MhqmAvlWJODQLhq05rLAcexMGAPMqF5k92EIO5avVgcuK7BuLsaAFGDB6WlfI2OqK1WQ1UQW58E2AVtZq7m00]--></g></svg>