<svg xmlns="http://www.w3.org/2000/svg" xmlns:xlink="http://www.w3.org/1999/xlink" contentStyleType="text/css" height="685px" preserveAspectRatio="none" style="width:1258px;height:685px;background:#FFFFFF;" version="1.1" viewBox="0 0 1258 685" width="1258px" zoomAndPan="magnify"><defs/><g><text fill="#000000" font-family="sans-serif" font-size="14" font-weight="bold" lengthAdjust="spacing" textLength="455" x="400.75" y="27.9951">&#1055;&#1086;&#1089;&#1083;&#1077;&#1076;&#1086;&#1074;&#1072;&#1090;&#1077;&#1083;&#1100;&#1085;&#1086;&#1089;&#1090;&#1100; &#1086;&#1073;&#1088;&#1072;&#1073;&#1086;&#1090;&#1082;&#1080; &#1079;&#1072;&#1087;&#1088;&#1086;&#1089;&#1072; &#1089;&#1091;&#1073;&#1098;&#1077;&#1082;&#1090;&#1072; &#1055;&#1044;&#1085;</text><line style="stroke:#181818;stroke-width:0.5;stroke-dasharray:5.0,5.0;" x1="56" x2="56" y1="118.5938" y2="604.7188"/><line style="stroke:#181818;stroke-width:0.5;stroke-dasharray:5.0,5.0;" x1="270" x2="270" y1="118.5938" y2="604.7188"/><line style="stroke:#181818;stroke-width:0.5;stroke-dasharray:5.0,5.0;" x1="455.5" x2="455.5" y1="118.5938" y2="604.7188"/><line style="stroke:#181818;stroke-width:0.5;stroke-dasharray:5.0,5.0;" x1="592.5" x2="592.5" y1="118.5938" y2="604.7188"/><line style="stroke:#181818;stroke-width:0.5;stroke-dasharray:5.0,5.0;" x1="721.5" x2="721.5" y1="118.5938" y2="604.7188"/><line style="stroke:#181818;stroke-width:0.5;stroke-dasharray:5.0,5.0;" x1="916.5" x2="916.5" y1="118.5938" y2="604.7188"/><line style="stroke:#181818;stroke-width:0.5;stroke-dasharray:5.0,5.0;" x1="1047.5" x2="1047.5" y1="118.5938" y2="604.7188"/><line style="stroke:#181818;stroke-width:0.5;stroke-dasharray:5.0,5.0;" x1="1180.5" x2="1180.5" y1="118.5938" y2="604.7188"/><text fill="#000000" font-family="sans-serif" font-size="14" lengthAdjust="spacing" textLength="97" x="5" y="115.292">&#1057;&#1091;&#1073;&#1098;&#1077;&#1082;&#1090; &#1055;&#1044;&#1085;</text><ellipse cx="56.5" cy="50.7969" fill="#E2E2F0" rx="8" ry="8" style="stroke:#181818;stroke-width:0.5;"/><path d="M56.5,58.7969 L56.5,85.7969 M43.5,66.7969 L69.5,66.7969 M56.5,85.7969 L43.5,100.7969 M56.5,85.7969 L69.5,100.7969 " fill="none" style="stroke:#181818;stroke-width:0.5;"/><text fill="#000000" font-family="sans-serif" font-size="14" lengthAdjust="spacing" textLength="97" x="5" y="616.7139">&#1057;&#1091;&#1073;&#1098;&#1077;&#1082;&#1090; &#1055;&#1044;&#1085;</text><ellipse cx="56.5" cy="628.5156" fill="#E2E2F0" rx="8" ry="8" style="stroke:#181818;stroke-width:0.5;"/><path d="M56.5,636.5156 L56.5,663.5156 M43.5,644.5156 L69.5,644.5156 M56.5,663.5156 L43.5,678.5156 M56.5,663.5156 L69.5,678.5156 " fill="none" style="stroke:#181818;stroke-width:0.5;"/><rect fill="#E2E2F0" height="30.2969" rx="2.5" ry="2.5" style="stroke:#181818;stroke-width:0.5;" width="213" x="164" y="87.2969"/><text fill="#000000" font-family="sans-serif" font-size="14" lengthAdjust="spacing" textLength="199" x="171" y="107.292">&#1055;&#1086;&#1088;&#1090;&#1072;&#1083; &#1089;&#1072;&#1084;&#1086;&#1086;&#1073;&#1089;&#1083;&#1091;&#1078;&#1080;&#1074;&#1072;&#1085;&#1080;&#1103;</text><rect fill="#E2E2F0" height="30.2969" rx="2.5" ry="2.5" style="stroke:#181818;stroke-width:0.5;" width="213" x="164" y="603.7188"/><text fill="#000000" font-family="sans-serif" font-size="14" lengthAdjust="spacing" textLength="199" x="171" y="623.7139">&#1055;&#1086;&#1088;&#1090;&#1072;&#1083; &#1089;&#1072;&#1084;&#1086;&#1086;&#1073;&#1089;&#1083;&#1091;&#1078;&#1080;&#1074;&#1072;&#1085;&#1080;&#1103;</text><rect fill="#E2E2F0" height="30.2969" rx="2.5" ry="2.5" style="stroke:#181818;stroke-width:0.5;" width="118" x="396.5" y="87.2969"/><text fill="#000000" font-family="sans-serif" font-size="14" lengthAdjust="spacing" textLength="104" x="403.5" y="107.292">Identity Service</text><rect fill="#E2E2F0" height="30.2969" rx="2.5" ry="2.5" style="stroke:#181818;stroke-width:0.5;" width="118" x="396.5" y="603.7188"/><text fill="#000000" font-family="sans-serif" font-size="14" lengthAdjust="spacing" textLength="104" x="403.5" y="623.7139">Identity Service</text><rect fill="#E2E2F0" height="30.2969" rx="2.5" ry="2.5" style="stroke:#181818;stroke-width:0.5;" width="137" x="524.5" y="87.2969"/><text fill="#000000" font-family="sans-serif" font-size="14" lengthAdjust="spacing" textLength="123" x="531.5" y="107.292">Consent Manager</text><rect fill="#E2E2F0" height="30.2969" rx="2.5" ry="2.5" style="stroke:#181818;stroke-width:0.5;" width="137" x="524.5" y="603.7188"/><text fill="#000000" font-family="sans-serif" font-size="14" lengthAdjust="spacing" textLength="123" x="531.5" y="623.7139">Consent Manager</text><rect fill="#E2E2F0" height="30.2969" rx="2.5" ry="2.5" style="stroke:#181818;stroke-width:0.5;" width="101" x="671.5" y="87.2969"/><text fill="#000000" font-family="sans-serif" font-size="14" lengthAdjust="spacing" textLength="87" x="678.5" y="107.292">Data Locator</text><rect fill="#E2E2F0" height="30.2969" rx="2.5" ry="2.5" style="stroke:#181818;stroke-width:0.5;" width="101" x="671.5" y="603.7188"/><text fill="#000000" font-family="sans-serif" font-size="14" lengthAdjust="spacing" textLength="87" x="678.5" y="623.7139">Data Locator</text><rect fill="#E2E2F0" height="30.2969" rx="2.5" ry="2.5" style="stroke:#181818;stroke-width:0.5;" width="141" x="846.5" y="87.2969"/><text fill="#000000" font-family="sans-serif" font-size="14" lengthAdjust="spacing" textLength="127" x="853.5" y="107.292">Encryption Service</text><rect fill="#E2E2F0" height="30.2969" rx="2.5" ry="2.5" style="stroke:#181818;stroke-width:0.5;" width="141" x="846.5" y="603.7188"/><text fill="#000000" font-family="sans-serif" font-size="14" lengthAdjust="spacing" textLength="127" x="853.5" y="623.7139">Encryption Service</text><rect fill="#E2E2F0" height="30.2969" rx="2.5" ry="2.5" style="stroke:#181818;stroke-width:0.5;" width="101" x="997.5" y="87.2969"/><text fill="#000000" font-family="sans-serif" font-size="14" lengthAdjust="spacing" textLength="87" x="1004.5" y="107.292">Audit Logger</text><rect fill="#E2E2F0" height="30.2969" rx="2.5" ry="2.5" style="stroke:#181818;stroke-width:0.5;" width="101" x="997.5" y="603.7188"/><text fill="#000000" font-family="sans-serif" font-size="14" lengthAdjust="spacing" textLength="87" x="1004.5" y="623.7139">Audit Logger</text><rect fill="#E2E2F0" height="30.2969" rx="2.5" ry="2.5" style="stroke:#181818;stroke-width:0.5;" width="144" x="1108.5" y="87.2969"/><text fill="#000000" font-family="sans-serif" font-size="14" lengthAdjust="spacing" textLength="130" x="1115.5" y="107.292">Notification Service</text><rect fill="#E2E2F0" height="30.2969" rx="2.5" ry="2.5" style="stroke:#181818;stroke-width:0.5;" width="144" x="1108.5" y="603.7188"/><text fill="#000000" font-family="sans-serif" font-size="14" lengthAdjust="spacing" textLength="130" x="1115.5" y="623.7139">Notification Service</text><polygon fill="#181818" points="258.5,145.7266,268.5,149.7266,258.5,153.7266,262.5,149.7266" style="stroke:#181818;stroke-width:1.0;"/><line style="stroke:#181818;stroke-width:1.0;" x1="56.5" x2="264.5" y1="149.7266" y2="149.7266"/><text fill="#000000" font-family="sans-serif" font-size="13" lengthAdjust="spacing" textLength="190" x="63.5" y="144.6606">&#1047;&#1072;&#1087;&#1088;&#1086;&#1089; &#1085;&#1072; &#1076;&#1086;&#1089;&#1090;&#1091;&#1087; &#1082; &#1076;&#1072;&#1085;&#1085;&#1099;&#1084;</text><polygon fill="#181818" points="443.5,174.8594,453.5,178.8594,443.5,182.8594,447.5,178.8594" style="stroke:#181818;stroke-width:1.0;"/><line style="stroke:#181818;stroke-width:1.0;" x1="270.5" x2="449.5" y1="178.8594" y2="178.8594"/><text fill="#000000" font-family="sans-serif" font-size="13" lengthAdjust="spacing" textLength="161" x="277.5" y="173.7935">&#1042;&#1077;&#1088;&#1080;&#1092;&#1080;&#1082;&#1072;&#1094;&#1080;&#1103; &#1083;&#1080;&#1095;&#1085;&#1086;&#1089;&#1090;&#1080;</text><polygon fill="#181818" points="281.5,203.9922,271.5,207.9922,281.5,211.9922,277.5,207.9922" style="stroke:#181818;stroke-width:1.0;"/><line style="stroke:#181818;stroke-width:1.0;stroke-dasharray:2.0,2.0;" x1="275.5" x2="454.5" y1="207.9922" y2="207.9922"/><text fill="#000000" font-family="sans-serif" font-size="13" lengthAdjust="spacing" textLength="114" x="287.5" y="202.9263">&#1055;&#1086;&#1076;&#1090;&#1074;&#1077;&#1088;&#1078;&#1076;&#1077;&#1085;&#1080;&#1077;</text><polygon fill="#181818" points="581,233.125,591,237.125,581,241.125,585,237.125" style="stroke:#181818;stroke-width:1.0;"/><line style="stroke:#181818;stroke-width:1.0;" x1="270.5" x2="587" y1="237.125" y2="237.125"/><text fill="#000000" font-family="sans-serif" font-size="13" lengthAdjust="spacing" textLength="229" x="277.5" y="232.0591">&#1055;&#1088;&#1086;&#1074;&#1077;&#1088;&#1082;&#1072; &#1076;&#1077;&#1081;&#1089;&#1090;&#1074;&#1091;&#1102;&#1097;&#1080;&#1093; &#1089;&#1086;&#1075;&#1083;&#1072;&#1089;&#1080;&#1081;</text><polygon fill="#181818" points="281.5,262.2578,271.5,266.2578,281.5,270.2578,277.5,266.2578" style="stroke:#181818;stroke-width:1.0;"/><line style="stroke:#181818;stroke-width:1.0;stroke-dasharray:2.0,2.0;" x1="275.5" x2="592" y1="266.2578" y2="266.2578"/><text fill="#000000" font-family="sans-serif" font-size="13" lengthAdjust="spacing" textLength="113" x="287.5" y="261.1919">&#1057;&#1087;&#1080;&#1089;&#1086;&#1082; &#1089;&#1086;&#1075;&#1083;&#1072;&#1089;&#1080;&#1081;</text><polygon fill="#181818" points="710,291.3906,720,295.3906,710,299.3906,714,295.3906" style="stroke:#181818;stroke-width:1.0;"/><line style="stroke:#181818;stroke-width:1.0;" x1="270.5" x2="716" y1="295.3906" y2="295.3906"/><text fill="#000000" font-family="sans-serif" font-size="13" lengthAdjust="spacing" textLength="164" x="277.5" y="290.3247">&#1055;&#1086;&#1080;&#1089;&#1082; &#1076;&#1072;&#1085;&#1085;&#1099;&#1093; &#1089;&#1091;&#1073;&#1098;&#1077;&#1082;&#1090;&#1072;</text><polygon fill="#181818" points="905,320.5234,915,324.5234,905,328.5234,909,324.5234" style="stroke:#181818;stroke-width:1.0;"/><line style="stroke:#181818;stroke-width:1.0;" x1="722" x2="911" y1="324.5234" y2="324.5234"/><text fill="#000000" font-family="sans-serif" font-size="13" lengthAdjust="spacing" textLength="148" x="729" y="319.4575">&#1056;&#1072;&#1089;&#1096;&#1080;&#1092;&#1088;&#1086;&#1074;&#1082;&#1072; &#1076;&#1072;&#1085;&#1085;&#1099;&#1093;</text><polygon fill="#181818" points="733,349.6563,723,353.6563,733,357.6563,729,353.6563" style="stroke:#181818;stroke-width:1.0;"/><line style="stroke:#181818;stroke-width:1.0;stroke-dasharray:2.0,2.0;" x1="727" x2="916" y1="353.6563" y2="353.6563"/><text fill="#000000" font-family="sans-serif" font-size="13" lengthAdjust="spacing" textLength="171" x="739" y="348.5903">&#1044;&#1077;&#1096;&#1080;&#1092;&#1088;&#1086;&#1074;&#1072;&#1085;&#1085;&#1099;&#1077; &#1076;&#1072;&#1085;&#1085;&#1099;&#1077;</text><polygon fill="#181818" points="281.5,378.7891,271.5,382.7891,281.5,386.7891,277.5,382.7891" style="stroke:#181818;stroke-width:1.0;"/><line style="stroke:#181818;stroke-width:1.0;stroke-dasharray:2.0,2.0;" x1="275.5" x2="721" y1="382.7891" y2="382.7891"/><text fill="#000000" font-family="sans-serif" font-size="13" lengthAdjust="spacing" textLength="131" x="287.5" y="377.7231">&#1057;&#1086;&#1073;&#1088;&#1072;&#1085;&#1085;&#1099;&#1077; &#1076;&#1072;&#1085;&#1085;&#1099;&#1077;</text><polygon fill="#181818" points="1036,407.9219,1046,411.9219,1036,415.9219,1040,411.9219" style="stroke:#181818;stroke-width:1.0;"/><line style="stroke:#181818;stroke-width:1.0;" x1="270.5" x2="1042" y1="411.9219" y2="411.9219"/><text fill="#000000" font-family="sans-serif" font-size="13" lengthAdjust="spacing" textLength="147" x="277.5" y="406.856">&#1051;&#1086;&#1075;&#1080;&#1088;&#1086;&#1074;&#1072;&#1085;&#1080;&#1077; &#1079;&#1072;&#1087;&#1088;&#1086;&#1089;&#1072;</text><polygon fill="#181818" points="281.5,437.0547,271.5,441.0547,281.5,445.0547,277.5,441.0547" style="stroke:#181818;stroke-width:1.0;"/><line style="stroke:#181818;stroke-width:1.0;stroke-dasharray:2.0,2.0;" x1="275.5" x2="1047" y1="441.0547" y2="441.0547"/><text fill="#000000" font-family="sans-serif" font-size="13" lengthAdjust="spacing" textLength="117" x="287.5" y="435.9888">ID &#1079;&#1072;&#1087;&#1080;&#1089;&#1080; &#1072;&#1091;&#1076;&#1080;&#1090;&#1072;</text><polygon fill="#181818" points="905,466.1875,915,470.1875,905,474.1875,909,470.1875" style="stroke:#181818;stroke-width:1.0;"/><line style="stroke:#181818;stroke-width:1.0;" x1="270.5" x2="911" y1="470.1875" y2="470.1875"/><text fill="#000000" font-family="sans-serif" font-size="13" lengthAdjust="spacing" textLength="142" x="277.5" y="465.1216">&#1064;&#1080;&#1092;&#1088;&#1086;&#1074;&#1072;&#1085;&#1080;&#1077; &#1086;&#1090;&#1074;&#1077;&#1090;&#1072;</text><polygon fill="#181818" points="281.5,495.3203,271.5,499.3203,281.5,503.3203,277.5,499.3203" style="stroke:#181818;stroke-width:1.0;"/><line style="stroke:#181818;stroke-width:1.0;stroke-dasharray:2.0,2.0;" x1="275.5" x2="916" y1="499.3203" y2="499.3203"/><text fill="#000000" font-family="sans-serif" font-size="13" lengthAdjust="spacing" textLength="172" x="287.5" y="494.2544">&#1047;&#1072;&#1096;&#1080;&#1092;&#1088;&#1086;&#1074;&#1072;&#1085;&#1085;&#1072;&#1103; &#1074;&#1099;&#1087;&#1080;&#1089;&#1082;&#1072;</text><polygon fill="#181818" points="1168.5,524.4531,1178.5,528.4531,1168.5,532.4531,1172.5,528.4531" style="stroke:#181818;stroke-width:1.0;"/><line style="stroke:#181818;stroke-width:1.0;" x1="270.5" x2="1174.5" y1="528.4531" y2="528.4531"/><text fill="#000000" font-family="sans-serif" font-size="13" lengthAdjust="spacing" textLength="159" x="277.5" y="523.3872">&#1059;&#1074;&#1077;&#1076;&#1086;&#1084;&#1083;&#1077;&#1085;&#1080;&#1077; &#1089;&#1091;&#1073;&#1098;&#1077;&#1082;&#1090;&#1072;</text><polygon fill="#181818" points="67.5,553.5859,57.5,557.5859,67.5,561.5859,63.5,557.5859" style="stroke:#181818;stroke-width:1.0;"/><line style="stroke:#181818;stroke-width:1.0;stroke-dasharray:2.0,2.0;" x1="61.5" x2="1179.5" y1="557.5859" y2="557.5859"/><text fill="#000000" font-family="sans-serif" font-size="13" lengthAdjust="spacing" textLength="125" x="73.5" y="552.52">&#1055;&#1080;&#1089;&#1100;&#1084;&#1086; &#1089; &#1076;&#1072;&#1085;&#1085;&#1099;&#1084;&#1080;</text><polygon fill="#181818" points="67.5,582.7188,57.5,586.7188,67.5,590.7188,63.5,586.7188" style="stroke:#181818;stroke-width:1.0;"/><line style="stroke:#181818;stroke-width:1.0;" x1="61.5" x2="269.5" y1="586.7188" y2="586.7188"/><text fill="#000000" font-family="sans-serif" font-size="13" lengthAdjust="spacing" textLength="176" x="73.5" y="581.6528">&#1055;&#1088;&#1077;&#1076;&#1086;&#1089;&#1090;&#1072;&#1074;&#1083;&#1077;&#1085;&#1080;&#1077; &#1074;&#1099;&#1087;&#1080;&#1089;&#1082;&#1080;</text><!--SRC=[RLJBRjH04BpFLunopmzmG489XqY0aF85nZ6HKMIld0dIti9kU4SWeKWSE434XQEphCF4-_g5dZzATNkSdSboitkggxghUyRavYZJz9EMxWtDgA4fBMb2jHlXU-REQS4dRkJEDGwkt2dLT8NGY5goclxXTuKWPzSQm34mdv3Q0b4pxmKjb4fIKrPwYox3St-wfPDZlN_oubMM6ZL8AfEd-I0f3E1SrIaJqKop0CrH0rU1Ki5qJPPBHOdMVHMQvsLbagEOPUyWAqnkXde_grxdQIR0FXX3TyhY677zD2cImwmIf8_5mDt49Ff9cIPeIr3-EqOzBj9gE31vMKJQEnmiO-YZauFSWEMmbvL0Z7bMclnb3ftxX78mLCgRgBSVUYCUQFg-7f26KHZ9r0zqJ2jDBV-pWmltcUQgIsE2tY1GVAC61DQTmUuMc_6ExTPO5klUz-j1Ljtvl1tgOuGqnVb4IAwXrl2yg561cFUOuLog1xTTjGtTYCB4ZTqNzn6gRtaPblGN9TJuidIZ-ib5sfUq0fgXxMP68E-7vwlbZD0MaOltMlaCgLscYTnVJEq-i56-2T_07O_gi5BaMlC2pOPP_JIQS3JDMZBkiB-J_yq9UfHzGiOFiS46MfQpedkikcqCbVPsFKRimSMluSWKF-n6ECdUZJ_tEXALfLy4JWgy29Trqmh4i6qJDDI9jx5Yj_n8_itKydpDvI7hD3T6r-55rzyNcJkOyTZXVT5yKO8xWSqEr88KrDZqbmdmII0QLMjl0G00]--></g></svg>