<svg xmlns="http://www.w3.org/2000/svg" xmlns:xlink="http://www.w3.org/1999/xlink" contentStyleType="text/css" height="805px" preserveAspectRatio="none" style="width:777px;height:805px;background:#FFFFFF;" version="1.1" viewBox="0 0 777 805" width="777px" zoomAndPan="magnify"><defs/><g><text fill="#000000" font-family="sans-serif" font-size="14" font-weight="bold" lengthAdjust="spacing" textLength="373" x="195.25" y="22.9951">&#1050;&#1083;&#1072;&#1089;&#1089;&#1099; &#1084;&#1086;&#1076;&#1091;&#1083;&#1103; &#1073;&#1077;&#1079;&#1086;&#1087;&#1072;&#1089;&#1085;&#1086;&#1089;&#1090;&#1080; &#1080; &#1089;&#1086;&#1086;&#1090;&#1074;&#1077;&#1090;&#1089;&#1090;&#1074;&#1080;&#1103;</text><!--class PersonalDataConsent--><g id="elem_PersonalDataConsent"><rect codeLine="3" fill="#F1F1F1" height="210.9688" id="PersonalDataConsent" rx="2.5" ry="2.5" style="stroke:#181818;stroke-width:0.5;" width="187" x="294" y="315.9669"/><ellipse cx="310.8" cy="331.9669" fill="#ADD1B2" rx="11" ry="11" style="stroke:#181818;stroke-width:1.0;"/><path d="M313.7688,337.6075 Q313.1906,337.9044 312.55,338.045 Q311.9094,338.2012 311.2063,338.2012 Q308.7063,338.2012 307.3781,336.5606 Q306.0656,334.9044 306.0656,331.7794 Q306.0656,328.6544 307.3781,326.9981 Q308.7063,325.3419 311.2063,325.3419 Q311.9094,325.3419 312.55,325.4981 Q313.2063,325.6544 313.7688,325.9512 L313.7688,328.67 Q313.1438,328.0919 312.55,327.8262 Q311.9563,327.545 311.3313,327.545 Q309.9875,327.545 309.3,328.6231 Q308.6125,329.6856 308.6125,331.7794 Q308.6125,333.8731 309.3,334.9512 Q309.9875,336.0137 311.3313,336.0137 Q311.9563,336.0137 312.55,335.7481 Q313.1438,335.4669 313.7688,334.8887 L313.7688,337.6075 Z " fill="#000000"/><text fill="#000000" font-family="sans-serif" font-size="14" lengthAdjust="spacing" textLength="151" x="325.2" y="336.8136">PersonalDataConsent</text><line style="stroke:#181818;stroke-width:0.5;" x1="295" x2="480" y1="347.9669" y2="347.9669"/><rect fill="none" height="6" style="stroke:#C82930;stroke-width:1.0;" width="6" x="302" y="358.6153"/><text fill="#000000" font-family="sans-serif" font-size="14" lengthAdjust="spacing" textLength="112" x="314" y="364.962">consentId: UUID</text><rect fill="none" height="6" style="stroke:#C82930;stroke-width:1.0;" width="6" x="302" y="374.9122"/><text fill="#000000" font-family="sans-serif" font-size="14" lengthAdjust="spacing" textLength="106" x="314" y="381.2589">subjectId: UUID</text><rect fill="none" height="6" style="stroke:#C82930;stroke-width:1.0;" width="6" x="302" y="391.2091"/><text fill="#000000" font-family="sans-serif" font-size="14" lengthAdjust="spacing" textLength="137" x="314" y="397.5557">signedAt: DateTime</text><rect fill="none" height="6" style="stroke:#C82930;stroke-width:1.0;" width="6" x="302" y="407.5059"/><text fill="#000000" font-family="sans-serif" font-size="14" lengthAdjust="spacing" textLength="140" x="314" y="413.8526">expiresAt: DateTime</text><rect fill="none" height="6" style="stroke:#C82930;stroke-width:1.0;" width="6" x="302" y="423.8028"/><text fill="#000000" font-family="sans-serif" font-size="14" lengthAdjust="spacing" textLength="161" x="314" y="430.1495">purposes: List&lt;string&gt;</text><rect fill="none" height="6" style="stroke:#C82930;stroke-width:1.0;" width="6" x="302" y="440.0997"/><text fill="#000000" font-family="sans-serif" font-size="14" lengthAdjust="spacing" textLength="155" x="314" y="446.4464">digitalSignature: byte[]</text><rect fill="none" height="6" style="stroke:#C82930;stroke-width:1.0;" width="6" x="302" y="456.3966"/><text fill="#000000" font-family="sans-serif" font-size="14" lengthAdjust="spacing" textLength="98" x="314" y="462.7432">version: string</text><line style="stroke:#181818;stroke-width:0.5;" x1="295" x2="480" y1="470.045" y2="470.045"/><ellipse cx="305" cy="483.6934" fill="#84BE84" rx="3" ry="3" style="stroke:#038048;stroke-width:1.0;"/><text fill="#000000" font-family="sans-serif" font-size="14" lengthAdjust="spacing" textLength="128" x="314" y="487.0401">validateSignature()</text><ellipse cx="305" cy="499.9903" fill="#84BE84" rx="3" ry="3" style="stroke:#038048;stroke-width:1.0;"/><text fill="#000000" font-family="sans-serif" font-size="14" lengthAdjust="spacing" textLength="62" x="314" y="503.337">isActive()</text><ellipse cx="305" cy="516.2872" fill="#84BE84" rx="3" ry="3" style="stroke:#038048;stroke-width:1.0;"/><text fill="#000000" font-family="sans-serif" font-size="14" lengthAdjust="spacing" textLength="57" x="314" y="519.6339">revoke()</text></g><!--class DataEncryption--><g id="elem_DataEncryption"><rect codeLine="16" fill="#F1F1F1" height="194.6719" id="DataEncryption" rx="2.5" ry="2.5" style="stroke:#181818;stroke-width:0.5;" width="227" x="7" y="44.2969"/><ellipse cx="63.75" cy="60.2969" fill="#ADD1B2" rx="11" ry="11" style="stroke:#181818;stroke-width:1.0;"/><path d="M66.7188,65.9375 Q66.1406,66.2344 65.5,66.375 Q64.8594,66.5313 64.1563,66.5313 Q61.6563,66.5313 60.3281,64.8906 Q59.0156,63.2344 59.0156,60.1094 Q59.0156,56.9844 60.3281,55.3281 Q61.6563,53.6719 64.1563,53.6719 Q64.8594,53.6719 65.5,53.8281 Q66.1563,53.9844 66.7188,54.2813 L66.7188,57 Q66.0938,56.4219 65.5,56.1563 Q64.9063,55.875 64.2813,55.875 Q62.9375,55.875 62.25,56.9531 Q61.5625,58.0156 61.5625,60.1094 Q61.5625,62.2031 62.25,63.2813 Q62.9375,64.3438 64.2813,64.3438 Q64.9063,64.3438 65.5,64.0781 Q66.0938,63.7969 66.7188,63.2188 L66.7188,65.9375 Z " fill="#000000"/><text fill="#000000" font-family="sans-serif" font-size="14" lengthAdjust="spacing" textLength="105" x="84.25" y="65.1436">DataEncryption</text><line style="stroke:#181818;stroke-width:0.5;" x1="8" x2="233" y1="76.2969" y2="76.2969"/><rect fill="none" height="6" style="stroke:#C82930;stroke-width:1.0;" width="6" x="15" y="86.9453"/><text fill="#000000" font-family="sans-serif" font-size="14" lengthAdjust="spacing" textLength="128" x="27" y="93.292">encryptionId: UUID</text><rect fill="none" height="6" style="stroke:#C82930;stroke-width:1.0;" width="6" x="15" y="103.2422"/><text fill="#000000" font-family="sans-serif" font-size="14" lengthAdjust="spacing" textLength="85" x="27" y="109.5889">dataId: UUID</text><rect fill="none" height="6" style="stroke:#C82930;stroke-width:1.0;" width="6" x="15" y="119.5391"/><text fill="#000000" font-family="sans-serif" font-size="14" lengthAdjust="spacing" textLength="201" x="27" y="125.8857">algorithm: string = "AES-256"</text><rect fill="none" height="6" style="stroke:#C82930;stroke-width:1.0;" width="6" x="15" y="135.8359"/><text fill="#000000" font-family="sans-serif" font-size="14" lengthAdjust="spacing" textLength="124" x="27" y="142.1826">keyVersion: string</text><rect fill="none" height="6" style="stroke:#C82930;stroke-width:1.0;" width="6" x="15" y="152.1328"/><text fill="#000000" font-family="sans-serif" font-size="14" lengthAdjust="spacing" textLength="59" x="27" y="158.4795">iv: byte[]</text><rect fill="none" height="6" style="stroke:#C82930;stroke-width:1.0;" width="6" x="15" y="168.4297"/><text fill="#000000" font-family="sans-serif" font-size="14" lengthAdjust="spacing" textLength="151" x="27" y="174.7764">encryptedData: byte[]</text><line style="stroke:#181818;stroke-width:0.5;" x1="8" x2="233" y1="182.0781" y2="182.0781"/><ellipse cx="18" cy="195.7266" fill="#84BE84" rx="3" ry="3" style="stroke:#038048;stroke-width:1.0;"/><text fill="#000000" font-family="sans-serif" font-size="14" lengthAdjust="spacing" textLength="62" x="27" y="199.0732">encrypt()</text><ellipse cx="18" cy="212.0234" fill="#84BE84" rx="3" ry="3" style="stroke:#038048;stroke-width:1.0;"/><text fill="#000000" font-family="sans-serif" font-size="14" lengthAdjust="spacing" textLength="62" x="27" y="215.3701">decrypt()</text><ellipse cx="18" cy="228.3203" fill="#84BE84" rx="3" ry="3" style="stroke:#038048;stroke-width:1.0;"/><text fill="#000000" font-family="sans-serif" font-size="14" lengthAdjust="spacing" textLength="76" x="27" y="231.667">rotateKey()</text></g><!--class AccessLog--><g id="elem_AccessLog"><rect codeLine="28" fill="#F1F1F1" height="194.6719" id="AccessLog" rx="2.5" ry="2.5" style="stroke:#181818;stroke-width:0.5;" width="175" x="300" y="603.9369"/><ellipse cx="345.75" cy="619.9369" fill="#ADD1B2" rx="11" ry="11" style="stroke:#181818;stroke-width:1.0;"/><path d="M348.7188,625.5775 Q348.1406,625.8744 347.5,626.015 Q346.8594,626.1713 346.1563,626.1713 Q343.6563,626.1713 342.3281,624.5306 Q341.0156,622.8744 341.0156,619.7494 Q341.0156,616.6244 342.3281,614.9681 Q343.6563,613.3119 346.1563,613.3119 Q346.8594,613.3119 347.5,613.4681 Q348.1563,613.6244 348.7188,613.9213 L348.7188,616.64 Q348.0938,616.0619 347.5,615.7963 Q346.9063,615.515 346.2813,615.515 Q344.9375,615.515 344.25,616.5931 Q343.5625,617.6556 343.5625,619.7494 Q343.5625,621.8431 344.25,622.9213 Q344.9375,623.9838 346.2813,623.9838 Q346.9063,623.9838 347.5,623.7181 Q348.0938,623.4369 348.7188,622.8588 L348.7188,625.5775 Z " fill="#000000"/><text fill="#000000" font-family="sans-serif" font-size="14" lengthAdjust="spacing" textLength="75" x="366.25" y="624.7836">AccessLog</text><line style="stroke:#181818;stroke-width:0.5;" x1="301" x2="474" y1="635.9369" y2="635.9369"/><rect fill="none" height="6" style="stroke:#C82930;stroke-width:1.0;" width="6" x="308" y="646.5853"/><text fill="#000000" font-family="sans-serif" font-size="14" lengthAdjust="spacing" textLength="76" x="320" y="652.932">logId: UUID</text><rect fill="none" height="6" style="stroke:#C82930;stroke-width:1.0;" width="6" x="308" y="662.8822"/><text fill="#000000" font-family="sans-serif" font-size="14" lengthAdjust="spacing" textLength="149" x="320" y="669.2289">timestamp: DateTime</text><rect fill="none" height="6" style="stroke:#C82930;stroke-width:1.0;" width="6" x="308" y="679.1791"/><text fill="#000000" font-family="sans-serif" font-size="14" lengthAdjust="spacing" textLength="86" x="320" y="685.5257">userId: UUID</text><rect fill="none" height="6" style="stroke:#C82930;stroke-width:1.0;" width="6" x="308" y="695.4759"/><text fill="#000000" font-family="sans-serif" font-size="14" lengthAdjust="spacing" textLength="128" x="320" y="701.8226">action: ActionType</text><rect fill="none" height="6" style="stroke:#C82930;stroke-width:1.0;" width="6" x="308" y="711.7728"/><text fill="#000000" font-family="sans-serif" font-size="14" lengthAdjust="spacing" textLength="117" x="320" y="718.1195">resourceId: UUID</text><rect fill="none" height="6" style="stroke:#C82930;stroke-width:1.0;" width="6" x="308" y="728.0697"/><text fill="#000000" font-family="sans-serif" font-size="14" lengthAdjust="spacing" textLength="117" x="320" y="734.4164">ipAddress: string</text><rect fill="none" height="6" style="stroke:#C82930;stroke-width:1.0;" width="6" x="308" y="744.3666"/><text fill="#000000" font-family="sans-serif" font-size="14" lengthAdjust="spacing" textLength="123" x="320" y="750.7132">success: boolean</text><line style="stroke:#181818;stroke-width:0.5;" x1="301" x2="474" y1="758.015" y2="758.015"/><ellipse cx="311" cy="771.6634" fill="#84BE84" rx="3" ry="3" style="stroke:#038048;stroke-width:1.0;"/><text fill="#000000" font-family="sans-serif" font-size="14" lengthAdjust="spacing" textLength="107" x="320" y="775.0101">toAuditFormat()</text><ellipse cx="311" cy="787.9603" fill="#84BE84" rx="3" ry="3" style="stroke:#038048;stroke-width:1.0;"/><text fill="#000000" font-family="sans-serif" font-size="14" lengthAdjust="spacing" textLength="122" x="320" y="791.307">searchByCriteria()</text></g><!--class RetentionPolicy--><g id="elem_RetentionPolicy"><rect codeLine="40" fill="#F1F1F1" height="162.0781" id="RetentionPolicy" rx="2.5" ry="2.5" style="stroke:#181818;stroke-width:0.5;" width="236" x="269.5" y="60.5869"/><ellipse cx="329.75" cy="76.5869" fill="#ADD1B2" rx="11" ry="11" style="stroke:#181818;stroke-width:1.0;"/><path d="M332.7188,82.2275 Q332.1406,82.5244 331.5,82.665 Q330.8594,82.8212 330.1563,82.8212 Q327.6563,82.8212 326.3281,81.1806 Q325.0156,79.5244 325.0156,76.3994 Q325.0156,73.2744 326.3281,71.6181 Q327.6563,69.9619 330.1563,69.9619 Q330.8594,69.9619 331.5,70.1181 Q332.1563,70.2744 332.7188,70.5712 L332.7188,73.29 Q332.0938,72.7119 331.5,72.4462 Q330.9063,72.165 330.2813,72.165 Q328.9375,72.165 328.25,73.2431 Q327.5625,74.3056 327.5625,76.3994 Q327.5625,78.4931 328.25,79.5712 Q328.9375,80.6337 330.2813,80.6337 Q330.9063,80.6337 331.5,80.3681 Q332.0938,80.0869 332.7188,79.5087 L332.7188,82.2275 Z " fill="#000000"/><text fill="#000000" font-family="sans-serif" font-size="14" lengthAdjust="spacing" textLength="107" x="350.25" y="81.4336">RetentionPolicy</text><line style="stroke:#181818;stroke-width:0.5;" x1="270.5" x2="504.5" y1="92.5869" y2="92.5869"/><rect fill="none" height="6" style="stroke:#C82930;stroke-width:1.0;" width="6" x="277.5" y="103.2353"/><text fill="#000000" font-family="sans-serif" font-size="14" lengthAdjust="spacing" textLength="94" x="289.5" y="109.582">policyId: UUID</text><rect fill="none" height="6" style="stroke:#C82930;stroke-width:1.0;" width="6" x="277.5" y="119.5322"/><text fill="#000000" font-family="sans-serif" font-size="14" lengthAdjust="spacing" textLength="140" x="289.5" y="125.8789">dataCategory: string</text><rect fill="none" height="6" style="stroke:#C82930;stroke-width:1.0;" width="6" x="277.5" y="135.8291"/><text fill="#000000" font-family="sans-serif" font-size="14" lengthAdjust="spacing" textLength="210" x="289.5" y="142.1757">deletionMethod: DeletionType</text><rect fill="none" height="6" style="stroke:#C82930;stroke-width:1.0;" width="6" x="277.5" y="152.1259"/><text fill="#000000" font-family="sans-serif" font-size="14" lengthAdjust="spacing" textLength="117" x="289.5" y="158.4726">legalBasis: string</text><line style="stroke:#181818;stroke-width:0.5;" x1="270.5" x2="504.5" y1="165.7744" y2="165.7744"/><rect fill="#F24D5C" height="6" style="stroke:#C82930;stroke-width:1.0;" width="6" x="277.5" y="176.4228"/><text fill="#000000" font-family="sans-serif" font-size="14" lengthAdjust="spacing" textLength="175" x="289.5" y="182.7695">retentionPeriod: int (&#1076;&#1085;&#1080;)</text><ellipse cx="280.5" cy="195.7197" fill="#84BE84" rx="3" ry="3" style="stroke:#038048;stroke-width:1.0;"/><text fill="#000000" font-family="sans-serif" font-size="14" lengthAdjust="spacing" textLength="103" x="289.5" y="199.0664">shouldDelete()</text><ellipse cx="280.5" cy="212.0166" fill="#84BE84" rx="3" ry="3" style="stroke:#038048;stroke-width:1.0;"/><text fill="#000000" font-family="sans-serif" font-size="14" lengthAdjust="spacing" textLength="116" x="289.5" y="215.3632">getExpiredData()</text></g><!--class SubjectRequest--><g id="elem_SubjectRequest"><rect codeLine="50" fill="#F1F1F1" height="178.375" id="SubjectRequest" rx="2.5" ry="2.5" style="stroke:#181818;stroke-width:0.5;" width="230" x="540.5" y="52.4469"/><ellipse cx="595.75" cy="68.4469" fill="#ADD1B2" rx="11" ry="11" style="stroke:#181818;stroke-width:1.0;"/><path d="M598.7188,74.0875 Q598.1406,74.3844 597.5,74.525 Q596.8594,74.6812 596.1563,74.6812 Q593.6563,74.6812 592.3281,73.0406 Q591.0156,71.3844 591.0156,68.2594 Q591.0156,65.1344 592.3281,63.4781 Q593.6563,61.8219 596.1563,61.8219 Q596.8594,61.8219 597.5,61.9781 Q598.1563,62.1344 598.7188,62.4312 L598.7188,65.15 Q598.0938,64.5719 597.5,64.3062 Q596.9063,64.025 596.2813,64.025 Q594.9375,64.025 594.25,65.1031 Q593.5625,66.1656 593.5625,68.2594 Q593.5625,70.3531 594.25,71.4312 Q594.9375,72.4937 596.2813,72.4937 Q596.9063,72.4937 597.5,72.2281 Q598.0938,71.9469 598.7188,71.3687 L598.7188,74.0875 Z " fill="#000000"/><text fill="#000000" font-family="sans-serif" font-size="14" lengthAdjust="spacing" textLength="111" x="616.25" y="73.2936">SubjectRequest</text><line style="stroke:#181818;stroke-width:0.5;" x1="541.5" x2="769.5" y1="84.4469" y2="84.4469"/><rect fill="none" height="6" style="stroke:#C82930;stroke-width:1.0;" width="6" x="548.5" y="95.0953"/><text fill="#000000" font-family="sans-serif" font-size="14" lengthAdjust="spacing" textLength="109" x="560.5" y="101.442">requestId: UUID</text><rect fill="none" height="6" style="stroke:#C82930;stroke-width:1.0;" width="6" x="548.5" y="111.3922"/><text fill="#000000" font-family="sans-serif" font-size="14" lengthAdjust="spacing" textLength="106" x="560.5" y="117.7389">subjectId: UUID</text><rect fill="none" height="6" style="stroke:#C82930;stroke-width:1.0;" width="6" x="548.5" y="127.6891"/><text fill="#000000" font-family="sans-serif" font-size="14" lengthAdjust="spacing" textLength="132" x="560.5" y="134.0357">type: RequestType</text><rect fill="none" height="6" style="stroke:#C82930;stroke-width:1.0;" width="6" x="548.5" y="143.9859"/><text fill="#000000" font-family="sans-serif" font-size="14" lengthAdjust="spacing" textLength="160" x="560.5" y="150.3326">submittedAt: DateTime</text><rect fill="none" height="6" style="stroke:#C82930;stroke-width:1.0;" width="6" x="548.5" y="160.2828"/><text fill="#000000" font-family="sans-serif" font-size="14" lengthAdjust="spacing" textLength="155" x="560.5" y="166.6295">status: RequestStatus</text><rect fill="none" height="6" style="stroke:#C82930;stroke-width:1.0;" width="6" x="548.5" y="176.5797"/><text fill="#000000" font-family="sans-serif" font-size="14" lengthAdjust="spacing" textLength="204" x="560.5" y="182.9264">responseDueDate: DateTime</text><line style="stroke:#181818;stroke-width:0.5;" x1="541.5" x2="769.5" y1="190.2281" y2="190.2281"/><ellipse cx="551.5" cy="203.8766" fill="#84BE84" rx="3" ry="3" style="stroke:#038048;stroke-width:1.0;"/><text fill="#000000" font-family="sans-serif" font-size="14" lengthAdjust="spacing" textLength="66" x="560.5" y="207.2232">process()</text><ellipse cx="551.5" cy="220.1734" fill="#84BE84" rx="3" ry="3" style="stroke:#038048;stroke-width:1.0;"/><text fill="#000000" font-family="sans-serif" font-size="14" lengthAdjust="spacing" textLength="104" x="560.5" y="223.5201">escalateIfLate()</text></g><!--reverse link PersonalDataConsent to AccessLog--><g id="link_PersonalDataConsent_AccessLog"><path codeLine="61" d="M387.5,539.0869 C387.5,564.1569 387.5,578.8169 387.5,603.5169 " fill="none" id="PersonalDataConsent-backto-AccessLog" style="stroke:#181818;stroke-width:1.0;"/><polygon fill="#181818" points="387.5,527.0869,383.5,533.0869,387.5,539.0869,391.5,533.0869,387.5,527.0869" style="stroke:#181818;stroke-width:1.0;"/><text fill="#000000" font-family="sans-serif" font-size="13" lengthAdjust="spacing" textLength="48" x="388.5" y="570.0038">creates</text><text fill="#000000" font-family="sans-serif" font-size="13" lengthAdjust="spacing" textLength="8" x="379.2188" y="547.1133">1</text><text fill="#000000" font-family="sans-serif" font-size="13" lengthAdjust="spacing" textLength="23" x="363.6555" y="592.8589">0..*</text></g><!--link DataEncryption to PersonalDataConsent--><g id="link_DataEncryption_PersonalDataConsent"><path codeLine="62" d="M213.51,239.4069 C239.55,266.4969 267.85,295.9569 293.92,323.0769 " fill="none" id="DataEncryption-PersonalDataConsent" style="stroke:#181818;stroke-width:1.0;"/><text fill="#000000" font-family="sans-serif" font-size="13" lengthAdjust="spacing" textLength="53" x="255" y="282.0338">protects</text><text fill="#000000" font-family="sans-serif" font-size="13" lengthAdjust="spacing" textLength="8" x="211.7685" y="258.8805">1</text><text fill="#000000" font-family="sans-serif" font-size="13" lengthAdjust="spacing" textLength="8" x="278.1441" y="311.7122">1</text></g><!--link RetentionPolicy to PersonalDataConsent--><g id="link_RetentionPolicy_PersonalDataConsent"><path codeLine="63" d="M387.5,222.9869 C387.5,251.9169 387.5,284.9869 387.5,315.6869 " fill="none" id="RetentionPolicy-PersonalDataConsent" style="stroke:#181818;stroke-width:1.0;"/><text fill="#000000" font-family="sans-serif" font-size="13" lengthAdjust="spacing" textLength="51" x="388.5" y="282.0338">governs</text><text fill="#000000" font-family="sans-serif" font-size="13" lengthAdjust="spacing" textLength="8" x="379.1563" y="242.696">1</text><text fill="#000000" font-family="sans-serif" font-size="13" lengthAdjust="spacing" textLength="7" x="380.2539" y="304.7945">*</text></g><!--link SubjectRequest to PersonalDataConsent--><g id="link_SubjectRequest_PersonalDataConsent"><path codeLine="64" d="M569.97,231.2969 C541.63,260.6769 514.1056,289.1986 485.1956,319.1686 " fill="none" id="SubjectRequest-to-PersonalDataConsent" style="stroke:#181818;stroke-width:1.0;"/><polygon fill="#181818" points="481.03,323.4869,490.1573,319.7865,484.5013,319.8883,484.3995,314.2323,481.03,323.4869" style="stroke:#181818;stroke-width:1.0;"/><text fill="#000000" font-family="sans-serif" font-size="13" lengthAdjust="spacing" textLength="68" x="530.54" y="282.0338">references</text><text fill="#000000" font-family="sans-serif" font-size="13" lengthAdjust="spacing" textLength="8" x="555.1154" y="250.8079">1</text><text fill="#000000" font-family="sans-serif" font-size="13" lengthAdjust="spacing" textLength="7" x="489.0653" y="311.8255">*</text></g><!--SRC=[XLJDRjD04BxdALOvzKUf00aE5bHoco9L5AbgMYw8mtOzTPPkl6Pd764X3fGZXzvv2gXQKQbGNc7pHepNTXId1MHBrlnyu-_RcLdIP43uh_x6VvjzukUBy3_zhR-SVVOtitFXl_ih_uCTlwku_-LlEUVCNmj-sRvb-ynV-AlPMV1V-ElPUQ-dZ4GK- -3GPj8C9Sbjco5a93xqX1W8LLkxIIIEZdQ7mOV5yLjGIpwTPf3450ck0OTw0i4DxtFj0E_uyyBb5W4ZiQUHdY8vdQMR8PJeL9Cq8ouegN0GYUEIuFMR49moKMspIDG8zgsBgJGwuU9pnCfgy6kC5UbfQpgOsjFA-DYghjJkPCgLEN7DHZ3C7Hrz_0FPSKYJMgTfF6cvY6UY7- -C1eyUF-c7Z5CeNzsXEn1wsb7K_0-IYir2PBsDDFGJMBIS9LRy0if5FR5IWBXdqqQAiMc7Cl7f8yb9ljIC0i5rjIaAhEFmFIppEeyRQGkde9EhypX9E88TaLW4Bgp7MWCo2wJ9naMYwRbr4zaAGP1EZRVARJvBS5ekwZa0uj5Z1llMQ5Ksgl9Wt6dEDYlYZfGT6cvUWMjRXcWUx1L_oTjnlLf3mK2Ly19eN2KC6tiksa0gpPP4ZPsXmx4jJ1Aosm5BWNR2k8TMBWePrGjp0EyARa2ZmzNMVpUBc4aa6koS5cTEDD4zAySTfWBdY54ms_xbrJeF2wWG7Towo9sjMjQ80LJIS7ZtP4zIipNttHBzXtsnDXY8_eEDZRN-mWX6GZbWAFQMrgn2L03-t5SmgeWG7mBsbllV8jV-XamjtmyPzfREkyPj_WFeu0GSxnlW7m00]--></g></svg>