<svg xmlns="http://www.w3.org/2000/svg" xmlns:xlink="http://www.w3.org/1999/xlink" contentStyleType="text/css" height="1009px" preserveAspectRatio="none" style="width:718px;height:1009px;background:#FFFFFF;" version="1.1" viewBox="0 0 718 1009" width="718px" zoomAndPan="magnify"><defs/><g><!--cluster ?????????? ??????????? ? HR-???????--><g id="cluster_&#1059;&#1087;&#1088;&#1072;&#1074;&#1083;&#1077;&#1085;&#1080;&#1077; &#1082;&#1072;&#1085;&#1076;&#1080;&#1076;&#1072;&#1090;&#1072;&#1084;&#1080; &#1080; HR-&#1088;&#1077;&#1096;&#1077;&#1085;&#1080;&#1103;"><rect fill="none" height="956" rx="2.5" ry="2.5" style="stroke:#181818;stroke-width:1.0;" width="382.77" x="330" y="7"/><text fill="#000000" font-family="sans-serif" font-size="14" font-weight="bold" lengthAdjust="spacing" textLength="333" x="354.885" y="21.9951">&#1059;&#1087;&#1088;&#1072;&#1074;&#1083;&#1077;&#1085;&#1080;&#1077; &#1082;&#1072;&#1085;&#1076;&#1080;&#1076;&#1072;&#1090;&#1072;&#1084;&#1080; &#1080; HR-&#1088;&#1077;&#1096;&#1077;&#1085;&#1080;&#1103;</text></g><g id="elem_uc1"><ellipse cx="521.3817" cy="489.9963" fill="#F1F1F1" rx="162.7817" ry="34.9563" style="stroke:#181818;stroke-width:0.5;"/><text fill="#000000" font-family="sans-serif" font-size="14" lengthAdjust="spacing" textLength="297" x="372.8817" y="492.843">UC4.1: &#1055;&#1088;&#1086;&#1089;&#1084;&#1086;&#1090;&#1088;&#1077;&#1090;&#1100; &#1089;&#1087;&#1080;&#1089;&#1086;&#1082; &#1082;&#1072;&#1085;&#1076;&#1080;&#1076;&#1072;&#1090;&#1086;&#1074;</text></g><g id="elem_uc2"><ellipse cx="521.3821" cy="606.0044" fill="#F1F1F1" rx="134.4721" ry="29.2944" style="stroke:#181818;stroke-width:0.5;"/><text fill="#000000" font-family="sans-serif" font-size="14" lengthAdjust="spacing" textLength="238" x="402.3821" y="608.8511">UC4.2: &#1055;&#1088;&#1080;&#1085;&#1103;&#1090;&#1100; &#1088;&#1077;&#1096;&#1077;&#1085;&#1080;&#1077; (swipe)</text></g><g id="elem_uc3"><ellipse cx="521.3763" cy="368.0033" fill="#F1F1F1" rx="164.7163" ry="35.3433" style="stroke:#181818;stroke-width:0.5;"/><text fill="#000000" font-family="sans-serif" font-size="14" lengthAdjust="spacing" textLength="301" x="370.8763" y="370.8499">UC4.3: &#1057;&#1088;&#1072;&#1074;&#1085;&#1080;&#1090;&#1100; &#1085;&#1077;&#1089;&#1082;&#1086;&#1083;&#1100;&#1082;&#1080;&#1093; &#1082;&#1072;&#1085;&#1076;&#1080;&#1076;&#1072;&#1090;&#1086;&#1074;</text></g><g id="elem_uc4"><ellipse cx="521.3809" cy="71.9962" fill="#F1F1F1" rx="138.2809" ry="30.0562" style="stroke:#181818;stroke-width:0.5;"/><text fill="#000000" font-family="sans-serif" font-size="14" lengthAdjust="spacing" textLength="246" x="398.3809" y="74.8429">UC4.4: &#1053;&#1072;&#1079;&#1085;&#1072;&#1095;&#1080;&#1090;&#1100; &#1089;&#1086;&#1073;&#1077;&#1089;&#1077;&#1076;&#1086;&#1074;&#1072;&#1085;&#1080;&#1077;</text></g><g id="elem_uc5"><ellipse cx="521.3827" cy="265.0005" fill="#F1F1F1" rx="152.6527" ry="32.9305" style="stroke:#181818;stroke-width:0.5;"/><text fill="#000000" font-family="sans-serif" font-size="14" lengthAdjust="spacing" textLength="276" x="383.3827" y="267.8472">UC4.5: &#1069;&#1082;&#1089;&#1087;&#1086;&#1088;&#1090;&#1080;&#1088;&#1086;&#1074;&#1072;&#1090;&#1100; &#1076;&#1072;&#1085;&#1085;&#1099;&#1077; &#1074; ATS</text></g><g id="elem_uc6"><ellipse cx="521.3838" cy="909.9968" fill="#F1F1F1" rx="175.3838" ry="37.4768" style="stroke:#181818;stroke-width:0.5;"/><text fill="#000000" font-family="sans-serif" font-size="14" lengthAdjust="spacing" textLength="323" x="359.8838" y="912.8434">UC4.6: &#1055;&#1088;&#1086;&#1089;&#1084;&#1086;&#1090;&#1088;&#1077;&#1090;&#1100; &#1072;&#1085;&#1072;&#1083;&#1080;&#1090;&#1080;&#1082;&#1091; &#1087;&#1086; &#1074;&#1072;&#1082;&#1072;&#1085;&#1089;&#1080;&#1080;</text></g><g id="elem_uc7"><ellipse cx="521.3751" cy="166.995" fill="#F1F1F1" rx="136.3751" ry="29.675" style="stroke:#181818;stroke-width:0.5;"/><text fill="#000000" font-family="sans-serif" font-size="14" lengthAdjust="spacing" textLength="242" x="400.3751" y="169.8417">UC4.7: &#1053;&#1072;&#1089;&#1090;&#1088;&#1086;&#1080;&#1090;&#1100; workflow &#1085;&#1072;&#1081;&#1084;&#1072;</text></g><g id="elem_uc8"><ellipse cx="521.3778" cy="788.9956" fill="#F1F1F1" rx="148.3278" ry="32.0656" style="stroke:#181818;stroke-width:0.5;"/><text fill="#000000" font-family="sans-serif" font-size="14" lengthAdjust="spacing" textLength="267" x="387.8778" y="791.8422">UC4.8: &#1040;&#1074;&#1090;&#1086;&#1084;&#1072;&#1090;&#1080;&#1095;&#1077;&#1089;&#1082;&#1080; &#1088;&#1072;&#1085;&#1078;&#1080;&#1088;&#1086;&#1074;&#1072;&#1090;&#1100;</text></g><g id="elem_uc9"><ellipse cx="521.3842" cy="695.9988" fill="#F1F1F1" rx="117.4942" ry="25.8988" style="stroke:#181818;stroke-width:0.5;"/><text fill="#000000" font-family="sans-serif" font-size="14" lengthAdjust="spacing" textLength="202" x="420.3842" y="698.8455">UC4.9: &#1052;&#1072;&#1089;&#1089;&#1086;&#1074;&#1072;&#1103; &#1086;&#1073;&#1088;&#1072;&#1073;&#1086;&#1090;&#1082;&#1072;</text></g><!--entity hr--><g id="elem_hr"><ellipse cx="118" cy="348.35" fill="#F1F1F1" rx="8" ry="8" style="stroke:#181818;stroke-width:0.5;"/><path d="M118,356.35 L118,383.35 M105,364.35 L131,364.35 M118,383.35 L105,398.35 M118,383.35 L131,398.35 " fill="none" style="stroke:#181818;stroke-width:0.5;"/><text fill="#000000" font-family="sans-serif" font-size="14" lengthAdjust="spacing" textLength="103" x="66.5" y="412.8451">HR-&#1084;&#1077;&#1085;&#1077;&#1076;&#1078;&#1077;&#1088;</text></g><!--entity manager--><g id="elem_manager"><ellipse cx="118" cy="936.35" fill="#F1F1F1" rx="8" ry="8" style="stroke:#181818;stroke-width:0.5;"/><path d="M118,944.35 L118,971.35 M105,952.35 L131,952.35 M118,971.35 L105,986.35 M118,971.35 L131,986.35 " fill="none" style="stroke:#181818;stroke-width:0.5;"/><text fill="#000000" font-family="sans-serif" font-size="14" lengthAdjust="spacing" textLength="224" x="6" y="1000.8451">&#1056;&#1091;&#1082;&#1086;&#1074;&#1086;&#1076;&#1080;&#1090;&#1077;&#1083;&#1100; &#1087;&#1086;&#1076;&#1088;&#1072;&#1079;&#1076;&#1077;&#1083;&#1077;&#1085;&#1080;&#1103;</text></g><!--entity recruiter--><g id="elem_recruiter"><ellipse cx="118" cy="576.35" fill="#F1F1F1" rx="8" ry="8" style="stroke:#181818;stroke-width:0.5;"/><path d="M118,584.35 L118,611.35 M105,592.35 L131,592.35 M118,611.35 L105,626.35 M118,611.35 L131,626.35 " fill="none" style="stroke:#181818;stroke-width:0.5;"/><text fill="#000000" font-family="sans-serif" font-size="14" lengthAdjust="spacing" textLength="69" x="83.5" y="640.8451">&#1056;&#1077;&#1082;&#1088;&#1091;&#1090;&#1077;&#1088;</text></g><!--entity ats--><g id="elem_ats"><ellipse cx="118" cy="225.35" fill="#F1F1F1" rx="8" ry="8" style="stroke:#181818;stroke-width:0.5;"/><path d="M118,233.35 L118,260.35 M105,241.35 L131,241.35 M118,260.35 L105,275.35 M118,260.35 L131,275.35 " fill="none" style="stroke:#181818;stroke-width:0.5;"/><text fill="#000000" font-family="sans-serif" font-size="14" lengthAdjust="spacing" textLength="92" x="72" y="289.8451">ATS &#1089;&#1080;&#1089;&#1090;&#1077;&#1084;&#1072;</text></g><!--entity analytics--><g id="elem_analytics"><ellipse cx="118" cy="825.35" fill="#F1F1F1" rx="8" ry="8" style="stroke:#181818;stroke-width:0.5;"/><path d="M118,833.35 L118,860.35 M105,841.35 L131,841.35 M118,860.35 L105,875.35 M118,860.35 L131,875.35 " fill="none" style="stroke:#181818;stroke-width:0.5;"/><text fill="#000000" font-family="sans-serif" font-size="14" lengthAdjust="spacing" textLength="145" x="45.5" y="889.8451">&#1057;&#1080;&#1089;&#1090;&#1077;&#1084;&#1072; &#1072;&#1085;&#1072;&#1083;&#1080;&#1090;&#1080;&#1082;&#1080;</text></g><!--link hr to uc1--><g id="link_hr_uc1"><path d="M169.95,402.68 C196.34,414.69 229.37,428.54 260,438 C301.4,450.8 341.6086,460.0635 383.3886,468.1235 " fill="none" id="hr-to-uc1" style="stroke:#181818;stroke-width:1.0;"/><polygon fill="#181818" points="389.28,469.26,381.2006,463.6276,384.3705,468.3129,379.6852,471.4828,389.28,469.26" style="stroke:#181818;stroke-width:1.0;"/></g><!--link hr to uc2--><g id="link_hr_uc2"><path d="M157.42,416.38 C196.07,453.11 258.84,507.84 322,542 C355.42,560.08 389.0441,572.3961 423.8741,582.6461 " fill="none" id="hr-to-uc2" style="stroke:#181818;stroke-width:1.0;"/><polygon fill="#181818" points="429.63,584.34,422.1254,577.9619,424.8334,582.9284,419.8668,585.6364,429.63,584.34" style="stroke:#181818;stroke-width:1.0;"/></g><!--link hr to uc3--><g id="link_hr_uc3"><path d="M169.84,376.74 C217.09,375.56 284.0919,373.8891 351.2719,372.2191 " fill="none" id="hr-to-uc3" style="stroke:#181818;stroke-width:1.0;"/><polygon fill="#181818" points="357.27,372.07,348.1734,368.2949,352.2715,372.1943,348.3722,376.2924,357.27,372.07" style="stroke:#181818;stroke-width:1.0;"/></g><!--link hr to uc4--><g id="link_hr_uc4"><path d="M169.87,355.35 C190.5,344.26 213.34,329.31 230,311 C293.42,241.31 248.71,179.22 322,120 C343.02,103.02 363.3253,93.483 389.6153,86.243 " fill="none" id="hr-to-uc4" style="stroke:#181818;stroke-width:1.0;"/><polygon fill="#181818" points="395.4,84.65,385.661,83.1831,390.5795,85.9775,387.785,90.896,395.4,84.65" style="stroke:#181818;stroke-width:1.0;"/></g><!--link hr to uc5--><g id="link_hr_uc5"><path d="M169.66,361.44 C210.59,348.27 269.78,329.67 322,315 C353.12,306.26 381.3603,298.8696 412.3403,291.0996 " fill="none" id="hr-to-uc5" style="stroke:#181818;stroke-width:1.0;"/><polygon fill="#181818" points="418.16,289.64,408.4573,287.9496,413.3102,290.8564,410.4035,295.7093,418.16,289.64" style="stroke:#181818;stroke-width:1.0;"/></g><!--link manager to uc6--><g id="link_manager_uc6"><path d="M230.27,950.48 C274.59,944.29 320.2675,937.9188 367.5875,931.3188 " fill="none" id="manager-to-uc6" style="stroke:#181818;stroke-width:1.0;"/><polygon fill="#181818" points="373.53,930.49,364.0637,927.7716,368.5779,931.1807,365.1688,935.6949,373.53,930.49" style="stroke:#181818;stroke-width:1.0;"/></g><!--link recruiter to uc1--><g id="link_recruiter_uc1"><path d="M152.88,596.21 C211.84,579.17 329.6459,545.1257 417.1959,519.8257 " fill="none" id="recruiter-to-uc1" style="stroke:#181818;stroke-width:1.0;"/><polygon fill="#181818" points="422.96,518.16,413.2033,516.8158,418.1565,519.5481,415.4243,524.5013,422.96,518.16" style="stroke:#181818;stroke-width:1.0;"/></g><!--link recruiter to uc2--><g id="link_recruiter_uc2"><path d="M152.88,606 C204.09,606 298.05,606 380.81,606 " fill="none" id="recruiter-to-uc2" style="stroke:#181818;stroke-width:1.0;"/><polygon fill="#181818" points="386.81,606,377.81,602,381.81,606,377.81,610,386.81,606" style="stroke:#181818;stroke-width:1.0;"/></g><!--link recruiter to uc9--><g id="link_recruiter_uc9"><path d="M152.73,613.96 C192.98,623.43 262.34,639.63 322,653 C359.31,661.36 394.7646,669.0963 429.9946,676.6863 " fill="none" id="recruiter-to-uc9" style="stroke:#181818;stroke-width:1.0;"/><polygon fill="#181818" points="435.86,677.95,427.9043,672.1442,430.9721,676.897,426.2194,679.9648,435.86,677.95" style="stroke:#181818;stroke-width:1.0;"/></g><!--link ats to uc5--><g id="link_ats_uc5"><path d="M164.26,256.13 C213.98,257.37 290.4919,259.2706 363.5819,261.0906 " fill="none" id="ats-to-uc5" style="stroke:#181818;stroke-width:1.0;"/><polygon fill="#181818" points="369.58,261.24,360.6824,257.0172,364.5815,261.1155,360.4832,265.0147,369.58,261.24" style="stroke:#181818;stroke-width:1.0;"/></g><!--link analytics to uc6--><g id="link_analytics_uc6"><path d="M190.76,864.83 C241.27,871.76 304.7356,880.4554 366.8356,888.9654 " fill="none" id="analytics-to-uc6" style="stroke:#181818;stroke-width:1.0;"/><polygon fill="#181818" points="372.78,889.78,364.4064,884.5951,367.8263,889.1012,363.3203,892.521,372.78,889.78" style="stroke:#181818;stroke-width:1.0;"/></g><!--link uc1 to uc2--><g id="link_uc1_uc2"><path d="M521.38,525.3 C521.38,541.65 521.38,554.86 521.38,570.43 " fill="none" id="uc1-to-uc2" style="stroke:#181818;stroke-width:1.0;stroke-dasharray:7.0,7.0;"/><polygon fill="#181818" points="521.38,576.43,525.38,567.43,521.38,571.43,517.38,567.43,521.38,576.43" style="stroke:#181818;stroke-width:1.0;"/><text fill="#000000" font-family="sans-serif" font-size="13" lengthAdjust="spacing" textLength="51" x="484.38" y="555.3969">extends</text></g><!--link uc2 to uc4--><g id="link_uc2_uc4"><path d="M405.65,590.73 C374.64,581.32 343.74,566.21 322,542 C288.2,504.35 304.19,480.83 299.06,430.5 C285.05,292.84 232.19,225.28 322,120 C338.98,100.09 356.9079,89.4002 382.0179,81.7902 " fill="none" id="uc2-to-uc4" style="stroke:#181818;stroke-width:1.0;stroke-dasharray:7.0,7.0;"/><polygon fill="#181818" points="387.76,80.05,377.9867,78.8323,382.9749,81.5002,380.307,86.4884,387.76,80.05" style="stroke:#181818;stroke-width:1.0;"/><text fill="#000000" font-family="sans-serif" font-size="13" lengthAdjust="spacing" textLength="52" x="261" y="426.5669">includes</text></g><!--link uc1 to uc3--><g id="link_uc1_uc3"><path d="M521.38,454.71 C521.38,438.67 521.38,425.72 521.38,409.63 " fill="none" id="uc1-to-uc3" style="stroke:#181818;stroke-width:1.0;stroke-dasharray:7.0,7.0;"/><polygon fill="#181818" points="521.38,403.63,517.38,412.63,521.38,408.63,525.38,412.63,521.38,403.63" style="stroke:#181818;stroke-width:1.0;"/><text fill="#000000" font-family="sans-serif" font-size="13" lengthAdjust="spacing" textLength="51" x="484.38" y="433.7669">extends</text></g><!--link uc6 to uc8--><g id="link_uc6_uc8"><path d="M521.38,872.05 C521.38,855.83 521.38,843.09 521.38,827.52 " fill="none" id="uc6-to-uc8" style="stroke:#181818;stroke-width:1.0;stroke-dasharray:7.0,7.0;"/><polygon fill="#181818" points="521.38,821.52,517.38,830.52,521.38,826.52,525.38,830.52,521.38,821.52" style="stroke:#181818;stroke-width:1.0;"/><text fill="#000000" font-family="sans-serif" font-size="13" lengthAdjust="spacing" textLength="30" x="494.88" y="851.3669">uses</text></g><!--SRC=[VPFRYXD148Rl-ocAlTABB6nEc-o58DvuxU41XibiCXWdCWUYY903eg0G7q3HPQ-5R4XqpERm2jrlv5yrlJFPMHJIeQUwwkk_3jttpcEA1nJwtLvC7J_qtDWV1Cfnuq58Hu-VLFH6h_GMQwb_wPKP7P4JKI-yyT0_p5IlzKuli9OwDHEuNflFfFTiC2Czrxzn0ADmKZCJmaidSBhU0GQdQpCoKmROMo0cJFouy7hux2cPCHXZkMQZv-Bdn57EkJWy9Lo-nReMNIbqfbb0uFJVnBuRASK9Eq6txo7sKkz5x-96gruHOfY1pB3ceCm1JWa_r0RUA_EnoEkj8aeYptKYu9u_gX-Vd97-3gyTL6_mFv682Se3mvwbeaZhkvUWd28qSK_AoAf5fdfhPXdgG0KKtuk6_YllleslbkDhYB-mQR9i9d1_8ONRYDPncSpx_ucgbQ5rGBz9fr5kyy5Y9RihGVFuy8pCCv6MKozp6k3yn1nmSNQO1ZIDgyU1cT2b4BRc4xTcGHW8YsgKKSr_bhuy56OgmqeYJvBc6REZahZDClaqIvR7JCHboGu7uOlp_c180l-J3sVYdfO1BG2-w8MKT2EbJL6ph0CfIM-sU6otKhUiLfdL1kkhY1bRvnbnrOLonNbpIZQwhTufrGkfKdaWevLlgyMsLcphnRQXx8ErtqsLFywSLhPKxrZQ2ayr9-QlC6SgOEXOOkcClDUn5tGYnLzYhCFe1su_wNXHuLgxvThCZ2qOKQVeBm00]--></g></svg>