<svg xmlns="http://www.w3.org/2000/svg" xmlns:xlink="http://www.w3.org/1999/xlink" contentStyleType="text/css" height="1056px" preserveAspectRatio="none" style="width:778px;height:1056px;background:#FFFFFF;" version="1.1" viewBox="0 0 778 1056" width="778px" zoomAndPan="magnify"><defs/><g><text fill="#000000" font-family="sans-serif" font-size="14" font-weight="bold" lengthAdjust="spacing" textLength="235" x="264.5" y="22.9951">&#1050;&#1086;&#1084;&#1087;&#1086;&#1085;&#1077;&#1085;&#1090;&#1099; HR-&#1080;&#1085;&#1090;&#1077;&#1088;&#1092;&#1077;&#1081;&#1089;&#1072;</text><!--cluster Frontend (Vue + Tauri)--><g id="cluster_Frontend (Vue + Tauri)"><path d="M73.5,43.2969 L256.5,43.2969 A3.75,3.75 0 0 1 259,45.7969 L266,65.5938 L635.5,65.5938 A2.5,2.5 0 0 1 638,68.0938 L638,384.6869 A2.5,2.5 0 0 1 635.5,387.1869 L73.5,387.1869 A2.5,2.5 0 0 1 71,384.6869 L71,45.7969 A2.5,2.5 0 0 1 73.5,43.2969 " fill="none" style="stroke:#000000;stroke-width:1.5;"/><line style="stroke:#000000;stroke-width:1.5;" x1="71" x2="266" y1="65.5938" y2="65.5938"/><text fill="#000000" font-family="sans-serif" font-size="14" font-weight="bold" lengthAdjust="spacing" textLength="182" x="75" y="58.292">Frontend (Vue + Tauri)</text></g><!--cluster Backend Services--><g id="cluster_Backend Services"><path d="M277.5,436.1869 L418.5,436.1869 A3.75,3.75 0 0 1 421,438.6869 L428,458.4838 L480.5,458.4838 A2.5,2.5 0 0 1 483,460.9838 L483,900.8669 A2.5,2.5 0 0 1 480.5,903.3669 L277.5,903.3669 A2.5,2.5 0 0 1 275,900.8669 L275,438.6869 A2.5,2.5 0 0 1 277.5,436.1869 " fill="none" style="stroke:#000000;stroke-width:1.5;"/><line style="stroke:#000000;stroke-width:1.5;" x1="275" x2="428" y1="458.4838" y2="458.4838"/><text fill="#000000" font-family="sans-serif" font-size="14" font-weight="bold" lengthAdjust="spacing" textLength="140" x="279" y="451.182">Backend Services</text></g><!--cluster External Systems--><g id="cluster_External Systems"><path d="M8.5,952.3669 L145.5,952.3669 A3.75,3.75 0 0 1 148,954.8669 L155,974.6638 L768.5,974.6638 A2.5,2.5 0 0 1 771,977.1638 L771,1047.1669 A2.5,2.5 0 0 1 768.5,1049.6669 L8.5,1049.6669 A2.5,2.5 0 0 1 6,1047.1669 L6,954.8669 A2.5,2.5 0 0 1 8.5,952.3669 " fill="none" style="stroke:#000000;stroke-width:1.5;"/><line style="stroke:#000000;stroke-width:1.5;" x1="6" x2="155" y1="974.6638" y2="974.6638"/><text fill="#000000" font-family="sans-serif" font-size="14" font-weight="bold" lengthAdjust="spacing" textLength="136" x="10" y="967.362">External Systems</text></g><!--entity Swipe--><g id="elem_Swipe"><rect fill="#F1F1F1" height="46.2969" rx="2.5" ry="2.5" style="stroke:#181818;stroke-width:0.5;" width="145" x="302.5" y="78.2969"/><rect fill="#F1F1F1" height="10" style="stroke:#181818;stroke-width:0.5;" width="15" x="427.5" y="83.2969"/><rect fill="#F1F1F1" height="2" style="stroke:#181818;stroke-width:0.5;" width="4" x="425.5" y="85.2969"/><rect fill="#F1F1F1" height="2" style="stroke:#181818;stroke-width:0.5;" width="4" x="425.5" y="89.2969"/><text fill="#000000" font-family="sans-serif" font-size="14" lengthAdjust="spacing" textLength="105" x="317.5" y="111.292">Swipe Interface</text></g><!--entity Cards--><g id="elem_Cards"><rect fill="#F1F1F1" height="46.2969" rx="2.5" ry="2.5" style="stroke:#181818;stroke-width:0.5;" width="154" x="100" y="201.5869"/><rect fill="#F1F1F1" height="10" style="stroke:#181818;stroke-width:0.5;" width="15" x="234" y="206.5869"/><rect fill="#F1F1F1" height="2" style="stroke:#181818;stroke-width:0.5;" width="4" x="232" y="208.5869"/><rect fill="#F1F1F1" height="2" style="stroke:#181818;stroke-width:0.5;" width="4" x="232" y="212.5869"/><text fill="#000000" font-family="sans-serif" font-size="14" lengthAdjust="spacing" textLength="114" x="115" y="234.582">Candidate Cards</text></g><!--entity Viewer--><g id="elem_Viewer"><rect fill="#F1F1F1" height="46.2969" rx="2.5" ry="2.5" style="stroke:#181818;stroke-width:0.5;" width="137" x="87.5" y="324.8869"/><rect fill="#F1F1F1" height="10" style="stroke:#181818;stroke-width:0.5;" width="15" x="204.5" y="329.8869"/><rect fill="#F1F1F1" height="2" style="stroke:#181818;stroke-width:0.5;" width="4" x="202.5" y="331.8869"/><rect fill="#F1F1F1" height="2" style="stroke:#181818;stroke-width:0.5;" width="4" x="202.5" y="335.8869"/><text fill="#000000" font-family="sans-serif" font-size="14" lengthAdjust="spacing" textLength="97" x="102.5" y="357.882">Report Viewer</text></g><!--entity Dashboard--><g id="elem_Dashboard"><rect fill="#F1F1F1" height="46.2969" rx="2.5" ry="2.5" style="stroke:#181818;stroke-width:0.5;" width="180" x="87" y="78.2969"/><rect fill="#F1F1F1" height="10" style="stroke:#181818;stroke-width:0.5;" width="15" x="247" y="83.2969"/><rect fill="#F1F1F1" height="2" style="stroke:#181818;stroke-width:0.5;" width="4" x="245" y="85.2969"/><rect fill="#F1F1F1" height="2" style="stroke:#181818;stroke-width:0.5;" width="4" x="245" y="89.2969"/><text fill="#000000" font-family="sans-serif" font-size="14" lengthAdjust="spacing" textLength="140" x="102" y="111.292">Analytics Dashboard</text></g><!--entity Settings--><g id="elem_Settings"><rect fill="#F1F1F1" height="46.2969" rx="2.5" ry="2.5" style="stroke:#181818;stroke-width:0.5;" width="139" x="482.5" y="78.2969"/><rect fill="#F1F1F1" height="10" style="stroke:#181818;stroke-width:0.5;" width="15" x="601.5" y="83.2969"/><rect fill="#F1F1F1" height="2" style="stroke:#181818;stroke-width:0.5;" width="4" x="599.5" y="85.2969"/><rect fill="#F1F1F1" height="2" style="stroke:#181818;stroke-width:0.5;" width="4" x="599.5" y="89.2969"/><text fill="#000000" font-family="sans-serif" font-size="14" lengthAdjust="spacing" textLength="99" x="497.5" y="111.292">Settings Panel</text></g><!--entity CandidateAPI--><g id="elem_CandidateAPI"><rect fill="#F1F1F1" height="46.2969" rx="2.5" ry="2.5" style="stroke:#181818;stroke-width:0.5;" width="135" x="291.5" y="471.1869"/><rect fill="#F1F1F1" height="10" style="stroke:#181818;stroke-width:0.5;" width="15" x="406.5" y="476.1869"/><rect fill="#F1F1F1" height="2" style="stroke:#181818;stroke-width:0.5;" width="4" x="404.5" y="478.1869"/><rect fill="#F1F1F1" height="2" style="stroke:#181818;stroke-width:0.5;" width="4" x="404.5" y="482.1869"/><text fill="#000000" font-family="sans-serif" font-size="14" lengthAdjust="spacing" textLength="95" x="306.5" y="504.182">Candidate API</text></g><!--entity DecisionAPI--><g id="elem_DecisionAPI"><rect fill="#F1F1F1" height="46.2969" rx="2.5" ry="2.5" style="stroke:#181818;stroke-width:0.5;" width="125" x="294.5" y="594.4769"/><rect fill="#F1F1F1" height="10" style="stroke:#181818;stroke-width:0.5;" width="15" x="399.5" y="599.4769"/><rect fill="#F1F1F1" height="2" style="stroke:#181818;stroke-width:0.5;" width="4" x="397.5" y="601.4769"/><rect fill="#F1F1F1" height="2" style="stroke:#181818;stroke-width:0.5;" width="4" x="397.5" y="605.4769"/><text fill="#000000" font-family="sans-serif" font-size="14" lengthAdjust="spacing" textLength="85" x="309.5" y="627.472">Decision API</text></g><!--entity Workflow--><g id="elem_Workflow"><rect fill="#F1F1F1" height="46.2969" rx="2.5" ry="2.5" style="stroke:#181818;stroke-width:0.5;" width="154" x="295" y="717.7769"/><rect fill="#F1F1F1" height="10" style="stroke:#181818;stroke-width:0.5;" width="15" x="429" y="722.7769"/><rect fill="#F1F1F1" height="2" style="stroke:#181818;stroke-width:0.5;" width="4" x="427" y="724.7769"/><rect fill="#F1F1F1" height="2" style="stroke:#181818;stroke-width:0.5;" width="4" x="427" y="728.7769"/><text fill="#000000" font-family="sans-serif" font-size="14" lengthAdjust="spacing" textLength="114" x="310" y="750.772">Workflow Engine</text></g><!--entity Gateway--><g id="elem_Gateway"><rect fill="#F1F1F1" height="46.2969" rx="2.5" ry="2.5" style="stroke:#181818;stroke-width:0.5;" width="177" x="290.5" y="841.0769"/><rect fill="#F1F1F1" height="10" style="stroke:#181818;stroke-width:0.5;" width="15" x="447.5" y="846.0769"/><rect fill="#F1F1F1" height="2" style="stroke:#181818;stroke-width:0.5;" width="4" x="445.5" y="848.0769"/><rect fill="#F1F1F1" height="2" style="stroke:#181818;stroke-width:0.5;" width="4" x="445.5" y="852.0769"/><text fill="#000000" font-family="sans-serif" font-size="14" lengthAdjust="spacing" textLength="137" x="305.5" y="874.072">Integration Gateway</text></g><!--entity ATS--><g id="elem_ATS"><rect fill="#F1F1F1" height="46.2969" rx="2.5" ry="2.5" style="stroke:#181818;stroke-width:0.5;" width="172" x="22" y="987.3669"/><rect fill="#F1F1F1" height="10" style="stroke:#181818;stroke-width:0.5;" width="15" x="174" y="992.3669"/><rect fill="#F1F1F1" height="2" style="stroke:#181818;stroke-width:0.5;" width="4" x="172" y="994.3669"/><rect fill="#F1F1F1" height="2" style="stroke:#181818;stroke-width:0.5;" width="4" x="172" y="998.3669"/><text fill="#000000" font-family="sans-serif" font-size="14" lengthAdjust="spacing" textLength="132" x="37" y="1020.362">ATS (1C, Workable)</text></g><!--entity Calendar--><g id="elem_Calendar"><rect fill="#F1F1F1" height="46.2969" rx="2.5" ry="2.5" style="stroke:#181818;stroke-width:0.5;" width="155" x="229.5" y="987.3669"/><rect fill="#F1F1F1" height="10" style="stroke:#181818;stroke-width:0.5;" width="15" x="364.5" y="992.3669"/><rect fill="#F1F1F1" height="2" style="stroke:#181818;stroke-width:0.5;" width="4" x="362.5" y="994.3669"/><rect fill="#F1F1F1" height="2" style="stroke:#181818;stroke-width:0.5;" width="4" x="362.5" y="998.3669"/><text fill="#000000" font-family="sans-serif" font-size="14" lengthAdjust="spacing" textLength="115" x="244.5" y="1020.362">Calendar Service</text></g><!--entity Email--><g id="elem_Email"><rect fill="#F1F1F1" height="46.2969" rx="2.5" ry="2.5" style="stroke:#181818;stroke-width:0.5;" width="130" x="420" y="987.3669"/><rect fill="#F1F1F1" height="10" style="stroke:#181818;stroke-width:0.5;" width="15" x="530" y="992.3669"/><rect fill="#F1F1F1" height="2" style="stroke:#181818;stroke-width:0.5;" width="4" x="528" y="994.3669"/><rect fill="#F1F1F1" height="2" style="stroke:#181818;stroke-width:0.5;" width="4" x="528" y="998.3669"/><text fill="#000000" font-family="sans-serif" font-size="14" lengthAdjust="spacing" textLength="90" x="435" y="1020.362">Email Service</text></g><!--entity Notify--><g id="elem_Notify"><rect fill="#F1F1F1" height="46.2969" rx="2.5" ry="2.5" style="stroke:#181818;stroke-width:0.5;" width="170" x="585" y="987.3669"/><rect fill="#F1F1F1" height="10" style="stroke:#181818;stroke-width:0.5;" width="15" x="735" y="992.3669"/><rect fill="#F1F1F1" height="2" style="stroke:#181818;stroke-width:0.5;" width="4" x="733" y="994.3669"/><rect fill="#F1F1F1" height="2" style="stroke:#181818;stroke-width:0.5;" width="4" x="733" y="998.3669"/><text fill="#000000" font-family="sans-serif" font-size="14" lengthAdjust="spacing" textLength="130" x="600" y="1020.362">Notification Service</text></g><!--link Swipe to CandidateAPI--><g id="link_Swipe_CandidateAPI"><path d="M447.98,120.3869 C468.88,128.2369 490.46,139.2669 507,154.5869 C556.76,200.6669 582.02,228.7569 567,294.8869 C553.33,355.0969 550.39,376.2569 507,420.1869 C484.85,442.6169 459.9214,456.9286 432.4114,468.6286 " fill="none" id="Swipe-to-CandidateAPI" style="stroke:#181818;stroke-width:1.0;"/><polygon fill="#181818" points="426.89,470.9769,436.7376,471.1354,431.4912,469.02,433.6066,463.7736,426.89,470.9769" style="stroke:#181818;stroke-width:1.0;"/><text fill="#000000" font-family="sans-serif" font-size="13" lengthAdjust="spacing" textLength="137" x="570.96" y="290.9538">GET/POST candidates</text></g><!--link Cards to CandidateAPI--><g id="link_Cards_CandidateAPI"><path d="M233.94,248.3269 C248.11,256.0369 262.29,265.8369 273,277.8869 C279.8,285.5469 328.0015,411.5571 348.3615,465.2171 " fill="none" id="Cards-to-CandidateAPI" style="stroke:#181818;stroke-width:1.0;"/><polygon fill="#181818" points="350.49,470.8269,351.0371,460.9932,348.7163,466.1521,343.5574,463.8312,350.49,470.8269" style="stroke:#181818;stroke-width:1.0;"/><text fill="#000000" font-family="sans-serif" font-size="13" lengthAdjust="spacing" textLength="131" x="321.57" y="352.6038">Load candidate data</text></g><!--link Viewer to CandidateAPI--><g id="link_Viewer_CandidateAPI"><path d="M157.91,371.4069 C160.32,386.8269 165.75,406.8569 178,420.1869 C207.59,452.3769 247.5261,469.1377 285.6161,479.3877 " fill="none" id="Viewer-to-CandidateAPI" style="stroke:#181818;stroke-width:1.0;"/><polygon fill="#181818" points="291.41,480.9469,283.7586,474.7456,286.5818,479.6476,281.6798,482.4708,291.41,480.9469" style="stroke:#181818;stroke-width:1.0;"/><text fill="#000000" font-family="sans-serif" font-size="13" lengthAdjust="spacing" textLength="89" x="179" y="416.2538">Get AI reports</text></g><!--link Dashboard to CandidateAPI--><g id="link_Dashboard_CandidateAPI"><path d="M230.41,124.9869 C299.24,157.4669 415.24,224.7469 459,324.8869 C471.51,353.5169 471.09,366.3769 459,395.1869 C445.73,426.8069 421.5447,449.7831 398.1747,467.2631 " fill="none" id="Dashboard-to-CandidateAPI" style="stroke:#181818;stroke-width:1.0;"/><polygon fill="#181818" points="393.37,470.8569,402.9729,468.6694,397.3739,467.8621,398.1812,462.2631,393.37,470.8569" style="stroke:#181818;stroke-width:1.0;"/><text fill="#000000" font-family="sans-serif" font-size="13" lengthAdjust="spacing" textLength="83" x="442.68" y="290.9538">Get analytics</text></g><!--link CandidateAPI to DecisionAPI--><g id="link_CandidateAPI_DecisionAPI"><path d="M358.63,517.8569 C358.27,539.6469 357.8293,566.4677 357.4693,588.2177 " fill="none" id="CandidateAPI-to-DecisionAPI" style="stroke:#181818;stroke-width:1.0;"/><polygon fill="#181818" points="357.37,594.2169,361.5184,585.2843,357.4527,589.2176,353.5195,585.1519,357.37,594.2169" style="stroke:#181818;stroke-width:1.0;"/><text fill="#000000" font-family="sans-serif" font-size="13" lengthAdjust="spacing" textLength="109" x="359.12" y="560.5438">Submit decisions</text></g><!--link DecisionAPI to Workflow--><g id="link_DecisionAPI_Workflow"><path d="M359.79,641.1569 C362.48,662.9469 365.8035,689.8122 368.4935,711.5622 " fill="none" id="DecisionAPI-to-Workflow" style="stroke:#181818;stroke-width:1.0;"/><polygon fill="#181818" points="369.23,717.5169,372.0951,708.094,368.6163,712.5547,364.1556,709.0759,369.23,717.5169" style="stroke:#181818;stroke-width:1.0;"/><text fill="#000000" font-family="sans-serif" font-size="13" lengthAdjust="spacing" textLength="107" x="366.4" y="683.8438">Process workflow</text></g><!--link Workflow to Gateway--><g id="link_Workflow_Gateway"><path d="M373.3,764.4569 C374.56,786.2469 376.1028,813.0769 377.3628,834.8169 " fill="none" id="Workflow-to-Gateway" style="stroke:#181818;stroke-width:1.0;"/><polygon fill="#181818" points="377.71,840.8069,381.1826,831.5905,377.4207,835.8153,373.196,832.0534,377.71,840.8069" style="stroke:#181818;stroke-width:1.0;"/><text fill="#000000" font-family="sans-serif" font-size="13" lengthAdjust="spacing" textLength="89" x="376.92" y="807.1438">Sync changes</text></g><!--link Gateway to ATS--><g id="link_Gateway_ATS"><path d="M290.37,878.1469 C255.26,886.1569 215.79,898.9669 184,919.3669 C157.13,936.6169 138.0453,961.2832 124.6953,981.8632 " fill="none" id="Gateway-to-ATS" style="stroke:#181818;stroke-width:1.0;"/><polygon fill="#181818" points="121.43,986.8969,129.6837,981.5232,124.1511,982.7021,122.9721,977.1695,121.43,986.8969" style="stroke:#181818;stroke-width:1.0;"/><text fill="#000000" font-family="sans-serif" font-size="13" lengthAdjust="spacing" textLength="111" x="185" y="932.4338">Bidirectional sync</text></g><!--link Gateway to Calendar--><g id="link_Gateway_Calendar"><path d="M339.51,887.6469 C328.32,896.0769 317.44,906.7269 311,919.3669 C300.26,940.4469 300.097,962.0682 302.347,981.1382 " fill="none" id="Gateway-to-Calendar" style="stroke:#181818;stroke-width:1.0;"/><polygon fill="#181818" points="303.05,987.0969,305.9679,977.6902,302.4641,982.1313,298.023,978.6276,303.05,987.0969" style="stroke:#181818;stroke-width:1.0;"/><text fill="#000000" font-family="sans-serif" font-size="13" lengthAdjust="spacing" textLength="126" x="312" y="932.4338">Schedule interviews</text></g><!--link Gateway to Email--><g id="link_Gateway_Email"><path d="M410.83,887.6269 C422,896.5769 433.99,907.5769 443,919.3669 C458.83,940.0869 468.5339,962.0902 475.5339,981.2802 " fill="none" id="Gateway-to-Email" style="stroke:#181818;stroke-width:1.0;"/><polygon fill="#181818" points="477.59,986.9169,478.2636,977.0911,475.8766,982.2196,470.748,979.8326,477.59,986.9169" style="stroke:#181818;stroke-width:1.0;"/><text fill="#000000" font-family="sans-serif" font-size="13" lengthAdjust="spacing" textLength="114" x="454.57" y="932.4338">Send notifications</text></g><!--link Gateway to Notify--><g id="link_Gateway_Notify"><path d="M467.99,879.3069 C503.79,887.4969 544.45,900.1369 578,919.3669 C608.27,936.7169 631.9978,961.7636 648.8978,982.3036 " fill="none" id="Gateway-to-Notify" style="stroke:#181818;stroke-width:1.0;"/><polygon fill="#181818" points="652.71,986.9369,650.0806,977.4455,649.5332,983.0758,643.9029,982.5284,652.71,986.9369" style="stroke:#181818;stroke-width:1.0;"/><text fill="#000000" font-family="sans-serif" font-size="13" lengthAdjust="spacing" textLength="112" x="602.13" y="932.4338">Push notifications</text></g><!--link Cards to Viewer--><g id="link_Cards_Viewer"><path d="M160.64,248.2169 C155.18,257.0169 149.78,267.4969 147,277.8869 C142.91,293.2069 143.9248,305.131 147.2948,318.811 " fill="none" id="Cards-to-Viewer" style="stroke:#181818;stroke-width:1.0;"/><polygon fill="#181818" points="148.73,324.6369,150.4611,314.9414,147.534,319.782,142.6934,316.8549,148.73,324.6369" style="stroke:#181818;stroke-width:1.0;"/><text fill="#000000" font-family="sans-serif" font-size="13" lengthAdjust="spacing" textLength="120" x="148" y="290.9538">Open detailed view</text></g><!--link Dashboard to Cards--><g id="link_Dashboard_Cards"><path d="M177,124.9669 C177,146.7569 177,173.5769 177,195.3269 " fill="none" id="Dashboard-to-Cards" style="stroke:#181818;stroke-width:1.0;"/><polygon fill="#181818" points="177,201.3269,181,192.3269,177,196.3269,173,192.3269,177,201.3269" style="stroke:#181818;stroke-width:1.0;"/><text fill="#000000" font-family="sans-serif" font-size="13" lengthAdjust="spacing" textLength="88" x="178" y="167.6538">Filter and sort</text></g><!--SRC=[TLF1RjD04BtxAqOzjO88SVK1AKtJ4WdHg8xA0N7Oh2VEgiuwsbqtH0W943V-WA_WKWaaId_1_gFExDgk3ULYZTzxVZipR-sKon6gxzMVwdTrHy_RwgQwhR_Kt-3bnQZwoNLrKt-glnB-g_vS_OYYhP1N8aCuE3M5TgXJEBmi4Px0GfH67Ht0XmZWRR9JMuGP2SnAI7m7meB7c9m8dQfKE8I9CAdrfA-OlC1jOHnSAjoXyLGecHjhaU-TaXPEX5ql2_h6AxetVpGwftHcOIuqvk7a1ee-zle_feBRJz1SAucswVoXkV5yrhJM80ImuWIbighGdQ056lvDOQvMUR63gSwK3hEt6FEybSm8nnPdPBiJUwzfwa6Jq_UqGPeQahrrk6cR72yIE7m-UUfznJB78-z0S1WXfy64QKThfWWW2wOReV81wn6cNXTEhPGCtVKLdl3DXMn7enU3pK0CPzF5i_bviW3PuZRokJucVbM8z448z11HIFfHQtGmde7nbyD6NU3_quhsfaHHDA1PtykBv4cvt2W7QGEIUOzcUPTd37DJq4sni6lZx3WMDW6ovrvBa6kXCrf12xE4WulXMANAeEGTKxIMn0DHbnyPoJMc9VsaYd-bQzhFq2yaIJg-oRgNtL0MmkC1Ihl-IzUBgDb_3ETRrBGHH-QO0X_xpyhvcnXELKvzqRfJi9JCFG00]--></g></svg>