<svg xmlns="http://www.w3.org/2000/svg" xmlns:xlink="http://www.w3.org/1999/xlink" contentStyleType="text/css" height="964px" preserveAspectRatio="none" style="width:452px;height:964px;background:#FFFFFF;" version="1.1" viewBox="0 0 452 964" width="452px" zoomAndPan="magnify"><defs/><g><text fill="#000000" font-family="sans-serif" font-size="14" font-weight="bold" lengthAdjust="spacing" textLength="280" x="84.5" y="32.9951">&#1055;&#1088;&#1086;&#1094;&#1077;&#1089;&#1089; &#1087;&#1088;&#1086;&#1074;&#1077;&#1076;&#1077;&#1085;&#1080;&#1103; AI-&#1080;&#1085;&#1090;&#1077;&#1088;&#1074;&#1100;&#1102;</text><ellipse cx="258.5" cy="57.2969" fill="#222222" rx="10" ry="10" style="stroke:#222222;stroke-width:1.0;"/><rect fill="#F1F1F1" height="33.9688" rx="12.5" ry="12.5" style="stroke:#181818;stroke-width:0.5;" width="200" x="158.5" y="87.2969"/><text fill="#000000" font-family="sans-serif" font-size="12" lengthAdjust="spacing" textLength="180" x="168.5" y="108.4355">&#1050;&#1072;&#1085;&#1076;&#1080;&#1076;&#1072;&#1090; &#1087;&#1086;&#1083;&#1091;&#1095;&#1072;&#1077;&#1090; &#1089;&#1089;&#1099;&#1083;&#1082;&#1091;</text><rect fill="#F1F1F1" height="33.9688" rx="12.5" ry="12.5" style="stroke:#181818;stroke-width:0.5;" width="145" x="186" y="141.2656"/><text fill="#000000" font-family="sans-serif" font-size="12" lengthAdjust="spacing" textLength="125" x="196" y="162.4043">&#1055;&#1077;&#1088;&#1077;&#1093;&#1086;&#1076; &#1087;&#1086; &#1089;&#1089;&#1099;&#1083;&#1082;&#1077;</text><rect fill="#F1F1F1" height="33.9688" rx="12.5" ry="12.5" style="stroke:#181818;stroke-width:0.5;" width="173" x="172" y="195.2344"/><text fill="#000000" font-family="sans-serif" font-size="12" lengthAdjust="spacing" textLength="153" x="182" y="216.373">&#1055;&#1086;&#1082;&#1072;&#1079; &#1089;&#1086;&#1075;&#1083;&#1072;&#1089;&#1080;&#1103; &#1085;&#1072; &#1055;&#1044;&#1085;</text><polygon fill="#F1F1F1" points="194.5,249.2031,322.5,249.2031,334.5,261.2031,322.5,273.2031,194.5,273.2031,182.5,261.2031,194.5,249.2031" style="stroke:#181818;stroke-width:0.5;"/><text fill="#000000" font-family="sans-serif" font-size="11" lengthAdjust="spacing" textLength="128" x="194.5" y="265.0112">&#1057;&#1086;&#1075;&#1083;&#1072;&#1089;&#1080;&#1077; &#1087;&#1086;&#1076;&#1087;&#1080;&#1089;&#1072;&#1085;&#1086;?</text><text fill="#000000" font-family="sans-serif" font-size="11" lengthAdjust="spacing" textLength="17" x="165.5" y="258.6089">&#1044;&#1072;</text><text fill="#000000" font-family="sans-serif" font-size="11" lengthAdjust="spacing" textLength="22" x="334.5" y="258.6089">&#1053;&#1077;&#1090;</text><rect fill="#F1F1F1" height="33.9688" rx="12.5" ry="12.5" style="stroke:#181818;stroke-width:0.5;" width="160" x="60" y="283.2031"/><text fill="#000000" font-family="sans-serif" font-size="12" lengthAdjust="spacing" textLength="140" x="70" y="304.3418">&#1047;&#1072;&#1075;&#1088;&#1091;&#1079;&#1082;&#1072; 3D-&#1072;&#1074;&#1072;&#1090;&#1072;&#1088;&#1072;</text><rect fill="#F1F1F1" height="33.9688" rx="12.5" ry="12.5" style="stroke:#181818;stroke-width:0.5;" width="163" x="58.5" y="337.1719"/><text fill="#000000" font-family="sans-serif" font-size="12" lengthAdjust="spacing" textLength="143" x="68.5" y="358.3105">&#1053;&#1072;&#1095;&#1072;&#1083;&#1086; &#1079;&#1072;&#1087;&#1080;&#1089;&#1080; &#1084;&#1077;&#1076;&#1080;&#1072;</text><rect fill="none" height="339.6719" style="stroke:#000000;stroke-width:1.5;" width="282" x="11" y="391.1406"/><path d="M135,391.1406 L135,400.4375 L125,410.4375 L11,410.4375 " fill="none" style="stroke:#000000;stroke-width:1.5;"/><text fill="#000000" font-family="sans-serif" font-size="14" lengthAdjust="spacing" textLength="114" x="14" y="405.1357">&#1062;&#1080;&#1082;&#1083; &#1080;&#1085;&#1090;&#1077;&#1088;&#1074;&#1100;&#1102;</text><rect fill="#F1F1F1" height="33.9688" rx="12.5" ry="12.5" style="stroke:#181818;stroke-width:0.5;" width="134" x="73" y="471.4375"/><text fill="#000000" font-family="sans-serif" font-size="12" lengthAdjust="spacing" textLength="114" x="83" y="492.5762">AI &#1079;&#1072;&#1076;&#1072;&#1077;&#1090; &#1074;&#1086;&#1087;&#1088;&#1086;&#1089;</text><rect fill="#F1F1F1" height="33.9688" rx="12.5" ry="12.5" style="stroke:#181818;stroke-width:0.5;" width="156" x="62" y="525.4063"/><text fill="#000000" font-family="sans-serif" font-size="12" lengthAdjust="spacing" textLength="136" x="72" y="546.5449">&#1050;&#1072;&#1085;&#1076;&#1080;&#1076;&#1072;&#1090; &#1086;&#1090;&#1074;&#1077;&#1095;&#1072;&#1077;&#1090;</text><rect fill="#F1F1F1" height="33.9688" rx="12.5" ry="12.5" style="stroke:#181818;stroke-width:0.5;" width="204" x="38" y="586.875"/><text fill="#000000" font-family="sans-serif" font-size="12" lengthAdjust="spacing" textLength="184" x="48" y="608.0137">&#1040;&#1085;&#1072;&#1083;&#1080;&#1079; &#1074; &#1088;&#1077;&#1072;&#1083;&#1100;&#1085;&#1086;&#1084; &#1074;&#1088;&#1077;&#1084;&#1077;&#1085;&#1080;</text><rect fill="#F1F1F1" height="33.9688" rx="12.5" ry="12.5" style="stroke:#181818;stroke-width:0.5;" width="238" x="21" y="640.8438"/><text fill="#000000" font-family="sans-serif" font-size="12" lengthAdjust="spacing" textLength="218" x="31" y="661.9824">&#1040;&#1076;&#1072;&#1087;&#1090;&#1072;&#1094;&#1080;&#1103; &#1089;&#1083;&#1077;&#1076;&#1091;&#1102;&#1097;&#1077;&#1075;&#1086; &#1074;&#1086;&#1087;&#1088;&#1086;&#1089;&#1072;</text><polygon fill="#F1F1F1" points="140,427.4375,152,439.4375,140,451.4375,128,439.4375,140,427.4375" style="stroke:#181818;stroke-width:0.5;"/><polygon fill="#F1F1F1" points="96.5,694.8125,183.5,694.8125,195.5,706.8125,183.5,718.8125,96.5,718.8125,84.5,706.8125,96.5,694.8125" style="stroke:#181818;stroke-width:0.5;"/><text fill="#000000" font-family="sans-serif" font-size="11" lengthAdjust="spacing" textLength="87" x="96.5" y="710.6206">&#1045;&#1089;&#1090;&#1100; &#1074;&#1086;&#1087;&#1088;&#1086;&#1089;&#1099;?</text><text fill="#000000" font-family="sans-serif" font-size="11" lengthAdjust="spacing" textLength="17" x="195.5" y="704.2183">&#1044;&#1072;</text><rect fill="#F1F1F1" height="33.9688" rx="12.5" ry="12.5" style="stroke:#181818;stroke-width:0.5;" width="152" x="64" y="770.0229"/><text fill="#000000" font-family="sans-serif" font-size="12" lengthAdjust="spacing" textLength="132" x="74" y="791.1616">&#1047;&#1072;&#1074;&#1077;&#1088;&#1096;&#1077;&#1085;&#1080;&#1077; &#1079;&#1072;&#1087;&#1080;&#1089;&#1080;</text><rect fill="#F1F1F1" height="33.9688" rx="12.5" ry="12.5" style="stroke:#181818;stroke-width:0.5;" width="180" x="50" y="823.9917"/><text fill="#000000" font-family="sans-serif" font-size="12" lengthAdjust="spacing" textLength="160" x="60" y="845.1304">&#1057;&#1073;&#1086;&#1088; &#1092;&#1080;&#1085;&#1072;&#1083;&#1100;&#1085;&#1099;&#1093; &#1076;&#1072;&#1085;&#1085;&#1099;&#1093;</text><rect fill="#F1F1F1" height="33.9688" rx="12.5" ry="12.5" style="stroke:#181818;stroke-width:0.5;" width="128" x="76" y="877.9604"/><text fill="#000000" font-family="sans-serif" font-size="12" lengthAdjust="spacing" textLength="108" x="86" y="899.0991">&#1059;&#1074;&#1077;&#1076;&#1086;&#1084;&#1083;&#1077;&#1085;&#1080;&#1077; HR</text><ellipse cx="140" cy="942.9292" fill="none" rx="11" ry="11" style="stroke:#222222;stroke-width:1.0;"/><ellipse cx="140" cy="942.9292" fill="#222222" rx="6" ry="6" style="stroke:#222222;stroke-width:1.0;"/><rect fill="#F1F1F1" height="33.9688" rx="12.5" ry="12.5" style="stroke:#181818;stroke-width:0.5;" width="117" x="318.5" y="283.2031"/><text fill="#000000" font-family="sans-serif" font-size="12" lengthAdjust="spacing" textLength="97" x="328.5" y="304.3418">&#1047;&#1072;&#1087;&#1080;&#1089;&#1100; &#1086;&#1090;&#1082;&#1072;&#1079;&#1072;</text><rect fill="#F1F1F1" height="33.9688" rx="12.5" ry="12.5" style="stroke:#181818;stroke-width:0.5;" width="128" x="313" y="337.1719"/><text fill="#000000" font-family="sans-serif" font-size="12" lengthAdjust="spacing" textLength="108" x="323" y="358.3105">&#1059;&#1074;&#1077;&#1076;&#1086;&#1084;&#1083;&#1077;&#1085;&#1080;&#1077; HR</text><ellipse cx="377" cy="402.1406" fill="none" rx="11" ry="11" style="stroke:#222222;stroke-width:1.0;"/><ellipse cx="377" cy="402.1406" fill="#222222" rx="6" ry="6" style="stroke:#222222;stroke-width:1.0;"/><line style="stroke:#181818;stroke-width:1.0;" x1="258.5" x2="258.5" y1="67.2969" y2="87.2969"/><polygon fill="#181818" points="254.5,77.2969,258.5,87.2969,262.5,77.2969,258.5,81.2969" style="stroke:#181818;stroke-width:1.0;"/><line style="stroke:#181818;stroke-width:1.0;" x1="258.5" x2="258.5" y1="121.2656" y2="141.2656"/><polygon fill="#181818" points="254.5,131.2656,258.5,141.2656,262.5,131.2656,258.5,135.2656" style="stroke:#181818;stroke-width:1.0;"/><line style="stroke:#181818;stroke-width:1.0;" x1="258.5" x2="258.5" y1="175.2344" y2="195.2344"/><polygon fill="#181818" points="254.5,185.2344,258.5,195.2344,262.5,185.2344,258.5,189.2344" style="stroke:#181818;stroke-width:1.0;"/><line style="stroke:#181818;stroke-width:1.0;" x1="140" x2="140" y1="317.1719" y2="337.1719"/><polygon fill="#181818" points="136,327.1719,140,337.1719,144,327.1719,140,331.1719" style="stroke:#181818;stroke-width:1.0;"/><line style="stroke:#181818;stroke-width:1.0;" x1="140" x2="140" y1="505.4063" y2="525.4063"/><polygon fill="#181818" points="136,515.4063,140,525.4063,144,515.4063,140,519.4063" style="stroke:#181818;stroke-width:1.0;"/><line style="stroke:#181818;stroke-width:1.0;" x1="140" x2="140" y1="559.375" y2="586.875"/><polygon fill="#181818" points="136,576.875,140,586.875,144,576.875,140,580.875" style="stroke:#181818;stroke-width:1.0;"/><line style="stroke:#181818;stroke-width:1.0;" x1="140" x2="140" y1="620.8438" y2="640.8438"/><polygon fill="#181818" points="136,630.8438,140,640.8438,144,630.8438,140,634.8438" style="stroke:#181818;stroke-width:1.0;"/><line style="stroke:#181818;stroke-width:1.0;" x1="140" x2="140" y1="451.4375" y2="471.4375"/><polygon fill="#181818" points="136,461.4375,140,471.4375,144,461.4375,140,465.4375" style="stroke:#181818;stroke-width:1.0;"/><line style="stroke:#181818;stroke-width:1.0;" x1="195.5" x2="271" y1="706.8125" y2="706.8125"/><polygon fill="#181818" points="267,579.375,271,569.375,275,579.375,271,575.375" style="stroke:#181818;stroke-width:1.0;"/><line style="stroke:#181818;stroke-width:1.0;" x1="271" x2="271" y1="439.4375" y2="706.8125"/><line style="stroke:#181818;stroke-width:1.0;" x1="271" x2="152" y1="439.4375" y2="439.4375"/><polygon fill="#181818" points="162,435.4375,152,439.4375,162,443.4375,158,439.4375" style="stroke:#181818;stroke-width:1.0;"/><line style="stroke:#181818;stroke-width:1.0;" x1="140" x2="140" y1="674.8125" y2="694.8125"/><polygon fill="#181818" points="136,684.8125,140,694.8125,144,684.8125,140,688.8125" style="stroke:#181818;stroke-width:1.0;"/><line style="stroke:#181818;stroke-width:1.0;" x1="140" x2="140" y1="371.1406" y2="427.4375"/><polygon fill="#181818" points="136,417.4375,140,427.4375,144,417.4375,140,421.4375" style="stroke:#181818;stroke-width:1.0;"/><line style="stroke:#181818;stroke-width:1.0;" x1="140" x2="140" y1="718.8125" y2="770.0229"/><polygon fill="#181818" points="136,760.0229,140,770.0229,144,760.0229,140,764.0229" style="stroke:#181818;stroke-width:1.0;"/><text fill="#000000" font-family="sans-serif" font-size="11" lengthAdjust="spacing" textLength="22" x="144" y="748.5229">&#1053;&#1077;&#1090;</text><line style="stroke:#181818;stroke-width:1.0;" x1="140" x2="140" y1="803.9917" y2="823.9917"/><polygon fill="#181818" points="136,813.9917,140,823.9917,144,813.9917,140,817.9917" style="stroke:#181818;stroke-width:1.0;"/><line style="stroke:#181818;stroke-width:1.0;" x1="140" x2="140" y1="857.9604" y2="877.9604"/><polygon fill="#181818" points="136,867.9604,140,877.9604,144,867.9604,140,871.9604" style="stroke:#181818;stroke-width:1.0;"/><line style="stroke:#181818;stroke-width:1.0;" x1="140" x2="140" y1="911.9292" y2="931.9292"/><polygon fill="#181818" points="136,921.9292,140,931.9292,144,921.9292,140,925.9292" style="stroke:#181818;stroke-width:1.0;"/><line style="stroke:#181818;stroke-width:1.0;" x1="377" x2="377" y1="317.1719" y2="337.1719"/><polygon fill="#181818" points="373,327.1719,377,337.1719,381,327.1719,377,331.1719" style="stroke:#181818;stroke-width:1.0;"/><line style="stroke:#181818;stroke-width:1.0;" x1="377" x2="377" y1="371.1406" y2="391.1406"/><polygon fill="#181818" points="373,381.1406,377,391.1406,381,381.1406,377,385.1406" style="stroke:#181818;stroke-width:1.0;"/><line style="stroke:#181818;stroke-width:1.0;" x1="182.5" x2="140" y1="261.2031" y2="261.2031"/><line style="stroke:#181818;stroke-width:1.0;" x1="140" x2="140" y1="261.2031" y2="283.2031"/><polygon fill="#181818" points="136,273.2031,140,283.2031,144,273.2031,140,277.2031" style="stroke:#181818;stroke-width:1.0;"/><line style="stroke:#181818;stroke-width:1.0;" x1="334.5" x2="377" y1="261.2031" y2="261.2031"/><line style="stroke:#181818;stroke-width:1.0;" x1="377" x2="377" y1="261.2031" y2="283.2031"/><polygon fill="#181818" points="373,273.2031,377,283.2031,381,273.2031,377,277.2031" style="stroke:#181818;stroke-width:1.0;"/><line style="stroke:#181818;stroke-width:1.0;" x1="258.5" x2="258.5" y1="229.2031" y2="249.2031"/><polygon fill="#181818" points="254.5,239.2031,258.5,249.2031,262.5,239.2031,258.5,243.2031" style="stroke:#181818;stroke-width:1.0;"/><!--SRC=[XLB1IXjH5DtFLrnSwIAhxWmeWWlT-WT2HnoG6Cn05qMO94rgIL0NbaAXY0XTZyaC3fba_8Lp_wZdlfSXKxiePC9zzvvttpddtZYABqB1eoQeT8nS-zeNlDaHC-J8-ArGw9qS7BTGOAK3WXBCTAgtGT2BJw_YO1S_aHAM4P0XrG4xy7wfG_tAGiw4zTK9IYnqsEQ5HzSbrn5ncOCt8CWzf6AOufKLXdDMKaR6XM-b98q7hDf149t9DfwQ4EIUGSR_WWaZL-tlI7mUTeXzGBeJYEpY1ojpJNI8LtjAFXosc9cP17u9qhQ3_UB1X9HaIMIwxbe8biwYmWFvwzAEA8ukExA5tymlKCfxrxRaCv4YLs4tF8rTo4SEZdthR6qOMLH-3jflrw1_VQxOcNEgVTuWxyqZCYxe7sPYPjjPfsO5biovrDBFjtdF6Bmv0yRER2ejJIQdUQlV6CtDXWOzhxuM99_E8wxKDhvpd0ET_WNL2QSGzJOp46djqTyrzMlleX-CoKhqnXEqYJQSztDvmWkR9g9VpEDQdavq94x5oXyy-7czpnJlzFYcHoTMxSMNtI2yw1bjHsQp7kv1Ks5EktMij-B_3JiVexC_]--></g></svg>