<svg xmlns="http://www.w3.org/2000/svg" xmlns:xlink="http://www.w3.org/1999/xlink" contentStyleType="text/css" height="846px" preserveAspectRatio="none" style="width:968px;height:846px;background:#FFFFFF;" version="1.1" viewBox="0 0 968 846" width="968px" zoomAndPan="magnify"><defs/><g><text fill="#000000" font-family="sans-serif" font-size="14" font-weight="bold" lengthAdjust="spacing" textLength="383" x="291.75" y="27.9951">&#1055;&#1086;&#1089;&#1083;&#1077;&#1076;&#1086;&#1074;&#1072;&#1090;&#1077;&#1083;&#1100;&#1085;&#1086;&#1089;&#1090;&#1100; &#1087;&#1088;&#1086;&#1074;&#1077;&#1076;&#1077;&#1085;&#1080;&#1103; AI-&#1080;&#1085;&#1090;&#1077;&#1088;&#1074;&#1100;&#1102;</text><rect fill="none" height="175.7969" style="stroke:#000000;stroke-width:1.5;" width="802.5" x="10" y="485.1875"/><line style="stroke:#181818;stroke-width:0.5;stroke-dasharray:5.0,5.0;" x1="59" x2="59" y1="118.5938" y2="765.3828"/><line style="stroke:#181818;stroke-width:0.5;stroke-dasharray:5.0,5.0;" x1="240.5" x2="240.5" y1="118.5938" y2="765.3828"/><line style="stroke:#181818;stroke-width:0.5;stroke-dasharray:5.0,5.0;" x1="413" x2="413" y1="118.5938" y2="765.3828"/><line style="stroke:#181818;stroke-width:0.5;stroke-dasharray:5.0,5.0;" x1="529" x2="529" y1="118.5938" y2="765.3828"/><line style="stroke:#181818;stroke-width:0.5;stroke-dasharray:5.0,5.0;" x1="743.5" x2="743.5" y1="118.5938" y2="765.3828"/><line style="stroke:#181818;stroke-width:0.5;stroke-dasharray:5.0,5.0;" x1="865.5" x2="865.5" y1="118.5938" y2="765.3828"/><line style="stroke:#181818;stroke-width:0.5;stroke-dasharray:5.0,5.0;" x1="945.5" x2="945.5" y1="118.5938" y2="765.3828"/><text fill="#000000" font-family="sans-serif" font-size="14" lengthAdjust="spacing" textLength="73" x="20" y="115.292">&#1050;&#1072;&#1085;&#1076;&#1080;&#1076;&#1072;&#1090;</text><ellipse cx="59.5" cy="50.7969" fill="#E2E2F0" rx="8" ry="8" style="stroke:#181818;stroke-width:0.5;"/><path d="M59.5,58.7969 L59.5,85.7969 M46.5,66.7969 L72.5,66.7969 M59.5,85.7969 L46.5,100.7969 M59.5,85.7969 L72.5,100.7969 " fill="none" style="stroke:#181818;stroke-width:0.5;"/><text fill="#000000" font-family="sans-serif" font-size="14" lengthAdjust="spacing" textLength="73" x="20" y="777.3779">&#1050;&#1072;&#1085;&#1076;&#1080;&#1076;&#1072;&#1090;</text><ellipse cx="59.5" cy="789.1797" fill="#E2E2F0" rx="8" ry="8" style="stroke:#181818;stroke-width:0.5;"/><path d="M59.5,797.1797 L59.5,824.1797 M46.5,805.1797 L72.5,805.1797 M59.5,824.1797 L46.5,839.1797 M59.5,824.1797 L72.5,839.1797 " fill="none" style="stroke:#181818;stroke-width:0.5;"/><rect fill="#E2E2F0" height="30.2969" rx="2.5" ry="2.5" style="stroke:#181818;stroke-width:0.5;" width="74" x="203.5" y="87.2969"/><text fill="#000000" font-family="sans-serif" font-size="14" lengthAdjust="spacing" textLength="60" x="210.5" y="107.292">&#1041;&#1088;&#1072;&#1091;&#1079;&#1077;&#1088;</text><rect fill="#E2E2F0" height="30.2969" rx="2.5" ry="2.5" style="stroke:#181818;stroke-width:0.5;" width="74" x="203.5" y="764.3828"/><text fill="#000000" font-family="sans-serif" font-size="14" lengthAdjust="spacing" textLength="60" x="210.5" y="784.3779">&#1041;&#1088;&#1072;&#1091;&#1079;&#1077;&#1088;</text><rect fill="#E2E2F0" height="30.2969" rx="2.5" ry="2.5" style="stroke:#181818;stroke-width:0.5;" width="123" x="352" y="87.2969"/><text fill="#000000" font-family="sans-serif" font-size="14" lengthAdjust="spacing" textLength="109" x="359" y="107.292">&#1057;&#1077;&#1088;&#1074;&#1077;&#1088; &#1089;&#1077;&#1089;&#1089;&#1080;&#1081;</text><rect fill="#E2E2F0" height="30.2969" rx="2.5" ry="2.5" style="stroke:#181818;stroke-width:0.5;" width="123" x="352" y="764.3828"/><text fill="#000000" font-family="sans-serif" font-size="14" lengthAdjust="spacing" textLength="109" x="359" y="784.3779">&#1057;&#1077;&#1088;&#1074;&#1077;&#1088; &#1089;&#1077;&#1089;&#1089;&#1080;&#1081;</text><rect fill="#E2E2F0" height="30.2969" rx="2.5" ry="2.5" style="stroke:#181818;stroke-width:0.5;" width="89" x="485" y="87.2969"/><text fill="#000000" font-family="sans-serif" font-size="14" lengthAdjust="spacing" textLength="75" x="492" y="107.292">AI &#1044;&#1074;&#1080;&#1078;&#1086;&#1082;</text><rect fill="#E2E2F0" height="30.2969" rx="2.5" ry="2.5" style="stroke:#181818;stroke-width:0.5;" width="89" x="485" y="764.3828"/><text fill="#000000" font-family="sans-serif" font-size="14" lengthAdjust="spacing" textLength="75" x="492" y="784.3779">AI &#1044;&#1074;&#1080;&#1078;&#1086;&#1082;</text><rect fill="#E2E2F0" height="30.2969" rx="2.5" ry="2.5" style="stroke:#181818;stroke-width:0.5;" width="118" x="684.5" y="87.2969"/><text fill="#000000" font-family="sans-serif" font-size="14" lengthAdjust="spacing" textLength="104" x="691.5" y="107.292">&#1052;&#1077;&#1076;&#1080;&#1072; &#1089;&#1077;&#1088;&#1074;&#1077;&#1088;</text><rect fill="#E2E2F0" height="30.2969" rx="2.5" ry="2.5" style="stroke:#181818;stroke-width:0.5;" width="118" x="684.5" y="764.3828"/><text fill="#000000" font-family="sans-serif" font-size="14" lengthAdjust="spacing" textLength="104" x="691.5" y="784.3779">&#1052;&#1077;&#1076;&#1080;&#1072; &#1089;&#1077;&#1088;&#1074;&#1077;&#1088;</text><rect fill="#E2E2F0" height="30.2969" rx="2.5" ry="2.5" style="stroke:#181818;stroke-width:0.5;" width="106" x="812.5" y="87.2969"/><text fill="#000000" font-family="sans-serif" font-size="14" lengthAdjust="spacing" textLength="92" x="819.5" y="107.292">&#1041;&#1072;&#1079;&#1072; &#1076;&#1072;&#1085;&#1085;&#1099;&#1093;</text><rect fill="#E2E2F0" height="30.2969" rx="2.5" ry="2.5" style="stroke:#181818;stroke-width:0.5;" width="106" x="812.5" y="764.3828"/><text fill="#000000" font-family="sans-serif" font-size="14" lengthAdjust="spacing" textLength="92" x="819.5" y="784.3779">&#1041;&#1072;&#1079;&#1072; &#1076;&#1072;&#1085;&#1085;&#1099;&#1093;</text><rect fill="#E2E2F0" height="30.2969" rx="2.5" ry="2.5" style="stroke:#181818;stroke-width:0.5;" width="34" x="928.5" y="87.2969"/><text fill="#000000" font-family="sans-serif" font-size="14" lengthAdjust="spacing" textLength="20" x="935.5" y="107.292">HR</text><rect fill="#E2E2F0" height="30.2969" rx="2.5" ry="2.5" style="stroke:#181818;stroke-width:0.5;" width="34" x="928.5" y="764.3828"/><text fill="#000000" font-family="sans-serif" font-size="14" lengthAdjust="spacing" textLength="20" x="935.5" y="784.3779">HR</text><polygon fill="#181818" points="228.5,145.7266,238.5,149.7266,228.5,153.7266,232.5,149.7266" style="stroke:#181818;stroke-width:1.0;"/><line style="stroke:#181818;stroke-width:1.0;" x1="59.5" x2="234.5" y1="149.7266" y2="149.7266"/><text fill="#000000" font-family="sans-serif" font-size="13" lengthAdjust="spacing" textLength="147" x="66.5" y="144.6606">&#1055;&#1077;&#1088;&#1077;&#1093;&#1086;&#1076;&#1080;&#1090; &#1087;&#1086; &#1089;&#1089;&#1099;&#1083;&#1082;&#1077;</text><polygon fill="#181818" points="401.5,174.8594,411.5,178.8594,401.5,182.8594,405.5,178.8594" style="stroke:#181818;stroke-width:1.0;"/><line style="stroke:#181818;stroke-width:1.0;" x1="240.5" x2="407.5" y1="178.8594" y2="178.8594"/><text fill="#000000" font-family="sans-serif" font-size="13" lengthAdjust="spacing" textLength="97" x="247.5" y="173.7935">&#1047;&#1072;&#1087;&#1088;&#1086;&#1089; &#1089;&#1077;&#1089;&#1089;&#1080;&#1080;</text><polygon fill="#181818" points="853.5,203.9922,863.5,207.9922,853.5,211.9922,857.5,207.9922" style="stroke:#181818;stroke-width:1.0;"/><line style="stroke:#181818;stroke-width:1.0;" x1="413.5" x2="859.5" y1="207.9922" y2="207.9922"/><text fill="#000000" font-family="sans-serif" font-size="13" lengthAdjust="spacing" textLength="151" x="420.5" y="202.9263">&#1055;&#1088;&#1086;&#1074;&#1077;&#1088;&#1082;&#1072; &#1074;&#1072;&#1083;&#1080;&#1076;&#1085;&#1086;&#1089;&#1090;&#1080;</text><polygon fill="#181818" points="424.5,233.125,414.5,237.125,424.5,241.125,420.5,237.125" style="stroke:#181818;stroke-width:1.0;"/><line style="stroke:#181818;stroke-width:1.0;stroke-dasharray:2.0,2.0;" x1="418.5" x2="864.5" y1="237.125" y2="237.125"/><text fill="#000000" font-family="sans-serif" font-size="13" lengthAdjust="spacing" textLength="120" x="430.5" y="232.0591">&#1044;&#1072;&#1085;&#1085;&#1099;&#1077; &#1074;&#1072;&#1082;&#1072;&#1085;&#1089;&#1080;&#1080;</text><polygon fill="#181818" points="251.5,262.2578,241.5,266.2578,251.5,270.2578,247.5,266.2578" style="stroke:#181818;stroke-width:1.0;"/><line style="stroke:#181818;stroke-width:1.0;stroke-dasharray:2.0,2.0;" x1="245.5" x2="412.5" y1="266.2578" y2="266.2578"/><text fill="#000000" font-family="sans-serif" font-size="13" lengthAdjust="spacing" textLength="149" x="257.5" y="261.1919">&#1047;&#1072;&#1075;&#1088;&#1091;&#1079;&#1082;&#1072; &#1080;&#1085;&#1090;&#1077;&#1088;&#1092;&#1077;&#1081;&#1089;&#1072;</text><polygon fill="#181818" points="70.5,291.3906,60.5,295.3906,70.5,299.3906,66.5,295.3906" style="stroke:#181818;stroke-width:1.0;"/><line style="stroke:#181818;stroke-width:1.0;" x1="64.5" x2="239.5" y1="295.3906" y2="295.3906"/><text fill="#000000" font-family="sans-serif" font-size="13" lengthAdjust="spacing" textLength="157" x="76.5" y="290.3247">&#1055;&#1086;&#1082;&#1072;&#1079; &#1089;&#1086;&#1075;&#1083;&#1072;&#1089;&#1080;&#1103; &#1085;&#1072; &#1055;&#1044;&#1085;</text><polygon fill="#181818" points="228.5,320.5234,238.5,324.5234,228.5,328.5234,232.5,324.5234" style="stroke:#181818;stroke-width:1.0;"/><line style="stroke:#181818;stroke-width:1.0;" x1="59.5" x2="234.5" y1="324.5234" y2="324.5234"/><text fill="#000000" font-family="sans-serif" font-size="13" lengthAdjust="spacing" textLength="115" x="66.5" y="319.4575">&#1055;&#1086;&#1076;&#1087;&#1080;&#1089;&#1072;&#1085;&#1080;&#1077; &#1069;&#1062;&#1055;</text><polygon fill="#181818" points="853.5,349.6563,863.5,353.6563,853.5,357.6563,857.5,353.6563" style="stroke:#181818;stroke-width:1.0;"/><line style="stroke:#181818;stroke-width:1.0;" x1="240.5" x2="859.5" y1="353.6563" y2="353.6563"/><text fill="#000000" font-family="sans-serif" font-size="13" lengthAdjust="spacing" textLength="145" x="247.5" y="348.5903">&#1057;&#1086;&#1093;&#1088;&#1072;&#1085;&#1077;&#1085;&#1080;&#1077; &#1089;&#1086;&#1075;&#1083;&#1072;&#1089;&#1080;&#1103;</text><polygon fill="#181818" points="731.5,378.7891,741.5,382.7891,731.5,386.7891,735.5,382.7891" style="stroke:#181818;stroke-width:1.0;"/><line style="stroke:#181818;stroke-width:1.0;" x1="240.5" x2="737.5" y1="382.7891" y2="382.7891"/><text fill="#000000" font-family="sans-serif" font-size="13" lengthAdjust="spacing" textLength="162" x="247.5" y="377.7231">&#1048;&#1085;&#1080;&#1094;&#1080;&#1072;&#1083;&#1080;&#1079;&#1072;&#1094;&#1080;&#1103; WebRTC</text><polygon fill="#181818" points="251.5,407.9219,241.5,411.9219,251.5,415.9219,247.5,411.9219" style="stroke:#181818;stroke-width:1.0;"/><line style="stroke:#181818;stroke-width:1.0;stroke-dasharray:2.0,2.0;" x1="245.5" x2="742.5" y1="411.9219" y2="411.9219"/><text fill="#000000" font-family="sans-serif" font-size="13" lengthAdjust="spacing" textLength="114" x="257.5" y="406.856">&#1055;&#1086;&#1076;&#1090;&#1074;&#1077;&#1088;&#1078;&#1076;&#1077;&#1085;&#1080;&#1077;</text><polygon fill="#181818" points="517.5,437.0547,527.5,441.0547,517.5,445.0547,521.5,441.0547" style="stroke:#181818;stroke-width:1.0;"/><line style="stroke:#181818;stroke-width:1.0;" x1="240.5" x2="523.5" y1="441.0547" y2="441.0547"/><text fill="#000000" font-family="sans-serif" font-size="13" lengthAdjust="spacing" textLength="166" x="247.5" y="435.9888">&#1047;&#1072;&#1087;&#1088;&#1086;&#1089; &#1087;&#1077;&#1088;&#1074;&#1086;&#1075;&#1086; &#1074;&#1086;&#1087;&#1088;&#1086;&#1089;&#1072;</text><polygon fill="#181818" points="251.5,466.1875,241.5,470.1875,251.5,474.1875,247.5,470.1875" style="stroke:#181818;stroke-width:1.0;"/><line style="stroke:#181818;stroke-width:1.0;stroke-dasharray:2.0,2.0;" x1="245.5" x2="528.5" y1="470.1875" y2="470.1875"/><text fill="#000000" font-family="sans-serif" font-size="13" lengthAdjust="spacing" textLength="227" x="257.5" y="465.1216">&#1058;&#1077;&#1082;&#1089;&#1090; &#1074;&#1086;&#1087;&#1088;&#1086;&#1089;&#1072; + &#1101;&#1084;&#1086;&#1094;&#1080;&#1103; &#1072;&#1074;&#1072;&#1090;&#1072;&#1088;&#1072;</text><path d="M10,485.1875 L87,485.1875 L87,492.3203 L77,502.3203 L10,502.3203 L10,485.1875 " fill="#EEEEEE" style="stroke:#000000;stroke-width:1.5;"/><rect fill="none" height="175.7969" style="stroke:#000000;stroke-width:1.5;" width="802.5" x="10" y="485.1875"/><text fill="#000000" font-family="sans-serif" font-size="13" font-weight="bold" lengthAdjust="spacing" textLength="32" x="25" y="498.2544">loop</text><text fill="#000000" font-family="sans-serif" font-size="11" font-weight="bold" lengthAdjust="spacing" textLength="89" x="102" y="497.3979">[15-20 &#1084;&#1080;&#1085;&#1091;&#1090;]</text><polygon fill="#181818" points="228.5,519.4531,238.5,523.4531,228.5,527.4531,232.5,523.4531" style="stroke:#181818;stroke-width:1.0;"/><line style="stroke:#181818;stroke-width:1.0;" x1="59.5" x2="234.5" y1="523.4531" y2="523.4531"/><text fill="#000000" font-family="sans-serif" font-size="13" lengthAdjust="spacing" textLength="145" x="66.5" y="518.3872">&#1054;&#1090;&#1074;&#1077;&#1090; (&#1074;&#1080;&#1076;&#1077;&#1086;/&#1072;&#1091;&#1076;&#1080;&#1086;)</text><polygon fill="#181818" points="731.5,548.5859,741.5,552.5859,731.5,556.5859,735.5,552.5859" style="stroke:#181818;stroke-width:1.0;"/><line style="stroke:#181818;stroke-width:1.0;" x1="240.5" x2="737.5" y1="552.5859" y2="552.5859"/><text fill="#000000" font-family="sans-serif" font-size="13" lengthAdjust="spacing" textLength="120" x="247.5" y="547.52">&#1055;&#1077;&#1088;&#1077;&#1076;&#1072;&#1095;&#1072; &#1087;&#1086;&#1090;&#1086;&#1082;&#1072;</text><polygon fill="#181818" points="540.5,577.7188,530.5,581.7188,540.5,585.7188,536.5,581.7188" style="stroke:#181818;stroke-width:1.0;"/><line style="stroke:#181818;stroke-width:1.0;" x1="534.5" x2="742.5" y1="581.7188" y2="581.7188"/><text fill="#000000" font-family="sans-serif" font-size="13" lengthAdjust="spacing" textLength="190" x="546.5" y="576.6528">&#1040;&#1085;&#1072;&#1083;&#1080;&#1079; &#1074; &#1088;&#1077;&#1072;&#1083;&#1100;&#1085;&#1086;&#1084; &#1074;&#1088;&#1077;&#1084;&#1077;&#1085;&#1080;</text><line style="stroke:#181818;stroke-width:1.0;" x1="529.5" x2="571.5" y1="610.8516" y2="610.8516"/><line style="stroke:#181818;stroke-width:1.0;" x1="571.5" x2="571.5" y1="610.8516" y2="623.8516"/><line style="stroke:#181818;stroke-width:1.0;" x1="530.5" x2="571.5" y1="623.8516" y2="623.8516"/><polygon fill="#181818" points="540.5,619.8516,530.5,623.8516,540.5,627.8516,536.5,623.8516" style="stroke:#181818;stroke-width:1.0;"/><text fill="#000000" font-family="sans-serif" font-size="13" lengthAdjust="spacing" textLength="196" x="536.5" y="605.7856">&#1054;&#1073;&#1088;&#1072;&#1073;&#1086;&#1090;&#1082;&#1072; (Whisper, &#1101;&#1084;&#1086;&#1094;&#1080;&#1080;)</text><polygon fill="#181818" points="251.5,648.9844,241.5,652.9844,251.5,656.9844,247.5,652.9844" style="stroke:#181818;stroke-width:1.0;"/><line style="stroke:#181818;stroke-width:1.0;stroke-dasharray:2.0,2.0;" x1="245.5" x2="528.5" y1="652.9844" y2="652.9844"/><text fill="#000000" font-family="sans-serif" font-size="13" lengthAdjust="spacing" textLength="132" x="257.5" y="647.9185">&#1057;&#1083;&#1077;&#1076;&#1091;&#1102;&#1097;&#1080;&#1081; &#1074;&#1086;&#1087;&#1088;&#1086;&#1089;</text><polygon fill="#181818" points="401.5,685.1172,411.5,689.1172,401.5,693.1172,405.5,689.1172" style="stroke:#181818;stroke-width:1.0;"/><line style="stroke:#181818;stroke-width:1.0;" x1="240.5" x2="407.5" y1="689.1172" y2="689.1172"/><text fill="#000000" font-family="sans-serif" font-size="13" lengthAdjust="spacing" textLength="134" x="247.5" y="684.0513">&#1057;&#1080;&#1075;&#1085;&#1072;&#1083; &#1079;&#1072;&#1074;&#1077;&#1088;&#1096;&#1077;&#1085;&#1080;&#1103;</text><polygon fill="#181818" points="853.5,714.25,863.5,718.25,853.5,722.25,857.5,718.25" style="stroke:#181818;stroke-width:1.0;"/><line style="stroke:#181818;stroke-width:1.0;" x1="413.5" x2="859.5" y1="718.25" y2="718.25"/><text fill="#000000" font-family="sans-serif" font-size="13" lengthAdjust="spacing" textLength="181" x="420.5" y="713.1841">&#1057;&#1086;&#1093;&#1088;&#1072;&#1085;&#1077;&#1085;&#1080;&#1077; &#1089;&#1099;&#1088;&#1099;&#1093; &#1076;&#1072;&#1085;&#1085;&#1099;&#1093;</text><polygon fill="#181818" points="933.5,743.3828,943.5,747.3828,933.5,751.3828,937.5,747.3828" style="stroke:#181818;stroke-width:1.0;"/><line style="stroke:#181818;stroke-width:1.0;" x1="413.5" x2="939.5" y1="747.3828" y2="747.3828"/><text fill="#000000" font-family="sans-serif" font-size="13" lengthAdjust="spacing" textLength="193" x="420.5" y="742.3169">&#1059;&#1074;&#1077;&#1076;&#1086;&#1084;&#1083;&#1077;&#1085;&#1080;&#1077; (&#1086;&#1087;&#1094;&#1080;&#1086;&#1085;&#1072;&#1083;&#1100;&#1085;&#1086;)</text><!--SRC=[XLHDQnDH5Ds_N_7eAa637-36XP2OXLcugKBNiHteG4b2Ck0sIOqVD5Q5W2BI4WLtmhJ9DDDfClaBz_qZpxtlZMJ6e9isoJldtdFElUy5Vd3aQJgdr0peXYAQKqgN59eXFj-OCQtun0pDMDFQzEMGGH4EOlD1LniLYcd5S9nUch4vLQgv7xIxchvI2DGSvtCkg3hDRk3l-vrcAz0xz0duq1pJWfaxkjdJjMxxPS_h5d1JMvd_QcYCe6Q0ajT2UURrUdwxbQTK6vecOCHq1Rs90AkDGjblOYEcq1Pr7GJxr3lmcqMryB80cAt0rCgSc960wpMbYavrvL5cvY5do-KZCu8OG71CQqer-p0do3oXI3aq4vqb43-ZgcHk1flEO-KWZAxNk4Cs6FnFM2G6YCAineqFf7fDLtBb9vaJYYmZuH-ABN9MMD7Cz6LgqkZFwCqhv7aDSgWspHIJaJXIwRHWJodD83JafbWc84C6J6ZrtqmvopLO0u75xE4N_QJppUuIpXG9Z7ZN08iSjDWvfrd63-8NMV7Nl2CI9iRFtw1pptkn-_on4c0X8H66IEmmhhARaXznjL6OBfpO5MHLgPOFxWo1Of_pJRwZQC9ZBI3rBMtUqn9Vh4vqi5SvPFzA7RNR7NtlGUN-NGqKp-uOrrBhVsTzvkmCTKak5LjAxyZTPKPQHeKjyRcrbuflUAvOUbIIuOFXmdDXVEJHsvJXIGinpDuVMk8t-MbfqmITCt7SCxgGyLv8VLxBqjwXt-jutTiRSL1SThISkQbzz134gNd7pqekKkMr3jJsopa5U6PLQruDEt7pDdiP_xgas_SGxqYVtvBSmxB9VR8BxW_twY8AqMlP9H7Atb8hnCPL_Wq0]--></g></svg>