<svg xmlns="http://www.w3.org/2000/svg" xmlns:xlink="http://www.w3.org/1999/xlink" contentStyleType="text/css" height="671px" preserveAspectRatio="none" style="width:1662px;height:671px;background:#FFFFFF;" version="1.1" viewBox="0 0 1662 671" width="1662px" zoomAndPan="magnify"><defs/><g><text fill="#000000" font-family="sans-serif" font-size="14" font-weight="bold" lengthAdjust="spacing" textLength="274" x="687.43" y="22.9951">&#1050;&#1086;&#1084;&#1087;&#1086;&#1085;&#1077;&#1085;&#1090;&#1099; &#1084;&#1086;&#1076;&#1091;&#1083;&#1103; AI-&#1080;&#1085;&#1090;&#1077;&#1088;&#1074;&#1100;&#1102;</text><!--cluster ?????????? ?????--><g id="cluster_&#1050;&#1083;&#1080;&#1077;&#1085;&#1090;&#1089;&#1082;&#1072;&#1103; &#1095;&#1072;&#1089;&#1090;&#1100;"><path d="M8.5,153.5869 L155.5,153.5869 A3.75,3.75 0 0 1 158,156.0869 L165,175.8837 L211.5,175.8837 A2.5,2.5 0 0 1 214,178.3837 L214,515.9769 A2.5,2.5 0 0 1 211.5,518.4769 L8.5,518.4769 A2.5,2.5 0 0 1 6,515.9769 L6,156.0869 A2.5,2.5 0 0 1 8.5,153.5869 " fill="none" style="stroke:#000000;stroke-width:1.5;"/><line style="stroke:#000000;stroke-width:1.5;" x1="6" x2="165" y1="175.8837" y2="175.8837"/><text fill="#000000" font-family="sans-serif" font-size="14" font-weight="bold" lengthAdjust="spacing" textLength="146" x="10" y="168.582">&#1050;&#1083;&#1080;&#1077;&#1085;&#1090;&#1089;&#1082;&#1072;&#1103; &#1095;&#1072;&#1089;&#1090;&#1100;</text></g><!--cluster ????????? ?????--><g id="cluster_&#1057;&#1077;&#1088;&#1074;&#1077;&#1088;&#1085;&#1072;&#1103; &#1095;&#1072;&#1089;&#1090;&#1100;"><path d="M240.5,297.8869 L379.5,297.8869 A3.75,3.75 0 0 1 382,300.3869 L389,320.1838 L644.5,320.1838 A2.5,2.5 0 0 1 647,322.6838 L647,662.2769 A2.5,2.5 0 0 1 644.5,664.7769 L240.5,664.7769 A2.5,2.5 0 0 1 238,662.2769 L238,300.3869 A2.5,2.5 0 0 1 240.5,297.8869 " fill="none" style="stroke:#000000;stroke-width:1.5;"/><line style="stroke:#000000;stroke-width:1.5;" x1="238" x2="389" y1="320.1838" y2="320.1838"/><text fill="#000000" font-family="sans-serif" font-size="14" font-weight="bold" lengthAdjust="spacing" textLength="138" x="242" y="312.882">&#1057;&#1077;&#1088;&#1074;&#1077;&#1088;&#1085;&#1072;&#1103; &#1095;&#1072;&#1089;&#1090;&#1100;</text></g><!--cluster ??????? ???????--><g id="cluster_&#1042;&#1085;&#1077;&#1096;&#1085;&#1080;&#1077; &#1089;&#1077;&#1088;&#1074;&#1080;&#1089;&#1099;"><path d="M856.5,567.4769 L1007.5,567.4769 A3.75,3.75 0 0 1 1010,569.9769 L1017,589.7738 L1351.5,589.7738 A2.5,2.5 0 0 1 1354,592.2738 L1354,662.2769 A2.5,2.5 0 0 1 1351.5,664.7769 L856.5,664.7769 A2.5,2.5 0 0 1 854,662.2769 L854,569.9769 A2.5,2.5 0 0 1 856.5,567.4769 " fill="none" style="stroke:#000000;stroke-width:1.5;"/><line style="stroke:#000000;stroke-width:1.5;" x1="854" x2="1017" y1="589.7738" y2="589.7738"/><text fill="#000000" font-family="sans-serif" font-size="14" font-weight="bold" lengthAdjust="spacing" textLength="150" x="858" y="582.472">&#1042;&#1085;&#1077;&#1096;&#1085;&#1080;&#1077; &#1089;&#1077;&#1088;&#1074;&#1080;&#1089;&#1099;</text></g><!--entity Avatar--><g id="elem_Avatar"><rect fill="#F1F1F1" height="46.2969" rx="2.5" ry="2.5" style="stroke:#181818;stroke-width:0.5;" width="175" x="22.5" y="188.5869"/><rect fill="#F1F1F1" height="10" style="stroke:#181818;stroke-width:0.5;" width="15" x="177.5" y="193.5869"/><rect fill="#F1F1F1" height="2" style="stroke:#181818;stroke-width:0.5;" width="4" x="175.5" y="195.5869"/><rect fill="#F1F1F1" height="2" style="stroke:#181818;stroke-width:0.5;" width="4" x="175.5" y="199.5869"/><text fill="#000000" font-family="sans-serif" font-size="14" lengthAdjust="spacing" textLength="135" x="37.5" y="221.582">3D Avatar Renderer</text></g><!--entity Capture--><g id="elem_Capture"><rect fill="#F1F1F1" height="46.2969" rx="2.5" ry="2.5" style="stroke:#181818;stroke-width:0.5;" width="140" x="22" y="332.8869"/><rect fill="#F1F1F1" height="10" style="stroke:#181818;stroke-width:0.5;" width="15" x="142" y="337.8869"/><rect fill="#F1F1F1" height="2" style="stroke:#181818;stroke-width:0.5;" width="4" x="140" y="339.8869"/><rect fill="#F1F1F1" height="2" style="stroke:#181818;stroke-width:0.5;" width="4" x="140" y="343.8869"/><text fill="#000000" font-family="sans-serif" font-size="14" lengthAdjust="spacing" textLength="100" x="37" y="365.882">Media Capture</text></g><!--entity WebRTC--><g id="elem_WebRTC"><rect fill="#F1F1F1" height="46.2969" rx="2.5" ry="2.5" style="stroke:#181818;stroke-width:0.5;" width="143" x="38.5" y="456.1869"/><rect fill="#F1F1F1" height="10" style="stroke:#181818;stroke-width:0.5;" width="15" x="161.5" y="461.1869"/><rect fill="#F1F1F1" height="2" style="stroke:#181818;stroke-width:0.5;" width="4" x="159.5" y="463.1869"/><rect fill="#F1F1F1" height="2" style="stroke:#181818;stroke-width:0.5;" width="4" x="159.5" y="467.1869"/><text fill="#000000" font-family="sans-serif" font-size="14" lengthAdjust="spacing" textLength="103" x="53.5" y="489.182">WebRTC Client</text></g><!--entity Session--><g id="elem_Session"><rect fill="#F1F1F1" height="46.2969" rx="2.5" ry="2.5" style="stroke:#181818;stroke-width:0.5;" width="159" x="420.5" y="332.8869"/><rect fill="#F1F1F1" height="10" style="stroke:#181818;stroke-width:0.5;" width="15" x="559.5" y="337.8869"/><rect fill="#F1F1F1" height="2" style="stroke:#181818;stroke-width:0.5;" width="4" x="557.5" y="339.8869"/><rect fill="#F1F1F1" height="2" style="stroke:#181818;stroke-width:0.5;" width="4" x="557.5" y="343.8869"/><text fill="#000000" font-family="sans-serif" font-size="14" lengthAdjust="spacing" textLength="119" x="435.5" y="365.882">Session Manager</text></g><!--entity AIEngine--><g id="elem_AIEngine"><rect fill="#F1F1F1" height="46.2969" rx="2.5" ry="2.5" style="stroke:#181818;stroke-width:0.5;" width="173" x="457.5" y="456.1869"/><rect fill="#F1F1F1" height="10" style="stroke:#181818;stroke-width:0.5;" width="15" x="610.5" y="461.1869"/><rect fill="#F1F1F1" height="2" style="stroke:#181818;stroke-width:0.5;" width="4" x="608.5" y="463.1869"/><rect fill="#F1F1F1" height="2" style="stroke:#181818;stroke-width:0.5;" width="4" x="608.5" y="467.1869"/><text fill="#000000" font-family="sans-serif" font-size="14" lengthAdjust="spacing" textLength="133" x="472.5" y="489.182">Real-time AI Engine</text></g><!--entity MediaServer--><g id="elem_MediaServer"><rect fill="#F1F1F1" height="46.2969" rx="2.5" ry="2.5" style="stroke:#181818;stroke-width:0.5;" width="129" x="254.5" y="602.4769"/><rect fill="#F1F1F1" height="10" style="stroke:#181818;stroke-width:0.5;" width="15" x="363.5" y="607.4769"/><rect fill="#F1F1F1" height="2" style="stroke:#181818;stroke-width:0.5;" width="4" x="361.5" y="609.4769"/><rect fill="#F1F1F1" height="2" style="stroke:#181818;stroke-width:0.5;" width="4" x="361.5" y="613.4769"/><text fill="#000000" font-family="sans-serif" font-size="14" lengthAdjust="spacing" textLength="89" x="269.5" y="635.472">Media Server</text></g><!--entity Whisper--><g id="elem_Whisper"><rect fill="#F1F1F1" height="46.2969" rx="2.5" ry="2.5" style="stroke:#181818;stroke-width:0.5;" width="121" x="870.5" y="602.4769"/><rect fill="#F1F1F1" height="10" style="stroke:#181818;stroke-width:0.5;" width="15" x="971.5" y="607.4769"/><rect fill="#F1F1F1" height="2" style="stroke:#181818;stroke-width:0.5;" width="4" x="969.5" y="609.4769"/><rect fill="#F1F1F1" height="2" style="stroke:#181818;stroke-width:0.5;" width="4" x="969.5" y="613.4769"/><text fill="#000000" font-family="sans-serif" font-size="14" lengthAdjust="spacing" textLength="81" x="885.5" y="635.472">Whisper API</text></g><!--entity Emotion--><g id="elem_Emotion"><rect fill="#F1F1F1" height="46.2969" rx="2.5" ry="2.5" style="stroke:#181818;stroke-width:0.5;" width="156" x="1027" y="602.4769"/><rect fill="#F1F1F1" height="10" style="stroke:#181818;stroke-width:0.5;" width="15" x="1163" y="607.4769"/><rect fill="#F1F1F1" height="2" style="stroke:#181818;stroke-width:0.5;" width="4" x="1161" y="609.4769"/><rect fill="#F1F1F1" height="2" style="stroke:#181818;stroke-width:0.5;" width="4" x="1161" y="613.4769"/><text fill="#000000" font-family="sans-serif" font-size="14" lengthAdjust="spacing" textLength="116" x="1042" y="635.472">Emotion Analysis</text></g><!--entity LLM--><g id="elem_LLM"><rect fill="#F1F1F1" height="46.2969" rx="2.5" ry="2.5" style="stroke:#181818;stroke-width:0.5;" width="120" x="1218" y="602.4769"/><rect fill="#F1F1F1" height="10" style="stroke:#181818;stroke-width:0.5;" width="15" x="1318" y="607.4769"/><rect fill="#F1F1F1" height="2" style="stroke:#181818;stroke-width:0.5;" width="4" x="1316" y="609.4769"/><rect fill="#F1F1F1" height="2" style="stroke:#181818;stroke-width:0.5;" width="4" x="1316" y="613.4769"/><text fill="#000000" font-family="sans-serif" font-size="14" lengthAdjust="spacing" textLength="80" x="1233" y="635.472">LLM Service</text></g><!--entity ????????--><g id="elem_&#1050;&#1072;&#1085;&#1076;&#1080;&#1076;&#1072;&#1090;"><rect fill="#F1F1F1" height="46.2969" rx="2.5" ry="2.5" style="stroke:#181818;stroke-width:0.5;" width="113" x="53.5" y="44.2969"/><rect fill="#F1F1F1" height="10" style="stroke:#181818;stroke-width:0.5;" width="15" x="146.5" y="49.2969"/><rect fill="#F1F1F1" height="2" style="stroke:#181818;stroke-width:0.5;" width="4" x="144.5" y="51.2969"/><rect fill="#F1F1F1" height="2" style="stroke:#181818;stroke-width:0.5;" width="4" x="144.5" y="55.2969"/><text fill="#000000" font-family="sans-serif" font-size="14" lengthAdjust="spacing" textLength="73" x="68.5" y="77.292">&#1050;&#1072;&#1085;&#1076;&#1080;&#1076;&#1072;&#1090;</text></g><!--link ???????? to Avatar--><g id="link_&#1050;&#1072;&#1085;&#1076;&#1080;&#1076;&#1072;&#1090;_Avatar"><path d="M110,90.9869 C110,117.6369 110,155.6969 110,182.2969 " fill="none" id="&#1050;&#1072;&#1085;&#1076;&#1080;&#1076;&#1072;&#1090;-to-Avatar" style="stroke:#181818;stroke-width:1.0;"/><polygon fill="#181818" points="110,188.2969,114,179.2969,110,183.2969,106,179.2969,110,188.2969" style="stroke:#181818;stroke-width:1.0;"/><text fill="#000000" font-family="sans-serif" font-size="13" lengthAdjust="spacing" textLength="123" x="111" y="133.6538">&#1042;&#1079;&#1072;&#1080;&#1084;&#1086;&#1076;&#1077;&#1081;&#1089;&#1090;&#1074;&#1091;&#1077;&#1090;</text></g><!--link Avatar to Capture--><g id="link_Avatar_Capture"><path d="M107.15,235.2869 C103.78,261.9269 98.9519,300.0442 95.5919,326.6442 " fill="none" id="Avatar-to-Capture" style="stroke:#181818;stroke-width:1.0;"/><polygon fill="#181818" points="94.84,332.5969,99.9363,324.1691,95.4666,327.6363,91.9994,323.1665,94.84,332.5969" style="stroke:#181818;stroke-width:1.0;"/><text fill="#000000" font-family="sans-serif" font-size="13" lengthAdjust="spacing" textLength="111" x="104.14" y="277.9538">&#1055;&#1086;&#1083;&#1091;&#1095;&#1072;&#1077;&#1090; &#1074;&#1080;&#1076;&#1077;&#1086;</text></g><!--link Capture to WebRTC--><g id="link_Capture_WebRTC"><path d="M95.34,379.5669 C98.58,401.3569 102.5709,428.2416 105.7909,449.9816 " fill="none" id="Capture-to-WebRTC" style="stroke:#181818;stroke-width:1.0;"/><polygon fill="#181818" points="106.67,455.9169,109.3082,446.4279,105.9374,450.9708,101.3945,447.6001,106.67,455.9169" style="stroke:#181818;stroke-width:1.0;"/><text fill="#000000" font-family="sans-serif" font-size="13" lengthAdjust="spacing" textLength="97" x="103.08" y="422.2538">&#1055;&#1086;&#1090;&#1086;&#1082; &#1076;&#1072;&#1085;&#1085;&#1099;&#1093;</text></g><!--link WebRTC to MediaServer--><g id="link_WebRTC_MediaServer"><path d="M110.8,502.7169 C112.47,518.1369 117.04,538.1669 129,551.4769 C161.13,587.2369 206.8994,604.3162 248.2294,613.7162 " fill="none" id="WebRTC-to-MediaServer" style="stroke:#181818;stroke-width:1.0;"/><polygon fill="#181818" points="254.08,615.0469,246.1912,609.1505,249.2045,613.938,244.417,616.9513,254.08,615.0469" style="stroke:#181818;stroke-width:1.0;"/><text fill="#000000" font-family="sans-serif" font-size="13" lengthAdjust="spacing" textLength="115" x="130" y="547.5438">&#1055;&#1077;&#1088;&#1077;&#1076;&#1072;&#1077;&#1090; &#1084;&#1077;&#1076;&#1080;&#1072;</text></g><!--link Session to AIEngine--><g id="link_Session_AIEngine"><path d="M508.17,379.5669 C516.08,401.3569 525.9331,428.5368 533.8231,450.2768 " fill="none" id="Session-to-AIEngine" style="stroke:#181818;stroke-width:1.0;"/><polygon fill="#181818" points="535.87,455.9169,536.5597,446.0922,534.1642,451.2168,529.0396,448.8214,535.87,455.9169" style="stroke:#181818;stroke-width:1.0;"/><text fill="#000000" font-family="sans-serif" font-size="13" lengthAdjust="spacing" textLength="129" x="525.63" y="422.2538">&#1059;&#1087;&#1088;&#1072;&#1074;&#1083;&#1103;&#1077;&#1090; &#1089;&#1077;&#1089;&#1089;&#1080;&#1077;&#1081;</text></g><!--link AIEngine to Whisper--><g id="link_AIEngine_Whisper"><path d="M630.73,489.3069 C682.62,496.8769 748.95,510.4669 804,534.4769 C842.91,551.4569 877.2927,577.6259 901.6027,598.3359 " fill="none" id="AIEngine-to-Whisper" style="stroke:#181818;stroke-width:1.0;"/><polygon fill="#181818" points="906.17,602.2269,901.913,593.3456,902.3639,598.9844,896.725,599.4353,906.17,602.2269" style="stroke:#181818;stroke-width:1.0;"/><text fill="#000000" font-family="sans-serif" font-size="13" lengthAdjust="spacing" textLength="129" x="835.2" y="547.5438">&#1054;&#1090;&#1087;&#1088;&#1072;&#1074;&#1083;&#1103;&#1077;&#1090; &#1072;&#1091;&#1076;&#1080;&#1086;</text></g><!--link Whisper to AIEngine--><g id="link_Whisper_AIEngine"><path d="M870.07,612.8169 C814.92,600.9869 732.14,580.3869 664,551.4769 C632.9,538.2869 605.0742,521.6319 581.6242,506.2219 " fill="none" id="Whisper-to-AIEngine" style="stroke:#181818;stroke-width:1.0;"/><polygon fill="#181818" points="576.61,502.9269,581.9346,511.2123,580.7885,505.6728,586.3281,504.5267,576.61,502.9269" style="stroke:#181818;stroke-width:1.0;"/><text fill="#000000" font-family="sans-serif" font-size="13" lengthAdjust="spacing" textLength="130" x="665" y="547.5438">&#1042;&#1086;&#1079;&#1074;&#1088;&#1072;&#1097;&#1072;&#1077;&#1090; &#1090;&#1077;&#1082;&#1089;&#1090;</text></g><!--link AIEngine to Emotion--><g id="link_AIEngine_Emotion"><path d="M630.81,481.6769 C791.07,485.0669 1120.33,496.6069 1155,534.4769 C1173.37,554.5469 1156.618,578.401 1136.458,597.851 " fill="none" id="AIEngine-to-Emotion" style="stroke:#181818;stroke-width:1.0;"/><polygon fill="#181818" points="1132.14,602.0169,1141.3943,598.6467,1135.7383,598.5453,1135.8397,592.8893,1132.14,602.0169" style="stroke:#181818;stroke-width:1.0;"/><text fill="#000000" font-family="sans-serif" font-size="13" lengthAdjust="spacing" textLength="130" x="1162.94" y="547.5438">&#1054;&#1090;&#1087;&#1088;&#1072;&#1074;&#1083;&#1103;&#1077;&#1090; &#1074;&#1080;&#1076;&#1077;&#1086;</text></g><!--link Emotion to AIEngine--><g id="link_Emotion_AIEngine"><path d="M1075.51,602.0669 C1043.65,578.1269 994.54,542.6469 973,534.4769 C912.28,511.4569 743.6917,495.2956 636.8817,486.9256 " fill="none" id="Emotion-to-AIEngine" style="stroke:#181818;stroke-width:1.0;"/><polygon fill="#181818" points="630.9,486.4569,639.56,491.1478,635.8847,486.8475,640.185,483.1722,630.9,486.4569" style="stroke:#181818;stroke-width:1.0;"/><text fill="#000000" font-family="sans-serif" font-size="13" lengthAdjust="spacing" textLength="138" x="1003.69" y="547.5438">&#1042;&#1086;&#1079;&#1074;&#1088;&#1072;&#1097;&#1072;&#1077;&#1090; &#1101;&#1084;&#1086;&#1094;&#1080;&#1080;</text></g><!--link AIEngine to LLM--><g id="link_AIEngine_LLM"><path d="M630.85,481.9769 C863.42,486.7969 1484.85,502.6069 1515,534.4769 C1570.36,593.0069 1431.4398,613.4348 1344.3098,620.6048 " fill="none" id="AIEngine-to-LLM" style="stroke:#181818;stroke-width:1.0;"/><polygon fill="#181818" points="1338.33,621.0969,1347.6277,624.3453,1343.3132,620.6868,1346.9716,616.3722,1338.33,621.0969" style="stroke:#181818;stroke-width:1.0;"/><text fill="#000000" font-family="sans-serif" font-size="13" lengthAdjust="spacing" textLength="129" x="1525.86" y="547.5438">&#1054;&#1090;&#1087;&#1088;&#1072;&#1074;&#1083;&#1103;&#1077;&#1090; &#1090;&#1077;&#1082;&#1089;&#1090;</text></g><!--link LLM to AIEngine--><g id="link_LLM_AIEngine"><path d="M1294.25,602.1869 C1306.7,582.0269 1319.11,552.8569 1302,534.4769 C1257.08,486.2269 826.23,480.3257 636.85,480.0457 " fill="none" id="LLM-to-AIEngine" style="stroke:#181818;stroke-width:1.0;"/><polygon fill="#181818" points="630.85,480.0369,639.8441,484.0502,635.85,480.0443,639.8559,476.0502,630.85,480.0369" style="stroke:#181818;stroke-width:1.0;"/><text fill="#000000" font-family="sans-serif" font-size="13" lengthAdjust="spacing" textLength="146" x="1310.92" y="547.5438">&#1042;&#1086;&#1079;&#1074;&#1088;&#1072;&#1097;&#1072;&#1077;&#1090; &#1074;&#1086;&#1087;&#1088;&#1086;&#1089;&#1099;</text></g><!--link MediaServer to AIEngine--><g id="link_MediaServer_AIEngine"><path d="M299.47,602.2069 C284.85,582.6069 269.93,554.2769 286,534.4769 C307.42,508.0969 384.8342,494.747 451.0942,487.637 " fill="none" id="MediaServer-to-AIEngine" style="stroke:#181818;stroke-width:1.0;"/><polygon fill="#181818" points="457.06,486.9969,447.6846,483.9799,452.0885,487.5303,448.5381,491.9343,457.06,486.9969" style="stroke:#181818;stroke-width:1.0;"/><text fill="#000000" font-family="sans-serif" font-size="13" lengthAdjust="spacing" textLength="157" x="287" y="547.5438">&#1055;&#1077;&#1088;&#1077;&#1076;&#1072;&#1077;&#1090; &#1076;&#1083;&#1103; &#1072;&#1085;&#1072;&#1083;&#1080;&#1079;&#1072;</text></g><!--link AIEngine to MediaServer--><g id="link_AIEngine_MediaServer"><path d="M516.01,502.8069 C497.45,517.3369 472.3,536.2869 449,551.4769 C420.91,569.7969 393.2539,585.4544 367.5639,599.2744 " fill="none" id="AIEngine-to-MediaServer" style="stroke:#181818;stroke-width:1.0;"/><polygon fill="#181818" points="362.28,602.1169,372.1009,601.3757,366.6833,599.7481,368.3109,594.3305,362.28,602.1169" style="stroke:#181818;stroke-width:1.0;"/><text fill="#000000" font-family="sans-serif" font-size="13" lengthAdjust="spacing" textLength="141" x="474.17" y="547.5438">&#1042;&#1086;&#1079;&#1074;&#1088;&#1072;&#1097;&#1072;&#1077;&#1090; &#1086;&#1090;&#1074;&#1077;&#1090;&#1099;</text></g><!--SRC=[ZPHFInj16CRlyobUlEVahOV2ade862Ynu44yZ3hOfN4DkwiWfM0I-e_O5Zpsq5Bw1HP9S4tC-XLclb6VzvtPcaG5BvFClE-pyvldcTqyphk6x4zRsLjxXt5k9tRk1cv4MAZis0tjpFsWgDMm9HVin9tRAtVXlYlLq_llzA6XDUXdA7jbtqvj0OdxZ9y-5YxMwBqYsbb_HT6fpdLA7PCScDIakwIpiCODRNCGQshgNdwI6gc5_rpSDdkTDqrgTcEJv5BqA-h38iWVpoVZ_76CBPDbyN52RPr0und26fSxHdSRUNnaS6RQI0xZnAD4BJ-v1zqowMdGouAVB_DSig7k2qROG_36uvKW6WMUxRTnrZCfHQzR_bX-pgMDe-ESKQD4Ty-oE9DwMEJwvcPRAE9zpuWvRx-3F0fiESQcOvn-i4kDnilQ_1S4gciqb3vXn7R31Y7L8V06AlIn9FZFcj_edRaXsybTnASGSQNgBbQ4cBm03wtib1W2E7CtSXzLQE3U1TUyWCsPIBViS2kJqXPArQ79EK8IhFbhxw0f08DRAYhnk8-Hx-ED-jyiSC5g27-1RLKAguQoORKigsDuIdRln9ACqtb2mk-HdRBhgcPQFTabhBj69X2why6H1LdDz2pPDqxQVG9cgPZgEIBGLi9TyLrLQZ6iLVs3vCRoqP3K2_aquBujcxEI_QC4V7_uLSRNw1y0]--></g></svg>