<svg xmlns="http://www.w3.org/2000/svg" xmlns:xlink="http://www.w3.org/1999/xlink" contentStyleType="text/css" height="245px" preserveAspectRatio="none" style="width:3633px;height:245px;background:#FFFFFF;" version="1.1" viewBox="0 0 3633 245" width="3633px" zoomAndPan="magnify"><defs/><g><text fill="#000000" font-family="sans-serif" font-size="14" font-weight="bold" lengthAdjust="spacing" textLength="233" x="1693.073" y="22.9951">&#1057;&#1086;&#1089;&#1090;&#1086;&#1103;&#1085;&#1080;&#1103; &#1089;&#1077;&#1089;&#1089;&#1080;&#1080; &#1080;&#1085;&#1090;&#1077;&#1088;&#1074;&#1100;&#1102;</text><ellipse cx="16" cy="180.7169" fill="#222222" rx="10" ry="10" style="stroke:#222222;stroke-width:1.0;"/><g id="Pending"><rect fill="#F1F1F1" height="50" rx="12.5" ry="12.5" style="stroke:#181818;stroke-width:0.5;" width="77" x="120.5" y="155.7169"/><line style="stroke:#181818;stroke-width:0.5;" x1="120.5" x2="197.5" y1="182.0138" y2="182.0138"/><text fill="#000000" font-family="sans-serif" font-size="14" lengthAdjust="spacing" textLength="57" x="130.5" y="173.712">Pending</text></g><g id="ConsentShown"><rect fill="#F1F1F1" height="50" rx="12.5" ry="12.5" style="stroke:#181818;stroke-width:0.5;" width="126" x="348" y="155.7169"/><line style="stroke:#181818;stroke-width:0.5;" x1="348" x2="474" y1="182.0138" y2="182.0138"/><text fill="#000000" font-family="sans-serif" font-size="14" lengthAdjust="spacing" textLength="106" x="358" y="173.712">ConsentShown</text></g><g id="ConsentSigned"><rect fill="#F1F1F1" height="50" rx="12.5" ry="12.5" style="stroke:#181818;stroke-width:0.5;" width="127" x="756.5" y="155.7169"/><line style="stroke:#181818;stroke-width:0.5;" x1="756.5" x2="883.5" y1="182.0138" y2="182.0138"/><text fill="#000000" font-family="sans-serif" font-size="14" lengthAdjust="spacing" textLength="107" x="766.5" y="173.712">ConsentSigned</text></g><g id="Rejected"><rect fill="#F1F1F1" height="50" rx="12.5" ry="12.5" style="stroke:#181818;stroke-width:0.5;" width="82" x="639" y="155.7169"/><line style="stroke:#181818;stroke-width:0.5;" x1="639" x2="721" y1="182.0138" y2="182.0138"/><text fill="#000000" font-family="sans-serif" font-size="14" lengthAdjust="spacing" textLength="62" x="649" y="173.712">Rejected</text></g><ellipse cx="3616" cy="180.7169" fill="none" rx="11" ry="11" style="stroke:#222222;stroke-width:1.0;"/><ellipse cx="3616" cy="180.7169" fill="#222222" rx="6" ry="6" style="stroke:#222222;stroke-width:1.0;"/><g id="MediaInitializing"><rect fill="#F1F1F1" height="50" rx="12.5" ry="12.5" style="stroke:#181818;stroke-width:0.5;" width="127" x="1056.5" y="155.7169"/><line style="stroke:#181818;stroke-width:0.5;" x1="1056.5" x2="1183.5" y1="182.0138" y2="182.0138"/><text fill="#000000" font-family="sans-serif" font-size="14" lengthAdjust="spacing" textLength="107" x="1066.5" y="173.712">MediaInitializing</text></g><g id="MediaReady"><rect fill="#F1F1F1" height="50" rx="12.5" ry="12.5" style="stroke:#181818;stroke-width:0.5;" width="104" x="1317" y="155.7169"/><line style="stroke:#181818;stroke-width:0.5;" x1="1317" x2="1421" y1="182.0138" y2="182.0138"/><text fill="#000000" font-family="sans-serif" font-size="14" lengthAdjust="spacing" textLength="84" x="1327" y="173.712">MediaReady</text></g><path d="M1616.75,121.7769 L2601.25,121.7769 A12.5,12.5 0 0 1 2613.75,134.2769 L2613.75,148.0738 L1604.25,148.0738 L1604.25,134.2769 A12.5,12.5 0 0 1 1616.75,121.7769 " fill="#F1F1F1" style="stroke:#F1F1F1;stroke-width:1.0;"/><rect fill="none" height="117.8669" rx="12.5" ry="12.5" style="stroke:#181818;stroke-width:0.5;" width="1009.5" x="1604.25" y="121.7769"/><line style="stroke:#181818;stroke-width:0.5;" x1="1604.25" x2="2613.75" y1="148.0738" y2="148.0738"/><text fill="#000000" font-family="sans-serif" font-size="14" lengthAdjust="spacing" textLength="135" x="2041.5" y="139.772">InterviewInProgress</text><ellipse cx="1625.25" cy="204.6437" fill="#222222" rx="10" ry="10" style="stroke:#222222;stroke-width:1.0;"/><g id="InterviewInProgress.QuestionAsked"><rect fill="#F1F1F1" height="50" rx="12.5" ry="12.5" style="stroke:#181818;stroke-width:0.5;" width="126" x="1748.25" y="179.6437"/><line style="stroke:#181818;stroke-width:0.5;" x1="1748.25" x2="1874.25" y1="205.9406" y2="205.9406"/><text fill="#000000" font-family="sans-serif" font-size="14" lengthAdjust="spacing" textLength="106" x="1758.25" y="197.6389">QuestionAsked</text></g><g id="InterviewInProgress.Answering"><rect fill="#F1F1F1" height="50" rx="12.5" ry="12.5" style="stroke:#181818;stroke-width:0.5;" width="92" x="2034.25" y="179.6437"/><line style="stroke:#181818;stroke-width:0.5;" x1="2034.25" x2="2126.25" y1="205.9406" y2="205.9406"/><text fill="#000000" font-family="sans-serif" font-size="14" lengthAdjust="spacing" textLength="72" x="2044.25" y="197.6389">Answering</text></g><g id="InterviewInProgress.Analyzing"><rect fill="#F1F1F1" height="50" rx="12.5" ry="12.5" style="stroke:#181818;stroke-width:0.5;" width="85" x="2247.75" y="179.6437"/><line style="stroke:#181818;stroke-width:0.5;" x1="2247.75" x2="2332.75" y1="205.9406" y2="205.9406"/><text fill="#000000" font-family="sans-serif" font-size="14" lengthAdjust="spacing" textLength="65" x="2257.75" y="197.6389">Analyzing</text></g><g id="InterviewInProgress.QuestionGenerated"><rect fill="#F1F1F1" height="50" rx="12.5" ry="12.5" style="stroke:#181818;stroke-width:0.5;" width="157" x="2447.75" y="179.6437"/><line style="stroke:#181818;stroke-width:0.5;" x1="2447.75" x2="2604.75" y1="205.9406" y2="205.9406"/><text fill="#000000" font-family="sans-serif" font-size="14" lengthAdjust="spacing" textLength="137" x="2457.75" y="197.6389">QuestionGenerated</text></g><!--link *start*InterviewInProgress to QuestionAsked--><g id="link_*start*InterviewInProgress_QuestionAsked"><path d="M1635.52,204.6437 C1656.69,204.6437 1700.68,204.6437 1741.95,204.6437 " fill="none" id="*start*InterviewInProgress-to-QuestionAsked" style="stroke:#181818;stroke-width:1.0;"/><polygon fill="#181818" points="1747.95,204.6437,1738.95,200.6437,1742.95,204.6437,1738.95,208.6437,1747.95,204.6437" style="stroke:#181818;stroke-width:1.0;"/><text fill="#000000" font-family="sans-serif" font-size="13" lengthAdjust="spacing" textLength="93" x="1645.25" y="197.7106">&#1042;&#1086;&#1087;&#1088;&#1086;&#1089; &#1079;&#1072;&#1076;&#1072;&#1085;</text></g><!--link QuestionAsked to Answering--><g id="link_QuestionAsked_Answering"><path d="M1874.66,204.6437 C1923.59,204.6437 1984.13,204.6437 2028.09,204.6437 " fill="none" id="QuestionAsked-to-Answering" style="stroke:#181818;stroke-width:1.0;"/><polygon fill="#181818" points="2034.09,204.6437,2025.09,200.6437,2029.09,204.6437,2025.09,208.6437,2034.09,204.6437" style="stroke:#181818;stroke-width:1.0;"/><text fill="#000000" font-family="sans-serif" font-size="13" lengthAdjust="spacing" textLength="140" x="1884.25" y="197.7106">&#1050;&#1072;&#1085;&#1076;&#1080;&#1076;&#1072;&#1090; &#1086;&#1090;&#1074;&#1077;&#1095;&#1072;&#1077;&#1090;</text></g><!--link Answering to Analyzing--><g id="link_Answering_Analyzing"><path d="M2126.6,204.6437 C2162.71,204.6437 2206.46,204.6437 2241.6,204.6437 " fill="none" id="Answering-to-Analyzing" style="stroke:#181818;stroke-width:1.0;"/><polygon fill="#181818" points="2247.6,204.6437,2238.6,200.6437,2242.6,204.6437,2238.6,208.6437,2247.6,204.6437" style="stroke:#181818;stroke-width:1.0;"/><text fill="#000000" font-family="sans-serif" font-size="13" lengthAdjust="spacing" textLength="102" x="2136" y="197.7106">&#1040;&#1085;&#1072;&#1083;&#1080;&#1079; &#1086;&#1090;&#1074;&#1077;&#1090;&#1072;</text></g><!--link Analyzing to QuestionGenerated--><g id="link_Analyzing_QuestionGenerated"><path d="M2332.99,204.6437 C2364.87,204.6437 2403.32,204.6437 2441.56,204.6437 " fill="none" id="Analyzing-to-QuestionGenerated" style="stroke:#181818;stroke-width:1.0;"/><polygon fill="#181818" points="2447.56,204.6437,2438.56,200.6437,2442.56,204.6437,2438.56,208.6437,2447.56,204.6437" style="stroke:#181818;stroke-width:1.0;"/><text fill="#000000" font-family="sans-serif" font-size="13" lengthAdjust="spacing" textLength="95" x="2342.75" y="197.7106">&#1053;&#1086;&#1074;&#1099;&#1081; &#1074;&#1086;&#1087;&#1088;&#1086;&#1089;</text></g><!--link QuestionGenerated to QuestionAsked--><g id="link_QuestionGenerated_QuestionAsked"><path d="M2447.32,187.5338 C2412.53,180.8238 2371.04,173.9437 2333.25,170.6437 C2200.87,159.0738 2166.76,160.6038 2034.25,170.6437 C1979.97,174.7537 1924.7958,183.3645 1880.3058,191.3445 " fill="none" id="QuestionGenerated-to-QuestionAsked" style="stroke:#181818;stroke-width:1.0;"/><polygon fill="#181818" points="1874.4,192.4037,1883.9648,194.752,1879.3215,191.521,1882.5524,186.8776,1874.4,192.4037" style="stroke:#181818;stroke-width:1.0;"/></g><g id="InterviewCompleted"><rect fill="#F1F1F1" height="50" rx="12.5" ry="12.5" style="stroke:#181818;stroke-width:0.5;" width="157" x="2910.5" y="155.7169"/><line style="stroke:#181818;stroke-width:0.5;" x1="2910.5" x2="3067.5" y1="182.0138" y2="182.0138"/><text fill="#000000" font-family="sans-serif" font-size="14" lengthAdjust="spacing" textLength="137" x="2920.5" y="173.712">InterviewCompleted</text></g><g id="ManuallyStopped"><rect fill="#F1F1F1" height="50" rx="12.5" ry="12.5" style="stroke:#181818;stroke-width:0.5;" width="138" x="2737" y="155.7169"/><line style="stroke:#181818;stroke-width:0.5;" x1="2737" x2="2875" y1="182.0138" y2="182.0138"/><text fill="#000000" font-family="sans-serif" font-size="14" lengthAdjust="spacing" textLength="118" x="2747" y="173.712">ManuallyStopped</text></g><g id="DataProcessing"><rect fill="#F1F1F1" height="50" rx="12.5" ry="12.5" style="stroke:#181818;stroke-width:0.5;" width="129" x="3179.5" y="155.7169"/><line style="stroke:#181818;stroke-width:0.5;" x1="3179.5" x2="3308.5" y1="182.0138" y2="182.0138"/><text fill="#000000" font-family="sans-serif" font-size="14" lengthAdjust="spacing" textLength="109" x="3189.5" y="173.712">DataProcessing</text></g><g id="Completed"><rect fill="#F1F1F1" height="50" rx="12.5" ry="12.5" style="stroke:#181818;stroke-width:0.5;" width="96" x="3474" y="155.7169"/><line style="stroke:#181818;stroke-width:0.5;" x1="3474" x2="3570" y1="182.0138" y2="182.0138"/><text fill="#000000" font-family="sans-serif" font-size="14" lengthAdjust="spacing" textLength="76" x="3484" y="173.712">Completed</text></g><!--link *start* to Pending--><g id="link_*start*_Pending"><path d="M26.28,180.7169 C45.62,180.7169 82.32,180.7169 114.1,180.7169 " fill="none" id="*start*-to-Pending" style="stroke:#181818;stroke-width:1.0;"/><polygon fill="#181818" points="120.1,180.7169,111.1,176.7169,115.1,180.7169,111.1,184.7169,120.1,180.7169" style="stroke:#181818;stroke-width:1.0;"/><text fill="#000000" font-family="sans-serif" font-size="13" lengthAdjust="spacing" textLength="58" x="44.25" y="173.7838">&#1057;&#1086;&#1079;&#1076;&#1072;&#1085;&#1072;</text></g><!--link Pending to ConsentShown--><g id="link_Pending_ConsentShown"><path d="M197.82,180.7169 C237.72,180.7169 294.5,180.7169 341.61,180.7169 " fill="none" id="Pending-to-ConsentShown" style="stroke:#181818;stroke-width:1.0;"/><polygon fill="#181818" points="347.61,180.7169,338.61,176.7169,342.61,180.7169,338.61,184.7169,347.61,180.7169" style="stroke:#181818;stroke-width:1.0;"/><text fill="#000000" font-family="sans-serif" font-size="13" lengthAdjust="spacing" textLength="114" x="215.75" y="173.7838">&#1054;&#1090;&#1082;&#1088;&#1099;&#1090;&#1072; &#1089;&#1089;&#1099;&#1083;&#1082;&#1072;</text></g><!--link ConsentShown to ConsentSigned--><g id="link_ConsentShown_ConsentSigned"><path d="M433.3,155.3869 C454.31,133.5969 487.97,103.7169 524.5,91.0169 C583.7,70.4569 604.06,78.6769 665.5,91.0169 C700.22,97.9869 708.14,104.4069 739,121.7769 C756.28,131.5069 769.4615,140.6152 784.0615,151.7652 " fill="none" id="ConsentShown-to-ConsentSigned" style="stroke:#181818;stroke-width:1.0;"/><polygon fill="#181818" points="788.83,155.4069,784.1051,146.7654,784.8563,152.3722,779.2495,153.1233,788.83,155.4069" style="stroke:#181818;stroke-width:1.0;"/><text fill="#000000" font-family="sans-serif" font-size="13" lengthAdjust="spacing" textLength="139" x="525.5" y="87.8438">&#1055;&#1086;&#1076;&#1087;&#1080;&#1089;&#1072;&#1085;&#1086; &#1089;&#1086;&#1075;&#1083;&#1072;&#1089;&#1080;&#1077;</text></g><!--link ConsentShown to Rejected--><g id="link_ConsentShown_Rejected"><path d="M474.41,180.7169 C525.2,180.7169 588.98,180.7169 632.77,180.7169 " fill="none" id="ConsentShown-to-Rejected" style="stroke:#181818;stroke-width:1.0;"/><polygon fill="#181818" points="638.77,180.7169,629.77,176.7169,633.77,180.7169,629.77,184.7169,638.77,180.7169" style="stroke:#181818;stroke-width:1.0;"/><text fill="#000000" font-family="sans-serif" font-size="13" lengthAdjust="spacing" textLength="128" x="492.5" y="173.7838">&#1054;&#1090;&#1082;&#1072;&#1079; &#1086;&#1090; &#1089;&#1086;&#1075;&#1083;&#1072;&#1089;&#1080;&#1103;</text></g><!--link Rejected to *end*--><g id="link_Rejected_*end*"><path d="M698,155.2669 C708.41,142.7569 722.67,128.8769 739,121.7769 C919.7,43.2969 1428.02,94.4369 1625,91.0169 C1734,89.1269 3494.92,63.4169 3587,121.7769 C3603.76,132.4069 3609.861,149.9426 3612.871,163.8526 " fill="none" id="Rejected-to-*end*" style="stroke:#181818;stroke-width:1.0;"/><polygon fill="#181818" points="3614.14,169.7169,3616.1461,160.0745,3613.0825,164.83,3608.327,161.7664,3614.14,169.7169" style="stroke:#181818;stroke-width:1.0;"/><text fill="#000000" font-family="sans-serif" font-size="13" lengthAdjust="spacing" textLength="76" x="1626" y="87.8438">&#1047;&#1072;&#1074;&#1077;&#1088;&#1096;&#1077;&#1085;&#1072;</text></g><!--link ConsentSigned to MediaInitializing--><g id="link_ConsentSigned_MediaInitializing"><path d="M883.99,180.7169 C934.75,180.7169 999.37,180.7169 1050.11,180.7169 " fill="none" id="ConsentSigned-to-MediaInitializing" style="stroke:#181818;stroke-width:1.0;"/><polygon fill="#181818" points="1056.11,180.7169,1047.11,176.7169,1051.11,180.7169,1047.11,184.7169,1056.11,180.7169" style="stroke:#181818;stroke-width:1.0;"/><text fill="#000000" font-family="sans-serif" font-size="13" lengthAdjust="spacing" textLength="136" x="902" y="173.7838">&#1053;&#1072;&#1095;&#1072;&#1083;&#1086; &#1087;&#1086;&#1076;&#1075;&#1086;&#1090;&#1086;&#1074;&#1082;&#1080;</text></g><!--link MediaInitializing to MediaReady--><g id="link_MediaInitializing_MediaReady"><path d="M1183.8,180.7169 C1225.01,180.7169 1271.97,180.7169 1310.69,180.7169 " fill="none" id="MediaInitializing-to-MediaReady" style="stroke:#181818;stroke-width:1.0;"/><polygon fill="#181818" points="1316.69,180.7169,1307.69,176.7169,1311.69,180.7169,1307.69,184.7169,1316.69,180.7169" style="stroke:#181818;stroke-width:1.0;"/><text fill="#000000" font-family="sans-serif" font-size="13" lengthAdjust="spacing" textLength="97" x="1201.75" y="173.7838">&#1052;&#1077;&#1076;&#1080;&#1072; &#1075;&#1086;&#1090;&#1086;&#1074;&#1086;</text></g><!--link MediaReady to InterviewInProgress--><g id="link_MediaReady_InterviewInProgress"><path d="M1421.33,180.7169 C1464.26,180.7169 1523.85,180.7169 1597.79,180.7169 " fill="none" id="MediaReady-to-InterviewInProgress" style="stroke:#181818;stroke-width:1.0;"/><polygon fill="#181818" points="1603.79,180.7169,1594.79,176.7169,1598.79,180.7169,1594.79,184.7169,1603.79,180.7169" style="stroke:#181818;stroke-width:1.0;"/><text fill="#000000" font-family="sans-serif" font-size="13" lengthAdjust="spacing" textLength="147" x="1439.13" y="173.7838">&#1055;&#1077;&#1088;&#1074;&#1099;&#1081; &#1074;&#1086;&#1087;&#1088;&#1086;&#1089; &#1079;&#1072;&#1076;&#1072;&#1085;</text></g><!--link InterviewInProgress to InterviewCompleted--><g id="link_InterviewInProgress_InterviewCompleted"><path d="M2318.44,121.3269 C2457.07,89.9869 2642.65,63.2269 2805.5,91.0169 C2860.55,100.4169 2912.2873,128.93 2947.8273,152 " fill="none" id="InterviewInProgress-to-InterviewCompleted" style="stroke:#181818;stroke-width:1.0;"/><polygon fill="#181818" points="2952.86,155.2669,2947.4889,147.0115,2948.6661,152.5445,2943.1331,153.7217,2952.86,155.2669" style="stroke:#181818;stroke-width:1.0;"/><text fill="#000000" font-family="sans-serif" font-size="13" lengthAdjust="spacing" textLength="85" x="2719.5" y="87.8438">&#1042;&#1089;&#1077; &#1074;&#1086;&#1087;&#1088;&#1086;&#1089;&#1099;</text></g><!--link InterviewInProgress to ManuallyStopped--><g id="link_InterviewInProgress_ManuallyStopped"><path d="M2614.16,180.7169 C2661.54,180.7169 2698.04,180.7169 2730.92,180.7169 " fill="none" id="InterviewInProgress-to-ManuallyStopped" style="stroke:#181818;stroke-width:1.0;"/><polygon fill="#181818" points="2736.92,180.7169,2727.92,176.7169,2731.92,180.7169,2727.92,184.7169,2736.92,180.7169" style="stroke:#181818;stroke-width:1.0;"/><text fill="#000000" font-family="sans-serif" font-size="13" lengthAdjust="spacing" textLength="87" x="2631.87" y="173.7838">&#1055;&#1088;&#1077;&#1088;&#1074;&#1072;&#1085;&#1086; HR</text></g><!--link InterviewCompleted to DataProcessing--><g id="link_InterviewCompleted_DataProcessing"><path d="M3067.94,180.7169 C3103.63,180.7169 3139.29,180.7169 3173.12,180.7169 " fill="none" id="InterviewCompleted-to-DataProcessing" style="stroke:#181818;stroke-width:1.0;"/><polygon fill="#181818" points="3179.12,180.7169,3170.12,176.7169,3174.12,180.7169,3170.12,184.7169,3179.12,180.7169" style="stroke:#181818;stroke-width:1.0;"/><text fill="#000000" font-family="sans-serif" font-size="13" lengthAdjust="spacing" textLength="75" x="3086" y="173.7838">&#1054;&#1073;&#1088;&#1072;&#1073;&#1086;&#1090;&#1082;&#1072;</text></g><!--link DataProcessing to Completed--><g id="link_DataProcessing_Completed"><path d="M3308.83,180.7169 C3359.21,180.7169 3421.97,180.7169 3467.62,180.7169 " fill="none" id="DataProcessing-to-Completed" style="stroke:#181818;stroke-width:1.0;"/><polygon fill="#181818" points="3473.62,180.7169,3464.62,176.7169,3468.62,180.7169,3464.62,184.7169,3473.62,180.7169" style="stroke:#181818;stroke-width:1.0;"/><text fill="#000000" font-family="sans-serif" font-size="13" lengthAdjust="spacing" textLength="129" x="3326.75" y="173.7838">&#1044;&#1072;&#1085;&#1085;&#1099;&#1077; &#1089;&#1086;&#1093;&#1088;&#1072;&#1085;&#1077;&#1085;&#1099;</text></g><!--link ManuallyStopped to Completed--><g id="link_ManuallyStopped_Completed"><path d="M2831.82,155.4769 C2851.56,138.0469 2880.43,116.3469 2910.5,106.7769 C2952.64,93.3769 3264.89,99.4469 3308.5,106.7769 C3367.1,116.6369 3425.5958,138.3853 3468.0858,156.3953 " fill="none" id="ManuallyStopped-to-Completed" style="stroke:#181818;stroke-width:1.0;"/><polygon fill="#181818" points="3473.61,158.7369,3466.8847,151.5418,3469.0065,156.7856,3463.7626,158.9074,3473.61,158.7369" style="stroke:#181818;stroke-width:1.0;"/></g><!--link Completed to *end*--><g id="link_Completed_*end*"><path d="M3570.47,180.7169 C3581.85,180.7169 3587.23,180.7169 3598.62,180.7169 " fill="none" id="Completed-to-*end*" style="stroke:#181818;stroke-width:1.0;"/><polygon fill="#181818" points="3604.62,180.7169,3595.62,176.7169,3599.62,180.7169,3595.62,184.7169,3604.62,180.7169" style="stroke:#181818;stroke-width:1.0;"/></g><!--SRC=[TLFTQXD15BwVfvXhmHVeXL0gs5mKQdeflHYQ8Qwkis5tsX15Q0958MAa28BOYc-mJRDqRKdw2cVUoE_CJkncazviVlRxEz-PiP6DjQG_j713Dy9pGdCgtKIw8HNuQqWbbHAFETuMxfIcxelxAiIh9uVowJEvhqqdCbsvvINeXcQKGo0NonV0x2GcqyOUl4xwXe6NKBfrfswCprooXnlJ7Ts2jGAjKQEkqHtc_eR9ZEwHSEYD5fnpGTVWvpvhiQRHrc_qaQtetXh46ub9HmskcuZ_MF1uGb1-03xboTrdAlneOZKLe7kw4wcMYMoaukXzwEC2gfz0laD89ERSr-oARrE4ACKwQodLrgepO8rVi9nXgbpMk0jH0u7ICbQd9v7kjyn-cdHJdMLLLTMwnlHNCelkyHDRbjXINkr9YCmggpSgV11IXYM_FDQPZHApdRsjQZpVh2ORI52tJTRNQMZafryPpmCywlSJSRTSK-5647Z0UxAA1yiwlt7tABCCo_D4721FMk9gOLzeerCLzdx1nQqrKGlyW6xEApuAiQcVUl4xoRjUh8FNET-S5HytVanXJvbZ5SU30vlqUk64W-CN5yxtRbjiy07tkR8AMaUG2XLTqXM8ELtvVlW-DJ3-HjMYVlSUSnHJ-BlWpZn_pWSTePlfwdInaWK7vHy0]--></g></svg>