<svg xmlns="http://www.w3.org/2000/svg" xmlns:xlink="http://www.w3.org/1999/xlink" contentStyleType="text/css" height="852px" preserveAspectRatio="none" style="width:677px;height:852px;background:#FFFFFF;" version="1.1" viewBox="0 0 677 852" width="677px" zoomAndPan="magnify"><defs/><g><!--cluster ?????? ??????????? ? ????????? ??????--><g id="cluster_&#1040;&#1085;&#1072;&#1083;&#1080;&#1079; &#1088;&#1077;&#1079;&#1091;&#1083;&#1100;&#1090;&#1072;&#1090;&#1086;&#1074; &#1080; &#1075;&#1077;&#1085;&#1077;&#1088;&#1072;&#1094;&#1080;&#1103; &#1086;&#1090;&#1095;&#1077;&#1090;&#1072;"><rect fill="none" height="839" rx="2.5" ry="2.5" style="stroke:#181818;stroke-width:1.0;" width="361.43" x="310" y="7"/><text fill="#000000" font-family="sans-serif" font-size="14" font-weight="bold" lengthAdjust="spacing" textLength="328" x="326.715" y="21.9951">&#1040;&#1085;&#1072;&#1083;&#1080;&#1079; &#1088;&#1077;&#1079;&#1091;&#1083;&#1100;&#1090;&#1072;&#1090;&#1086;&#1074; &#1080; &#1075;&#1077;&#1085;&#1077;&#1088;&#1072;&#1094;&#1080;&#1103; &#1086;&#1090;&#1095;&#1077;&#1090;&#1072;</text></g><g id="elem_uc1"><ellipse cx="490.7199" cy="695" fill="#F1F1F1" rx="159.3999" ry="34.28" style="stroke:#181818;stroke-width:0.5;"/><text fill="#000000" font-family="sans-serif" font-size="14" lengthAdjust="spacing" textLength="290" x="345.7199" y="697.8467">UC2.1: &#1047;&#1072;&#1087;&#1091;&#1089;&#1090;&#1080;&#1090;&#1100; &#1072;&#1085;&#1072;&#1083;&#1080;&#1079; &#1089;&#1099;&#1088;&#1099;&#1093; &#1076;&#1072;&#1085;&#1085;&#1099;&#1093;</text></g><g id="elem_uc2"><ellipse cx="490.7155" cy="576.0011" fill="#F1F1F1" rx="156.5055" ry="33.7011" style="stroke:#181818;stroke-width:0.5;"/><text fill="#000000" font-family="sans-serif" font-size="14" lengthAdjust="spacing" textLength="284" x="348.7155" y="578.8478">UC2.2: &#1055;&#1088;&#1086;&#1089;&#1084;&#1086;&#1090;&#1088;&#1077;&#1090;&#1100; &#1076;&#1077;&#1090;&#1072;&#1083;&#1100;&#1085;&#1099;&#1081; &#1086;&#1090;&#1095;&#1077;&#1090;</text></g><g id="elem_uc3"><ellipse cx="490.7182" cy="370.0036" fill="#F1F1F1" rx="147.3682" ry="31.8736" style="stroke:#181818;stroke-width:0.5;"/><text fill="#000000" font-family="sans-serif" font-size="14" lengthAdjust="spacing" textLength="265" x="358.2182" y="372.8503">UC2.3: &#1069;&#1082;&#1089;&#1087;&#1086;&#1088;&#1090;&#1080;&#1088;&#1086;&#1074;&#1072;&#1090;&#1100; &#1086;&#1090;&#1095;&#1077;&#1090; &#1074; PDF</text></g><g id="elem_uc4"><ellipse cx="490.7163" cy="472.0033" fill="#F1F1F1" rx="164.7163" ry="35.3433" style="stroke:#181818;stroke-width:0.5;"/><text fill="#000000" font-family="sans-serif" font-size="14" lengthAdjust="spacing" textLength="301" x="340.2163" y="474.8499">UC2.4: &#1057;&#1088;&#1072;&#1074;&#1085;&#1080;&#1090;&#1100; &#1085;&#1077;&#1089;&#1082;&#1086;&#1083;&#1100;&#1082;&#1080;&#1093; &#1082;&#1072;&#1085;&#1076;&#1080;&#1076;&#1072;&#1090;&#1086;&#1074;</text></g><g id="elem_uc5"><ellipse cx="490.7187" cy="176.9997" fill="#F1F1F1" rx="150.2487" ry="32.4497" style="stroke:#181818;stroke-width:0.5;"/><text fill="#000000" font-family="sans-serif" font-size="14" lengthAdjust="spacing" textLength="271" x="355.2187" y="179.8464">UC2.5: &#1053;&#1072;&#1089;&#1090;&#1088;&#1086;&#1080;&#1090;&#1100; &#1074;&#1077;&#1089;&#1072; &#1082;&#1086;&#1084;&#1087;&#1077;&#1090;&#1077;&#1085;&#1094;&#1080;&#1081;</text></g><g id="elem_uc6"><ellipse cx="490.7155" cy="76.0011" fill="#F1F1F1" rx="156.5055" ry="33.7011" style="stroke:#181818;stroke-width:0.5;"/><text fill="#000000" font-family="sans-serif" font-size="14" lengthAdjust="spacing" textLength="284" x="348.7155" y="78.8478">UC2.6: &#1055;&#1088;&#1086;&#1089;&#1084;&#1086;&#1090;&#1088;&#1077;&#1090;&#1100; &#1074;&#1080;&#1076;&#1077;&#1086;&#1092;&#1088;&#1072;&#1075;&#1084;&#1077;&#1085;&#1090;&#1099;</text></g><g id="elem_uc7"><ellipse cx="490.7192" cy="796.9958" fill="#F1F1F1" rx="150.7292" ry="32.5458" style="stroke:#181818;stroke-width:0.5;"/><text fill="#000000" font-family="sans-serif" font-size="14" lengthAdjust="spacing" textLength="272" x="354.7192" y="799.8425">UC2.7: &#1052;&#1086;&#1085;&#1080;&#1090;&#1086;&#1088;&#1080;&#1090;&#1100; &#1087;&#1088;&#1086;&#1094;&#1077;&#1089;&#1089; &#1072;&#1085;&#1072;&#1083;&#1080;&#1079;&#1072;</text></g><g id="elem_uc8"><ellipse cx="490.7176" cy="273.9995" fill="#F1F1F1" rx="134.9476" ry="29.3895" style="stroke:#181818;stroke-width:0.5;"/><text fill="#000000" font-family="sans-serif" font-size="14" lengthAdjust="spacing" textLength="239" x="371.2176" y="276.8462">UC2.8: &#1055;&#1077;&#1088;&#1077;&#1075;&#1077;&#1085;&#1077;&#1088;&#1080;&#1088;&#1086;&#1074;&#1072;&#1090;&#1100; &#1086;&#1090;&#1095;&#1077;&#1090;</text></g><!--entity hr--><g id="elem_hr"><ellipse cx="108" cy="269.35" fill="#F1F1F1" rx="8" ry="8" style="stroke:#181818;stroke-width:0.5;"/><path d="M108,277.35 L108,304.35 M95,285.35 L121,285.35 M108,304.35 L95,319.35 M108,304.35 L121,319.35 " fill="none" style="stroke:#181818;stroke-width:0.5;"/><text fill="#000000" font-family="sans-serif" font-size="14" lengthAdjust="spacing" textLength="103" x="56.5" y="333.8451">HR-&#1084;&#1077;&#1085;&#1077;&#1076;&#1078;&#1077;&#1088;</text></g><!--entity ai_system--><g id="elem_ai_system"><ellipse cx="108" cy="660.35" fill="#F1F1F1" rx="8" ry="8" style="stroke:#181818;stroke-width:0.5;"/><path d="M108,668.35 L108,695.35 M95,676.35 L121,676.35 M108,695.35 L95,710.35 M108,695.35 L121,710.35 " fill="none" style="stroke:#181818;stroke-width:0.5;"/><text fill="#000000" font-family="sans-serif" font-size="14" lengthAdjust="spacing" textLength="157" x="29.5" y="724.8451">&#1057;&#1080;&#1089;&#1090;&#1077;&#1084;&#1072; AI-&#1080;&#1085;&#1090;&#1077;&#1088;&#1074;&#1100;&#1102;</text></g><!--entity admin--><g id="elem_admin"><ellipse cx="108" cy="771.35" fill="#F1F1F1" rx="8" ry="8" style="stroke:#181818;stroke-width:0.5;"/><path d="M108,779.35 L108,806.35 M95,787.35 L121,787.35 M108,806.35 L95,821.35 M108,806.35 L121,821.35 " fill="none" style="stroke:#181818;stroke-width:0.5;"/><text fill="#000000" font-family="sans-serif" font-size="14" lengthAdjust="spacing" textLength="204" x="6" y="835.8451">&#1057;&#1080;&#1089;&#1090;&#1077;&#1084;&#1085;&#1099;&#1081; &#1072;&#1076;&#1084;&#1080;&#1085;&#1080;&#1089;&#1090;&#1088;&#1072;&#1090;&#1086;&#1088;</text></g><!--entity manager--><g id="elem_manager"><ellipse cx="108" cy="524.35" fill="#F1F1F1" rx="8" ry="8" style="stroke:#181818;stroke-width:0.5;"/><path d="M108,532.35 L108,559.35 M95,540.35 L121,540.35 M108,559.35 L95,574.35 M108,559.35 L121,574.35 " fill="none" style="stroke:#181818;stroke-width:0.5;"/><text fill="#000000" font-family="sans-serif" font-size="14" lengthAdjust="spacing" textLength="104" x="56" y="588.8451">&#1056;&#1091;&#1082;&#1086;&#1074;&#1086;&#1076;&#1080;&#1090;&#1077;&#1083;&#1100;</text></g><!--link ai_system to uc1--><g id="link_ai_system_uc1"><path d="M186.96,691.02 C228.62,691.57 275.4705,692.1918 325.3105,692.8418 " fill="none" id="ai_system-to-uc1" style="stroke:#181818;stroke-width:1.0;"/><polygon fill="#181818" points="331.31,692.92,322.3629,688.803,326.3104,692.8548,322.2586,696.8023,331.31,692.92" style="stroke:#181818;stroke-width:1.0;"/></g><!--link hr to uc2--><g id="link_hr_uc2"><path d="M129.64,337.33 C159.92,389.43 221.63,481.1 302,525 C323.93,536.98 343.1152,544.6021 367.4852,551.7921 " fill="none" id="hr-to-uc2" style="stroke:#181818;stroke-width:1.0;"/><polygon fill="#181818" points="373.24,553.49,365.7398,547.1067,368.4444,552.0751,363.476,554.7797,373.24,553.49" style="stroke:#181818;stroke-width:1.0;"/></g><!--link hr to uc3--><g id="link_hr_uc3"><path d="M159.95,308.5 C215.37,318.84 299.7817,334.5798 371.8917,348.0298 " fill="none" id="hr-to-uc3" style="stroke:#181818;stroke-width:1.0;"/><polygon fill="#181818" points="377.79,349.13,369.676,343.5476,372.8748,348.2132,368.2092,351.412,377.79,349.13" style="stroke:#181818;stroke-width:1.0;"/></g><!--link hr to uc4--><g id="link_hr_uc4"><path d="M160,332.44 C184.1,348.05 213.37,366.74 240,383 C267.2,399.6 272.66,406.57 302,419 C326.32,429.3 347.4874,436.5789 373.1774,444.0289 " fill="none" id="hr-to-uc4" style="stroke:#181818;stroke-width:1.0;"/><polygon fill="#181818" points="378.94,445.7,371.4102,439.3516,374.1378,444.3074,369.182,447.035,378.94,445.7" style="stroke:#181818;stroke-width:1.0;"/></g><!--link hr to uc5--><g id="link_hr_uc5"><path d="M159.73,278.54 C198.38,263.33 253.11,242.59 302,227 C330.44,217.93 355.8504,210.6979 384.5104,203.0979 " fill="none" id="hr-to-uc5" style="stroke:#181818;stroke-width:1.0;"/><polygon fill="#181818" points="390.31,201.56,380.5854,200.0005,385.477,202.8416,382.6359,207.7332,390.31,201.56" style="stroke:#181818;stroke-width:1.0;"/></g><!--link hr to uc6--><g id="link_hr_uc6"><path d="M142.1,260.47 C177.77,221.32 238.07,161.64 302,127 C323.97,115.09 343.1746,107.5057 367.5446,100.3257 " fill="none" id="hr-to-uc6" style="stroke:#181818;stroke-width:1.0;"/><polygon fill="#181818" points="373.3,98.63,363.5364,97.3366,368.5038,100.0431,365.7974,105.0105,373.3,98.63" style="stroke:#181818;stroke-width:1.0;"/></g><!--link admin to uc7--><g id="link_admin_uc7"><path d="M210.03,799.94 C249.79,799.52 290.2803,799.092 333.8103,798.642 " fill="none" id="admin-to-uc7" style="stroke:#181818;stroke-width:1.0;"/><polygon fill="#181818" points="339.81,798.58,330.7691,794.6732,334.8103,798.6317,330.8518,802.6728,339.81,798.58" style="stroke:#181818;stroke-width:1.0;"/></g><!--link manager to uc2--><g id="link_manager_uc2"><path d="M160.35,556.97 C206.22,559.62 269.78,563.2941 333.16,566.9541 " fill="none" id="manager-to-uc2" style="stroke:#181818;stroke-width:1.0;"/><polygon fill="#181818" points="339.15,567.3,330.3956,562.7878,334.1583,567.0117,329.9344,570.7745,339.15,567.3" style="stroke:#181818;stroke-width:1.0;"/></g><!--link manager to uc4--><g id="link_manager_uc4"><path d="M160.35,542.94 C214.64,531.25 296.2446,513.6738 367.3946,498.3438 " fill="none" id="manager-to-uc4" style="stroke:#181818;stroke-width:1.0;"/><polygon fill="#181818" points="373.26,497.08,363.6194,495.0654,368.3722,498.1331,365.3044,502.8859,373.26,497.08" style="stroke:#181818;stroke-width:1.0;"/></g><!--link hr to uc8--><g id="link_hr_uc8"><path d="M159.95,295.65 C211.11,292.29 286.0229,287.3729 354.8929,282.8529 " fill="none" id="hr-to-uc8" style="stroke:#181818;stroke-width:1.0;"/><polygon fill="#181818" points="360.88,282.46,351.6374,279.058,355.8907,282.7875,352.1613,287.0408,360.88,282.46" style="stroke:#181818;stroke-width:1.0;"/></g><!--link uc1 to uc2--><g id="link_uc1_uc2"><path d="M490.72,660.26 C490.72,644.48 490.72,631.88 490.72,616.17 " fill="none" id="uc1-to-uc2" style="stroke:#181818;stroke-width:1.0;stroke-dasharray:7.0,7.0;"/><polygon fill="#181818" points="490.72,610.17,486.72,619.17,490.72,615.17,494.72,619.17,490.72,610.17" style="stroke:#181818;stroke-width:1.0;"/><text fill="#000000" font-family="sans-serif" font-size="13" lengthAdjust="spacing" textLength="51" x="453.72" y="639.7769">extends</text></g><!--link uc2 to uc3--><g id="link_uc2_uc3"><path d="M359.45,557.41 C338.53,549.92 318.41,539.49 302,525 C274.9,501.07 264.65,481.37 277.29,447.5 C289.93,413.61 315.2192,395.9003 349.7892,384.7603 " fill="none" id="uc2-to-uc3" style="stroke:#181818;stroke-width:1.0;stroke-dasharray:7.0,7.0;"/><polygon fill="#181818" points="355.5,382.92,345.7069,381.8732,350.741,384.4536,348.1606,389.4876,355.5,382.92" style="stroke:#181818;stroke-width:1.0;"/><text fill="#000000" font-family="sans-serif" font-size="13" lengthAdjust="spacing" textLength="52" x="241" y="460.5669">includes</text></g><!--link uc2 to uc6--><g id="link_uc2_uc6"><path d="M354.16,559.41 C334.46,551.64 316.12,540.6 302,525 C256.82,475.06 282.8,442.62 277.29,375.5 C269.35,278.85 227.09,214.75 302,127 C315.55,111.13 327.9159,102.1751 347.3459,94.3351 " fill="none" id="uc2-to-uc6" style="stroke:#181818;stroke-width:1.0;stroke-dasharray:7.0,7.0;"/><polygon fill="#181818" points="352.91,92.09,343.0671,91.7483,348.2732,93.9609,346.0606,99.1671,352.91,92.09" style="stroke:#181818;stroke-width:1.0;"/><text fill="#000000" font-family="sans-serif" font-size="13" lengthAdjust="spacing" textLength="52" x="241" y="371.5669">includes</text></g><!--SRC=[TPFFQjj04CRl-nI3xmx4_ycXK5f2Uok5dekGLLjWoo39q58ALjAc1vksjrvQsZn0G3XMupYM_GgpRvHlHxBiYEQmi3ixyvjlPdO7phkGmX7vRgyVKjVr7JjqHvwox73aK-N5woglEU4KQy7_ED6J2ba1zVsT1r_oKaVw30vhZkdfooelEJLdFU6vdkbl4c2vRuCFGUWC_nkNwYdV4iV8iJRXsHK0CHmsUKwhEtGBOVnNd_EADpp7Mi3VWExqJ3o7bcVr75yfKutbzGOE0du06_CTy3S4Si8t8202aPA5vyHBukkiMibz0UvtWe0p_HKcE5Reeo8Q1uvj1O2-ULOxEZuX_WdoLfzBFP2YPwQMWtIHdke9rXU2LdEJceDe7Tl7PM8Dn3yGiD4Hsh6HHYGPTP79CBftJIlKvRXQ6LS7xefNW6rDBqNYH3eNPz22GEZ1g-UdEQXU1ZK0kZIDGMYwgzFqAf9964qhc57aIeh4M4ovMNDpQACCRGBw6qxPl3Sxx5omCGbv3UM9J3WrC-7R7DOimrgFTsukOX8OFqi9rzcxnkKqfxNAj3Pelv1UQZMjsudRIeeB8r573qPjNeZ0scLOnqYJTvKSlB779f5JEkgJKiNNeMhrYRoNlfzlQ_jjVRzjxBVD_RQbv0FbfxRAFqb1UdW-O7IKGb8w4ZSw8UTzw7ZTG9cJ6Eimkfuz67UT0slhm7eF]--></g></svg>