<svg xmlns="http://www.w3.org/2000/svg" xmlns:xlink="http://www.w3.org/1999/xlink" contentStyleType="text/css" height="804px" preserveAspectRatio="none" style="width:1556px;height:804px;background:#FFFFFF;" version="1.1" viewBox="0 0 1556 804" width="1556px" zoomAndPan="magnify"><defs/><g><text fill="#000000" font-family="sans-serif" font-size="14" font-weight="bold" lengthAdjust="spacing" textLength="409" x="575.25" y="27.9951">&#1055;&#1086;&#1089;&#1083;&#1077;&#1076;&#1086;&#1074;&#1072;&#1090;&#1077;&#1083;&#1100;&#1085;&#1086;&#1089;&#1090;&#1100; &#1072;&#1085;&#1072;&#1083;&#1080;&#1079;&#1072; &#1080; &#1075;&#1077;&#1085;&#1077;&#1088;&#1072;&#1094;&#1080;&#1080; &#1086;&#1090;&#1095;&#1077;&#1090;&#1072;</text><rect fill="none" height="191.9297" style="stroke:#000000;stroke-width:1.5;" width="1008.5" x="333.5" y="310.3906"/><line style="stroke:#181818;stroke-width:0.5;stroke-dasharray:5.0,5.0;" x1="75" x2="75" y1="118.5938" y2="723.25"/><line style="stroke:#181818;stroke-width:0.5;stroke-dasharray:5.0,5.0;" x1="271.5" x2="271.5" y1="118.5938" y2="723.25"/><line style="stroke:#181818;stroke-width:0.5;stroke-dasharray:5.0,5.0;" x1="427.5" x2="427.5" y1="118.5938" y2="723.25"/><line style="stroke:#181818;stroke-width:0.5;stroke-dasharray:5.0,5.0;" x1="632" x2="632" y1="118.5938" y2="723.25"/><line style="stroke:#181818;stroke-width:0.5;stroke-dasharray:5.0,5.0;" x1="786" x2="786" y1="118.5938" y2="723.25"/><line style="stroke:#181818;stroke-width:0.5;stroke-dasharray:5.0,5.0;" x1="954" x2="954" y1="118.5938" y2="723.25"/><line style="stroke:#181818;stroke-width:0.5;stroke-dasharray:5.0,5.0;" x1="1121" x2="1121" y1="118.5938" y2="723.25"/><line style="stroke:#181818;stroke-width:0.5;stroke-dasharray:5.0,5.0;" x1="1279" x2="1279" y1="118.5938" y2="723.25"/><line style="stroke:#181818;stroke-width:0.5;stroke-dasharray:5.0,5.0;" x1="1500.5" x2="1500.5" y1="118.5938" y2="723.25"/><rect fill="#E2E2F0" height="30.2969" rx="2.5" ry="2.5" style="stroke:#181818;stroke-width:0.5;" width="141" x="5" y="87.2969"/><text fill="#000000" font-family="sans-serif" font-size="14" lengthAdjust="spacing" textLength="127" x="12" y="107.292">&#1058;&#1088;&#1080;&#1075;&#1075;&#1077;&#1088; &#1089;&#1080;&#1089;&#1090;&#1077;&#1084;&#1099;</text><rect fill="#E2E2F0" height="30.2969" rx="2.5" ry="2.5" style="stroke:#181818;stroke-width:0.5;" width="141" x="5" y="722.25"/><text fill="#000000" font-family="sans-serif" font-size="14" lengthAdjust="spacing" textLength="127" x="12" y="742.2451">&#1058;&#1088;&#1080;&#1075;&#1075;&#1077;&#1088; &#1089;&#1080;&#1089;&#1090;&#1077;&#1084;&#1099;</text><rect fill="#E2E2F0" height="30.2969" rx="2.5" ry="2.5" style="stroke:#181818;stroke-width:0.5;" width="124" x="209.5" y="87.2969"/><text fill="#000000" font-family="sans-serif" font-size="14" lengthAdjust="spacing" textLength="110" x="216.5" y="107.292">&#1054;&#1095;&#1077;&#1088;&#1077;&#1076;&#1100; &#1079;&#1072;&#1076;&#1072;&#1095;</text><rect fill="#E2E2F0" height="30.2969" rx="2.5" ry="2.5" style="stroke:#181818;stroke-width:0.5;" width="124" x="209.5" y="722.25"/><text fill="#000000" font-family="sans-serif" font-size="14" lengthAdjust="spacing" textLength="110" x="216.5" y="742.2451">&#1054;&#1095;&#1077;&#1088;&#1077;&#1076;&#1100; &#1079;&#1072;&#1076;&#1072;&#1095;</text><rect fill="#E2E2F0" height="30.2969" rx="2.5" ry="2.5" style="stroke:#181818;stroke-width:0.5;" width="168" x="343.5" y="87.2969"/><text fill="#000000" font-family="sans-serif" font-size="14" lengthAdjust="spacing" textLength="154" x="350.5" y="107.292">&#1050;&#1086;&#1085;&#1090;&#1088;&#1086;&#1083;&#1083;&#1077;&#1088; &#1072;&#1085;&#1072;&#1083;&#1080;&#1079;&#1072;</text><rect fill="#E2E2F0" height="30.2969" rx="2.5" ry="2.5" style="stroke:#181818;stroke-width:0.5;" width="168" x="343.5" y="722.25"/><text fill="#000000" font-family="sans-serif" font-size="14" lengthAdjust="spacing" textLength="154" x="350.5" y="742.2451">&#1050;&#1086;&#1085;&#1090;&#1088;&#1086;&#1083;&#1083;&#1077;&#1088; &#1072;&#1085;&#1072;&#1083;&#1080;&#1079;&#1072;</text><rect fill="#E2E2F0" height="30.2969" rx="2.5" ry="2.5" style="stroke:#181818;stroke-width:0.5;" width="127" x="569" y="87.2969"/><text fill="#000000" font-family="sans-serif" font-size="14" lengthAdjust="spacing" textLength="113" x="576" y="107.292">&#1058;&#1088;&#1072;&#1085;&#1089;&#1082;&#1088;&#1080;&#1073;&#1072;&#1090;&#1086;&#1088;</text><rect fill="#E2E2F0" height="30.2969" rx="2.5" ry="2.5" style="stroke:#181818;stroke-width:0.5;" width="127" x="569" y="722.25"/><text fill="#000000" font-family="sans-serif" font-size="14" lengthAdjust="spacing" textLength="113" x="576" y="742.2451">&#1058;&#1088;&#1072;&#1085;&#1089;&#1082;&#1088;&#1080;&#1073;&#1072;&#1090;&#1086;&#1088;</text><rect fill="#E2E2F0" height="30.2969" rx="2.5" ry="2.5" style="stroke:#181818;stroke-width:0.5;" width="160" x="706" y="87.2969"/><text fill="#000000" font-family="sans-serif" font-size="14" lengthAdjust="spacing" textLength="146" x="713" y="107.292">&#1040;&#1085;&#1072;&#1083;&#1080;&#1079;&#1072;&#1090;&#1086;&#1088; &#1101;&#1084;&#1086;&#1094;&#1080;&#1081;</text><rect fill="#E2E2F0" height="30.2969" rx="2.5" ry="2.5" style="stroke:#181818;stroke-width:0.5;" width="160" x="706" y="722.25"/><text fill="#000000" font-family="sans-serif" font-size="14" lengthAdjust="spacing" textLength="146" x="713" y="742.2451">&#1040;&#1085;&#1072;&#1083;&#1080;&#1079;&#1072;&#1090;&#1086;&#1088; &#1101;&#1084;&#1086;&#1094;&#1080;&#1081;</text><rect fill="#E2E2F0" height="30.2969" rx="2.5" ry="2.5" style="stroke:#181818;stroke-width:0.5;" width="156" x="876" y="87.2969"/><text fill="#000000" font-family="sans-serif" font-size="14" lengthAdjust="spacing" textLength="142" x="883" y="107.292">&#1040;&#1085;&#1072;&#1083;&#1080;&#1079;&#1072;&#1090;&#1086;&#1088; &#1090;&#1077;&#1082;&#1089;&#1090;&#1072;</text><rect fill="#E2E2F0" height="30.2969" rx="2.5" ry="2.5" style="stroke:#181818;stroke-width:0.5;" width="156" x="876" y="722.25"/><text fill="#000000" font-family="sans-serif" font-size="14" lengthAdjust="spacing" textLength="142" x="883" y="742.2451">&#1040;&#1085;&#1072;&#1083;&#1080;&#1079;&#1072;&#1090;&#1086;&#1088; &#1090;&#1077;&#1082;&#1089;&#1090;&#1072;</text><rect fill="#E2E2F0" height="30.2969" rx="2.5" ry="2.5" style="stroke:#181818;stroke-width:0.5;" width="158" x="1042" y="87.2969"/><text fill="#000000" font-family="sans-serif" font-size="14" lengthAdjust="spacing" textLength="144" x="1049" y="107.292">&#1043;&#1077;&#1085;&#1077;&#1088;&#1072;&#1090;&#1086;&#1088; &#1086;&#1090;&#1095;&#1077;&#1090;&#1086;&#1074;</text><rect fill="#E2E2F0" height="30.2969" rx="2.5" ry="2.5" style="stroke:#181818;stroke-width:0.5;" width="158" x="1042" y="722.25"/><text fill="#000000" font-family="sans-serif" font-size="14" lengthAdjust="spacing" textLength="144" x="1049" y="742.2451">&#1043;&#1077;&#1085;&#1077;&#1088;&#1072;&#1090;&#1086;&#1088; &#1086;&#1090;&#1095;&#1077;&#1090;&#1086;&#1074;</text><rect fill="#E2E2F0" height="30.2969" rx="2.5" ry="2.5" style="stroke:#181818;stroke-width:0.5;" width="106" x="1226" y="87.2969"/><text fill="#000000" font-family="sans-serif" font-size="14" lengthAdjust="spacing" textLength="92" x="1233" y="107.292">&#1041;&#1072;&#1079;&#1072; &#1076;&#1072;&#1085;&#1085;&#1099;&#1093;</text><rect fill="#E2E2F0" height="30.2969" rx="2.5" ry="2.5" style="stroke:#181818;stroke-width:0.5;" width="106" x="1226" y="722.25"/><text fill="#000000" font-family="sans-serif" font-size="14" lengthAdjust="spacing" textLength="92" x="1233" y="742.2451">&#1041;&#1072;&#1079;&#1072; &#1076;&#1072;&#1085;&#1085;&#1099;&#1093;</text><text fill="#000000" font-family="sans-serif" font-size="14" lengthAdjust="spacing" textLength="103" x="1446.5" y="115.292">HR-&#1084;&#1077;&#1085;&#1077;&#1076;&#1078;&#1077;&#1088;</text><ellipse cx="1501" cy="50.7969" fill="#E2E2F0" rx="8" ry="8" style="stroke:#181818;stroke-width:0.5;"/><path d="M1501,58.7969 L1501,85.7969 M1488,66.7969 L1514,66.7969 M1501,85.7969 L1488,100.7969 M1501,85.7969 L1514,100.7969 " fill="none" style="stroke:#181818;stroke-width:0.5;"/><text fill="#000000" font-family="sans-serif" font-size="14" lengthAdjust="spacing" textLength="103" x="1446.5" y="735.2451">HR-&#1084;&#1077;&#1085;&#1077;&#1076;&#1078;&#1077;&#1088;</text><ellipse cx="1501" cy="747.0469" fill="#E2E2F0" rx="8" ry="8" style="stroke:#181818;stroke-width:0.5;"/><path d="M1501,755.0469 L1501,782.0469 M1488,763.0469 L1514,763.0469 M1501,782.0469 L1488,797.0469 M1501,782.0469 L1514,797.0469 " fill="none" style="stroke:#181818;stroke-width:0.5;"/><polygon fill="#181818" points="259.5,145.7266,269.5,149.7266,259.5,153.7266,263.5,149.7266" style="stroke:#181818;stroke-width:1.0;"/><line style="stroke:#181818;stroke-width:1.0;" x1="75.5" x2="265.5" y1="149.7266" y2="149.7266"/><text fill="#000000" font-family="sans-serif" font-size="13" lengthAdjust="spacing" textLength="172" x="82.5" y="144.6606">&#1053;&#1086;&#1074;&#1099;&#1077; &#1076;&#1072;&#1085;&#1085;&#1099;&#1077; &#1080;&#1085;&#1090;&#1077;&#1088;&#1074;&#1100;&#1102;</text><polygon fill="#181818" points="415.5,174.8594,425.5,178.8594,415.5,182.8594,419.5,178.8594" style="stroke:#181818;stroke-width:1.0;"/><line style="stroke:#181818;stroke-width:1.0;" x1="271.5" x2="421.5" y1="178.8594" y2="178.8594"/><text fill="#000000" font-family="sans-serif" font-size="13" lengthAdjust="spacing" textLength="122" x="278.5" y="173.7935">&#1047;&#1072;&#1076;&#1072;&#1095;&#1072; &#1085;&#1072; &#1072;&#1085;&#1072;&#1083;&#1080;&#1079;</text><polygon fill="#181818" points="1267,203.9922,1277,207.9922,1267,211.9922,1271,207.9922" style="stroke:#181818;stroke-width:1.0;"/><line style="stroke:#181818;stroke-width:1.0;" x1="427.5" x2="1273" y1="207.9922" y2="207.9922"/><text fill="#000000" font-family="sans-serif" font-size="13" lengthAdjust="spacing" textLength="173" x="434.5" y="202.9263">&#1055;&#1086;&#1083;&#1091;&#1095;&#1077;&#1085;&#1080;&#1077; &#1089;&#1099;&#1088;&#1099;&#1093; &#1076;&#1072;&#1085;&#1085;&#1099;&#1093;</text><polygon fill="#181818" points="438.5,233.125,428.5,237.125,438.5,241.125,434.5,237.125" style="stroke:#181818;stroke-width:1.0;"/><line style="stroke:#181818;stroke-width:1.0;stroke-dasharray:2.0,2.0;" x1="432.5" x2="1278" y1="237.125" y2="237.125"/><text fill="#000000" font-family="sans-serif" font-size="13" lengthAdjust="spacing" textLength="186" x="444.5" y="232.0591">&#1042;&#1080;&#1076;&#1077;&#1086;, &#1072;&#1091;&#1076;&#1080;&#1086;, &#1084;&#1077;&#1090;&#1072;&#1076;&#1072;&#1085;&#1085;&#1099;&#1077;</text><polygon fill="#181818" points="620.5,262.2578,630.5,266.2578,620.5,270.2578,624.5,266.2578" style="stroke:#181818;stroke-width:1.0;"/><line style="stroke:#181818;stroke-width:1.0;" x1="427.5" x2="626.5" y1="266.2578" y2="266.2578"/><text fill="#000000" font-family="sans-serif" font-size="13" lengthAdjust="spacing" textLength="181" x="434.5" y="261.1919">&#1040;&#1091;&#1076;&#1080;&#1086; &#1076;&#1083;&#1103; &#1090;&#1088;&#1072;&#1085;&#1089;&#1082;&#1088;&#1080;&#1073;&#1072;&#1094;&#1080;&#1080;</text><polygon fill="#181818" points="438.5,291.3906,428.5,295.3906,438.5,299.3906,434.5,295.3906" style="stroke:#181818;stroke-width:1.0;"/><line style="stroke:#181818;stroke-width:1.0;stroke-dasharray:2.0,2.0;" x1="432.5" x2="631.5" y1="295.3906" y2="295.3906"/><text fill="#000000" font-family="sans-serif" font-size="13" lengthAdjust="spacing" textLength="123" x="444.5" y="290.3247">&#1058;&#1077;&#1082;&#1089;&#1090; + &#1090;&#1072;&#1081;&#1084;&#1080;&#1085;&#1075;&#1080;</text><path d="M333.5,310.3906 L403.5,310.3906 L403.5,317.5234 L393.5,327.5234 L333.5,327.5234 L333.5,310.3906 " fill="#EEEEEE" style="stroke:#000000;stroke-width:1.5;"/><rect fill="none" height="191.9297" style="stroke:#000000;stroke-width:1.5;" width="1008.5" x="333.5" y="310.3906"/><text fill="#000000" font-family="sans-serif" font-size="13" font-weight="bold" lengthAdjust="spacing" textLength="25" x="348.5" y="323.4575">par</text><text fill="#000000" font-family="sans-serif" font-size="11" font-weight="bold" lengthAdjust="spacing" textLength="178" x="418.5" y="322.6011">[&#1055;&#1072;&#1088;&#1072;&#1083;&#1083;&#1077;&#1083;&#1100;&#1085;&#1072;&#1103; &#1086;&#1073;&#1088;&#1072;&#1073;&#1086;&#1090;&#1082;&#1072;]</text><polygon fill="#181818" points="774,344.6563,784,348.6563,774,352.6563,778,348.6563" style="stroke:#181818;stroke-width:1.0;"/><line style="stroke:#181818;stroke-width:1.0;" x1="427.5" x2="780" y1="348.6563" y2="348.6563"/><text fill="#000000" font-family="sans-serif" font-size="13" lengthAdjust="spacing" textLength="132" x="434.5" y="343.5903">&#1042;&#1080;&#1076;&#1077;&#1086; &#1076;&#1083;&#1103; &#1072;&#1085;&#1072;&#1083;&#1080;&#1079;&#1072;</text><polygon fill="#181818" points="438.5,373.7891,428.5,377.7891,438.5,381.7891,434.5,377.7891" style="stroke:#181818;stroke-width:1.0;"/><line style="stroke:#181818;stroke-width:1.0;stroke-dasharray:2.0,2.0;" x1="432.5" x2="785" y1="377.7891" y2="377.7891"/><text fill="#000000" font-family="sans-serif" font-size="13" lengthAdjust="spacing" textLength="190" x="444.5" y="372.7231">&#1069;&#1084;&#1086;&#1094;&#1080;&#1080; + &#1084;&#1080;&#1082;&#1088;&#1086;&#1074;&#1099;&#1088;&#1072;&#1078;&#1077;&#1085;&#1080;&#1103;</text><polygon fill="#181818" points="942,402.9219,952,406.9219,942,410.9219,946,406.9219" style="stroke:#181818;stroke-width:1.0;"/><line style="stroke:#181818;stroke-width:1.0;" x1="427.5" x2="948" y1="406.9219" y2="406.9219"/><text fill="#000000" font-family="sans-serif" font-size="13" lengthAdjust="spacing" textLength="128" x="434.5" y="401.856">&#1058;&#1077;&#1082;&#1089;&#1090; &#1076;&#1083;&#1103; &#1072;&#1085;&#1072;&#1083;&#1080;&#1079;&#1072;</text><polygon fill="#181818" points="1267,432.0547,1277,436.0547,1267,440.0547,1271,436.0547" style="stroke:#181818;stroke-width:1.0;"/><line style="stroke:#181818;stroke-width:1.0;" x1="954" x2="1273" y1="436.0547" y2="436.0547"/><text fill="#000000" font-family="sans-serif" font-size="13" lengthAdjust="spacing" textLength="208" x="961" y="430.9888">&#1047;&#1072;&#1087;&#1088;&#1086;&#1089; &#1084;&#1072;&#1090;&#1088;&#1080;&#1094;&#1099; &#1082;&#1086;&#1084;&#1087;&#1077;&#1090;&#1077;&#1085;&#1094;&#1080;&#1081;</text><polygon fill="#181818" points="965,461.1875,955,465.1875,965,469.1875,961,465.1875" style="stroke:#181818;stroke-width:1.0;"/><line style="stroke:#181818;stroke-width:1.0;stroke-dasharray:2.0,2.0;" x1="959" x2="1278" y1="465.1875" y2="465.1875"/><text fill="#000000" font-family="sans-serif" font-size="13" lengthAdjust="spacing" textLength="146" x="971" y="460.1216">&#1058;&#1088;&#1077;&#1073;&#1086;&#1074;&#1072;&#1085;&#1080;&#1103; &#1074;&#1072;&#1082;&#1072;&#1085;&#1089;&#1080;&#1080;</text><polygon fill="#181818" points="438.5,490.3203,428.5,494.3203,438.5,498.3203,434.5,494.3203" style="stroke:#181818;stroke-width:1.0;"/><line style="stroke:#181818;stroke-width:1.0;stroke-dasharray:2.0,2.0;" x1="432.5" x2="953" y1="494.3203" y2="494.3203"/><text fill="#000000" font-family="sans-serif" font-size="13" lengthAdjust="spacing" textLength="175" x="444.5" y="489.2544">&#1054;&#1094;&#1077;&#1085;&#1082;&#1080; &#1087;&#1086; &#1082;&#1086;&#1084;&#1087;&#1077;&#1090;&#1077;&#1085;&#1094;&#1080;&#1103;&#1084;</text><polygon fill="#181818" points="1109,526.4531,1119,530.4531,1109,534.4531,1113,530.4531" style="stroke:#181818;stroke-width:1.0;"/><line style="stroke:#181818;stroke-width:1.0;" x1="427.5" x2="1115" y1="530.4531" y2="530.4531"/><text fill="#000000" font-family="sans-serif" font-size="13" lengthAdjust="spacing" textLength="139" x="434.5" y="525.3872">&#1042;&#1089;&#1077; &#1076;&#1072;&#1085;&#1085;&#1099;&#1077; &#1072;&#1085;&#1072;&#1083;&#1080;&#1079;&#1072;</text><polygon fill="#181818" points="1267,555.5859,1277,559.5859,1267,563.5859,1271,559.5859" style="stroke:#181818;stroke-width:1.0;"/><line style="stroke:#181818;stroke-width:1.0;" x1="1121" x2="1273" y1="559.5859" y2="559.5859"/><text fill="#000000" font-family="sans-serif" font-size="13" lengthAdjust="spacing" textLength="134" x="1128" y="554.52">&#1057;&#1086;&#1093;&#1088;&#1072;&#1085;&#1077;&#1085;&#1080;&#1077; &#1086;&#1090;&#1095;&#1077;&#1090;&#1072;</text><polygon fill="#181818" points="1132,584.7188,1122,588.7188,1132,592.7188,1128,588.7188" style="stroke:#181818;stroke-width:1.0;"/><line style="stroke:#181818;stroke-width:1.0;stroke-dasharray:2.0,2.0;" x1="1126" x2="1278" y1="588.7188" y2="588.7188"/><text fill="#000000" font-family="sans-serif" font-size="13" lengthAdjust="spacing" textLength="67" x="1138" y="583.6528">ID &#1086;&#1090;&#1095;&#1077;&#1090;&#1072;</text><polygon fill="#181818" points="438.5,613.8516,428.5,617.8516,438.5,621.8516,434.5,617.8516" style="stroke:#181818;stroke-width:1.0;"/><line style="stroke:#181818;stroke-width:1.0;stroke-dasharray:2.0,2.0;" x1="432.5" x2="1120" y1="617.8516" y2="617.8516"/><text fill="#000000" font-family="sans-serif" font-size="13" lengthAdjust="spacing" textLength="104" x="444.5" y="612.7856">&#1043;&#1086;&#1090;&#1086;&#1074;&#1099;&#1081; &#1086;&#1090;&#1095;&#1077;&#1090;</text><polygon fill="#181818" points="1489,642.9844,1499,646.9844,1489,650.9844,1493,646.9844" style="stroke:#181818;stroke-width:1.0;"/><line style="stroke:#181818;stroke-width:1.0;" x1="427.5" x2="1495" y1="646.9844" y2="646.9844"/><text fill="#000000" font-family="sans-serif" font-size="13" lengthAdjust="spacing" textLength="186" x="434.5" y="641.9185">&#1059;&#1074;&#1077;&#1076;&#1086;&#1084;&#1083;&#1077;&#1085;&#1080;&#1077; &#1086; &#1075;&#1086;&#1090;&#1086;&#1074;&#1085;&#1086;&#1089;&#1090;&#1080;</text><polygon fill="#181818" points="1290,672.1172,1280,676.1172,1290,680.1172,1286,676.1172" style="stroke:#181818;stroke-width:1.0;"/><line style="stroke:#181818;stroke-width:1.0;" x1="1284" x2="1500" y1="676.1172" y2="676.1172"/><text fill="#000000" font-family="sans-serif" font-size="13" lengthAdjust="spacing" textLength="102" x="1296" y="671.0513">&#1047;&#1072;&#1087;&#1088;&#1086;&#1089; &#1086;&#1090;&#1095;&#1077;&#1090;&#1072;</text><polygon fill="#181818" points="1489,701.25,1499,705.25,1489,709.25,1493,705.25" style="stroke:#181818;stroke-width:1.0;"/><line style="stroke:#181818;stroke-width:1.0;stroke-dasharray:2.0,2.0;" x1="1279" x2="1495" y1="705.25" y2="705.25"/><text fill="#000000" font-family="sans-serif" font-size="13" lengthAdjust="spacing" textLength="198" x="1286" y="700.1841">PDF + &#1080;&#1085;&#1090;&#1077;&#1088;&#1072;&#1082;&#1090;&#1080;&#1074;&#1085;&#1099;&#1081; &#1086;&#1090;&#1095;&#1077;&#1090;</text><!--SRC=[ZLN1RjD04BtxArQvGdwW1oH2GE46KN_01Ako5Ep8TINWbAPgUqWWXHwGa2YYd2ivQL8S9t5-OVUFU3Dh9_OwI5oIZJDltfjvC-lG3RkEa3zbgaxbKixbJAPoAYCrm7cfHd9D_wY16WaPuKU4e5Z-aP6GiP3t25hBkUe3S87dU9GYzXAF1ZAoh9uTX6x7xTbUA6ho5d4nCFU44E2BAJDIhDIm9knZSHYuHqTEOC1kE5-Vj94AS4Daf2uPylh4EN4Cm7UKi8QCFhwNL1JOok8P-iptmi3lTYk4f1FX49YmuWct8rNzJAJj7NS2zqq5TrMaq0YXFiaL3jIS1SEVl_D3r_V-1qgjIRX5Ml2XypvywjdT3nyhrDS58pIwO0GCPNpRwVb1MC5-0JCREkCchTLGdNDyis7PdT0FHAtLhgCCfa3K0n5nHAjjMPbfelv4ct4Wv0-YL4CvB-Ia7p7PmYgdQgG-MnnFm9qLG7_B3IPDQ_eeU6TPkrX2DXi7FBsOrJCg5v4ngD2reUfJ9QMoh6P3r4s-hq3CW4mVWqcTuHppUQMdk5Y2oLwO1IIwoi74kLHZmJDeJXBlYLL0LXNTviQBHu8bB206pSFcnBnKL7B4kNc-iqMDG8bEJFYF2Gs0JB25GfH5PnDOh3mNNDuI8BFOgiIxxLZ74Cdo4bwuAJKUEHwq5sgCB1K9nKakrVil7KN0rdOQb0sHgbDI476xOtMXXWA5ftYqOGiXH2yW4cK3O0hWwsMYhpujM_0noUmZoqmLPajkG48r9tGDRgYfUqIeiLnPZlVMdAHyDyaLy9cRK-v77hpjn2_qu5pFsdO5IZTnLlQEvMMp7B1BQPPrpOEa5tfH01a5jDg8_OscwLV8YkSoLq9lYYnB_aAXIMwrztkvHpcbVzLyGREskqNW3oMYf8Qulm00]--></g></svg>