<svg xmlns="http://www.w3.org/2000/svg" xmlns:xlink="http://www.w3.org/1999/xlink" contentStyleType="text/css" height="484px" preserveAspectRatio="none" style="width:892px;height:484px;background:#FFFFFF;" version="1.1" viewBox="0 0 892 484" width="892px" zoomAndPan="magnify"><defs/><g><text fill="#000000" font-family="sans-serif" font-size="14" font-weight="bold" lengthAdjust="spacing" textLength="309" x="284.5" y="22.9951">&#1050;&#1083;&#1072;&#1089;&#1089;&#1099; &#1084;&#1086;&#1076;&#1091;&#1083;&#1103; &#1072;&#1085;&#1072;&#1083;&#1080;&#1079;&#1072; &#1080; &#1086;&#1090;&#1095;&#1077;&#1090;&#1085;&#1086;&#1089;&#1090;&#1080;</text><!--class CandidateReport--><g id="elem_CandidateReport"><rect codeLine="3" fill="#F1F1F1" height="194.6719" id="CandidateReport" rx="2.5" ry="2.5" style="stroke:#181818;stroke-width:0.5;" width="310" x="303" y="44.2969"/><ellipse cx="395.25" cy="60.2969" fill="#ADD1B2" rx="11" ry="11" style="stroke:#181818;stroke-width:1.0;"/><path d="M398.2188,65.9375 Q397.6406,66.2344 397,66.375 Q396.3594,66.5313 395.6563,66.5313 Q393.1563,66.5313 391.8281,64.8906 Q390.5156,63.2344 390.5156,60.1094 Q390.5156,56.9844 391.8281,55.3281 Q393.1563,53.6719 395.6563,53.6719 Q396.3594,53.6719 397,53.8281 Q397.6563,53.9844 398.2188,54.2813 L398.2188,57 Q397.5938,56.4219 397,56.1563 Q396.4063,55.875 395.7813,55.875 Q394.4375,55.875 393.75,56.9531 Q393.0625,58.0156 393.0625,60.1094 Q393.0625,62.2031 393.75,63.2813 Q394.4375,64.3438 395.7813,64.3438 Q396.4063,64.3438 397,64.0781 Q397.5938,63.7969 398.2188,63.2188 L398.2188,65.9375 Z " fill="#000000"/><text fill="#000000" font-family="sans-serif" font-size="14" lengthAdjust="spacing" textLength="117" x="415.75" y="65.1436">CandidateReport</text><line style="stroke:#181818;stroke-width:0.5;" x1="304" x2="612" y1="76.2969" y2="76.2969"/><rect fill="none" height="6" style="stroke:#C82930;stroke-width:1.0;" width="6" x="311" y="86.9453"/><text fill="#000000" font-family="sans-serif" font-size="14" lengthAdjust="spacing" textLength="97" x="323" y="93.292">reportId: UUID</text><rect fill="none" height="6" style="stroke:#C82930;stroke-width:1.0;" width="6" x="311" y="103.2422"/><text fill="#000000" font-family="sans-serif" font-size="14" lengthAdjust="spacing" textLength="123" x="323" y="109.5889">candidateId: UUID</text><rect fill="none" height="6" style="stroke:#C82930;stroke-width:1.0;" width="6" x="311" y="119.5391"/><text fill="#000000" font-family="sans-serif" font-size="14" lengthAdjust="spacing" textLength="116" x="323" y="125.8857">interviewId: UUID</text><rect fill="none" height="6" style="stroke:#C82930;stroke-width:1.0;" width="6" x="311" y="135.8359"/><text fill="#000000" font-family="sans-serif" font-size="14" lengthAdjust="spacing" textLength="162" x="323" y="142.1826">generatedAt: DateTime</text><rect fill="none" height="6" style="stroke:#C82930;stroke-width:1.0;" width="6" x="311" y="152.1328"/><text fill="#000000" font-family="sans-serif" font-size="14" lengthAdjust="spacing" textLength="122" x="323" y="158.4795">overallScore: float</text><rect fill="none" height="6" style="stroke:#C82930;stroke-width:1.0;" width="6" x="311" y="168.4297"/><text fill="#000000" font-family="sans-serif" font-size="14" lengthAdjust="spacing" textLength="284" x="323" y="174.7764">recommendation: RecommendationType</text><line style="stroke:#181818;stroke-width:0.5;" x1="304" x2="612" y1="182.0781" y2="182.0781"/><ellipse cx="314" cy="195.7266" fill="#84BE84" rx="3" ry="3" style="stroke:#038048;stroke-width:1.0;"/><text fill="#000000" font-family="sans-serif" font-size="14" lengthAdjust="spacing" textLength="108" x="323" y="199.0732">getPDFReport()</text><ellipse cx="314" cy="212.0234" fill="#84BE84" rx="3" ry="3" style="stroke:#038048;stroke-width:1.0;"/><text fill="#000000" font-family="sans-serif" font-size="14" lengthAdjust="spacing" textLength="98" x="323" y="215.3701">getJSONData()</text><ellipse cx="314" cy="228.3203" fill="#84BE84" rx="3" ry="3" style="stroke:#038048;stroke-width:1.0;"/><text fill="#000000" font-family="sans-serif" font-size="14" lengthAdjust="spacing" textLength="146" x="323" y="231.667">getVideoFragments()</text></g><!--class CompetencyAssessment--><g id="elem_CompetencyAssessment"><rect codeLine="15" fill="#F1F1F1" height="178.375" id="CompetencyAssessment" rx="2.5" ry="2.5" style="stroke:#181818;stroke-width:0.5;" width="208" x="7" y="298.9669"/><ellipse cx="22.9" cy="314.9669" fill="#ADD1B2" rx="11" ry="11" style="stroke:#181818;stroke-width:1.0;"/><path d="M25.8688,320.6075 Q25.2906,320.9044 24.65,321.045 Q24.0094,321.2013 23.3063,321.2013 Q20.8063,321.2013 19.4781,319.5606 Q18.1656,317.9044 18.1656,314.7794 Q18.1656,311.6544 19.4781,309.9981 Q20.8063,308.3419 23.3063,308.3419 Q24.0094,308.3419 24.65,308.4981 Q25.3063,308.6544 25.8688,308.9513 L25.8688,311.67 Q25.2438,311.0919 24.65,310.8263 Q24.0563,310.545 23.4313,310.545 Q22.0875,310.545 21.4,311.6231 Q20.7125,312.6856 20.7125,314.7794 Q20.7125,316.8731 21.4,317.9513 Q22.0875,319.0138 23.4313,319.0138 Q24.0563,319.0138 24.65,318.7481 Q25.2438,318.4669 25.8688,317.8888 L25.8688,320.6075 Z " fill="#000000"/><text fill="#000000" font-family="sans-serif" font-size="14" lengthAdjust="spacing" textLength="174" x="37.1" y="319.8136">CompetencyAssessment</text><line style="stroke:#181818;stroke-width:0.5;" x1="8" x2="214" y1="330.9669" y2="330.9669"/><rect fill="none" height="6" style="stroke:#C82930;stroke-width:1.0;" width="6" x="15" y="341.6153"/><text fill="#000000" font-family="sans-serif" font-size="14" lengthAdjust="spacing" textLength="140" x="27" y="347.962">assessmentId: UUID</text><rect fill="none" height="6" style="stroke:#C82930;stroke-width:1.0;" width="6" x="15" y="357.9122"/><text fill="#000000" font-family="sans-serif" font-size="14" lengthAdjust="spacing" textLength="97" x="27" y="364.2589">reportId: UUID</text><rect fill="none" height="6" style="stroke:#C82930;stroke-width:1.0;" width="6" x="15" y="374.2091"/><text fill="#000000" font-family="sans-serif" font-size="14" lengthAdjust="spacing" textLength="141" x="27" y="380.5557">competencyId: UUID</text><rect fill="none" height="6" style="stroke:#C82930;stroke-width:1.0;" width="6" x="15" y="390.5059"/><text fill="#000000" font-family="sans-serif" font-size="14" lengthAdjust="spacing" textLength="115" x="27" y="396.8526">confidence: float</text><rect fill="none" height="6" style="stroke:#C82930;stroke-width:1.0;" width="6" x="15" y="406.8028"/><text fill="#000000" font-family="sans-serif" font-size="14" lengthAdjust="spacing" textLength="182" x="27" y="413.1495">keyEvidence: List&lt;string&gt;</text><line style="stroke:#181818;stroke-width:0.5;" x1="8" x2="214" y1="420.4513" y2="420.4513"/><rect fill="#F24D5C" height="6" style="stroke:#C82930;stroke-width:1.0;" width="6" x="15" y="431.0997"/><text fill="#000000" font-family="sans-serif" font-size="14" lengthAdjust="spacing" textLength="111" x="27" y="437.4464">score: int (1-10)</text><ellipse cx="18" cy="450.3966" fill="#84BE84" rx="3" ry="3" style="stroke:#038048;stroke-width:1.0;"/><text fill="#000000" font-family="sans-serif" font-size="14" lengthAdjust="spacing" textLength="111" x="27" y="453.7432">calculateScore()</text><ellipse cx="18" cy="466.6934" fill="#84BE84" rx="3" ry="3" style="stroke:#038048;stroke-width:1.0;"/><text fill="#000000" font-family="sans-serif" font-size="14" lengthAdjust="spacing" textLength="153" x="27" y="470.0401">getImprovementTips()</text></g><!--class EmotionalProfile--><g id="elem_EmotionalProfile"><rect codeLine="26" fill="#F1F1F1" height="178.375" id="EmotionalProfile" rx="2.5" ry="2.5" style="stroke:#181818;stroke-width:0.5;" width="196" x="250" y="298.9669"/><ellipse cx="289.3" cy="314.9669" fill="#ADD1B2" rx="11" ry="11" style="stroke:#181818;stroke-width:1.0;"/><path d="M292.2688,320.6075 Q291.6906,320.9044 291.05,321.045 Q290.4094,321.2013 289.7063,321.2013 Q287.2063,321.2013 285.8781,319.5606 Q284.5656,317.9044 284.5656,314.7794 Q284.5656,311.6544 285.8781,309.9981 Q287.2063,308.3419 289.7063,308.3419 Q290.4094,308.3419 291.05,308.4981 Q291.7063,308.6544 292.2688,308.9513 L292.2688,311.67 Q291.6438,311.0919 291.05,310.8263 Q290.4563,310.545 289.8313,310.545 Q288.4875,310.545 287.8,311.6231 Q287.1125,312.6856 287.1125,314.7794 Q287.1125,316.8731 287.8,317.9513 Q288.4875,319.0138 289.8313,319.0138 Q290.4563,319.0138 291.05,318.7481 Q291.6438,318.4669 292.2688,317.8888 L292.2688,320.6075 Z " fill="#000000"/><text fill="#000000" font-family="sans-serif" font-size="14" lengthAdjust="spacing" textLength="110" x="308.7" y="319.8136">EmotionalProfile</text><line style="stroke:#181818;stroke-width:0.5;" x1="251" x2="445" y1="330.9669" y2="330.9669"/><rect fill="none" height="6" style="stroke:#C82930;stroke-width:1.0;" width="6" x="258" y="341.6153"/><text fill="#000000" font-family="sans-serif" font-size="14" lengthAdjust="spacing" textLength="97" x="270" y="347.962">profileId: UUID</text><rect fill="none" height="6" style="stroke:#C82930;stroke-width:1.0;" width="6" x="258" y="357.9122"/><text fill="#000000" font-family="sans-serif" font-size="14" lengthAdjust="spacing" textLength="97" x="270" y="364.2589">reportId: UUID</text><rect fill="none" height="6" style="stroke:#C82930;stroke-width:1.0;" width="6" x="258" y="374.2091"/><text fill="#000000" font-family="sans-serif" font-size="14" lengthAdjust="spacing" textLength="170" x="270" y="380.5557">dominantEmotion: string</text><rect fill="none" height="6" style="stroke:#C82930;stroke-width:1.0;" width="6" x="258" y="390.5059"/><text fill="#000000" font-family="sans-serif" font-size="14" lengthAdjust="spacing" textLength="147" x="270" y="396.8526">emotionStability: float</text><rect fill="none" height="6" style="stroke:#C82930;stroke-width:1.0;" width="6" x="258" y="406.8028"/><text fill="#000000" font-family="sans-serif" font-size="14" lengthAdjust="spacing" textLength="162" x="270" y="413.1495">engagementLevel: float</text><rect fill="none" height="6" style="stroke:#C82930;stroke-width:1.0;" width="6" x="258" y="423.0997"/><text fill="#000000" font-family="sans-serif" font-size="14" lengthAdjust="spacing" textLength="135" x="270" y="429.4464">sincerityScore: float</text><line style="stroke:#181818;stroke-width:0.5;" x1="251" x2="445" y1="436.7481" y2="436.7481"/><ellipse cx="261" cy="450.3966" fill="#84BE84" rx="3" ry="3" style="stroke:#038048;stroke-width:1.0;"/><text fill="#000000" font-family="sans-serif" font-size="14" lengthAdjust="spacing" textLength="148" x="270" y="453.7432">getEmotionTimeline()</text><ellipse cx="261" cy="466.6934" fill="#84BE84" rx="3" ry="3" style="stroke:#038048;stroke-width:1.0;"/><text fill="#000000" font-family="sans-serif" font-size="14" lengthAdjust="spacing" textLength="154" x="270" y="470.0401">getMicroExpressions()</text></g><!--class VideoAnnotation--><g id="elem_VideoAnnotation"><rect codeLine="37" fill="#F1F1F1" height="178.375" id="VideoAnnotation" rx="2.5" ry="2.5" style="stroke:#181818;stroke-width:0.5;" width="177" x="480.5" y="298.9669"/><ellipse cx="509.45" cy="314.9669" fill="#ADD1B2" rx="11" ry="11" style="stroke:#181818;stroke-width:1.0;"/><path d="M512.4188,320.6075 Q511.8406,320.9044 511.2,321.045 Q510.5594,321.2013 509.8563,321.2013 Q507.3563,321.2013 506.0281,319.5606 Q504.7156,317.9044 504.7156,314.7794 Q504.7156,311.6544 506.0281,309.9981 Q507.3563,308.3419 509.8563,308.3419 Q510.5594,308.3419 511.2,308.4981 Q511.8563,308.6544 512.4188,308.9513 L512.4188,311.67 Q511.7938,311.0919 511.2,310.8263 Q510.6063,310.545 509.9813,310.545 Q508.6375,310.545 507.95,311.6231 Q507.2625,312.6856 507.2625,314.7794 Q507.2625,316.8731 507.95,317.9513 Q508.6375,319.0138 509.9813,319.0138 Q510.6063,319.0138 511.2,318.7481 Q511.7938,318.4669 512.4188,317.8888 L512.4188,320.6075 Z " fill="#000000"/><text fill="#000000" font-family="sans-serif" font-size="14" lengthAdjust="spacing" textLength="114" x="526.55" y="319.8136">VideoAnnotation</text><line style="stroke:#181818;stroke-width:0.5;" x1="481.5" x2="656.5" y1="330.9669" y2="330.9669"/><rect fill="none" height="6" style="stroke:#C82930;stroke-width:1.0;" width="6" x="488.5" y="341.6153"/><text fill="#000000" font-family="sans-serif" font-size="14" lengthAdjust="spacing" textLength="129" x="500.5" y="347.962">annotationId: UUID</text><rect fill="none" height="6" style="stroke:#C82930;stroke-width:1.0;" width="6" x="488.5" y="357.9122"/><text fill="#000000" font-family="sans-serif" font-size="14" lengthAdjust="spacing" textLength="97" x="500.5" y="364.2589">reportId: UUID</text><rect fill="none" height="6" style="stroke:#C82930;stroke-width:1.0;" width="6" x="488.5" y="374.2091"/><text fill="#000000" font-family="sans-serif" font-size="14" lengthAdjust="spacing" textLength="151" x="500.5" y="380.5557">timestamp: TimeSpan</text><rect fill="none" height="6" style="stroke:#C82930;stroke-width:1.0;" width="6" x="488.5" y="390.5059"/><text fill="#000000" font-family="sans-serif" font-size="14" lengthAdjust="spacing" textLength="148" x="500.5" y="396.8526">type: AnnotationType</text><rect fill="none" height="6" style="stroke:#C82930;stroke-width:1.0;" width="6" x="488.5" y="406.8028"/><text fill="#000000" font-family="sans-serif" font-size="14" lengthAdjust="spacing" textLength="125" x="500.5" y="413.1495">description: string</text><rect fill="none" height="6" style="stroke:#C82930;stroke-width:1.0;" width="6" x="488.5" y="423.0997"/><text fill="#000000" font-family="sans-serif" font-size="14" lengthAdjust="spacing" textLength="103" x="500.5" y="429.4464">videoUrl: string</text><line style="stroke:#181818;stroke-width:0.5;" x1="481.5" x2="656.5" y1="436.7481" y2="436.7481"/><ellipse cx="491.5" cy="450.3966" fill="#84BE84" rx="3" ry="3" style="stroke:#038048;stroke-width:1.0;"/><text fill="#000000" font-family="sans-serif" font-size="14" lengthAdjust="spacing" textLength="138" x="500.5" y="453.7432">getVideoFragment()</text><ellipse cx="491.5" cy="466.6934" fill="#84BE84" rx="3" ry="3" style="stroke:#038048;stroke-width:1.0;"/><text fill="#000000" font-family="sans-serif" font-size="14" lengthAdjust="spacing" textLength="104" x="500.5" y="470.0401">addComment()</text></g><!--class RiskIndicator--><g id="elem_RiskIndicator"><rect codeLine="48" fill="#F1F1F1" height="162.0781" id="RiskIndicator" rx="2.5" ry="2.5" style="stroke:#181818;stroke-width:0.5;" width="192" x="693" y="307.1169"/><ellipse cx="740.75" cy="323.1169" fill="#ADD1B2" rx="11" ry="11" style="stroke:#181818;stroke-width:1.0;"/><path d="M743.7188,328.7575 Q743.1406,329.0544 742.5,329.195 Q741.8594,329.3513 741.1563,329.3513 Q738.6563,329.3513 737.3281,327.7106 Q736.0156,326.0544 736.0156,322.9294 Q736.0156,319.8044 737.3281,318.1481 Q738.6563,316.4919 741.1563,316.4919 Q741.8594,316.4919 742.5,316.6481 Q743.1563,316.8044 743.7188,317.1013 L743.7188,319.82 Q743.0938,319.2419 742.5,318.9763 Q741.9063,318.695 741.2813,318.695 Q739.9375,318.695 739.25,319.7731 Q738.5625,320.8356 738.5625,322.9294 Q738.5625,325.0231 739.25,326.1013 Q739.9375,327.1638 741.2813,327.1638 Q741.9063,327.1638 742.5,326.8981 Q743.0938,326.6169 743.7188,326.0388 L743.7188,328.7575 Z " fill="#000000"/><text fill="#000000" font-family="sans-serif" font-size="14" lengthAdjust="spacing" textLength="88" x="761.25" y="327.9636">RiskIndicator</text><line style="stroke:#181818;stroke-width:0.5;" x1="694" x2="884" y1="339.1169" y2="339.1169"/><rect fill="none" height="6" style="stroke:#C82930;stroke-width:1.0;" width="6" x="701" y="349.7653"/><text fill="#000000" font-family="sans-serif" font-size="14" lengthAdjust="spacing" textLength="114" x="713" y="356.112">indicatorId: UUID</text><rect fill="none" height="6" style="stroke:#C82930;stroke-width:1.0;" width="6" x="701" y="366.0622"/><text fill="#000000" font-family="sans-serif" font-size="14" lengthAdjust="spacing" textLength="97" x="713" y="372.4089">reportId: UUID</text><rect fill="none" height="6" style="stroke:#C82930;stroke-width:1.0;" width="6" x="701" y="382.3591"/><text fill="#000000" font-family="sans-serif" font-size="14" lengthAdjust="spacing" textLength="102" x="713" y="388.7057">type: RiskType</text><rect fill="none" height="6" style="stroke:#C82930;stroke-width:1.0;" width="6" x="701" y="398.6559"/><text fill="#000000" font-family="sans-serif" font-size="14" lengthAdjust="spacing" textLength="151" x="713" y="405.0026">severity: SeverityLevel</text><rect fill="none" height="6" style="stroke:#C82930;stroke-width:1.0;" width="6" x="701" y="414.9528"/><text fill="#000000" font-family="sans-serif" font-size="14" lengthAdjust="spacing" textLength="125" x="713" y="421.2995">description: string</text><rect fill="none" height="6" style="stroke:#C82930;stroke-width:1.0;" width="6" x="701" y="431.2497"/><text fill="#000000" font-family="sans-serif" font-size="14" lengthAdjust="spacing" textLength="166" x="713" y="437.5964">recommendation: string</text><line style="stroke:#181818;stroke-width:0.5;" x1="694" x2="884" y1="444.8981" y2="444.8981"/><ellipse cx="704" cy="458.5466" fill="#84BE84" rx="3" ry="3" style="stroke:#038048;stroke-width:1.0;"/><text fill="#000000" font-family="sans-serif" font-size="14" lengthAdjust="spacing" textLength="125" x="713" y="461.8932">calculateSeverity()</text></g><!--reverse link CandidateReport to CompetencyAssessment--><g id="link_CandidateReport_CompetencyAssessment"><path codeLine="58" d="M308.0435,246.2459 C279.8635,265.8759 260.36,279.5769 233,298.9669 C227.24,303.0569 221.34,307.2569 215.39,311.5069 " fill="none" id="CandidateReport-backto-CompetencyAssessment" style="stroke:#181818;stroke-width:1.0;"/><polygon fill="#181818" points="317.89,239.3869,310.6804,239.5342,308.0435,246.2459,315.2531,246.0986,317.89,239.3869" style="stroke:#181818;stroke-width:1.0;"/><text fill="#000000" font-family="sans-serif" font-size="13" lengthAdjust="spacing" textLength="8" x="299.3069" y="259.1882">1</text><text fill="#000000" font-family="sans-serif" font-size="13" lengthAdjust="spacing" textLength="23" x="219.1038" y="299.6999">1..*</text></g><!--reverse link CandidateReport to EmotionalProfile--><g id="link_CandidateReport_EmotionalProfile"><path codeLine="59" d="M409.6052,250.2197 C400.7752,269.8397 396.45,279.4469 387.76,298.7669 " fill="none" id="CandidateReport-backto-EmotionalProfile" style="stroke:#181818;stroke-width:1.0;"/><polygon fill="#181818" points="414.53,239.2769,408.42,243.1067,409.6052,250.2197,415.7152,246.3899,414.53,239.2769" style="stroke:#181818;stroke-width:1.0;"/><text fill="#000000" font-family="sans-serif" font-size="13" lengthAdjust="spacing" textLength="8" x="403.0439" y="259.0702">1</text><text fill="#000000" font-family="sans-serif" font-size="13" lengthAdjust="spacing" textLength="8" x="382.7214" y="287.8158">1</text></g><!--reverse link CandidateReport to VideoAnnotation--><g id="link_CandidateReport_VideoAnnotation"><path codeLine="60" d="M506.8319,250.203 C515.7419,269.823 520.1,279.4469 528.87,298.7669 " fill="none" id="CandidateReport-backto-VideoAnnotation" style="stroke:#181818;stroke-width:1.0;"/><polygon fill="#181818" points="501.87,239.2769,500.7089,246.3939,506.8319,250.203,507.993,243.086,501.87,239.2769" style="stroke:#181818;stroke-width:1.0;"/><text fill="#000000" font-family="sans-serif" font-size="13" lengthAdjust="spacing" textLength="8" x="496.798" y="259.0702">1</text><text fill="#000000" font-family="sans-serif" font-size="13" lengthAdjust="spacing" textLength="23" x="501.5944" y="287.8158">0..*</text></g><!--reverse link CandidateReport to RiskIndicator--><g id="link_CandidateReport_RiskIndicator"><path codeLine="61" d="M603.3831,246.3297 C630.4531,265.9097 648.86,279.4569 675,298.9669 C680.81,303.3169 686.77,307.8069 692.77,312.3469 " fill="none" id="CandidateReport-backto-RiskIndicator" style="stroke:#181818;stroke-width:1.0;"/><polygon fill="#181818" points="593.66,239.2969,596.1773,246.0543,603.3831,246.3297,600.8658,239.5722,593.66,239.2969" style="stroke:#181818;stroke-width:1.0;"/><text fill="#000000" font-family="sans-serif" font-size="13" lengthAdjust="spacing" textLength="8" x="595.3288" y="259.0916">1</text><text fill="#000000" font-family="sans-serif" font-size="13" lengthAdjust="spacing" textLength="23" x="661.8586" y="303.3006">0..*</text></g><!--SRC=[XPJ1ZjCm48RlVGghfzr5NMsl4KAgjbsfQ85Lqt8tZXjPwzYMRGeLua0vSE30dQVeOH6L2dq6vusOE4wQjCjMKPNuztXclfbnBRES8lVJRTqw_mBFT-J-k9rxoB-wRVu3kRNx2x-jsxZVRetS1hbTlig_kL_v2dPsS6BbDfqEuTWOT8r5mX9iwOGggItwr46eXxHVZ9C8pMRZePT8PTXIcR1KBnZzq59JAgW6qsHW8pI4ZodBgD-H2zZWF2PIqmZDkSGs12GoowY004oA24rQw-bI5SUVWMDxDxmfKpqxhwINyPlN40NlbRSieV96unHSM0FwvvfNPefQAiXoO0mrfZ08qBWMMZ2FrQ9sqf9DIGKrGMVzNl_gF1YBEQGZI0ludYv7Yqg-PSO-DrOpaRxm20Hpyfv3uNoXzbpZJ6aeOP7ZbAaMs2YJHQamlzDopc12IYXLhauH9J9Z0WiRl4IepCRlqLABBNx7EBFB9WOLAKvzFhTqGNbpop1Wqs1_q6mF4k8KSy6PQ12-OaJBqKUbeHLWq4BqNHq88QsVYgfjjN0Aqa8qOt6c8bG4ZXKMfGxZ5Q6zup1kK1LgY6Rgg295u-HCyuPuF7Q12IV9jHzbsqIPC7C_XWj5i9KwWB1gVPB3vrkug3CrK7tjUnE7Bz-F9oaExro3PJz_mLkP- -6VHRVVHHUz7hmlBo-wZzwj9yvqZsRs_yPNFi3109moRnNv7m00]--></g></svg>