<svg xmlns="http://www.w3.org/2000/svg" xmlns:xlink="http://www.w3.org/1999/xlink" contentStyleType="text/css" height="583px" preserveAspectRatio="none" style="width:1367px;height:583px;background:#FFFFFF;" version="1.1" viewBox="0 0 1367 583" width="1367px" zoomAndPan="magnify"><defs/><g><text fill="#000000" font-family="sans-serif" font-size="14" font-weight="bold" lengthAdjust="spacing" textLength="276" x="538.5" y="22.9951">&#1056;&#1072;&#1079;&#1074;&#1077;&#1088;&#1090;&#1099;&#1074;&#1072;&#1085;&#1080;&#1077; &#1089;&#1077;&#1088;&#1074;&#1080;&#1089;&#1086;&#1074; &#1072;&#1085;&#1072;&#1083;&#1080;&#1079;&#1072;</text><!--cluster Kubernetes Cluster--><g id="cluster_Kubernetes Cluster"><polygon fill="none" points="82,53.2969,92,43.2969,1172,43.2969,1172,388.9869,1162,398.9869,82,398.9869,82,53.2969" style="stroke:#181818;stroke-width:1.0;"/><line style="stroke:#181818;stroke-width:1.0;" x1="1162" x2="1172" y1="53.2969" y2="43.2969"/><line style="stroke:#181818;stroke-width:1.0;" x1="82" x2="1162" y1="53.2969" y2="53.2969"/><line style="stroke:#181818;stroke-width:1.0;" x1="1162" x2="1162" y1="53.2969" y2="398.9869"/><text fill="#000000" font-family="sans-serif" font-size="14" font-weight="bold" lengthAdjust="spacing" textLength="155" x="545.5" y="69.292">Kubernetes Cluster</text></g><!--cluster Analysis Namespace--><g id="cluster_Analysis Namespace"><polygon fill="none" points="106,101.2969,116,91.2969,682,91.2969,682,364.9869,672,374.9869,106,374.9869,106,101.2969" style="stroke:#181818;stroke-width:1.0;"/><line style="stroke:#181818;stroke-width:1.0;" x1="672" x2="682" y1="101.2969" y2="91.2969"/><line style="stroke:#181818;stroke-width:1.0;" x1="106" x2="672" y1="101.2969" y2="101.2969"/><line style="stroke:#181818;stroke-width:1.0;" x1="672" x2="672" y1="101.2969" y2="374.9869"/><text fill="#000000" font-family="sans-serif" font-size="14" font-weight="bold" lengthAdjust="spacing" textLength="161" x="309.5" y="117.292">Analysis Namespace</text></g><!--cluster Storage Namespace--><g id="cluster_Storage Namespace"><polygon fill="none" points="706,266.8869,716,256.8869,1148,256.8869,1148,364.4869,1138,374.4869,706,374.4869,706,266.8869" style="stroke:#181818;stroke-width:1.0;"/><line style="stroke:#181818;stroke-width:1.0;" x1="1138" x2="1148" y1="266.8869" y2="256.8869"/><line style="stroke:#181818;stroke-width:1.0;" x1="706" x2="1138" y1="266.8869" y2="266.8869"/><line style="stroke:#181818;stroke-width:1.0;" x1="1138" x2="1138" y1="266.8869" y2="374.4869"/><text fill="#000000" font-family="sans-serif" font-size="14" font-weight="bold" lengthAdjust="spacing" textLength="158" x="844" y="282.882">Storage Namespace</text></g><!--cluster External Services--><g id="cluster_External Services"><polygon fill="none" points="16,457.9869,26,447.9869,372,447.9869,372,556.5769,362,566.5769,16,566.5769,16,457.9869" style="stroke:#181818;stroke-width:1.0;"/><line style="stroke:#181818;stroke-width:1.0;" x1="362" x2="372" y1="457.9869" y2="447.9869"/><line style="stroke:#181818;stroke-width:1.0;" x1="16" x2="362" y1="457.9869" y2="457.9869"/><line style="stroke:#181818;stroke-width:1.0;" x1="362" x2="362" y1="457.9869" y2="566.5769"/><text fill="#000000" font-family="sans-serif" font-size="14" font-weight="bold" lengthAdjust="spacing" textLength="137" x="121.5" y="473.982">External Services</text></g><!--entity RG--><g id="elem_RG"><rect fill="#F1F1F1" height="62.5938" rx="2.5" ry="2.5" style="stroke:#181818;stroke-width:0.5;" width="168" x="498" y="131.2969"/><rect fill="#F1F1F1" height="10" style="stroke:#181818;stroke-width:0.5;" width="15" x="646" y="136.2969"/><rect fill="#F1F1F1" height="2" style="stroke:#181818;stroke-width:0.5;" width="4" x="644" y="138.2969"/><rect fill="#F1F1F1" height="2" style="stroke:#181818;stroke-width:0.5;" width="4" x="644" y="142.2969"/><text fill="#000000" font-family="sans-serif" font-size="14" lengthAdjust="spacing" textLength="121" x="513" y="164.292">Report Generator</text><text fill="#000000" font-family="sans-serif" font-size="14" lengthAdjust="spacing" textLength="128" x="513" y="180.5889">(Python + FastAPI)</text></g><!--entity ML--><g id="elem_ML"><rect fill="#F1F1F1" height="62.5938" rx="2.5" ry="2.5" style="stroke:#181818;stroke-width:0.5;" width="182" x="122" y="296.3869"/><rect fill="#F1F1F1" height="10" style="stroke:#181818;stroke-width:0.5;" width="15" x="284" y="301.3869"/><rect fill="#F1F1F1" height="2" style="stroke:#181818;stroke-width:0.5;" width="4" x="282" y="303.3869"/><rect fill="#F1F1F1" height="2" style="stroke:#181818;stroke-width:0.5;" width="4" x="282" y="307.3869"/><text fill="#000000" font-family="sans-serif" font-size="14" lengthAdjust="spacing" textLength="142" x="137" y="329.382">ML Inference Service</text><text fill="#000000" font-family="sans-serif" font-size="14" lengthAdjust="spacing" textLength="112" x="137" y="345.6789">(GPU optimized)</text></g><!--entity Cache--><g id="elem_Cache"><rect fill="#F1F1F1" height="62.5938" rx="2.5" ry="2.5" style="stroke:#181818;stroke-width:0.5;" width="138" x="339" y="296.3869"/><rect fill="#F1F1F1" height="10" style="stroke:#181818;stroke-width:0.5;" width="15" x="457" y="301.3869"/><rect fill="#F1F1F1" height="2" style="stroke:#181818;stroke-width:0.5;" width="4" x="455" y="303.3869"/><rect fill="#F1F1F1" height="2" style="stroke:#181818;stroke-width:0.5;" width="4" x="455" y="307.3869"/><text fill="#000000" font-family="sans-serif" font-size="14" lengthAdjust="spacing" textLength="98" x="354" y="329.382">Cache Service</text><text fill="#000000" font-family="sans-serif" font-size="14" lengthAdjust="spacing" textLength="49" x="354" y="345.6789">(Redis)</text></g><!--entity MQ--><g id="elem_MQ"><rect fill="#F1F1F1" height="62.5938" rx="2.5" ry="2.5" style="stroke:#181818;stroke-width:0.5;" width="154" x="512" y="296.3869"/><rect fill="#F1F1F1" height="10" style="stroke:#181818;stroke-width:0.5;" width="15" x="646" y="301.3869"/><rect fill="#F1F1F1" height="2" style="stroke:#181818;stroke-width:0.5;" width="4" x="644" y="303.3869"/><rect fill="#F1F1F1" height="2" style="stroke:#181818;stroke-width:0.5;" width="4" x="644" y="307.3869"/><text fill="#000000" font-family="sans-serif" font-size="14" lengthAdjust="spacing" textLength="114" x="527" y="329.382">Message Queue</text><text fill="#000000" font-family="sans-serif" font-size="14" lengthAdjust="spacing" textLength="77" x="527" y="345.6789">(RabbitMQ)</text></g><!--entity PG--><g id="elem_PG"><path d="M722.5,306.8869 C722.5,296.8869 773,296.8869 773,296.8869 C773,296.8869 823.5,296.8869 823.5,306.8869 L823.5,348.4806 C823.5,358.4806 773,358.4806 773,358.4806 C773,358.4806 722.5,358.4806 722.5,348.4806 L722.5,306.8869 " fill="#F1F1F1" style="stroke:#181818;stroke-width:0.5;"/><path d="M722.5,306.8869 C722.5,316.8869 773,316.8869 773,316.8869 C773,316.8869 823.5,316.8869 823.5,306.8869 " fill="none" style="stroke:#181818;stroke-width:0.5;"/><text fill="#000000" font-family="sans-serif" font-size="14" lengthAdjust="spacing" textLength="81" x="732.5" y="333.882">PostgreSQL</text><text fill="#000000" font-family="sans-serif" font-size="14" lengthAdjust="spacing" textLength="65" x="732.5" y="350.1789">(Reports)</text></g><!--entity MinIO--><g id="elem_MinIO"><path d="M859,306.8869 C859,296.8869 922,296.8869 922,296.8869 C922,296.8869 985,296.8869 985,306.8869 L985,348.4806 C985,358.4806 922,358.4806 922,358.4806 C922,358.4806 859,358.4806 859,348.4806 L859,306.8869 " fill="#F1F1F1" style="stroke:#181818;stroke-width:0.5;"/><path d="M859,306.8869 C859,316.8869 922,316.8869 922,316.8869 C922,316.8869 985,316.8869 985,306.8869 " fill="none" style="stroke:#181818;stroke-width:0.5;"/><text fill="#000000" font-family="sans-serif" font-size="14" lengthAdjust="spacing" textLength="38" x="869" y="333.882">MinIO</text><text fill="#000000" font-family="sans-serif" font-size="14" lengthAdjust="spacing" textLength="106" x="869" y="350.1789">(Video storage)</text></g><!--entity ES--><g id="elem_ES"><path d="M1020.5,306.8869 C1020.5,296.8869 1076,296.8869 1076,296.8869 C1076,296.8869 1131.5,296.8869 1131.5,306.8869 L1131.5,348.4806 C1131.5,358.4806 1076,358.4806 1076,358.4806 C1076,358.4806 1020.5,358.4806 1020.5,348.4806 L1020.5,306.8869 " fill="#F1F1F1" style="stroke:#181818;stroke-width:0.5;"/><path d="M1020.5,306.8869 C1020.5,316.8869 1076,316.8869 1076,316.8869 C1076,316.8869 1131.5,316.8869 1131.5,306.8869 " fill="none" style="stroke:#181818;stroke-width:0.5;"/><text fill="#000000" font-family="sans-serif" font-size="14" lengthAdjust="spacing" textLength="91" x="1030.5" y="333.882">Elasticsearch</text><text fill="#000000" font-family="sans-serif" font-size="14" lengthAdjust="spacing" textLength="43" x="1030.5" y="350.1789">(Logs)</text></g><!--entity YA--><g id="elem_YA"><path d="M39.7329,496.8008 C44.3582,491.2716 48.4661,491.1046 52.719,497.2163 C57.3417,490.9287 61.4927,490.9327 66.4166,496.8792 C70.0006,491.7141 73.9486,491.2181 78.1708,496.135 C81.4022,491.0298 86.812,490.4153 89.9334,496.2532 C93.8029,490.4839 99.4421,490.4413 103.0602,496.5314 C106.8055,491.2358 110.829,491.5388 114.8369,496.2215 C119.4417,490.3277 123.9915,489.0087 128.3812,496.4401 C132.5206,491.4622 137.3632,492.082 140.5487,497.5511 C143.4432,490.918 148.4782,492.1224 152.2822,496.5897 C156.4428,490.0148 162.8347,492.418 165.565,498.1352 C171.1725,499.8328 171.4483,504.7548 167.5418,508.3022 C173.5802,511.5632 175.3207,515.8358 169.7034,521.07 C174.4302,525.3511 173.2136,530.293 167.7359,532.873 C173.531,536.5432 172.8583,542.0277 166.627,544.5564 C162.3753,550.2839 158.142,550.0848 154.1611,544.2642 C150.7516,551.0345 145.8275,550.3232 141.5272,545.2114 C137.1202,550.5357 132.3983,550.305 129.1078,544.0173 C125.4436,551.3212 120.1298,550.4209 115.8669,544.6224 C112.6433,551.1075 106.9929,552.3561 102.4301,546.0267 C98.7524,551.7396 93.1379,552.2395 89.5916,545.8867 C85.1363,551.7779 80.6835,550.9931 77.9273,544.3105 C75.0234,550.2315 70.0997,550.8403 66.653,544.8231 C62.595,549.8327 56.577,550.5841 53.8359,543.4349 C49.1503,549.9037 45.122,549.0472 41.0977,542.7738 C35.0328,540.4952 34.992,536.4834 39.447,532.5125 C33.7603,530.2876 32.1787,524.1 37.0376,519.8659 C33.3047,516.1379 33.4204,511.3796 39.2716,509.7729 C34.0739,505.845 33.9535,500.3383 39.7329,496.8008 " fill="#F1F1F1" style="stroke:#181818;stroke-width:0.5;"/><text fill="#000000" font-family="sans-serif" font-size="14" lengthAdjust="spacing" textLength="111" x="46.5" y="515.982">Yandex Cloud AI</text><text fill="#000000" font-family="sans-serif" font-size="14" lengthAdjust="spacing" textLength="104" x="46.5" y="532.2789">(Whisper large)</text></g><!--entity GPU--><g id="elem_GPU"><path d="M215.5809,497.4891 C219.8228,491.6497 223.5851,490.8922 227.7979,497.5175 C231.4764,491.1986 235.2904,492.1729 239.2542,497.2302 C242.5403,491.9902 246.6699,491.6167 250.0956,497.0889 C252.8289,491.312 257.2788,492.4197 260.4868,496.5932 C262.894,490.7746 268.0383,490.6521 271.4337,495.5873 C274.0699,488.9034 279.391,488.8669 283.2216,494.4386 C286.4796,489.8287 291.297,490.0515 293.7052,495.3388 C298.1786,490.1872 302.4719,490.7736 305.7469,496.6478 C308.6101,491.0983 312.9636,491.4386 316.1421,496.334 C320.0187,491.1345 323.8154,491.356 327.9167,496.0672 C330.8589,491.0509 334.6332,491.9364 337.4539,496.1922 C341.3303,491.041 346.3956,490.1362 349.7839,496.7056 C355.4351,499.663 357.2033,505.588 351.113,509.7424 C356.3289,513.4833 356.6068,517.5527 351.0123,521.1986 C355.3901,524.387 356.122,529.0727 350.8882,532.1522 C355.8873,536.5326 354.5458,541.0414 348.6311,543.19 C346.7562,548.1904 342.3286,549.9044 338.3625,545.4648 C334.2822,550.9149 330.0783,551.3688 326.3848,545.0705 C323.199,549.6489 319.8339,550.2259 316.0809,545.7134 C313.8319,551.5308 309.6624,552.7616 305.0852,548.1737 C301.65,553.9291 297.2894,553.4949 293.5344,548.5179 C291.4309,553.3935 286.7374,552.9802 284.0553,549.1477 C279.5486,554.2126 275.971,553.9876 273.0667,547.609 C269.3241,553.432 265.0233,551.8143 261.955,546.9104 C258.0014,552.0325 253.0474,551.5425 250.4933,545.4766 C246.978,551.6841 241.0599,550.347 238.1809,544.8096 C235.027,549.5372 230.5217,549.6489 227.1948,545.0125 C222.761,549.9142 219.6085,548.2676 217.0859,543.0948 C209.9107,540.5406 210.2738,536.1869 214.8044,531.3573 C208.2937,527.6879 208.4063,524.1405 214.1648,519.7925 C209.676,517.0519 209.5465,512.2932 214.0747,509.474 C209.1024,504.65 209.0033,500.8615 215.5809,497.4891 " fill="#F1F1F1" style="stroke:#181818;stroke-width:0.5;"/><text fill="#000000" font-family="sans-serif" font-size="14" lengthAdjust="spacing" textLength="83" x="222.5" y="515.982">GPU Cluster</text><text fill="#000000" font-family="sans-serif" font-size="14" lengthAdjust="spacing" textLength="119" x="222.5" y="532.2789">(Custom models)</text></g><g id="elem_GMN23"><path d="M1188,134.8969 L1188,158.5969 L666.47,162.5969 L1188,166.5969 L1188,190.2953 A0,0 0 0 0 1188,190.2953 L1360,190.2953 A0,0 0 0 0 1360,190.2953 L1360,144.8969 L1350,134.8969 L1188,134.8969 A0,0 0 0 0 1188,134.8969 " fill="#FEFFDD" style="stroke:#181818;stroke-width:0.5;"/><path d="M1350,134.8969 L1350,144.8969 L1360,144.8969 L1350,134.8969 " fill="#FEFFDD" style="stroke:#181818;stroke-width:0.5;"/><text fill="#000000" font-family="sans-serif" font-size="13" lengthAdjust="spacing" textLength="113" x="1194" y="151.9638">Horizontal scaling</text><text fill="#000000" font-family="sans-serif" font-size="13" lengthAdjust="spacing" textLength="132" x="1194" y="167.0966">based on queue size</text><text fill="#000000" font-family="sans-serif" font-size="13" lengthAdjust="spacing" textLength="151" x="1194" y="182.2294">Auto-scaling: 2-10 pods</text></g><!--link RG to ML--><g id="link_RG_ML"><path d="M497.7,184.0169 C445.25,198.4369 377.31,220.2769 321,248.8869 C295.66,261.7669 269.74,280.2269 249.64,295.9369 " fill="none" id="RG-ML" style="stroke:#181818;stroke-width:1.0;"/><text fill="#000000" font-family="sans-serif" font-size="13" lengthAdjust="spacing" textLength="33" x="376.76" y="236.9538">gRPC</text></g><!--link RG to Cache--><g id="link_RG_Cache"><path d="M524.58,194.3869 C510.9,203.0169 496.84,213.0369 485,223.8869 C461.83,245.1369 440.82,274.1669 426.63,295.9569 " fill="none" id="RG-Cache" style="stroke:#181818;stroke-width:1.0;"/><text fill="#000000" font-family="sans-serif" font-size="13" lengthAdjust="spacing" textLength="90" x="486" y="236.9538">Redis protocol</text></g><!--link RG to MQ--><g id="link_RG_MQ"><path d="M583.32,194.2669 C584.57,223.4269 586.44,267.0369 587.69,296.1469 " fill="none" id="RG-MQ" style="stroke:#181818;stroke-width:1.0;"/><text fill="#000000" font-family="sans-serif" font-size="13" lengthAdjust="spacing" textLength="38" x="586.29" y="236.9538">AMQP</text></g><!--link ML to GPU--><g id="link_ML_GPU"><path d="M224.09,359.1469 C236.92,394.4269 257.95,452.2069 270.83,487.5769 " fill="none" id="ML-GPU" style="stroke:#181818;stroke-width:1.0;"/><text fill="#000000" font-family="sans-serif" font-size="13" lengthAdjust="spacing" textLength="119" x="250.57" y="428.0538">Inference requests</text></g><!--link ML to YA--><g id="link_ML_YA"><path d="M161.96,359.3569 C142.66,373.7269 122.57,392.6369 111,414.9869 C99.41,437.3669 97.81,466.1569 98.73,487.6569 " fill="none" id="ML-YA" style="stroke:#181818;stroke-width:1.0;"/><text fill="#000000" font-family="sans-serif" font-size="13" lengthAdjust="spacing" textLength="124" x="112" y="428.0538">Fallback processing</text></g><!--link RG to PG--><g id="link_RG_PG"><path d="M618.11,194.3769 C637.13,210.5869 660.83,230.8069 682,248.8869 C700.49,264.6769 721.09,282.2869 738.01,296.7569 " fill="none" id="RG-PG" style="stroke:#181818;stroke-width:1.0;"/><text fill="#000000" font-family="sans-serif" font-size="13" lengthAdjust="spacing" textLength="26" x="672.16" y="236.9538">SQL</text></g><!--link RG to MinIO--><g id="link_RG_MinIO"><path d="M666.26,181.1869 C719,194.5869 786.95,216.3669 841,248.8869 C862.05,261.5569 882,280.5969 896.84,296.6769 " fill="none" id="RG-MinIO" style="stroke:#181818;stroke-width:1.0;"/><text fill="#000000" font-family="sans-serif" font-size="13" lengthAdjust="spacing" textLength="41" x="822.8" y="236.9538">S3 API</text></g><!--link RG to ES--><g id="link_RG_ES"><path d="M666.28,165.7469 C755.18,171.3069 896.83,189.6969 1003,248.8869 C1023.71,260.4369 1041.96,279.8869 1055.03,296.4469 " fill="none" id="RG-ES" style="stroke:#181818;stroke-width:1.0;"/><text fill="#000000" font-family="sans-serif" font-size="13" lengthAdjust="spacing" textLength="56" x="983.59" y="236.9538">REST API</text></g><!--SRC=[PLBBRjim4BphAnO-jIWCz77pJJ0SrQZTIbOVCD0BHMraeZIfa5IHf0ZGzjgVw2SO0O84ADfleF-eIub60aSdQcTsXjnP9vn4yB_zpj_wQt-p_xx_kVz5fvt_w-_y3Un_X28LxkZqprz3Z-py7q9l_Iv9bAuHHc-w2er2XnQcihCEpGY-9Gd00AUAoGihBBnbMxGjunXWe8_hRQiLAWUZ5RRQECXGeM5Ecy_gINxXDbh1CpXXrgNv_Ea8c8LLTjowNC1SdQ91nH5AD5y5HshFyW-WMoUsuXBheNUvEEwTChvvsBJ2MjY1t4EFlD1QrY0K7NOzdrMLSCiYwXV4lxf_UKaF2Un73w-POnMpHCcrTOt1ibZqxc48qJ_FZgXBeURlYFLHrAZ13jhHE417z9caiGbkaHc-eRQ5RgBohEolUNN8RtPEaL58XpdOuPfSwgw6qPgf6iyfsV2NpadfqqRO5Wr8PWuNMAVt3M7mSG-8FAM3tiAMd6Jq9q8mNsKm7bCcC85cbK_Z_v381Feae3NQQQxbWLmGaYwBFA4s-WzMamVf6pphq3eRuNLAw0cJicByIz2YjrcXcgYMPmJJv0_YOOYXyWfess9nLeQxpChtVOq6viX5D1i7-dJOnTVQY4kj7CtFSYQ3F428e0RQthEmA61f1wcQTawF8sa2BySldaEhQvkWgY4e_mS0]--></g></svg>