<svg xmlns="http://www.w3.org/2000/svg" xmlns:xlink="http://www.w3.org/1999/xlink" contentStyleType="text/css" height="377px" preserveAspectRatio="none" style="width:574px;height:377px;background:#FFFFFF;" version="1.1" viewBox="0 0 574 377" width="574px" zoomAndPan="magnify"><defs/><g><text fill="#000000" font-family="sans-serif" font-size="14" font-weight="bold" lengthAdjust="spacing" textLength="382" x="48.5" y="32.9951">&#1042;&#1088;&#1077;&#1084;&#1077;&#1085;&#1085;&#1099;&#1077; &#1093;&#1072;&#1088;&#1072;&#1082;&#1090;&#1077;&#1088;&#1080;&#1089;&#1090;&#1080;&#1082;&#1080; &#1075;&#1077;&#1085;&#1077;&#1088;&#1072;&#1094;&#1080;&#1080; &#1086;&#1090;&#1095;&#1077;&#1090;&#1072;</text><line style="stroke:#333333;stroke-width:0.5;" x1="10" x2="10" y1="47.2969" y2="347.75"/><line style="stroke:#333333;stroke-width:0.5;" x1="470" x2="470" y1="47.2969" y2="347.75"/><line style="stroke:#333333;stroke-width:0.5;stroke-dasharray:3.0,5.0;" x1="15" x2="15" y1="47.2969" y2="347.75"/><line style="stroke:#333333;stroke-width:0.5;stroke-dasharray:3.0,5.0;" x1="65" x2="65" y1="47.2969" y2="347.75"/><line style="stroke:#333333;stroke-width:0.5;stroke-dasharray:3.0,5.0;" x1="115" x2="115" y1="47.2969" y2="347.75"/><line style="stroke:#333333;stroke-width:0.5;stroke-dasharray:3.0,5.0;" x1="165" x2="165" y1="47.2969" y2="347.75"/><line style="stroke:#333333;stroke-width:0.5;stroke-dasharray:3.0,5.0;" x1="215" x2="215" y1="47.2969" y2="347.75"/><line style="stroke:#333333;stroke-width:0.5;stroke-dasharray:3.0,5.0;" x1="265" x2="265" y1="47.2969" y2="347.75"/><line style="stroke:#333333;stroke-width:0.5;stroke-dasharray:3.0,5.0;" x1="315" x2="315" y1="47.2969" y2="347.75"/><line style="stroke:#333333;stroke-width:0.5;stroke-dasharray:3.0,5.0;" x1="365" x2="365" y1="47.2969" y2="347.75"/><line style="stroke:#333333;stroke-width:0.5;stroke-dasharray:3.0,5.0;" x1="415" x2="415" y1="47.2969" y2="347.75"/><line style="stroke:#333333;stroke-width:0.5;stroke-dasharray:3.0,5.0;" x1="465" x2="465" y1="47.2969" y2="347.75"/><line style="stroke:#333333;stroke-width:0.5;" x1="10" x2="470" y1="47.2969" y2="47.2969"/><text fill="#333333" font-family="sans-serif" font-size="14" font-weight="bold" lengthAdjust="spacing" textLength="140" x="15" y="60.292">&#1055;&#1088;&#1086;&#1094;&#1077;&#1089;&#1089; &#1072;&#1085;&#1072;&#1083;&#1080;&#1079;&#1072;</text><line style="stroke:#333333;stroke-width:0.5;" x1="10" x2="156" y1="64.5938" y2="64.5938"/><line style="stroke:#333333;stroke-width:0.5;" x1="156" x2="166" y1="64.5938" y2="47.2969"/><polygon fill="#E2E2F0" points="27,69.5938,103,69.5938,115,81.5938,103,93.5938,27,93.5938,15,81.5938" style="stroke:#006400;stroke-width:1.5;"/><polygon fill="#E2E2F0" points="127,69.5938,203,69.5938,215,81.5938,203,93.5938,127,93.5938,115,81.5938" style="stroke:#006400;stroke-width:1.5;"/><polygon fill="#E2E2F0" points="227,69.5938,303,69.5938,315,81.5938,303,93.5938,227,93.5938,215,81.5938" style="stroke:#006400;stroke-width:1.5;"/><polygon fill="#E2E2F0" points="327,69.5938,353,69.5938,365,81.5938,353,93.5938,327,93.5938,315,81.5938" style="stroke:#006400;stroke-width:1.5;"/><polygon fill="#E2E2F0" points="377,69.5938,403,69.5938,415,81.5938,403,93.5938,377,93.5938,365,81.5938" style="stroke:#006400;stroke-width:1.5;"/><polygon fill="#E2E2F0" points="427,69.5938,465,69.5938,465,93.5938,427,93.5938,415,81.5938" style="stroke:#E2E2F0;stroke-width:1.5;"/><path d="M465,69.5938 L427,69.5938 L415,81.5938 L427,93.5938 L465,93.5938 " fill="#E2E2F0" style="stroke:#006400;stroke-width:1.5;"/><text fill="#333333" font-family="sans-serif" font-size="12" font-weight="bold" lengthAdjust="spacing" textLength="75" x="27.5" y="85.748">&#1054;&#1078;&#1080;&#1076;&#1072;&#1085;&#1080;&#1077;</text><text fill="#333333" font-family="sans-serif" font-size="12" font-weight="bold" lengthAdjust="spacing" textLength="108" x="111" y="85.748">&#1058;&#1088;&#1072;&#1085;&#1089;&#1082;&#1088;&#1080;&#1073;&#1072;&#1094;&#1080;&#1103;</text><text fill="#333333" font-family="sans-serif" font-size="12" font-weight="bold" lengthAdjust="spacing" textLength="107" x="211.5" y="85.748">&#1040;&#1085;&#1072;&#1083;&#1080;&#1079;_&#1101;&#1084;&#1086;&#1094;&#1080;&#1081;</text><text fill="#333333" font-family="sans-serif" font-size="12" font-weight="bold" lengthAdjust="spacing" textLength="153" x="263.5" y="85.748">&#1054;&#1094;&#1077;&#1085;&#1082;&#1072;_&#1082;&#1086;&#1084;&#1087;&#1077;&#1090;&#1077;&#1085;&#1094;&#1080;&#1081;</text><text fill="#333333" font-family="sans-serif" font-size="12" font-weight="bold" lengthAdjust="spacing" textLength="132" x="324" y="85.748">&#1043;&#1077;&#1085;&#1077;&#1088;&#1072;&#1094;&#1080;&#1103;_&#1086;&#1090;&#1095;&#1077;&#1090;&#1072;</text><text fill="#333333" font-family="sans-serif" font-size="12" font-weight="bold" lengthAdjust="spacing" textLength="83" x="427" y="85.748">&#1047;&#1072;&#1074;&#1077;&#1088;&#1096;&#1077;&#1085;&#1086;</text><line style="stroke:#333333;stroke-width:0.5;" x1="10" x2="470" y1="103.5938" y2="103.5938"/><text fill="#333333" font-family="sans-serif" font-size="14" font-weight="bold" lengthAdjust="spacing" textLength="163" x="15" y="116.5889">&#1048;&#1089;&#1087;&#1086;&#1083;&#1100;&#1079;&#1086;&#1074;&#1072;&#1085;&#1080;&#1077; CPU</text><line style="stroke:#333333;stroke-width:0.5;" x1="10" x2="179" y1="120.8906" y2="120.8906"/><line style="stroke:#333333;stroke-width:0.5;" x1="179" x2="189" y1="120.8906" y2="103.5938"/><polygon fill="#E2E2F0" points="27,125.8906,103,125.8906,115,137.8906,103,149.8906,27,149.8906,15,137.8906" style="stroke:#006400;stroke-width:1.5;"/><polygon fill="#E2E2F0" points="127,125.8906,203,125.8906,215,137.8906,203,149.8906,127,149.8906,115,137.8906" style="stroke:#006400;stroke-width:1.5;"/><polygon fill="#E2E2F0" points="227,125.8906,303,125.8906,315,137.8906,303,149.8906,227,149.8906,215,137.8906" style="stroke:#006400;stroke-width:1.5;"/><polygon fill="#E2E2F0" points="327,125.8906,353,125.8906,365,137.8906,353,149.8906,327,149.8906,315,137.8906" style="stroke:#006400;stroke-width:1.5;"/><polygon fill="#E2E2F0" points="377,125.8906,403,125.8906,415,137.8906,403,149.8906,377,149.8906,365,137.8906" style="stroke:#006400;stroke-width:1.5;"/><polygon fill="#E2E2F0" points="427,125.8906,465,125.8906,465,149.8906,427,149.8906,415,137.8906" style="stroke:#E2E2F0;stroke-width:1.5;"/><path d="M465,125.8906 L427,125.8906 L415,137.8906 L427,149.8906 L465,149.8906 " fill="#E2E2F0" style="stroke:#006400;stroke-width:1.5;"/><text fill="#333333" font-family="sans-serif" font-size="12" font-weight="bold" lengthAdjust="spacing" textLength="8" x="61" y="142.0449">5</text><text fill="#333333" font-family="sans-serif" font-size="12" font-weight="bold" lengthAdjust="spacing" textLength="16" x="157" y="142.0449">45</text><text fill="#333333" font-family="sans-serif" font-size="12" font-weight="bold" lengthAdjust="spacing" textLength="16" x="257" y="142.0449">70</text><text fill="#333333" font-family="sans-serif" font-size="12" font-weight="bold" lengthAdjust="spacing" textLength="16" x="332" y="142.0449">85</text><text fill="#333333" font-family="sans-serif" font-size="12" font-weight="bold" lengthAdjust="spacing" textLength="16" x="382" y="142.0449">60</text><text fill="#333333" font-family="sans-serif" font-size="12" font-weight="bold" lengthAdjust="spacing" textLength="16" x="427" y="142.0449">10</text><line style="stroke:#333333;stroke-width:0.5;" x1="10" x2="470" y1="159.8906" y2="159.8906"/><text fill="#333333" font-family="sans-serif" font-size="14" font-weight="bold" lengthAdjust="spacing" textLength="164" x="15" y="172.8857">&#1048;&#1089;&#1087;&#1086;&#1083;&#1100;&#1079;&#1086;&#1074;&#1072;&#1085;&#1080;&#1077; GPU</text><line style="stroke:#333333;stroke-width:0.5;" x1="10" x2="180" y1="177.1875" y2="177.1875"/><line style="stroke:#333333;stroke-width:0.5;" x1="180" x2="190" y1="177.1875" y2="159.8906"/><polygon fill="#E2E2F0" points="27,182.1875,103,182.1875,115,194.1875,103,206.1875,27,206.1875,15,194.1875" style="stroke:#006400;stroke-width:1.5;"/><polygon fill="#E2E2F0" points="127,182.1875,203,182.1875,215,194.1875,203,206.1875,127,206.1875,115,194.1875" style="stroke:#006400;stroke-width:1.5;"/><polygon fill="#E2E2F0" points="227,182.1875,303,182.1875,315,194.1875,303,206.1875,227,206.1875,215,194.1875" style="stroke:#006400;stroke-width:1.5;"/><polygon fill="#E2E2F0" points="327,182.1875,353,182.1875,365,194.1875,353,206.1875,327,206.1875,315,194.1875" style="stroke:#006400;stroke-width:1.5;"/><polygon fill="#E2E2F0" points="377,182.1875,403,182.1875,415,194.1875,403,206.1875,377,206.1875,365,194.1875" style="stroke:#006400;stroke-width:1.5;"/><polygon fill="#E2E2F0" points="427,182.1875,465,182.1875,465,206.1875,427,206.1875,415,194.1875" style="stroke:#E2E2F0;stroke-width:1.5;"/><path d="M465,182.1875 L427,182.1875 L415,194.1875 L427,206.1875 L465,206.1875 " fill="#E2E2F0" style="stroke:#006400;stroke-width:1.5;"/><text fill="#333333" font-family="sans-serif" font-size="12" font-weight="bold" lengthAdjust="spacing" textLength="8" x="61" y="198.3418">0</text><text fill="#333333" font-family="sans-serif" font-size="12" font-weight="bold" lengthAdjust="spacing" textLength="16" x="157" y="198.3418">80</text><text fill="#333333" font-family="sans-serif" font-size="12" font-weight="bold" lengthAdjust="spacing" textLength="16" x="257" y="198.3418">95</text><text fill="#333333" font-family="sans-serif" font-size="12" font-weight="bold" lengthAdjust="spacing" textLength="16" x="332" y="198.3418">40</text><text fill="#333333" font-family="sans-serif" font-size="12" font-weight="bold" lengthAdjust="spacing" textLength="16" x="382" y="198.3418">10</text><text fill="#333333" font-family="sans-serif" font-size="12" font-weight="bold" lengthAdjust="spacing" textLength="8" x="427" y="198.3418">5</text><line style="stroke:#333333;stroke-width:0.5;" x1="10" x2="470" y1="216.1875" y2="216.1875"/><text fill="#333333" font-family="sans-serif" font-size="14" font-weight="bold" lengthAdjust="spacing" textLength="188" x="15" y="229.1826">&#1048;&#1089;&#1087;&#1086;&#1083;&#1100;&#1079;&#1086;&#1074;&#1072;&#1085;&#1080;&#1077; &#1087;&#1072;&#1084;&#1103;&#1090;&#1080;</text><line style="stroke:#333333;stroke-width:0.5;" x1="10" x2="204" y1="233.4844" y2="233.4844"/><line style="stroke:#333333;stroke-width:0.5;" x1="204" x2="214" y1="233.4844" y2="216.1875"/><polygon fill="#E2E2F0" points="27,238.4844,103,238.4844,115,250.4844,103,262.4844,27,262.4844,15,250.4844" style="stroke:#006400;stroke-width:1.5;"/><polygon fill="#E2E2F0" points="127,238.4844,203,238.4844,215,250.4844,203,262.4844,127,262.4844,115,250.4844" style="stroke:#006400;stroke-width:1.5;"/><polygon fill="#E2E2F0" points="227,238.4844,303,238.4844,315,250.4844,303,262.4844,227,262.4844,215,250.4844" style="stroke:#006400;stroke-width:1.5;"/><polygon fill="#E2E2F0" points="327,238.4844,353,238.4844,365,250.4844,353,262.4844,327,262.4844,315,250.4844" style="stroke:#006400;stroke-width:1.5;"/><polygon fill="#E2E2F0" points="377,238.4844,403,238.4844,415,250.4844,403,262.4844,377,262.4844,365,250.4844" style="stroke:#006400;stroke-width:1.5;"/><polygon fill="#E2E2F0" points="427,238.4844,465,238.4844,465,262.4844,427,262.4844,415,250.4844" style="stroke:#E2E2F0;stroke-width:1.5;"/><path d="M465,238.4844 L427,238.4844 L415,250.4844 L427,262.4844 L465,262.4844 " fill="#E2E2F0" style="stroke:#006400;stroke-width:1.5;"/><text fill="#333333" font-family="sans-serif" font-size="12" font-weight="bold" lengthAdjust="spacing" textLength="45" x="42.5" y="254.6387">512MB</text><text fill="#333333" font-family="sans-serif" font-size="12" font-weight="bold" lengthAdjust="spacing" textLength="27" x="151.5" y="254.6387">2GB</text><text fill="#333333" font-family="sans-serif" font-size="12" font-weight="bold" lengthAdjust="spacing" textLength="27" x="251.5" y="254.6387">3GB</text><text fill="#333333" font-family="sans-serif" font-size="12" font-weight="bold" lengthAdjust="spacing" textLength="27" x="326.5" y="254.6387">4GB</text><text fill="#333333" font-family="sans-serif" font-size="12" font-weight="bold" lengthAdjust="spacing" textLength="27" x="376.5" y="254.6387">3GB</text><text fill="#333333" font-family="sans-serif" font-size="12" font-weight="bold" lengthAdjust="spacing" textLength="27" x="427" y="254.6387">1GB</text><line style="stroke:#333333;stroke-width:0.5;" x1="10" x2="470" y1="272.4844" y2="272.4844"/><text fill="#333333" font-family="sans-serif" font-size="14" font-weight="bold" lengthAdjust="spacing" textLength="54" x="15" y="285.4795">&#1057;&#1090;&#1072;&#1090;&#1091;&#1089;</text><line style="stroke:#333333;stroke-width:0.5;" x1="10" x2="70" y1="289.7813" y2="289.7813"/><line style="stroke:#333333;stroke-width:0.5;" x1="70" x2="80" y1="289.7813" y2="272.4844"/><polygon fill="#E2E2F0" points="27,313.75,103,313.75,115,325.75,103,337.75,27,337.75,15,325.75" style="stroke:#006400;stroke-width:1.5;"/><polygon fill="#E2E2F0" points="127,313.75,203,313.75,215,325.75,203,337.75,127,337.75,115,325.75" style="stroke:#006400;stroke-width:1.5;"/><polygon fill="#E2E2F0" points="227,313.75,303,313.75,315,325.75,303,337.75,227,337.75,215,325.75" style="stroke:#006400;stroke-width:1.5;"/><polygon fill="#E2E2F0" points="327,313.75,353,313.75,365,325.75,353,337.75,327,337.75,315,325.75" style="stroke:#006400;stroke-width:1.5;"/><polygon fill="#E2E2F0" points="377,313.75,403,313.75,415,325.75,403,337.75,377,337.75,365,325.75" style="stroke:#006400;stroke-width:1.5;"/><polygon fill="#E2E2F0" points="427,313.75,465,313.75,465,337.75,427,337.75,415,325.75" style="stroke:#E2E2F0;stroke-width:1.5;"/><path d="M465,313.75 L427,313.75 L415,325.75 L427,337.75 L465,337.75 " fill="#E2E2F0" style="stroke:#006400;stroke-width:1.5;"/><text fill="#333333" font-family="sans-serif" font-size="12" font-weight="bold" lengthAdjust="spacing" textLength="26" x="52" y="329.9043">Idle</text><text fill="#333333" font-family="sans-serif" font-size="12" font-weight="bold" lengthAdjust="spacing" textLength="56" x="137" y="329.9043">Process</text><text fill="#333333" font-family="sans-serif" font-size="12" font-weight="bold" lengthAdjust="spacing" textLength="56" x="237" y="329.9043">Process</text><text fill="#333333" font-family="sans-serif" font-size="12" font-weight="bold" lengthAdjust="spacing" textLength="56" x="312" y="329.9043">Process</text><text fill="#333333" font-family="sans-serif" font-size="12" font-weight="bold" lengthAdjust="spacing" textLength="68" x="356" y="329.9043">Finalizing</text><text fill="#333333" font-family="sans-serif" font-size="12" font-weight="bold" lengthAdjust="spacing" textLength="37" x="427" y="329.9043">Done</text><line style="stroke:#8B0000;stroke-width:1.5;" x1="416" x2="464" y1="304.2656" y2="304.2656"/><polygon fill="#8B0000" points="424,308.2656,424,300.2656,416,304.2656" style="stroke:#8B0000;stroke-width:1.0;"/><polygon fill="#8B0000" points="456,308.2656,456,300.2656,464,304.2656" style="stroke:#8B0000;stroke-width:1.0;"/><text fill="#8B0000" font-family="sans-serif" font-size="12" lengthAdjust="spacing" textLength="245" x="317.5" y="296.4355">&#1054;&#1073;&#1097;&#1077;&#1077; &#1074;&#1088;&#1077;&#1084;&#1103;: 4.5 &#1084;&#1080;&#1085; (&lt;5 &#1084;&#1080;&#1085; &#1087;&#1086; &#1058;&#1047;)</text><line style="stroke:#333333;stroke-width:2.0;" x1="15" x2="15" y1="347.75" y2="352.75"/><line style="stroke:#333333;stroke-width:2.0;" x1="65" x2="65" y1="347.75" y2="352.75"/><line style="stroke:#333333;stroke-width:2.0;" x1="115" x2="115" y1="347.75" y2="352.75"/><line style="stroke:#333333;stroke-width:2.0;" x1="165" x2="165" y1="347.75" y2="352.75"/><line style="stroke:#333333;stroke-width:2.0;" x1="215" x2="215" y1="347.75" y2="352.75"/><line style="stroke:#333333;stroke-width:2.0;" x1="265" x2="265" y1="347.75" y2="352.75"/><line style="stroke:#333333;stroke-width:2.0;" x1="315" x2="315" y1="347.75" y2="352.75"/><line style="stroke:#333333;stroke-width:2.0;" x1="365" x2="365" y1="347.75" y2="352.75"/><line style="stroke:#333333;stroke-width:2.0;" x1="415" x2="415" y1="347.75" y2="352.75"/><line style="stroke:#333333;stroke-width:2.0;" x1="465" x2="465" y1="347.75" y2="352.75"/><line style="stroke:#333333;stroke-width:2.0;" x1="15" x2="465" y1="347.75" y2="347.75"/><text fill="#333333" font-family="sans-serif" font-size="11" lengthAdjust="spacing" textLength="7" x="11.5" y="363.9604">0</text><text fill="#333333" font-family="sans-serif" font-size="11" lengthAdjust="spacing" textLength="21" x="104.5" y="363.9604">100</text><text fill="#333333" font-family="sans-serif" font-size="11" lengthAdjust="spacing" textLength="21" x="204.5" y="363.9604">200</text><text fill="#333333" font-family="sans-serif" font-size="11" lengthAdjust="spacing" textLength="21" x="304.5" y="363.9604">300</text><text fill="#333333" font-family="sans-serif" font-size="11" lengthAdjust="spacing" textLength="21" x="354.5" y="363.9604">350</text><text fill="#333333" font-family="sans-serif" font-size="11" lengthAdjust="spacing" textLength="21" x="404.5" y="363.9604">400</text><!--SRC=[ZPFBIiD058RtynI3ArqeIKsy8MAz5HU5WhekKeC4IWl6bIjRyOPAHHUwKlG9OhKQguclSCuR-S_4J5jGS97avCz_lZbpvcJNtwrwagvudphqYIkccC-e8_cGGeWXTRb97KGHDn15rAL8qhDsAZda8uYG4cxoCQGcXK9KwhMA7tXoYExXIU3f8BqXmOjnVI3bZS8XkHd8KhxFVSiD-gA4FlWSXeJQEY52FOkb3Mt7yr_-me-_y4y_v90-kQNsg1EBoyM-n0UrB-pmW1lwwzfwVdrZJOXvIvJoqWyatT4hG2yPKA1GfRkYa0QM054hTgwu85A0Ub_Tgde0sPP1FUh6nwYrgnfFJscNkPL17KETCjXSeHzQsgbNl200DzVZNlQQN-OB77UY3-yzmqvQ6NRQpR3ZVs37UzWxTRn0ToaiuvO0_AK70UBW0bEcRiVKxVorW6iMk1wSDcwL1wRj1pvXghUjtwjVyMkRLN_Fhss3x_GsS8Ekj1MVJ_HAIOQq3TBqmnuWBjLhNigIiwDpSjvnBJcZPk69Ju72MBNJFujRCz8PSoLw4r4iXsTDgEOHHqut8zy0]--></g></svg>