<svg xmlns="http://www.w3.org/2000/svg" xmlns:xlink="http://www.w3.org/1999/xlink" contentStyleType="text/css" height="863px" preserveAspectRatio="none" style="width:716px;height:863px;background:#FFFFFF;" version="1.1" viewBox="0 0 716 863" width="716px" zoomAndPan="magnify"><defs/><g><!--cluster ??????????? ???????????? 152-??--><g id="cluster_&#1054;&#1073;&#1077;&#1089;&#1087;&#1077;&#1095;&#1077;&#1085;&#1080;&#1077; &#1089;&#1086;&#1086;&#1090;&#1074;&#1077;&#1090;&#1089;&#1090;&#1074;&#1080;&#1103; 152-&#1060;&#1047;"><rect fill="none" height="850" rx="2.5" ry="2.5" style="stroke:#181818;stroke-width:1.0;" width="382.77" x="328" y="7"/><text fill="#000000" font-family="sans-serif" font-size="14" font-weight="bold" lengthAdjust="spacing" textLength="290" x="374.385" y="21.9951">&#1054;&#1073;&#1077;&#1089;&#1087;&#1077;&#1095;&#1077;&#1085;&#1080;&#1077; &#1089;&#1086;&#1086;&#1090;&#1074;&#1077;&#1090;&#1089;&#1090;&#1074;&#1080;&#1103; 152-&#1060;&#1047;</text></g><g id="elem_uc1"><ellipse cx="519.3839" cy="196.0028" fill="#F1F1F1" rx="144.0139" ry="31.2028" style="stroke:#181818;stroke-width:0.5;"/><text fill="#000000" font-family="sans-serif" font-size="14" lengthAdjust="spacing" textLength="258" x="390.3839" y="198.8495">UC3.1: &#1055;&#1086;&#1076;&#1087;&#1080;&#1089;&#1072;&#1090;&#1100; &#1089;&#1086;&#1075;&#1083;&#1072;&#1089;&#1080;&#1077; &#1085;&#1072; &#1055;&#1044;&#1085;</text></g><g id="elem_uc2"><ellipse cx="519.3844" cy="375.0009" fill="#F1F1F1" rx="129.2544" ry="28.2509" style="stroke:#181818;stroke-width:0.5;"/><text fill="#000000" font-family="sans-serif" font-size="14" lengthAdjust="spacing" textLength="227" x="405.8844" y="377.8476">UC3.2: &#1047;&#1072;&#1087;&#1088;&#1086;&#1089;&#1080;&#1090;&#1100; &#1089;&#1074;&#1086;&#1080; &#1076;&#1072;&#1085;&#1085;&#1099;&#1077;</text></g><g id="elem_uc3"><ellipse cx="519.3759" cy="286.9972" fill="#F1F1F1" rx="112.8359" ry="24.9672" style="stroke:#181818;stroke-width:0.5;"/><text fill="#000000" font-family="sans-serif" font-size="14" lengthAdjust="spacing" textLength="192" x="423.3759" y="289.8439">UC3.3: &#1054;&#1090;&#1086;&#1079;&#1074;&#1072;&#1090;&#1100; &#1089;&#1086;&#1075;&#1083;&#1072;&#1089;&#1080;&#1077;</text></g><g id="elem_uc4"><ellipse cx="519.3755" cy="698.0011" fill="#F1F1F1" rx="156.5055" ry="33.7011" style="stroke:#181818;stroke-width:0.5;"/><text fill="#000000" font-family="sans-serif" font-size="14" lengthAdjust="spacing" textLength="284" x="377.3755" y="700.8478">UC3.4: &#1055;&#1088;&#1086;&#1089;&#1084;&#1086;&#1090;&#1088;&#1077;&#1090;&#1100; &#1078;&#1091;&#1088;&#1085;&#1072;&#1083;&#1099; &#1076;&#1086;&#1089;&#1090;&#1091;&#1087;&#1072;</text></g><g id="elem_uc5"><ellipse cx="519.3798" cy="576" fill="#F1F1F1" rx="171.4998" ry="36.7" style="stroke:#181818;stroke-width:0.5;"/><text fill="#000000" font-family="sans-serif" font-size="14" lengthAdjust="spacing" textLength="315" x="361.8798" y="578.8466">UC3.5: &#1057;&#1092;&#1086;&#1088;&#1084;&#1080;&#1088;&#1086;&#1074;&#1072;&#1090;&#1100; &#1086;&#1090;&#1095;&#1077;&#1090; &#1076;&#1083;&#1103; &#1087;&#1088;&#1086;&#1074;&#1077;&#1088;&#1082;&#1080;</text></g><g id="elem_uc6"><ellipse cx="519.3839" cy="470.9968" fill="#F1F1F1" rx="153.1339" ry="33.0268" style="stroke:#181818;stroke-width:0.5;"/><text fill="#000000" font-family="sans-serif" font-size="14" lengthAdjust="spacing" textLength="277" x="380.8839" y="473.8435">UC3.6: &#1053;&#1072;&#1089;&#1090;&#1088;&#1086;&#1080;&#1090;&#1100; &#1087;&#1086;&#1083;&#1080;&#1090;&#1080;&#1082;&#1080; &#1093;&#1088;&#1072;&#1085;&#1077;&#1085;&#1080;&#1103;</text></g><g id="elem_uc7"><ellipse cx="519.3838" cy="803.9968" fill="#F1F1F1" rx="175.3838" ry="37.4768" style="stroke:#181818;stroke-width:0.5;"/><text fill="#000000" font-family="sans-serif" font-size="14" lengthAdjust="spacing" textLength="323" x="357.8838" y="806.8434">UC3.7: &#1059;&#1076;&#1072;&#1083;&#1080;&#1090;&#1100; &#1076;&#1072;&#1085;&#1085;&#1099;&#1077; &#1087;&#1086; &#1080;&#1089;&#1090;&#1077;&#1095;&#1077;&#1085;&#1080;&#1080; &#1089;&#1088;&#1086;&#1082;&#1072;</text></g><g id="elem_uc8"><ellipse cx="519.3826" cy="78.0005" fill="#F1F1F1" rx="166.6526" ry="35.7305" style="stroke:#181818;stroke-width:0.5;"/><text fill="#000000" font-family="sans-serif" font-size="14" lengthAdjust="spacing" textLength="305" x="366.8826" y="80.8472">UC3.8: &#1064;&#1080;&#1092;&#1088;&#1086;&#1074;&#1072;&#1090;&#1100; &#1076;&#1072;&#1085;&#1085;&#1099;&#1077; &#1087;&#1088;&#1080; &#1087;&#1077;&#1088;&#1077;&#1076;&#1072;&#1095;&#1077;</text></g><!--entity candidate--><g id="elem_candidate"><ellipse cx="118.5" cy="257.35" fill="#F1F1F1" rx="8" ry="8" style="stroke:#181818;stroke-width:0.5;"/><path d="M118.5,265.35 L118.5,292.35 M105.5,273.35 L131.5,273.35 M118.5,292.35 L105.5,307.35 M118.5,292.35 L131.5,307.35 " fill="none" style="stroke:#181818;stroke-width:0.5;"/><text fill="#000000" font-family="sans-serif" font-size="14" lengthAdjust="spacing" textLength="73" x="82" y="321.8451">&#1050;&#1072;&#1085;&#1076;&#1080;&#1076;&#1072;&#1090;</text></g><!--entity sec_admin--><g id="elem_sec_admin"><ellipse cx="118.5" cy="510.35" fill="#F1F1F1" rx="8" ry="8" style="stroke:#181818;stroke-width:0.5;"/><path d="M118.5,518.35 L118.5,545.35 M105.5,526.35 L131.5,526.35 M118.5,545.35 L105.5,560.35 M118.5,545.35 L131.5,560.35 " fill="none" style="stroke:#181818;stroke-width:0.5;"/><text fill="#000000" font-family="sans-serif" font-size="14" lengthAdjust="spacing" textLength="225" x="6" y="574.8451">&#1040;&#1076;&#1084;&#1080;&#1085;&#1080;&#1089;&#1090;&#1088;&#1072;&#1090;&#1086;&#1088; &#1073;&#1077;&#1079;&#1086;&#1087;&#1072;&#1089;&#1085;&#1086;&#1089;&#1090;&#1080;</text></g><!--entity hr--><g id="elem_hr"><ellipse cx="118.5" cy="146.35" fill="#F1F1F1" rx="8" ry="8" style="stroke:#181818;stroke-width:0.5;"/><path d="M118.5,154.35 L118.5,181.35 M105.5,162.35 L131.5,162.35 M118.5,181.35 L105.5,196.35 M118.5,181.35 L131.5,196.35 " fill="none" style="stroke:#181818;stroke-width:0.5;"/><text fill="#000000" font-family="sans-serif" font-size="14" lengthAdjust="spacing" textLength="103" x="67" y="210.8451">HR-&#1084;&#1077;&#1085;&#1077;&#1076;&#1078;&#1077;&#1088;</text></g><!--entity audit--><g id="elem_audit"><ellipse cx="118.5" cy="774.35" fill="#F1F1F1" rx="8" ry="8" style="stroke:#181818;stroke-width:0.5;"/><path d="M118.5,782.35 L118.5,809.35 M105.5,790.35 L131.5,790.35 M118.5,809.35 L105.5,824.35 M118.5,809.35 L131.5,824.35 " fill="none" style="stroke:#181818;stroke-width:0.5;"/><text fill="#000000" font-family="sans-serif" font-size="14" lengthAdjust="spacing" textLength="118" x="59.5" y="838.8451">&#1057;&#1080;&#1089;&#1090;&#1077;&#1084;&#1072; &#1072;&#1091;&#1076;&#1080;&#1090;&#1072;</text></g><!--entity roskomnadzor--><g id="elem_roskomnadzor"><ellipse cx="118.5" cy="621.35" fill="#F1F1F1" rx="8" ry="8" style="stroke:#181818;stroke-width:0.5;"/><path d="M118.5,629.35 L118.5,656.35 M105.5,637.35 L131.5,637.35 M118.5,656.35 L105.5,671.35 M118.5,656.35 L131.5,671.35 " fill="none" style="stroke:#181818;stroke-width:0.5;"/><text fill="#000000" font-family="sans-serif" font-size="14" lengthAdjust="spacing" textLength="106" x="65.5" y="685.8451">&#1056;&#1086;&#1089;&#1082;&#1086;&#1084;&#1085;&#1072;&#1076;&#1079;&#1086;&#1088;</text></g><!--link candidate to uc1--><g id="link_candidate_uc1"><path d="M155.25,278.84 C214.05,265.43 327.3604,239.5849 413.1604,220.0049 " fill="none" id="candidate-to-uc1" style="stroke:#181818;stroke-width:1.0;"/><polygon fill="#181818" points="419.01,218.67,409.3456,216.7726,414.1353,219.7824,411.1255,224.5721,419.01,218.67" style="stroke:#181818;stroke-width:1.0;"/></g><!--link candidate to uc2--><g id="link_candidate_uc2"><path d="M155.25,294.89 C215.96,308.28 335.1609,334.5773 421.4109,353.6073 " fill="none" id="candidate-to-uc2" style="stroke:#181818;stroke-width:1.0;"/><polygon fill="#181818" points="427.27,354.9,419.3432,349.0548,422.3874,353.8227,417.6196,356.867,427.27,354.9" style="stroke:#181818;stroke-width:1.0;"/></g><!--link candidate to uc3--><g id="link_candidate_uc3"><path d="M155.25,287 C211.18,287 315.72,287 400.22,287 " fill="none" id="candidate-to-uc3" style="stroke:#181818;stroke-width:1.0;"/><polygon fill="#181818" points="406.22,287,397.22,283,401.22,287,397.22,291,406.22,287" style="stroke:#181818;stroke-width:1.0;"/></g><!--link sec_admin to uc4--><g id="link_sec_admin_uc4"><path d="M205.68,578.54 C214.5,583.64 223.11,589.15 231,595 C246.66,606.61 244.31,616.92 261,627 C300.78,651.03 343.0414,665.6961 386.8414,676.3961 " fill="none" id="sec_admin-to-uc4" style="stroke:#181818;stroke-width:1.0;"/><polygon fill="#181818" points="392.67,677.82,384.8764,671.7984,387.8128,676.6334,382.9778,679.5699,392.67,677.82" style="stroke:#181818;stroke-width:1.0;"/></g><!--link sec_admin to uc5--><g id="link_sec_admin_uc5"><path d="M231.41,550.1 C271.51,553.72 311.5142,557.3311 354.7642,561.2311 " fill="none" id="sec_admin-to-uc5" style="stroke:#181818;stroke-width:1.0;"/><polygon fill="#181818" points="360.74,561.77,352.1356,556.9779,355.7602,561.321,351.4171,564.9456,360.74,561.77" style="stroke:#181818;stroke-width:1.0;"/></g><!--link sec_admin to uc6--><g id="link_sec_admin_uc6"><path d="M231.41,520.64 C283.6,511.61 339.8679,501.883 392.9779,492.693 " fill="none" id="sec_admin-to-uc6" style="stroke:#181818;stroke-width:1.0;"/><polygon fill="#181818" points="398.89,491.67,389.3398,489.2631,393.9632,492.5225,390.7038,497.146,398.89,491.67" style="stroke:#181818;stroke-width:1.0;"/></g><!--link audit to uc7--><g id="link_audit_uc7"><path d="M177.93,804 C221.75,804 278.16,804 337.61,804 " fill="none" id="audit-to-uc7" style="stroke:#181818;stroke-width:1.0;"/><polygon fill="#181818" points="343.61,804,334.61,800,338.61,804,334.61,808,343.61,804" style="stroke:#181818;stroke-width:1.0;"/></g><!--link roskomnadzor to uc5--><g id="link_roskomnadzor_uc5"><path d="M171.64,646.18 C210.51,642.19 264.81,635.74 312,627 C344.57,620.97 373.8482,614.3513 405.6982,606.4113 " fill="none" id="roskomnadzor-to-uc5" style="stroke:#181818;stroke-width:1.0;"/><polygon fill="#181818" points="411.52,604.96,401.8197,603.2558,406.6685,606.1695,403.7548,611.0182,411.52,604.96" style="stroke:#181818;stroke-width:1.0;"/></g><!--link uc1 to uc8--><g id="link_uc1_uc8"><path d="M519.38,164.38 C519.38,148.81 519.38,135.98 519.38,119.88 " fill="none" id="uc1-to-uc8" style="stroke:#181818;stroke-width:1.0;stroke-dasharray:7.0,7.0;"/><polygon fill="#181818" points="519.38,113.88,515.38,122.88,519.38,118.88,523.38,122.88,519.38,113.88" style="stroke:#181818;stroke-width:1.0;"/><text fill="#000000" font-family="sans-serif" font-size="13" lengthAdjust="spacing" textLength="52" x="481.88" y="143.8269">includes</text></g><!--link uc3 to uc7--><g id="link_uc3_uc7"><path d="M406.16,286.28 C373.89,291.92 341.65,304.23 320,329 C205.77,459.65 291.03,506.12 299.81,619.5 C304.31,677.58 281.24,705.52 320,749 C333.74,764.41 345.859,773.2974 364.929,781.5074 " fill="none" id="uc3-to-uc7" style="stroke:#181818;stroke-width:1.0;stroke-dasharray:7.0,7.0;"/><polygon fill="#181818" points="370.44,783.88,363.7553,776.6471,365.8475,781.9028,360.5918,783.9951,370.44,783.88" style="stroke:#181818;stroke-width:1.0;"/><text fill="#000000" font-family="sans-serif" font-size="13" lengthAdjust="spacing" textLength="49" x="262" y="615.5669">triggers</text></g><!--link uc4 to uc5--><g id="link_uc4_uc5"><path d="M519.38,664.02 C519.38,648.08 519.38,635.07 519.38,618.79 " fill="none" id="uc4-to-uc5" style="stroke:#181818;stroke-width:1.0;stroke-dasharray:7.0,7.0;"/><polygon fill="#181818" points="519.38,612.79,515.38,621.79,519.38,617.79,523.38,621.79,519.38,612.79" style="stroke:#181818;stroke-width:1.0;"/><text fill="#000000" font-family="sans-serif" font-size="13" lengthAdjust="spacing" textLength="51" x="482.38" y="643.0669">extends</text></g><!--SRC=[TPJDQjjG48Ntzoa6xntmlycYcswwBdHTXAGweeu4-e7IKf2Tb2nII1U5GA5fGxleKd6ZHCIs_0fptwXdhcMHo7HXOntDV7DcxbnFtJSnnG65tkGe9iSBNJls0bzPTXo4rE9ldF6QRxd09zFp5baHsPRlU8uLktNK5xnT8MRDXPxfkKubbakT4jzmplTSyWRI306b171XG95hlxQSOwykz-9b6vmSOJc8Tvphr0GUXNMfwsq91Amu8q1Fn1s4p4HQYUF5TV1FASSFABy2CqFalRWoaM4GlGsEVSjv7uHAIT-MFvcwoBeIqyZRuFlCk2au9mWbakUyW3mt7XOeV46TGRVDl_coHHyKKOAch0YOLyzx1vr3uXz8kmKBjcKg-lEMz9UNPYA25cyI-9NNnbfYTvgaBaYNw623sKfFnOwq0AiWEHrGrlgSymhHRI9wG5p9iM08Y_zOgN9xpTo-D5ALNiaKy3it1BxJ9tYGwIxrkHWn9unZsLH7ajZz9cu0tBK-bREGlH5mRSdGpuGki2K6l6tQp3t5OHOLTT2a3a7zBfqOUsKr8_WeqQ2iI27Pf3_9VfeTatszg7339cu4t2ypsEKEzMZAXakxPQpt1FYPAVvGTpzgWiS0_q7cwTE-dyBnhY2pWgcv39cKg8XZzL6f-XPIk_tCh4nJwUufFLLVkKhfxoc3FMMepAsgdaRgySsfanGSq87y7jCXURuzJHmtWjhRgYEeCVvb9cueQd-h3g2wxsBNTw9_]--></g></svg>