<svg xmlns="http://www.w3.org/2000/svg" xmlns:xlink="http://www.w3.org/1999/xlink" contentStyleType="text/css" height="937px" preserveAspectRatio="none" style="width:2522px;height:937px;background:#FFFFFF;" version="1.1" viewBox="0 0 2522 937" width="2522px" zoomAndPan="magnify"><defs/><g><text fill="#000000" font-family="sans-serif" font-size="14" font-weight="bold" lengthAdjust="spacing" textLength="306" x="1101" y="22.9951">&#1055;&#1072;&#1082;&#1077;&#1090;&#1099; &#1084;&#1086;&#1076;&#1091;&#1083;&#1103; &#1089;&#1086;&#1086;&#1090;&#1074;&#1077;&#1090;&#1089;&#1090;&#1074;&#1080;&#1103; 152-&#1060;&#1047;</text><!--cluster Security Core--><g id="cluster_Security Core"><path d="M8.5,43.2969 L117.5,43.2969 A3.75,3.75 0 0 1 120,45.7969 L127,65.5938 L972.5,65.5938 A2.5,2.5 0 0 1 975,68.0938 L975,440.3869 A2.5,2.5 0 0 1 972.5,442.8869 L8.5,442.8869 A2.5,2.5 0 0 1 6,440.3869 L6,45.7969 A2.5,2.5 0 0 1 8.5,43.2969 " fill="none" style="stroke:#000000;stroke-width:1.5;"/><line style="stroke:#000000;stroke-width:1.5;" x1="6" x2="127" y1="65.5938" y2="65.5938"/><text fill="#000000" font-family="sans-serif" font-size="14" font-weight="bold" lengthAdjust="spacing" textLength="108" x="10" y="58.292">Security Core</text></g><!--cluster Enc--><g id="cluster_Enc"><path d="M40.5,94.2969 L125.5,94.2969 A3.75,3.75 0 0 1 128,96.7969 L135,116.5938 L446.5,116.5938 A2.5,2.5 0 0 1 449,119.0938 L449,408.3869 A2.5,2.5 0 0 1 446.5,410.8869 L40.5,410.8869 A2.5,2.5 0 0 1 38,408.3869 L38,96.7969 A2.5,2.5 0 0 1 40.5,94.2969 " fill="none" style="stroke:#000000;stroke-width:1.5;"/><line style="stroke:#000000;stroke-width:1.5;" x1="38" x2="135" y1="116.5938" y2="116.5938"/><text fill="#000000" font-family="sans-serif" font-size="14" font-weight="bold" lengthAdjust="spacing" textLength="84" x="42" y="109.292">Encryption</text></g><!--cluster Auth--><g id="cluster_Auth"><path d="M491.5,94.2969 L607.5,94.2969 A3.75,3.75 0 0 1 610,96.7969 L617,116.5938 L940.5,116.5938 A2.5,2.5 0 0 1 943,119.0938 L943,408.3869 A2.5,2.5 0 0 1 940.5,410.8869 L491.5,410.8869 A2.5,2.5 0 0 1 489,408.3869 L489,96.7969 A2.5,2.5 0 0 1 491.5,94.2969 " fill="none" style="stroke:#000000;stroke-width:1.5;"/><line style="stroke:#000000;stroke-width:1.5;" x1="489" x2="617" y1="116.5938" y2="116.5938"/><text fill="#000000" font-family="sans-serif" font-size="14" font-weight="bold" lengthAdjust="spacing" textLength="115" x="493" y="109.292">Authentication</text></g><!--cluster Compliance--><g id="cluster_Compliance"><path d="M1001.5,246.5869 L1093.5,246.5869 A3.75,3.75 0 0 1 1096,249.0869 L1103,268.8837 L2059.5,268.8837 A2.5,2.5 0 0 1 2062,271.3837 L2062,928.2769 A2.5,2.5 0 0 1 2059.5,930.7769 L1001.5,930.7769 A2.5,2.5 0 0 1 999,928.2769 L999,249.0869 A2.5,2.5 0 0 1 1001.5,246.5869 " fill="none" style="stroke:#000000;stroke-width:1.5;"/><line style="stroke:#000000;stroke-width:1.5;" x1="999" x2="1103" y1="268.8837" y2="268.8837"/><text fill="#000000" font-family="sans-serif" font-size="14" font-weight="bold" lengthAdjust="spacing" textLength="91" x="1003" y="261.582">Compliance</text></g><!--cluster Consent--><g id="cluster_Consent"><path d="M1033.5,297.5869 L1206.5,297.5869 A3.75,3.75 0 0 1 1209,300.0869 L1216,319.8837 L1444.5,319.8837 A2.5,2.5 0 0 1 1447,322.3837 L1447,557.6869 A2.5,2.5 0 0 1 1444.5,560.1869 L1033.5,560.1869 A2.5,2.5 0 0 1 1031,557.6869 L1031,300.0869 A2.5,2.5 0 0 1 1033.5,297.5869 " fill="none" style="stroke:#000000;stroke-width:1.5;"/><line style="stroke:#000000;stroke-width:1.5;" x1="1031" x2="1216" y1="319.8837" y2="319.8837"/><text fill="#000000" font-family="sans-serif" font-size="14" font-weight="bold" lengthAdjust="spacing" textLength="172" x="1035" y="312.582">Consent Management</text></g><!--cluster Audit--><g id="cluster_Audit"><path d="M1604.5,297.5869 L1732.5,297.5869 A3.75,3.75 0 0 1 1735,300.0869 L1742,319.8837 L2027.5,319.8837 A2.5,2.5 0 0 1 2030,322.3837 L2030,557.6869 A2.5,2.5 0 0 1 2027.5,560.1869 L1604.5,560.1869 A2.5,2.5 0 0 1 1602,557.6869 L1602,300.0869 A2.5,2.5 0 0 1 1604.5,297.5869 " fill="none" style="stroke:#000000;stroke-width:1.5;"/><line style="stroke:#000000;stroke-width:1.5;" x1="1602" x2="1742" y1="319.8837" y2="319.8837"/><text fill="#000000" font-family="sans-serif" font-size="14" font-weight="bold" lengthAdjust="spacing" textLength="127" x="1606" y="312.582">Audit &amp; Logging</text></g><!--cluster Lifecycle--><g id="cluster_Lifecycle"><path d="M1047.5,625.1869 L1158.5,625.1869 A3.75,3.75 0 0 1 1161,627.6869 L1168,647.4838 L1468.5,647.4838 A2.5,2.5 0 0 1 1471,649.9838 L1471,896.2769 A2.5,2.5 0 0 1 1468.5,898.7769 L1047.5,898.7769 A2.5,2.5 0 0 1 1045,896.2769 L1045,627.6869 A2.5,2.5 0 0 1 1047.5,625.1869 " fill="none" style="stroke:#000000;stroke-width:1.5;"/><line style="stroke:#000000;stroke-width:1.5;" x1="1045" x2="1168" y1="647.4838" y2="647.4838"/><text fill="#000000" font-family="sans-serif" font-size="14" font-weight="bold" lengthAdjust="spacing" textLength="110" x="1049" y="640.182">Data Lifecycle</text></g><!--cluster External--><g id="cluster_External"><path d="M2096.5,785.4769 L2161.5,785.4769 A3.75,3.75 0 0 1 2164,787.9769 L2171,807.7738 L2512.5,807.7738 A2.5,2.5 0 0 1 2515,810.2738 L2515,896.2769 A2.5,2.5 0 0 1 2512.5,898.7769 L2096.5,898.7769 A2.5,2.5 0 0 1 2094,896.2769 L2094,787.9769 A2.5,2.5 0 0 1 2096.5,785.4769 " fill="none" style="stroke:#000000;stroke-width:1.5;"/><line style="stroke:#000000;stroke-width:1.5;" x1="2094" x2="2171" y1="807.7738" y2="807.7738"/><text fill="#000000" font-family="sans-serif" font-size="14" font-weight="bold" lengthAdjust="spacing" textLength="64" x="2098" y="800.472">External</text></g><!--entity AES-256 Service--><g id="elem_AES-256 Service"><rect fill="#F1F1F1" height="46.2969" rx="2.5" ry="2.5" style="stroke:#181818;stroke-width:0.5;" width="153" x="62.5" y="137.2969"/><rect fill="#F1F1F1" height="10" style="stroke:#181818;stroke-width:0.5;" width="15" x="195.5" y="142.2969"/><rect fill="#F1F1F1" height="2" style="stroke:#181818;stroke-width:0.5;" width="4" x="193.5" y="144.2969"/><rect fill="#F1F1F1" height="2" style="stroke:#181818;stroke-width:0.5;" width="4" x="193.5" y="148.2969"/><text fill="#000000" font-family="sans-serif" font-size="14" lengthAdjust="spacing" textLength="113" x="77.5" y="170.292">AES-256 Service</text></g><!--entity TLS 1.3 Manager--><g id="elem_TLS 1.3 Manager"><rect fill="#F1F1F1" height="46.2969" rx="2.5" ry="2.5" style="stroke:#181818;stroke-width:0.5;" width="155" x="250.5" y="137.2969"/><rect fill="#F1F1F1" height="10" style="stroke:#181818;stroke-width:0.5;" width="15" x="385.5" y="142.2969"/><rect fill="#F1F1F1" height="2" style="stroke:#181818;stroke-width:0.5;" width="4" x="383.5" y="144.2969"/><rect fill="#F1F1F1" height="2" style="stroke:#181818;stroke-width:0.5;" width="4" x="383.5" y="148.2969"/><text fill="#000000" font-family="sans-serif" font-size="14" lengthAdjust="spacing" textLength="115" x="265.5" y="170.292">TLS 1.3 Manager</text></g><!--entity Key Management--><g id="elem_Key Management"><rect fill="#F1F1F1" height="46.2969" rx="2.5" ry="2.5" style="stroke:#181818;stroke-width:0.5;" width="160" x="62" y="340.5869"/><rect fill="#F1F1F1" height="10" style="stroke:#181818;stroke-width:0.5;" width="15" x="202" y="345.5869"/><rect fill="#F1F1F1" height="2" style="stroke:#181818;stroke-width:0.5;" width="4" x="200" y="347.5869"/><rect fill="#F1F1F1" height="2" style="stroke:#181818;stroke-width:0.5;" width="4" x="200" y="351.5869"/><text fill="#000000" font-family="sans-serif" font-size="14" lengthAdjust="spacing" textLength="120" x="77" y="373.582">Key Management</text></g><!--entity Digital Signature Verifier--><g id="elem_Digital Signature Verifier"><rect fill="#F1F1F1" height="46.2969" rx="2.5" ry="2.5" style="stroke:#181818;stroke-width:0.5;" width="203" x="512.5" y="137.2969"/><rect fill="#F1F1F1" height="10" style="stroke:#181818;stroke-width:0.5;" width="15" x="695.5" y="142.2969"/><rect fill="#F1F1F1" height="2" style="stroke:#181818;stroke-width:0.5;" width="4" x="693.5" y="144.2969"/><rect fill="#F1F1F1" height="2" style="stroke:#181818;stroke-width:0.5;" width="4" x="693.5" y="148.2969"/><text fill="#000000" font-family="sans-serif" font-size="14" lengthAdjust="spacing" textLength="163" x="527.5" y="170.292">Digital Signature Verifier</text></g><!--entity Identity Provider--><g id="elem_Identity Provider"><rect fill="#F1F1F1" height="46.2969" rx="2.5" ry="2.5" style="stroke:#181818;stroke-width:0.5;" width="150" x="750" y="137.2969"/><rect fill="#F1F1F1" height="10" style="stroke:#181818;stroke-width:0.5;" width="15" x="880" y="142.2969"/><rect fill="#F1F1F1" height="2" style="stroke:#181818;stroke-width:0.5;" width="4" x="878" y="144.2969"/><rect fill="#F1F1F1" height="2" style="stroke:#181818;stroke-width:0.5;" width="4" x="878" y="148.2969"/><text fill="#000000" font-family="sans-serif" font-size="14" lengthAdjust="spacing" textLength="110" x="765" y="170.292">Identity Provider</text></g><!--entity Session Manager--><g id="elem_Session Manager"><rect fill="#F1F1F1" height="46.2969" rx="2.5" ry="2.5" style="stroke:#181818;stroke-width:0.5;" width="159" x="534.5" y="340.5869"/><rect fill="#F1F1F1" height="10" style="stroke:#181818;stroke-width:0.5;" width="15" x="673.5" y="345.5869"/><rect fill="#F1F1F1" height="2" style="stroke:#181818;stroke-width:0.5;" width="4" x="671.5" y="347.5869"/><rect fill="#F1F1F1" height="2" style="stroke:#181818;stroke-width:0.5;" width="4" x="671.5" y="351.5869"/><text fill="#000000" font-family="sans-serif" font-size="14" lengthAdjust="spacing" textLength="119" x="549.5" y="373.582">Session Manager</text></g><!--entity Consent Store--><g id="elem_Consent Store"><rect fill="#F1F1F1" height="46.2969" rx="2.5" ry="2.5" style="stroke:#181818;stroke-width:0.5;" width="140" x="1055" y="340.5869"/><rect fill="#F1F1F1" height="10" style="stroke:#181818;stroke-width:0.5;" width="15" x="1175" y="345.5869"/><rect fill="#F1F1F1" height="2" style="stroke:#181818;stroke-width:0.5;" width="4" x="1173" y="347.5869"/><rect fill="#F1F1F1" height="2" style="stroke:#181818;stroke-width:0.5;" width="4" x="1173" y="351.5869"/><text fill="#000000" font-family="sans-serif" font-size="14" lengthAdjust="spacing" textLength="100" x="1070" y="373.582">Consent Store</text></g><!--entity Revocation Handler--><g id="elem_Revocation Handler"><rect fill="#F1F1F1" height="46.2969" rx="2.5" ry="2.5" style="stroke:#181818;stroke-width:0.5;" width="174" x="1230" y="340.5869"/><rect fill="#F1F1F1" height="10" style="stroke:#181818;stroke-width:0.5;" width="15" x="1384" y="345.5869"/><rect fill="#F1F1F1" height="2" style="stroke:#181818;stroke-width:0.5;" width="4" x="1382" y="347.5869"/><rect fill="#F1F1F1" height="2" style="stroke:#181818;stroke-width:0.5;" width="4" x="1382" y="351.5869"/><text fill="#000000" font-family="sans-serif" font-size="14" lengthAdjust="spacing" textLength="134" x="1245" y="373.582">Revocation Handler</text></g><!--entity Purpose Checker--><g id="elem_Purpose Checker"><rect fill="#F1F1F1" height="46.2969" rx="2.5" ry="2.5" style="stroke:#181818;stroke-width:0.5;" width="160" x="1065" y="489.8869"/><rect fill="#F1F1F1" height="10" style="stroke:#181818;stroke-width:0.5;" width="15" x="1205" y="494.8869"/><rect fill="#F1F1F1" height="2" style="stroke:#181818;stroke-width:0.5;" width="4" x="1203" y="496.8869"/><rect fill="#F1F1F1" height="2" style="stroke:#181818;stroke-width:0.5;" width="4" x="1203" y="500.8869"/><text fill="#000000" font-family="sans-serif" font-size="14" lengthAdjust="spacing" textLength="120" x="1080" y="522.882">Purpose Checker</text></g><!--entity Immutable Logger--><g id="elem_Immutable Logger"><rect fill="#F1F1F1" height="46.2969" rx="2.5" ry="2.5" style="stroke:#181818;stroke-width:0.5;" width="164" x="1626" y="340.5869"/><rect fill="#F1F1F1" height="10" style="stroke:#181818;stroke-width:0.5;" width="15" x="1770" y="345.5869"/><rect fill="#F1F1F1" height="2" style="stroke:#181818;stroke-width:0.5;" width="4" x="1768" y="347.5869"/><rect fill="#F1F1F1" height="2" style="stroke:#181818;stroke-width:0.5;" width="4" x="1768" y="351.5869"/><text fill="#000000" font-family="sans-serif" font-size="14" lengthAdjust="spacing" textLength="124" x="1641" y="373.582">Immutable Logger</text></g><!--entity Report Generator--><g id="elem_Report Generator"><rect fill="#F1F1F1" height="46.2969" rx="2.5" ry="2.5" style="stroke:#181818;stroke-width:0.5;" width="161" x="1825.5" y="340.5869"/><rect fill="#F1F1F1" height="10" style="stroke:#181818;stroke-width:0.5;" width="15" x="1966.5" y="345.5869"/><rect fill="#F1F1F1" height="2" style="stroke:#181818;stroke-width:0.5;" width="4" x="1964.5" y="347.5869"/><rect fill="#F1F1F1" height="2" style="stroke:#181818;stroke-width:0.5;" width="4" x="1964.5" y="351.5869"/><text fill="#000000" font-family="sans-serif" font-size="14" lengthAdjust="spacing" textLength="121" x="1840.5" y="373.582">Report Generator</text></g><!--entity Alert System--><g id="elem_Alert System"><rect fill="#F1F1F1" height="46.2969" rx="2.5" ry="2.5" style="stroke:#181818;stroke-width:0.5;" width="126" x="1645" y="489.8869"/><rect fill="#F1F1F1" height="10" style="stroke:#181818;stroke-width:0.5;" width="15" x="1751" y="494.8869"/><rect fill="#F1F1F1" height="2" style="stroke:#181818;stroke-width:0.5;" width="4" x="1749" y="496.8869"/><rect fill="#F1F1F1" height="2" style="stroke:#181818;stroke-width:0.5;" width="4" x="1749" y="500.8869"/><text fill="#000000" font-family="sans-serif" font-size="14" lengthAdjust="spacing" textLength="86" x="1660" y="522.882">Alert System</text></g><!--entity Retention Manager--><g id="elem_Retention Manager"><rect fill="#F1F1F1" height="46.2969" rx="2.5" ry="2.5" style="stroke:#181818;stroke-width:0.5;" width="172" x="1069" y="668.1869"/><rect fill="#F1F1F1" height="10" style="stroke:#181818;stroke-width:0.5;" width="15" x="1221" y="673.1869"/><rect fill="#F1F1F1" height="2" style="stroke:#181818;stroke-width:0.5;" width="4" x="1219" y="675.1869"/><rect fill="#F1F1F1" height="2" style="stroke:#181818;stroke-width:0.5;" width="4" x="1219" y="679.1869"/><text fill="#000000" font-family="sans-serif" font-size="14" lengthAdjust="spacing" textLength="132" x="1084" y="701.182">Retention Manager</text></g><!--entity Deletion Service--><g id="elem_Deletion Service"><rect fill="#F1F1F1" height="46.2969" rx="2.5" ry="2.5" style="stroke:#181818;stroke-width:0.5;" width="152" x="1276" y="668.1869"/><rect fill="#F1F1F1" height="10" style="stroke:#181818;stroke-width:0.5;" width="15" x="1408" y="673.1869"/><rect fill="#F1F1F1" height="2" style="stroke:#181818;stroke-width:0.5;" width="4" x="1406" y="675.1869"/><rect fill="#F1F1F1" height="2" style="stroke:#181818;stroke-width:0.5;" width="4" x="1406" y="679.1869"/><text fill="#000000" font-family="sans-serif" font-size="14" lengthAdjust="spacing" textLength="112" x="1291" y="701.182">Deletion Service</text></g><!--entity Backup Controller--><g id="elem_Backup Controller"><rect fill="#F1F1F1" height="46.2969" rx="2.5" ry="2.5" style="stroke:#181818;stroke-width:0.5;" width="163" x="1073.5" y="828.4769"/><rect fill="#F1F1F1" height="10" style="stroke:#181818;stroke-width:0.5;" width="15" x="1216.5" y="833.4769"/><rect fill="#F1F1F1" height="2" style="stroke:#181818;stroke-width:0.5;" width="4" x="1214.5" y="835.4769"/><rect fill="#F1F1F1" height="2" style="stroke:#181818;stroke-width:0.5;" width="4" x="1214.5" y="839.4769"/><text fill="#000000" font-family="sans-serif" font-size="14" lengthAdjust="spacing" textLength="123" x="1088.5" y="861.472">Backup Controller</text></g><!--entity Regulatory API--><g id="elem_Regulatory API"><rect fill="#F1F1F1" height="46.2969" rx="2.5" ry="2.5" style="stroke:#181818;stroke-width:0.5;" width="139" x="2118.5" y="828.4769"/><rect fill="#F1F1F1" height="10" style="stroke:#181818;stroke-width:0.5;" width="15" x="2237.5" y="833.4769"/><rect fill="#F1F1F1" height="2" style="stroke:#181818;stroke-width:0.5;" width="4" x="2235.5" y="835.4769"/><rect fill="#F1F1F1" height="2" style="stroke:#181818;stroke-width:0.5;" width="4" x="2235.5" y="839.4769"/><text fill="#000000" font-family="sans-serif" font-size="14" lengthAdjust="spacing" textLength="99" x="2133.5" y="861.472">Regulatory API</text></g><!--entity Notification Gateway--><g id="elem_Notification Gateway"><rect fill="#F1F1F1" height="46.2969" rx="2.5" ry="2.5" style="stroke:#181818;stroke-width:0.5;" width="179" x="2292.5" y="828.4769"/><rect fill="#F1F1F1" height="10" style="stroke:#181818;stroke-width:0.5;" width="15" x="2451.5" y="833.4769"/><rect fill="#F1F1F1" height="2" style="stroke:#181818;stroke-width:0.5;" width="4" x="2449.5" y="835.4769"/><rect fill="#F1F1F1" height="2" style="stroke:#181818;stroke-width:0.5;" width="4" x="2449.5" y="839.4769"/><text fill="#000000" font-family="sans-serif" font-size="14" lengthAdjust="spacing" textLength="139" x="2307.5" y="861.472">Notification Gateway</text></g><!--link Enc to Consent--><g id="link_Enc_Consent"><path d="M449.0211,165.5579 C449.2576,165.6743 449.4986,165.7926 449.7439,165.9125 C450.7249,166.3922 451.7743,166.8988 452.8846,167.4265 C455.1052,168.4819 457.5694,169.6213 460.2175,170.7969 C470.81,175.4994 484.345,180.7819 497,183.5869 C597.3,205.8169 1344.08,169.3769 1420,238.5869 C1430.1525,247.8419 1436.4587,260.0606 1440.197,273.2239 C1442.0662,279.8055 1443.2933,286.6233 1444.0383,293.4248 C1444.1314,294.275 1444.217,295.1249 1444.2953,295.9741 C1444.3345,296.3987 1444.3719,296.8231 1444.4075,297.2473 " fill="none" id="Enc-Consent" style="stroke:#181818;stroke-width:1.0;"/><text fill="#000000" font-family="sans-serif" font-size="13" lengthAdjust="spacing" textLength="114" x="1400.37" y="226.6538">encrypts/decrypts</text></g><!--link Auth to Audit--><g id="link_Auth_Audit"><path d="M943.4168,161.4235 C943.8105,161.4231 944.2175,161.4228 944.6376,161.4226 C945.4779,161.422 946.3709,161.4216 947.3157,161.4213 C954.874,161.4192 965.7482,161.427 979.4869,161.4657 C1006.9643,161.5432 1045.8995,161.7442 1092.6808,162.2359 C1186.2434,163.2194 1311.1906,165.3656 1438.6288,170.0119 C1693.505,179.3044 1958.345,198.5969 2002,238.5869 C2012.1425,247.8769 2018.5044,260.1131 2022.3322,273.283 C2024.2461,279.8679 2025.5265,286.6862 2026.3292,293.4863 C2026.4295,294.3364 2026.5224,295.1861 2026.6081,296.0351 C2026.651,296.4595 2026.692,296.8838 2026.7313,297.3078 " fill="none" id="Auth-Audit" style="stroke:#181818;stroke-width:1.0;"/><text fill="#000000" font-family="sans-serif" font-size="13" lengthAdjust="spacing" textLength="138" x="1988.32" y="226.6538">provides user context</text></g><!--link Consent to Lifecycle--><g id="link_Consent_Lifecycle"><path d="M1447.0513,473.9892 C1447.0952,474.5841 1447.1391,475.1801 1447.1831,475.7771 C1447.3592,478.1652 1447.5364,480.5698 1447.7148,482.9887 C1448.0714,487.8265 1448.4322,492.7211 1448.7959,497.6536 C1449.5231,507.5187 1450.2616,517.5353 1451,527.5519 C1452.4769,547.585 1453.9538,567.6178 1455.3412,586.4369 C1456.0349,595.8465 1456.7063,604.9526 1457.3442,613.6036 C1457.5036,615.7664 1457.661,617.9007 1457.8161,620.0042 C1457.8936,621.0559 1457.9706,622.1 1458.047,623.136 C1458.0852,623.654 1458.1233,624.1701 1458.1611,624.684 " fill="none" id="Consent-Lifecycle" style="stroke:#181818;stroke-width:1.0;"/><text fill="#000000" font-family="sans-serif" font-size="13" lengthAdjust="spacing" textLength="113" x="1455.55" y="517.6038">governs retention</text></g><!--link Audit to External--><g id="link_Audit_External"><path d="M2030.63,369.4559 C2030.8538,369.5804 2031.0818,369.7073 2031.3139,369.8366 C2033.1705,370.8711 2035.2882,372.0594 2037.6521,373.3983 C2047.1078,378.7539 2060.5027,386.5194 2076.8798,396.4888 C2109.6341,416.4275 2154.3169,445.1819 2203.2713,481.1044 C2301.18,552.9494 2416.175,653.4669 2487,769.4769 C2489.3438,773.3169 2491.4131,777.4169 2493.2402,781.6576 C2493.697,782.7178 2494.1386,783.7868 2494.5656,784.8627 C2494.619,784.9971 2494.6721,785.1317 2494.725,785.2664 " fill="none" id="Audit-External" style="stroke:#181818;stroke-width:1.0;"/><text fill="#000000" font-family="sans-serif" font-size="13" lengthAdjust="spacing" textLength="88" x="2348.13" y="597.2538">sends reports</text></g><!--link Lifecycle to External--><g id="link_Lifecycle_External"><path d="M1471.382,693.4765 C1471.6202,693.5089 1471.8634,693.542 1472.1113,693.5757 C1472.6073,693.6432 1473.1227,693.7132 1473.6573,693.7857 C1475.7959,694.076 1478.2422,694.4068 1480.9833,694.7758 C1491.9476,696.2517 1507.6287,698.338 1527.1967,700.8773 C1566.3328,705.9559 1621.0169,712.8463 1684.6113,720.2881 C1811.8,735.1719 1974.63,752.2619 2120,761.4769 C2130.18,762.1269 2479.04,763.1069 2487,769.4769 C2490.51,772.2894 2493.4631,775.6108 2495.9428,779.2766 C2497.1826,781.1095 2498.3041,783.0285 2499.3176,785.013 C2499.3809,785.137 2499.4438,785.2613 2499.5063,785.3859 " fill="none" id="Lifecycle-External" style="stroke:#181818;stroke-width:1.0;"/><text fill="#000000" font-family="sans-serif" font-size="13" lengthAdjust="spacing" textLength="119" x="2121" y="757.5438">sends notifications</text></g><!--SRC=[RL8zRnD14EtlLunSq1cKe52uCuuLB0ooV8WcIh7iJIwhd7TFktCc9-GYeQIWfAJX1o044WAKtx3tZvYzhrmY5oVTllbuRzuCASeG_5V_tV_nlwgRwXFuV_xM_wm- -h_LPwYk-N5RtVWVTVIw_llDWOEZmx7_vhz4KIxafKWHHZ7AmYegOMOiZk131D37vbhQCYTbz0Y40txMSO3JwJmU7nuzWnZjLaayQz0tonWE7Z-5Lq9plMtHbrYso0Or1N37tv1dMj05XvGKFLU0Eh9ZbIeI6SGgrO8AY_0MhJfNFSCY2TKymygQhKfwF4RdkE5GpoxQ3OQVcKsUAQ7bmybdHZlkET1Tg-hWLbZtZ8czQpdNk3ND7F12w2JhnQmAcnk7CBj0UTc9UUX3eWWUmTAagT9fQqJ0MiB5PbEGUCVB3obzwpNcnXASe4OhM4iBJvcSnPMESBEFxbYGWAKwHrdA36ks_jKnhf62j_TD33l136lu_WKyvzv57dmYQx9id-VpAqAhHTOupWHfaGNH9KnNYv1- -jeGRxSryKGGlXVbMUWH3d0yxhSm0MmEr3r9iFc9whlXdCQs2UJDHJWe75gGh0klAEewSEBTn1D8pPQbER3Tq57JXjCwrPp5bKd82PwxwAv-NvOUZEB-0m00]--></g></svg>