<svg xmlns="http://www.w3.org/2000/svg" xmlns:xlink="http://www.w3.org/1999/xlink" contentStyleType="text/css" height="743px" preserveAspectRatio="none" style="width:1193px;height:743px;background:#FFFFFF;" version="1.1" viewBox="0 0 1193 743" width="1193px" zoomAndPan="magnify"><defs/><g><text fill="#000000" font-family="sans-serif" font-size="14" font-weight="bold" lengthAdjust="spacing" textLength="414" x="388.5" y="27.9951">&#1042;&#1079;&#1072;&#1080;&#1084;&#1086;&#1076;&#1077;&#1081;&#1089;&#1090;&#1074;&#1080;&#1077; &#1082;&#1086;&#1084;&#1087;&#1086;&#1085;&#1077;&#1085;&#1090;&#1086;&#1074; &#1087;&#1088;&#1080; &#1086;&#1073;&#1088;&#1072;&#1073;&#1086;&#1090;&#1082;&#1077; &#1055;&#1044;&#1085;</text><line style="stroke:#181818;stroke-width:0.5;stroke-dasharray:5.0,5.0;" x1="44" x2="44" y1="118.5938" y2="662.9844"/><line style="stroke:#181818;stroke-width:0.5;stroke-dasharray:5.0,5.0;" x1="254" x2="254" y1="118.5938" y2="662.9844"/><line style="stroke:#181818;stroke-width:0.5;stroke-dasharray:5.0,5.0;" x1="409" x2="409" y1="118.5938" y2="662.9844"/><line style="stroke:#181818;stroke-width:0.5;stroke-dasharray:5.0,5.0;" x1="601" x2="601" y1="118.5938" y2="662.9844"/><line style="stroke:#181818;stroke-width:0.5;stroke-dasharray:5.0,5.0;" x1="796.5" x2="796.5" y1="118.5938" y2="662.9844"/><line style="stroke:#181818;stroke-width:0.5;stroke-dasharray:5.0,5.0;" x1="1036" x2="1036" y1="118.5938" y2="662.9844"/><line style="stroke:#181818;stroke-width:0.5;stroke-dasharray:5.0,5.0;" x1="1142" x2="1142" y1="118.5938" y2="662.9844"/><text fill="#000000" font-family="sans-serif" font-size="14" lengthAdjust="spacing" textLength="73" x="5" y="115.292">&#1050;&#1072;&#1085;&#1076;&#1080;&#1076;&#1072;&#1090;</text><ellipse cx="44.5" cy="50.7969" fill="#E2E2F0" rx="8" ry="8" style="stroke:#181818;stroke-width:0.5;"/><path d="M44.5,58.7969 L44.5,85.7969 M31.5,66.7969 L57.5,66.7969 M44.5,85.7969 L31.5,100.7969 M44.5,85.7969 L57.5,100.7969 " fill="none" style="stroke:#181818;stroke-width:0.5;"/><text fill="#000000" font-family="sans-serif" font-size="14" lengthAdjust="spacing" textLength="73" x="5" y="674.9795">&#1050;&#1072;&#1085;&#1076;&#1080;&#1076;&#1072;&#1090;</text><ellipse cx="44.5" cy="686.7813" fill="#E2E2F0" rx="8" ry="8" style="stroke:#181818;stroke-width:0.5;"/><path d="M44.5,694.7813 L44.5,721.7813 M31.5,702.7813 L57.5,702.7813 M44.5,721.7813 L31.5,736.7813 M44.5,721.7813 L57.5,736.7813 " fill="none" style="stroke:#181818;stroke-width:0.5;"/><rect fill="#E2E2F0" height="30.2969" rx="2.5" ry="2.5" style="stroke:#181818;stroke-width:0.5;" width="109" x="200" y="87.2969"/><text fill="#000000" font-family="sans-serif" font-size="14" lengthAdjust="spacing" textLength="95" x="207" y="107.292">Web Interface</text><rect fill="#E2E2F0" height="30.2969" rx="2.5" ry="2.5" style="stroke:#181818;stroke-width:0.5;" width="109" x="200" y="661.9844"/><text fill="#000000" font-family="sans-serif" font-size="14" lengthAdjust="spacing" textLength="95" x="207" y="681.9795">Web Interface</text><rect fill="#E2E2F0" height="30.2969" rx="2.5" ry="2.5" style="stroke:#181818;stroke-width:0.5;" width="127" x="346" y="87.2969"/><text fill="#000000" font-family="sans-serif" font-size="14" lengthAdjust="spacing" textLength="113" x="353" y="107.292">Consent Service</text><rect fill="#E2E2F0" height="30.2969" rx="2.5" ry="2.5" style="stroke:#181818;stroke-width:0.5;" width="127" x="346" y="661.9844"/><text fill="#000000" font-family="sans-serif" font-size="14" lengthAdjust="spacing" textLength="113" x="353" y="681.9795">Consent Service</text><rect fill="#E2E2F0" height="30.2969" rx="2.5" ry="2.5" style="stroke:#181818;stroke-width:0.5;" width="113" x="545" y="87.2969"/><text fill="#000000" font-family="sans-serif" font-size="14" lengthAdjust="spacing" textLength="99" x="552" y="107.292">Crypto Service</text><rect fill="#E2E2F0" height="30.2969" rx="2.5" ry="2.5" style="stroke:#181818;stroke-width:0.5;" width="113" x="545" y="661.9844"/><text fill="#000000" font-family="sans-serif" font-size="14" lengthAdjust="spacing" textLength="99" x="552" y="681.9795">Crypto Service</text><rect fill="#E2E2F0" height="30.2969" rx="2.5" ry="2.5" style="stroke:#181818;stroke-width:0.5;" width="122" x="735.5" y="87.2969"/><text fill="#000000" font-family="sans-serif" font-size="14" lengthAdjust="spacing" textLength="108" x="742.5" y="107.292">Storage Service</text><rect fill="#E2E2F0" height="30.2969" rx="2.5" ry="2.5" style="stroke:#181818;stroke-width:0.5;" width="122" x="735.5" y="661.9844"/><text fill="#000000" font-family="sans-serif" font-size="14" lengthAdjust="spacing" textLength="108" x="742.5" y="681.9795">Storage Service</text><rect fill="#E2E2F0" height="30.2969" rx="2.5" ry="2.5" style="stroke:#181818;stroke-width:0.5;" width="103" x="985" y="87.2969"/><text fill="#000000" font-family="sans-serif" font-size="14" lengthAdjust="spacing" textLength="89" x="992" y="107.292">Audit Service</text><rect fill="#E2E2F0" height="30.2969" rx="2.5" ry="2.5" style="stroke:#181818;stroke-width:0.5;" width="103" x="985" y="661.9844"/><text fill="#000000" font-family="sans-serif" font-size="14" lengthAdjust="spacing" textLength="89" x="992" y="681.9795">Audit Service</text><rect fill="#E2E2F0" height="30.2969" rx="2.5" ry="2.5" style="stroke:#181818;stroke-width:0.5;" width="89" x="1098" y="87.2969"/><text fill="#000000" font-family="sans-serif" font-size="14" lengthAdjust="spacing" textLength="75" x="1105" y="107.292">HR System</text><rect fill="#E2E2F0" height="30.2969" rx="2.5" ry="2.5" style="stroke:#181818;stroke-width:0.5;" width="89" x="1098" y="661.9844"/><text fill="#000000" font-family="sans-serif" font-size="14" lengthAdjust="spacing" textLength="75" x="1105" y="681.9795">HR System</text><polygon fill="#181818" points="242.5,145.7266,252.5,149.7266,242.5,153.7266,246.5,149.7266" style="stroke:#181818;stroke-width:1.0;"/><line style="stroke:#181818;stroke-width:1.0;" x1="44.5" x2="248.5" y1="149.7266" y2="149.7266"/><text fill="#000000" font-family="sans-serif" font-size="13" lengthAdjust="spacing" textLength="186" x="51.5" y="144.6606">&#1047;&#1072;&#1087;&#1086;&#1083;&#1085;&#1103;&#1077;&#1090; &#1092;&#1086;&#1088;&#1084;&#1091; &#1089;&#1086;&#1075;&#1083;&#1072;&#1089;&#1080;&#1103;</text><polygon fill="#181818" points="397.5,174.8594,407.5,178.8594,397.5,182.8594,401.5,178.8594" style="stroke:#181818;stroke-width:1.0;"/><line style="stroke:#181818;stroke-width:1.0;" x1="254.5" x2="403.5" y1="178.8594" y2="178.8594"/><text fill="#000000" font-family="sans-serif" font-size="13" lengthAdjust="spacing" textLength="131" x="261.5" y="173.7935">&#1057;&#1086;&#1079;&#1076;&#1072;&#1085;&#1080;&#1077; &#1089;&#1086;&#1075;&#1083;&#1072;&#1089;&#1080;&#1103;</text><polygon fill="#181818" points="589.5,203.9922,599.5,207.9922,589.5,211.9922,593.5,207.9922" style="stroke:#181818;stroke-width:1.0;"/><line style="stroke:#181818;stroke-width:1.0;" x1="409.5" x2="595.5" y1="207.9922" y2="207.9922"/><text fill="#000000" font-family="sans-serif" font-size="13" lengthAdjust="spacing" textLength="156" x="416.5" y="202.9263">&#1047;&#1072;&#1087;&#1088;&#1086;&#1089; &#1082;&#1083;&#1102;&#1095;&#1072; &#1087;&#1086;&#1076;&#1087;&#1080;&#1089;&#1080;</text><polygon fill="#181818" points="420.5,233.125,410.5,237.125,420.5,241.125,416.5,237.125" style="stroke:#181818;stroke-width:1.0;"/><line style="stroke:#181818;stroke-width:1.0;stroke-dasharray:2.0,2.0;" x1="414.5" x2="600.5" y1="237.125" y2="237.125"/><text fill="#000000" font-family="sans-serif" font-size="13" lengthAdjust="spacing" textLength="97" x="426.5" y="232.0591">&#1050;&#1083;&#1102;&#1095; &#1087;&#1086;&#1076;&#1087;&#1080;&#1089;&#1080;</text><polygon fill="#181818" points="55.5,262.2578,45.5,266.2578,55.5,270.2578,51.5,266.2578" style="stroke:#181818;stroke-width:1.0;"/><line style="stroke:#181818;stroke-width:1.0;" x1="49.5" x2="408.5" y1="266.2578" y2="266.2578"/><text fill="#000000" font-family="sans-serif" font-size="13" lengthAdjust="spacing" textLength="107" x="61.5" y="261.1919">&#1060;&#1086;&#1088;&#1084;&#1072; &#1076;&#1083;&#1103; &#1069;&#1062;&#1055;</text><polygon fill="#181818" points="397.5,291.3906,407.5,295.3906,397.5,299.3906,401.5,295.3906" style="stroke:#181818;stroke-width:1.0;"/><line style="stroke:#181818;stroke-width:1.0;" x1="44.5" x2="403.5" y1="295.3906" y2="295.3906"/><text fill="#000000" font-family="sans-serif" font-size="13" lengthAdjust="spacing" textLength="155" x="51.5" y="290.3247">&#1055;&#1086;&#1076;&#1087;&#1080;&#1089;&#1072;&#1085;&#1085;&#1086;&#1077; &#1089;&#1086;&#1075;&#1083;&#1072;&#1089;&#1080;&#1077;</text><polygon fill="#181818" points="589.5,320.5234,599.5,324.5234,589.5,328.5234,593.5,324.5234" style="stroke:#181818;stroke-width:1.0;"/><line style="stroke:#181818;stroke-width:1.0;" x1="409.5" x2="595.5" y1="324.5234" y2="324.5234"/><text fill="#000000" font-family="sans-serif" font-size="13" lengthAdjust="spacing" textLength="154" x="416.5" y="319.4575">&#1042;&#1077;&#1088;&#1080;&#1092;&#1080;&#1082;&#1072;&#1094;&#1080;&#1103; &#1087;&#1086;&#1076;&#1087;&#1080;&#1089;&#1080;</text><polygon fill="#181818" points="420.5,349.6563,410.5,353.6563,420.5,357.6563,416.5,353.6563" style="stroke:#181818;stroke-width:1.0;"/><line style="stroke:#181818;stroke-width:1.0;stroke-dasharray:2.0,2.0;" x1="414.5" x2="600.5" y1="353.6563" y2="353.6563"/><text fill="#000000" font-family="sans-serif" font-size="13" lengthAdjust="spacing" textLength="168" x="426.5" y="348.5903">&#1056;&#1077;&#1079;&#1091;&#1083;&#1100;&#1090;&#1072;&#1090; &#1074;&#1077;&#1088;&#1080;&#1092;&#1080;&#1082;&#1072;&#1094;&#1080;&#1080;</text><polygon fill="#181818" points="784.5,378.7891,794.5,382.7891,784.5,386.7891,788.5,382.7891" style="stroke:#181818;stroke-width:1.0;"/><line style="stroke:#181818;stroke-width:1.0;" x1="409.5" x2="790.5" y1="382.7891" y2="382.7891"/><text fill="#000000" font-family="sans-serif" font-size="13" lengthAdjust="spacing" textLength="145" x="416.5" y="377.7231">&#1057;&#1086;&#1093;&#1088;&#1072;&#1085;&#1077;&#1085;&#1080;&#1077; &#1089;&#1086;&#1075;&#1083;&#1072;&#1089;&#1080;&#1103;</text><polygon fill="#181818" points="1024.5,407.9219,1034.5,411.9219,1024.5,415.9219,1028.5,411.9219" style="stroke:#181818;stroke-width:1.0;"/><line style="stroke:#181818;stroke-width:1.0;" x1="409.5" x2="1030.5" y1="411.9219" y2="411.9219"/><text fill="#000000" font-family="sans-serif" font-size="13" lengthAdjust="spacing" textLength="158" x="416.5" y="406.856">&#1051;&#1086;&#1075;&#1080;&#1088;&#1086;&#1074;&#1072;&#1085;&#1080;&#1077; &#1086;&#1087;&#1077;&#1088;&#1072;&#1094;&#1080;&#1080;</text><polygon fill="#181818" points="807.5,437.0547,797.5,441.0547,807.5,445.0547,803.5,441.0547" style="stroke:#181818;stroke-width:1.0;"/><line style="stroke:#181818;stroke-width:1.0;" x1="801.5" x2="1035.5" y1="441.0547" y2="441.0547"/><text fill="#000000" font-family="sans-serif" font-size="13" lengthAdjust="spacing" textLength="216" x="813.5" y="435.9888">&#1053;&#1077;&#1080;&#1079;&#1084;&#1077;&#1085;&#1103;&#1077;&#1084;&#1086;&#1077; &#1089;&#1086;&#1093;&#1088;&#1072;&#1085;&#1077;&#1085;&#1080;&#1077; &#1083;&#1086;&#1075;&#1072;</text><polygon fill="#181818" points="1130.5,466.1875,1140.5,470.1875,1130.5,474.1875,1134.5,470.1875" style="stroke:#181818;stroke-width:1.0;"/><line style="stroke:#181818;stroke-width:1.0;" x1="409.5" x2="1136.5" y1="470.1875" y2="470.1875"/><text fill="#000000" font-family="sans-serif" font-size="13" lengthAdjust="spacing" textLength="186" x="416.5" y="465.1216">&#1059;&#1074;&#1077;&#1076;&#1086;&#1084;&#1083;&#1077;&#1085;&#1080;&#1077; &#1086; &#1075;&#1086;&#1090;&#1086;&#1074;&#1085;&#1086;&#1089;&#1090;&#1080;</text><polygon fill="#181818" points="265.5,495.3203,255.5,499.3203,265.5,503.3203,261.5,499.3203" style="stroke:#181818;stroke-width:1.0;"/><line style="stroke:#181818;stroke-width:1.0;" x1="259.5" x2="1141.5" y1="499.3203" y2="499.3203"/><text fill="#000000" font-family="sans-serif" font-size="13" lengthAdjust="spacing" textLength="200" x="271.5" y="494.2544">&#1044;&#1086;&#1089;&#1090;&#1091;&#1087; &#1082; &#1076;&#1072;&#1085;&#1085;&#1099;&#1084; &#1082;&#1072;&#1085;&#1076;&#1080;&#1076;&#1072;&#1090;&#1072;</text><polygon fill="#181818" points="784.5,524.4531,794.5,528.4531,784.5,532.4531,788.5,528.4531" style="stroke:#181818;stroke-width:1.0;"/><line style="stroke:#181818;stroke-width:1.0;" x1="254.5" x2="790.5" y1="528.4531" y2="528.4531"/><text fill="#000000" font-family="sans-serif" font-size="13" lengthAdjust="spacing" textLength="103" x="261.5" y="523.3872">&#1047;&#1072;&#1087;&#1088;&#1086;&#1089; &#1076;&#1072;&#1085;&#1085;&#1099;&#1093;</text><polygon fill="#181818" points="612.5,553.5859,602.5,557.5859,612.5,561.5859,608.5,557.5859" style="stroke:#181818;stroke-width:1.0;"/><line style="stroke:#181818;stroke-width:1.0;" x1="606.5" x2="795.5" y1="557.5859" y2="557.5859"/><text fill="#000000" font-family="sans-serif" font-size="13" lengthAdjust="spacing" textLength="164" x="618.5" y="552.52">&#1047;&#1072;&#1087;&#1088;&#1086;&#1089; &#1085;&#1072; &#1088;&#1072;&#1089;&#1096;&#1080;&#1092;&#1088;&#1086;&#1074;&#1082;&#1091;</text><polygon fill="#181818" points="784.5,582.7188,794.5,586.7188,784.5,590.7188,788.5,586.7188" style="stroke:#181818;stroke-width:1.0;"/><line style="stroke:#181818;stroke-width:1.0;stroke-dasharray:2.0,2.0;" x1="601.5" x2="790.5" y1="586.7188" y2="586.7188"/><text fill="#000000" font-family="sans-serif" font-size="13" lengthAdjust="spacing" textLength="171" x="608.5" y="581.6528">&#1044;&#1077;&#1096;&#1080;&#1092;&#1088;&#1086;&#1074;&#1072;&#1085;&#1085;&#1099;&#1077; &#1076;&#1072;&#1085;&#1085;&#1099;&#1077;</text><polygon fill="#181818" points="265.5,611.8516,255.5,615.8516,265.5,619.8516,261.5,615.8516" style="stroke:#181818;stroke-width:1.0;"/><line style="stroke:#181818;stroke-width:1.0;stroke-dasharray:2.0,2.0;" x1="259.5" x2="795.5" y1="615.8516" y2="615.8516"/><text fill="#000000" font-family="sans-serif" font-size="13" lengthAdjust="spacing" textLength="180" x="271.5" y="610.7856">&#1044;&#1072;&#1085;&#1085;&#1099;&#1077; &#1076;&#1083;&#1103; &#1086;&#1090;&#1086;&#1073;&#1088;&#1072;&#1078;&#1077;&#1085;&#1080;&#1103;</text><polygon fill="#181818" points="1024.5,640.9844,1034.5,644.9844,1024.5,648.9844,1028.5,644.9844" style="stroke:#181818;stroke-width:1.0;"/><line style="stroke:#181818;stroke-width:1.0;" x1="254.5" x2="1030.5" y1="644.9844" y2="644.9844"/><text fill="#000000" font-family="sans-serif" font-size="13" lengthAdjust="spacing" textLength="150" x="261.5" y="639.9185">&#1051;&#1086;&#1075;&#1080;&#1088;&#1086;&#1074;&#1072;&#1085;&#1080;&#1077; &#1076;&#1086;&#1089;&#1090;&#1091;&#1087;&#1072;</text><!--SRC=[XLJ1YjDG5DtdAoxTpm-u42IRkcqMhcED4j2sf56OtRITKK6nC1I44QcYk1CoOpEDRPB-mhr_DEUzbpHvBJgBXkJUyzwvzznp6uVnou3uajUSSCOvbxpYbF_AHAPyWqXAl44mvnsU1L854YNV4E_aZ3F2-pLU4hxc4fcDEh3a1HUEu_VZOKGTlaAsmBKPVebCE-IFoNL6VXI7_N3a3sBgF0cUqkD174JF_NwW0OZO47Su60TuyOBeJLY1NEy04vsEug4DqI4Rvg4k_qLWuQgO3Npq-bbeC-g83Uhso3iTny4h3UZs7CUbauUgWGV4dz6xKcuBtUQSofJa74ATSIupaWaoVv1By9R9t54ouAZhuUHtvDPACMYdnd04TZsDrVtLJBYub8aQsLO-oJjEIBElyCpKCQTIwAHckJB08vYv6u2VfbfrqmhOEV5l_iLBqwE-OjawgOejy7rOBgU7vLv23FW7QcIeDf6tggVxglq6_wrbXZe-mclm4i6ZH_ViwwzcQiIK2srJRU7_2QedZ2DVT3PJYeAadW8-TfgnPZ8MiSY-WYB3x7AzBPYwNYj3U5G5-1LFKh5tUxZWX-eACgYrspR8aW0ipVefbVMEPWxyjxVRmaGXqGuceCe-XNpWN9d2saDmLdvhIhTCj3yi5qwzClzqN067Q5acybwDez9j8xFs51kc1LHi0-iwqtRHQSFRQj62QaiQKSp_qAqHhDccUmQwQYJZv0u0]--></g></svg>