<svg xmlns="http://www.w3.org/2000/svg" xmlns:xlink="http://www.w3.org/1999/xlink" contentStyleType="text/css" height="1239px" preserveAspectRatio="none" style="width:671px;height:1239px;background:#FFFFFF;" version="1.1" viewBox="0 0 671 1239" width="671px" zoomAndPan="magnify"><defs/><g><text fill="#000000" font-family="sans-serif" font-size="14" font-weight="bold" lengthAdjust="spacing" textLength="258" x="205" y="32.9951">&#1055;&#1088;&#1086;&#1094;&#1077;&#1089;&#1089; &#1087;&#1088;&#1080;&#1085;&#1103;&#1090;&#1080;&#1103; HR-&#1088;&#1077;&#1096;&#1077;&#1085;&#1080;&#1081;</text><ellipse cx="335.5" cy="57.2969" fill="#222222" rx="10" ry="10" style="stroke:#222222;stroke-width:1.0;"/><rect fill="#F1F1F1" height="33.9688" rx="12.5" ry="12.5" style="stroke:#181818;stroke-width:0.5;" width="243" x="214" y="87.2969"/><text fill="#000000" font-family="sans-serif" font-size="12" lengthAdjust="spacing" textLength="223" x="224" y="108.4355">HR &#1086;&#1090;&#1082;&#1088;&#1099;&#1074;&#1072;&#1077;&#1090; &#1087;&#1072;&#1085;&#1077;&#1083;&#1100; &#1091;&#1087;&#1088;&#1072;&#1074;&#1083;&#1077;&#1085;&#1080;&#1103;</text><rect fill="none" height="279.8125" style="stroke:#000000;stroke-width:1.5;" width="649" x="11" y="131.2656"/><path d="M141,131.2656 L141,140.5625 L131,150.5625 L11,150.5625 " fill="none" style="stroke:#000000;stroke-width:1.5;"/><text fill="#000000" font-family="sans-serif" font-size="14" lengthAdjust="spacing" textLength="120" x="14" y="145.2607">&#1041;&#1099;&#1089;&#1090;&#1088;&#1072;&#1103; &#1086;&#1094;&#1077;&#1085;&#1082;&#1072;</text><rect fill="#F1F1F1" height="33.9688" rx="12.5" ry="12.5" style="stroke:#181818;stroke-width:0.5;" width="237" x="217" y="167.5625"/><text fill="#000000" font-family="sans-serif" font-size="12" lengthAdjust="spacing" textLength="217" x="227" y="188.7012">&#1055;&#1088;&#1086;&#1089;&#1084;&#1086;&#1090;&#1088; &#1082;&#1072;&#1088;&#1090;&#1086;&#1095;&#1077;&#1082; &#1082;&#1072;&#1085;&#1076;&#1080;&#1076;&#1072;&#1090;&#1086;&#1074;</text><polygon fill="#F1F1F1" points="69,221.5313,206,221.5313,218,233.5313,206,245.5313,69,245.5313,57,233.5313,69,221.5313" style="stroke:#181818;stroke-width:0.5;"/><text fill="#000000" font-family="sans-serif" font-size="11" lengthAdjust="spacing" textLength="58" x="141.5" y="255.7417">&#1055;&#1086;&#1076;&#1093;&#1086;&#1076;&#1080;&#1090;</text><text fill="#000000" font-family="sans-serif" font-size="11" lengthAdjust="spacing" textLength="137" x="69" y="237.3394">&#1056;&#1077;&#1096;&#1077;&#1085;&#1080;&#1077; &#1087;&#1086; &#1082;&#1072;&#1088;&#1090;&#1086;&#1095;&#1082;&#1077;?</text><rect fill="#F1F1F1" height="33.9688" rx="12.5" ry="12.5" style="stroke:#181818;stroke-width:0.5;" width="186" x="44.5" y="278.3359"/><text fill="#000000" font-family="sans-serif" font-size="12" lengthAdjust="spacing" textLength="166" x="54.5" y="299.4746">&#1044;&#1086;&#1073;&#1072;&#1074;&#1083;&#1077;&#1085;&#1080;&#1077; &#1074; &#1096;&#1086;&#1088;&#1090;-&#1083;&#1080;&#1089;&#1090;</text><rect fill="#F1F1F1" height="33.9688" rx="12.5" ry="12.5" style="stroke:#181818;stroke-width:0.5;" width="233" x="21" y="345.1094"/><text fill="#000000" font-family="sans-serif" font-size="12" lengthAdjust="spacing" textLength="213" x="31" y="366.248">&#1040;&#1074;&#1090;&#1086;&#1084;&#1072;&#1090;&#1080;&#1095;&#1077;&#1089;&#1082;&#1086;&#1077; &#1088;&#1072;&#1085;&#1078;&#1080;&#1088;&#1086;&#1074;&#1072;&#1085;&#1080;&#1077;</text><polygon fill="#F1F1F1" points="325,221.5313,401,221.5313,413,233.5313,401,245.5313,325,245.5313,313,233.5313,325,221.5313" style="stroke:#181818;stroke-width:0.5;"/><text fill="#000000" font-family="sans-serif" font-size="11" lengthAdjust="spacing" textLength="76" x="325" y="237.3394">&#1053;&#1077; &#1087;&#1086;&#1076;&#1093;&#1086;&#1076;&#1080;&#1090;</text><text fill="#000000" font-family="sans-serif" font-size="11" lengthAdjust="spacing" textLength="55" x="413" y="230.937">&#1053;&#1072; &#1087;&#1086;&#1090;&#1086;&#1084;</text><rect fill="#F1F1F1" height="33.9688" rx="12.5" ry="12.5" style="stroke:#181818;stroke-width:0.5;" width="178" x="274" y="265.5313"/><text fill="#000000" font-family="sans-serif" font-size="12" lengthAdjust="spacing" textLength="158" x="284" y="286.6699">&#1054;&#1090;&#1082;&#1083;&#1086;&#1085;&#1077;&#1085;&#1080;&#1077; &#1089; &#1087;&#1088;&#1080;&#1095;&#1080;&#1085;&#1086;&#1081;</text><rect fill="#F1F1F1" height="33.9688" rx="12.5" ry="12.5" style="stroke:#181818;stroke-width:0.5;" width="141" x="292.5" y="332.3047"/><text fill="#000000" font-family="sans-serif" font-size="12" lengthAdjust="spacing" textLength="121" x="302.5" y="353.4434">&#1040;&#1088;&#1093;&#1080;&#1074;&#1072;&#1094;&#1080;&#1103; &#1076;&#1072;&#1085;&#1085;&#1099;&#1093;</text><rect fill="#F1F1F1" height="33.9688" rx="12.5" ry="12.5" style="stroke:#181818;stroke-width:0.5;" width="151" x="485.5" y="274.9336"/><text fill="#000000" font-family="sans-serif" font-size="12" lengthAdjust="spacing" textLength="131" x="495.5" y="296.0723">&#1054;&#1090;&#1083;&#1086;&#1078;&#1080;&#1090;&#1100; &#1088;&#1077;&#1096;&#1077;&#1085;&#1080;&#1077;</text><rect fill="#F1F1F1" height="33.9688" rx="12.5" ry="12.5" style="stroke:#181818;stroke-width:0.5;" width="178" x="472" y="341.707"/><text fill="#000000" font-family="sans-serif" font-size="12" lengthAdjust="spacing" textLength="158" x="482" y="362.8457">&#1044;&#1086;&#1073;&#1072;&#1074;&#1080;&#1090;&#1100; &#1085;&#1072;&#1087;&#1086;&#1084;&#1080;&#1085;&#1072;&#1085;&#1080;&#1077;</text><rect fill="none" height="298.1406" style="stroke:#000000;stroke-width:1.5;" width="276" x="197.5" y="421.0781"/><path d="M346.5,421.0781 L346.5,430.375 L336.5,440.375 L197.5,440.375 " fill="none" style="stroke:#000000;stroke-width:1.5;"/><text fill="#000000" font-family="sans-serif" font-size="14" lengthAdjust="spacing" textLength="139" x="200.5" y="435.0732">&#1044;&#1077;&#1090;&#1072;&#1083;&#1100;&#1085;&#1099;&#1081; &#1072;&#1085;&#1072;&#1083;&#1080;&#1079;</text><rect fill="#F1F1F1" height="33.9688" rx="12.5" ry="12.5" style="stroke:#181818;stroke-width:0.5;" width="212" x="229.5" y="457.375"/><text fill="#000000" font-family="sans-serif" font-size="12" lengthAdjust="spacing" textLength="192" x="239.5" y="478.5137">&#1055;&#1088;&#1086;&#1089;&#1084;&#1086;&#1090;&#1088; &#1087;&#1086;&#1083;&#1085;&#1086;&#1075;&#1086; &#1086;&#1090;&#1095;&#1077;&#1090;&#1072; AI</text><rect fill="#F1F1F1" height="33.9688" rx="12.5" ry="12.5" style="stroke:#181818;stroke-width:0.5;" width="213" x="229" y="511.3438"/><text fill="#000000" font-family="sans-serif" font-size="12" lengthAdjust="spacing" textLength="193" x="239" y="532.4824">&#1055;&#1088;&#1086;&#1089;&#1084;&#1086;&#1090;&#1088; &#1074;&#1080;&#1076;&#1077;&#1086;&#1092;&#1088;&#1072;&#1075;&#1084;&#1077;&#1085;&#1090;&#1086;&#1074;</text><rect fill="#F1F1F1" height="33.9688" rx="12.5" ry="12.5" style="stroke:#181818;stroke-width:0.5;" width="256" x="207.5" y="565.3125"/><text fill="#000000" font-family="sans-serif" font-size="12" lengthAdjust="spacing" textLength="236" x="217.5" y="586.4512">&#1057;&#1088;&#1072;&#1074;&#1085;&#1077;&#1085;&#1080;&#1077; &#1089; &#1076;&#1088;&#1091;&#1075;&#1080;&#1084;&#1080; &#1082;&#1072;&#1085;&#1076;&#1080;&#1076;&#1072;&#1090;&#1072;&#1084;&#1080;</text><rect fill="#F1F1F1" height="33.9688" rx="12.5" ry="12.5" style="stroke:#181818;stroke-width:0.5;" width="244" x="213.5" y="619.2813"/><text fill="#000000" font-family="sans-serif" font-size="12" lengthAdjust="spacing" textLength="224" x="223.5" y="640.4199">&#1055;&#1088;&#1086;&#1074;&#1077;&#1088;&#1082;&#1072; &#1087;&#1086; &#1082;&#1088;&#1080;&#1090;&#1077;&#1088;&#1080;&#1103;&#1084; &#1074;&#1072;&#1082;&#1072;&#1085;&#1089;&#1080;&#1080;</text><rect fill="#F1F1F1" height="33.9688" rx="12.5" ry="12.5" style="stroke:#181818;stroke-width:0.5;" width="230" x="220.5" y="673.25"/><text fill="#000000" font-family="sans-serif" font-size="12" lengthAdjust="spacing" textLength="210" x="230.5" y="694.3887">&#1050;&#1086;&#1085;&#1089;&#1091;&#1083;&#1100;&#1090;&#1072;&#1094;&#1080;&#1103; &#1089; &#1088;&#1091;&#1082;&#1086;&#1074;&#1086;&#1076;&#1080;&#1090;&#1077;&#1083;&#1077;&#1084;</text><rect fill="none" height="295.6172" style="stroke:#000000;stroke-width:1.5;" width="628" x="21.5" y="729.2188"/><path d="M207.5,729.2188 L207.5,738.5156 L197.5,748.5156 L21.5,748.5156 " fill="none" style="stroke:#000000;stroke-width:1.5;"/><text fill="#000000" font-family="sans-serif" font-size="14" lengthAdjust="spacing" textLength="176" x="24.5" y="743.2139">&#1044;&#1077;&#1081;&#1089;&#1090;&#1074;&#1080;&#1103; &#1087;&#1086; &#1082;&#1072;&#1085;&#1076;&#1080;&#1076;&#1072;&#1090;&#1091;</text><polygon fill="#F1F1F1" points="80,768.5156,199,768.5156,211,780.5156,199,792.5156,80,792.5156,68,780.5156,80,768.5156" style="stroke:#181818;stroke-width:0.5;"/><text fill="#000000" font-family="sans-serif" font-size="11" lengthAdjust="spacing" textLength="69" x="143.5" y="802.7261">&#1055;&#1088;&#1080;&#1075;&#1083;&#1072;&#1089;&#1080;&#1090;&#1100;</text><text fill="#000000" font-family="sans-serif" font-size="11" lengthAdjust="spacing" textLength="119" x="80" y="784.3237">&#1048;&#1090;&#1086;&#1075;&#1086;&#1074;&#1086;&#1077; &#1088;&#1077;&#1096;&#1077;&#1085;&#1080;&#1077;?</text><rect fill="#F1F1F1" height="33.9688" rx="12.5" ry="12.5" style="stroke:#181818;stroke-width:0.5;" width="204" x="37.5" y="825.3203"/><text fill="#000000" font-family="sans-serif" font-size="12" lengthAdjust="spacing" textLength="184" x="47.5" y="846.459">&#1053;&#1072;&#1079;&#1085;&#1072;&#1095;&#1077;&#1085;&#1080;&#1077; &#1089;&#1086;&#1073;&#1077;&#1089;&#1077;&#1076;&#1086;&#1074;&#1072;&#1085;&#1080;&#1103;</text><rect fill="#F1F1F1" height="33.9688" rx="12.5" ry="12.5" style="stroke:#181818;stroke-width:0.5;" width="176" x="51.5" y="892.0938"/><text fill="#000000" font-family="sans-serif" font-size="12" lengthAdjust="spacing" textLength="156" x="61.5" y="913.2324">&#1054;&#1090;&#1087;&#1088;&#1072;&#1074;&#1082;&#1072; &#1087;&#1088;&#1080;&#1075;&#1083;&#1072;&#1096;&#1077;&#1085;&#1080;&#1103;</text><rect fill="#F1F1F1" height="33.9688" rx="12.5" ry="12.5" style="stroke:#181818;stroke-width:0.5;" width="216" x="31.5" y="958.8672"/><text fill="#000000" font-family="sans-serif" font-size="12" lengthAdjust="spacing" textLength="196" x="41.5" y="980.0059">&#1057;&#1080;&#1085;&#1093;&#1088;&#1086;&#1085;&#1080;&#1079;&#1072;&#1094;&#1080;&#1103; &#1089; &#1082;&#1072;&#1083;&#1077;&#1085;&#1076;&#1072;&#1088;&#1077;&#1084;</text><polygon fill="#F1F1F1" points="326.5,768.5156,391.5,768.5156,403.5,780.5156,391.5,792.5156,326.5,792.5156,314.5,780.5156,326.5,768.5156" style="stroke:#181818;stroke-width:0.5;"/><text fill="#000000" font-family="sans-serif" font-size="11" lengthAdjust="spacing" textLength="65" x="326.5" y="784.3237">&#1054;&#1090;&#1082;&#1083;&#1086;&#1085;&#1080;&#1090;&#1100;</text><text fill="#000000" font-family="sans-serif" font-size="11" lengthAdjust="spacing" textLength="161" x="403.5" y="777.9214">&#1044;&#1086;&#1087;&#1086;&#1083;&#1085;&#1080;&#1090;&#1077;&#1083;&#1100;&#1085;&#1072;&#1103; &#1087;&#1088;&#1086;&#1074;&#1077;&#1088;&#1082;&#1072;</text><rect fill="#F1F1F1" height="33.9688" rx="12.5" ry="12.5" style="stroke:#181818;stroke-width:0.5;" width="166" x="276" y="812.5156"/><text fill="#000000" font-family="sans-serif" font-size="12" lengthAdjust="spacing" textLength="146" x="286" y="833.6543">&#1060;&#1086;&#1088;&#1084;&#1091;&#1083;&#1080;&#1088;&#1086;&#1074;&#1082;&#1072; &#1086;&#1090;&#1082;&#1072;&#1079;&#1072;</text><rect fill="#F1F1F1" height="33.9688" rx="12.5" ry="12.5" style="stroke:#181818;stroke-width:0.5;" width="173" x="272.5" y="879.2891"/><text fill="#000000" font-family="sans-serif" font-size="12" lengthAdjust="spacing" textLength="153" x="282.5" y="900.4277">&#1054;&#1090;&#1087;&#1088;&#1072;&#1074;&#1082;&#1072; &#1091;&#1074;&#1077;&#1076;&#1086;&#1084;&#1083;&#1077;&#1085;&#1080;&#1103;</text><rect fill="#F1F1F1" height="33.9688" rx="12.5" ry="12.5" style="stroke:#181818;stroke-width:0.5;" width="183" x="267.5" y="946.0625"/><text fill="#000000" font-family="sans-serif" font-size="12" lengthAdjust="spacing" textLength="163" x="277.5" y="967.2012">&#1054;&#1073;&#1085;&#1086;&#1074;&#1083;&#1077;&#1085;&#1080;&#1077; &#1089;&#1090;&#1072;&#1090;&#1080;&#1089;&#1090;&#1080;&#1082;&#1080;</text><rect fill="#F1F1F1" height="33.9688" rx="12.5" ry="12.5" style="stroke:#181818;stroke-width:0.5;" width="169" x="470.5" y="821.918"/><text fill="#000000" font-family="sans-serif" font-size="12" lengthAdjust="spacing" textLength="149" x="480.5" y="843.0566">&#1047;&#1072;&#1087;&#1088;&#1086;&#1089; &#1088;&#1077;&#1082;&#1086;&#1084;&#1077;&#1085;&#1076;&#1072;&#1094;&#1080;&#1081;</text><rect fill="#F1F1F1" height="33.9688" rx="12.5" ry="12.5" style="stroke:#181818;stroke-width:0.5;" width="142" x="484" y="888.6914"/><text fill="#000000" font-family="sans-serif" font-size="12" lengthAdjust="spacing" textLength="122" x="494" y="909.8301">&#1058;&#1077;&#1089;&#1090;&#1086;&#1074;&#1086;&#1077; &#1079;&#1072;&#1076;&#1072;&#1085;&#1080;&#1077;</text><rect fill="#F1F1F1" height="33.9688" rx="12.5" ry="12.5" style="stroke:#181818;stroke-width:0.5;" width="159" x="475.5" y="955.4648"/><text fill="#000000" font-family="sans-serif" font-size="12" lengthAdjust="spacing" textLength="139" x="485.5" y="976.6035">&#1055;&#1086;&#1074;&#1090;&#1086;&#1088;&#1085;&#1099;&#1081; &#1089;&#1082;&#1088;&#1080;&#1085;&#1080;&#1085;&#1075;</text><rect fill="#F1F1F1" height="33.9688" rx="12.5" ry="12.5" style="stroke:#181818;stroke-width:0.5;" width="228" x="221.5" y="1044.8359"/><text fill="#000000" font-family="sans-serif" font-size="12" lengthAdjust="spacing" textLength="208" x="231.5" y="1065.9746">&#1054;&#1073;&#1085;&#1086;&#1074;&#1083;&#1077;&#1085;&#1080;&#1077; &#1089;&#1090;&#1072;&#1090;&#1091;&#1089;&#1072; &#1074; &#1089;&#1080;&#1089;&#1090;&#1077;&#1084;&#1077;</text><rect fill="#F1F1F1" height="33.9688" rx="12.5" ry="12.5" style="stroke:#181818;stroke-width:0.5;" width="159" x="256" y="1098.8047"/><text fill="#000000" font-family="sans-serif" font-size="12" lengthAdjust="spacing" textLength="139" x="266" y="1119.9434">&#1057;&#1080;&#1085;&#1093;&#1088;&#1086;&#1085;&#1080;&#1079;&#1072;&#1094;&#1080;&#1103; &#1089; ATS</text><rect fill="#F1F1F1" height="33.9688" rx="12.5" ry="12.5" style="stroke:#181818;stroke-width:0.5;" width="254" x="208.5" y="1152.7734"/><text fill="#000000" font-family="sans-serif" font-size="12" lengthAdjust="spacing" textLength="234" x="218.5" y="1173.9121">&#1054;&#1073;&#1085;&#1086;&#1074;&#1083;&#1077;&#1085;&#1080;&#1077; &#1076;&#1072;&#1096;&#1073;&#1086;&#1088;&#1076;&#1086;&#1074; &#1072;&#1085;&#1072;&#1083;&#1080;&#1090;&#1080;&#1082;&#1080;</text><ellipse cx="335.5" cy="1217.7422" fill="none" rx="11" ry="11" style="stroke:#222222;stroke-width:1.0;"/><ellipse cx="335.5" cy="1217.7422" fill="#222222" rx="6" ry="6" style="stroke:#222222;stroke-width:1.0;"/><line style="stroke:#181818;stroke-width:1.0;" x1="335.5" x2="335.5" y1="67.2969" y2="87.2969"/><polygon fill="#181818" points="331.5,77.2969,335.5,87.2969,339.5,77.2969,335.5,81.2969" style="stroke:#181818;stroke-width:1.0;"/><line style="stroke:#181818;stroke-width:1.0;" x1="137.5" x2="137.5" y1="312.3047" y2="345.1094"/><polygon fill="#181818" points="133.5,335.1094,137.5,345.1094,141.5,335.1094,137.5,339.1094" style="stroke:#181818;stroke-width:1.0;"/><line style="stroke:#181818;stroke-width:1.0;" x1="363" x2="363" y1="299.5" y2="332.3047"/><polygon fill="#181818" points="359,322.3047,363,332.3047,367,322.3047,363,326.3047" style="stroke:#181818;stroke-width:1.0;"/><line style="stroke:#181818;stroke-width:1.0;" x1="561" x2="561" y1="308.9023" y2="341.707"/><polygon fill="#181818" points="557,331.707,561,341.707,565,331.707,561,335.707" style="stroke:#181818;stroke-width:1.0;"/><line style="stroke:#181818;stroke-width:1.0;" x1="137.5" x2="137.5" y1="245.5313" y2="278.3359"/><polygon fill="#181818" points="133.5,268.3359,137.5,278.3359,141.5,268.3359,137.5,272.3359" style="stroke:#181818;stroke-width:1.0;"/><line style="stroke:#181818;stroke-width:1.0;" x1="137.5" x2="137.5" y1="379.0781" y2="399.0781"/><polygon fill="#181818" points="133.5,389.0781,137.5,399.0781,141.5,389.0781,137.5,393.0781" style="stroke:#181818;stroke-width:1.0;"/><line style="stroke:#181818;stroke-width:1.0;" x1="363" x2="363" y1="245.5313" y2="265.5313"/><polygon fill="#181818" points="359,255.5313,363,265.5313,367,255.5313,363,259.5313" style="stroke:#181818;stroke-width:1.0;"/><line style="stroke:#181818;stroke-width:1.0;" x1="363" x2="363" y1="366.2734" y2="399.0781"/><polygon fill="#181818" points="359,389.0781,363,399.0781,367,389.0781,363,393.0781" style="stroke:#181818;stroke-width:1.0;"/><line style="stroke:#181818;stroke-width:1.0;" x1="218" x2="313" y1="233.5313" y2="233.5313"/><polygon fill="#181818" points="303,229.5313,313,233.5313,303,237.5313,307,233.5313" style="stroke:#181818;stroke-width:1.0;"/><line style="stroke:#181818;stroke-width:1.0;" x1="335.5" x2="335.5" y1="201.5313" y2="206.5313"/><line style="stroke:#181818;stroke-width:1.0;" x1="335.5" x2="137.5" y1="206.5313" y2="206.5313"/><line style="stroke:#181818;stroke-width:1.0;" x1="137.5" x2="137.5" y1="206.5313" y2="221.5313"/><polygon fill="#181818" points="133.5,211.5313,137.5,221.5313,141.5,211.5313,137.5,215.5313" style="stroke:#181818;stroke-width:1.0;"/><line style="stroke:#181818;stroke-width:1.0;" x1="413" x2="561" y1="233.5313" y2="233.5313"/><line style="stroke:#181818;stroke-width:1.0;" x1="561" x2="561" y1="233.5313" y2="274.9336"/><polygon fill="#181818" points="557,264.9336,561,274.9336,565,264.9336,561,268.9336" style="stroke:#181818;stroke-width:1.0;"/><line style="stroke:#181818;stroke-width:1.0;" x1="561" x2="561" y1="375.6758" y2="399.0781"/><polygon fill="#181818" points="557,389.0781,561,399.0781,565,389.0781,561,393.0781" style="stroke:#181818;stroke-width:1.0;"/><line style="stroke:#181818;stroke-width:1.0;" x1="137.5" x2="561" y1="399.0781" y2="399.0781"/><line style="stroke:#181818;stroke-width:1.0;" x1="335.5" x2="335.5" y1="121.2656" y2="167.5625"/><polygon fill="#181818" points="331.5,157.5625,335.5,167.5625,339.5,157.5625,335.5,161.5625" style="stroke:#181818;stroke-width:1.0;"/><line style="stroke:#181818;stroke-width:1.0;" x1="335.5" x2="335.5" y1="491.3438" y2="511.3438"/><polygon fill="#181818" points="331.5,501.3438,335.5,511.3438,339.5,501.3438,335.5,505.3438" style="stroke:#181818;stroke-width:1.0;"/><line style="stroke:#181818;stroke-width:1.0;" x1="335.5" x2="335.5" y1="545.3125" y2="565.3125"/><polygon fill="#181818" points="331.5,555.3125,335.5,565.3125,339.5,555.3125,335.5,559.3125" style="stroke:#181818;stroke-width:1.0;"/><line style="stroke:#181818;stroke-width:1.0;" x1="335.5" x2="335.5" y1="599.2813" y2="619.2813"/><polygon fill="#181818" points="331.5,609.2813,335.5,619.2813,339.5,609.2813,335.5,613.2813" style="stroke:#181818;stroke-width:1.0;"/><line style="stroke:#181818;stroke-width:1.0;" x1="335.5" x2="335.5" y1="653.25" y2="673.25"/><polygon fill="#181818" points="331.5,663.25,335.5,673.25,339.5,663.25,335.5,667.25" style="stroke:#181818;stroke-width:1.0;"/><line style="stroke:#181818;stroke-width:1.0;" x1="335.5" x2="335.5" y1="399.0781" y2="457.375"/><polygon fill="#181818" points="331.5,447.375,335.5,457.375,339.5,447.375,335.5,451.375" style="stroke:#181818;stroke-width:1.0;"/><line style="stroke:#181818;stroke-width:1.0;" x1="139.5" x2="139.5" y1="859.2891" y2="892.0938"/><polygon fill="#181818" points="135.5,882.0938,139.5,892.0938,143.5,882.0938,139.5,886.0938" style="stroke:#181818;stroke-width:1.0;"/><line style="stroke:#181818;stroke-width:1.0;" x1="139.5" x2="139.5" y1="926.0625" y2="958.8672"/><polygon fill="#181818" points="135.5,948.8672,139.5,958.8672,143.5,948.8672,139.5,952.8672" style="stroke:#181818;stroke-width:1.0;"/><line style="stroke:#181818;stroke-width:1.0;" x1="359" x2="359" y1="846.4844" y2="879.2891"/><polygon fill="#181818" points="355,869.2891,359,879.2891,363,869.2891,359,873.2891" style="stroke:#181818;stroke-width:1.0;"/><line style="stroke:#181818;stroke-width:1.0;" x1="359" x2="359" y1="913.2578" y2="946.0625"/><polygon fill="#181818" points="355,936.0625,359,946.0625,363,936.0625,359,940.0625" style="stroke:#181818;stroke-width:1.0;"/><line style="stroke:#181818;stroke-width:1.0;" x1="555" x2="555" y1="855.8867" y2="888.6914"/><polygon fill="#181818" points="551,878.6914,555,888.6914,559,878.6914,555,882.6914" style="stroke:#181818;stroke-width:1.0;"/><line style="stroke:#181818;stroke-width:1.0;" x1="555" x2="555" y1="922.6602" y2="955.4648"/><polygon fill="#181818" points="551,945.4648,555,955.4648,559,945.4648,555,949.4648" style="stroke:#181818;stroke-width:1.0;"/><line style="stroke:#181818;stroke-width:1.0;" x1="139.5" x2="139.5" y1="792.5156" y2="825.3203"/><polygon fill="#181818" points="135.5,815.3203,139.5,825.3203,143.5,815.3203,139.5,819.3203" style="stroke:#181818;stroke-width:1.0;"/><line style="stroke:#181818;stroke-width:1.0;" x1="139.5" x2="139.5" y1="992.8359" y2="1012.8359"/><polygon fill="#181818" points="135.5,1002.8359,139.5,1012.8359,143.5,1002.8359,139.5,1006.8359" style="stroke:#181818;stroke-width:1.0;"/><line style="stroke:#181818;stroke-width:1.0;" x1="359" x2="359" y1="792.5156" y2="812.5156"/><polygon fill="#181818" points="355,802.5156,359,812.5156,363,802.5156,359,806.5156" style="stroke:#181818;stroke-width:1.0;"/><line style="stroke:#181818;stroke-width:1.0;" x1="359" x2="359" y1="980.0313" y2="1012.8359"/><polygon fill="#181818" points="355,1002.8359,359,1012.8359,363,1002.8359,359,1006.8359" style="stroke:#181818;stroke-width:1.0;"/><line style="stroke:#181818;stroke-width:1.0;" x1="211" x2="314.5" y1="780.5156" y2="780.5156"/><polygon fill="#181818" points="304.5,776.5156,314.5,780.5156,304.5,784.5156,308.5,780.5156" style="stroke:#181818;stroke-width:1.0;"/><line style="stroke:#181818;stroke-width:1.0;" x1="335.5" x2="335.5" y1="707.2188" y2="753.5156"/><line style="stroke:#181818;stroke-width:1.0;" x1="335.5" x2="139.5" y1="753.5156" y2="753.5156"/><line style="stroke:#181818;stroke-width:1.0;" x1="139.5" x2="139.5" y1="753.5156" y2="768.5156"/><polygon fill="#181818" points="135.5,758.5156,139.5,768.5156,143.5,758.5156,139.5,762.5156" style="stroke:#181818;stroke-width:1.0;"/><line style="stroke:#181818;stroke-width:1.0;" x1="403.5" x2="555" y1="780.5156" y2="780.5156"/><line style="stroke:#181818;stroke-width:1.0;" x1="555" x2="555" y1="780.5156" y2="821.918"/><polygon fill="#181818" points="551,811.918,555,821.918,559,811.918,555,815.918" style="stroke:#181818;stroke-width:1.0;"/><line style="stroke:#181818;stroke-width:1.0;" x1="555" x2="555" y1="989.4336" y2="1012.8359"/><polygon fill="#181818" points="551,1002.8359,555,1012.8359,559,1002.8359,555,1006.8359" style="stroke:#181818;stroke-width:1.0;"/><line style="stroke:#181818;stroke-width:1.0;" x1="139.5" x2="555" y1="1012.8359" y2="1012.8359"/><line style="stroke:#181818;stroke-width:1.0;" x1="335.5" x2="335.5" y1="1012.8359" y2="1044.8359"/><polygon fill="#181818" points="331.5,1034.8359,335.5,1044.8359,339.5,1034.8359,335.5,1038.8359" style="stroke:#181818;stroke-width:1.0;"/><line style="stroke:#181818;stroke-width:1.0;" x1="335.5" x2="335.5" y1="1078.8047" y2="1098.8047"/><polygon fill="#181818" points="331.5,1088.8047,335.5,1098.8047,339.5,1088.8047,335.5,1092.8047" style="stroke:#181818;stroke-width:1.0;"/><line style="stroke:#181818;stroke-width:1.0;" x1="335.5" x2="335.5" y1="1132.7734" y2="1152.7734"/><polygon fill="#181818" points="331.5,1142.7734,335.5,1152.7734,339.5,1142.7734,335.5,1146.7734" style="stroke:#181818;stroke-width:1.0;"/><line style="stroke:#181818;stroke-width:1.0;" x1="335.5" x2="335.5" y1="1186.7422" y2="1206.7422"/><polygon fill="#181818" points="331.5,1196.7422,335.5,1206.7422,339.5,1196.7422,335.5,1200.7422" style="stroke:#181818;stroke-width:1.0;"/><!--SRC=[XLNDJXDH5DxFKzomiWjUW5aOThX5Nu344fiG838xOz9EBJJ1f9gGQ4mKCJx0s7QadSwKLpZtZVo-S-zCxmZeea3FFJ_V-Svt3aalEUeQkRPzMTjpoUt03epSuUj2AZkngIpinEpjRyEIsx7aKk5b6KLdoS7h9DhPspS8JAMmVNifKydWbI81_gZWlBBlZHrglWolAnTl9t4KdIA-b_HEZisMVBINA9pI2zKS4ZWMacsPDv4nEnxWG4fMitt3DvHCyVK2leKQ4387kZcUy23J6A6zG_D4lWVOSw9RjnCKaZ_jcEHLznZErmYTsn5_0chQGH8Yk8BXLzW5CqqDygwPPnlc1Pk8lVy7cIgAKj4i21Fu2rXoetHKyXlcFe7gDoHaRFVehEjGV_LOMsYCJ_-DfAFcMdbsS9hHeHZ6XxTbWmOOHp2Y5CZbJ4aJV2fGFshgicYcHHtsJb2DjOWuvKn3DUJnFOgS5rupRQ1KE66JnozxXz7RjWgkg1ruGJI49KkZ8HcPbTj7bS02A-rsnhdIUk4ocTrdySCnKvL9Zg_lT1OpFA6PZMnsvCPhjatl73mEuRvWJ_T5bz4Sr4HyZj-59zLmJqYEMZ45AOrEN_C0uAAE_iB1Gav3ii74Vch0e0WApUr5mKN3fumVO5IM5AMEPB9HVWZQ3XsrghdFIi7CPy__6dIm97eXPgYR4JR7NMi52f9RpaqtiwPEfS4Do56raJmlmKPXzPbmT0KLnfkxuRnlz3oDb69Mk0q9qWRTahB1lgCctAnmULhOVtAPfIJjpMug6hrnsbZs6684JNrtPNZfl3VQhpJVAc159vkwmm5JuSRlLv7hL8lRJvcRuMxaNLjUTGEVk75ExJex5KhPS77Eurr3-g7dFcrcpURyLGYMckTGBndIkQta6NF_8FGpQotqlpkrGmHdUZS7lkkSyEBeFpFTVV4yVYItDZR60n6gjeAxiQ7rB3av_GC0]--></g></svg>