<svg xmlns="http://www.w3.org/2000/svg" xmlns:xlink="http://www.w3.org/1999/xlink" contentStyleType="text/css" height="980px" preserveAspectRatio="none" style="width:523px;height:980px;background:#FFFFFF;" version="1.1" viewBox="0 0 523 980" width="523px" zoomAndPan="magnify"><defs/><g><text fill="#000000" font-family="sans-serif" font-size="14" font-weight="bold" lengthAdjust="spacing" textLength="340" x="84.5" y="22.9951">&#1050;&#1083;&#1072;&#1089;&#1089;&#1099; &#1084;&#1086;&#1076;&#1091;&#1083;&#1103; &#1091;&#1087;&#1088;&#1072;&#1074;&#1083;&#1077;&#1085;&#1080;&#1103; &#1082;&#1072;&#1085;&#1076;&#1080;&#1076;&#1072;&#1090;&#1072;&#1084;&#1080;</text><!--class Vacancy--><g id="elem_Vacancy"><rect codeLine="3" fill="#F1F1F1" height="178.375" id="Vacancy" rx="2.5" ry="2.5" style="stroke:#181818;stroke-width:0.5;" width="245" x="271" y="44.2969"/><ellipse cx="360.75" cy="60.2969" fill="#ADD1B2" rx="11" ry="11" style="stroke:#181818;stroke-width:1.0;"/><path d="M363.7188,65.9375 Q363.1406,66.2344 362.5,66.375 Q361.8594,66.5313 361.1563,66.5313 Q358.6563,66.5313 357.3281,64.8906 Q356.0156,63.2344 356.0156,60.1094 Q356.0156,56.9844 357.3281,55.3281 Q358.6563,53.6719 361.1563,53.6719 Q361.8594,53.6719 362.5,53.8281 Q363.1563,53.9844 363.7188,54.2813 L363.7188,57 Q363.0938,56.4219 362.5,56.1563 Q361.9063,55.875 361.2813,55.875 Q359.9375,55.875 359.25,56.9531 Q358.5625,58.0156 358.5625,60.1094 Q358.5625,62.2031 359.25,63.2813 Q359.9375,64.3438 361.2813,64.3438 Q361.9063,64.3438 362.5,64.0781 Q363.0938,63.7969 363.7188,63.2188 L363.7188,65.9375 Z " fill="#000000"/><text fill="#000000" font-family="sans-serif" font-size="14" lengthAdjust="spacing" textLength="57" x="381.25" y="65.1436">Vacancy</text><line style="stroke:#181818;stroke-width:0.5;" x1="272" x2="515" y1="76.2969" y2="76.2969"/><rect fill="none" height="6" style="stroke:#C82930;stroke-width:1.0;" width="6" x="279" y="86.9453"/><text fill="#000000" font-family="sans-serif" font-size="14" lengthAdjust="spacing" textLength="110" x="291" y="93.292">vacancyId: UUID</text><rect fill="none" height="6" style="stroke:#C82930;stroke-width:1.0;" width="6" x="279" y="103.2422"/><text fill="#000000" font-family="sans-serif" font-size="14" lengthAdjust="spacing" textLength="73" x="291" y="109.5889">title: string</text><rect fill="none" height="6" style="stroke:#C82930;stroke-width:1.0;" width="6" x="279" y="119.5391"/><text fill="#000000" font-family="sans-serif" font-size="14" lengthAdjust="spacing" textLength="129" x="291" y="125.8857">department: string</text><rect fill="none" height="6" style="stroke:#C82930;stroke-width:1.0;" width="6" x="279" y="135.8359"/><text fill="#000000" font-family="sans-serif" font-size="14" lengthAdjust="spacing" textLength="141" x="291" y="142.1826">hiringManager: UUID</text><rect fill="none" height="6" style="stroke:#C82930;stroke-width:1.0;" width="6" x="279" y="152.1328"/><text fill="#000000" font-family="sans-serif" font-size="14" lengthAdjust="spacing" textLength="153" x="291" y="158.4795">status: VacancyStatus</text><rect fill="none" height="6" style="stroke:#C82930;stroke-width:1.0;" width="6" x="279" y="168.4297"/><text fill="#000000" font-family="sans-serif" font-size="14" lengthAdjust="spacing" textLength="219" x="291" y="174.7764">requirements: Map&lt;string, int&gt;</text><line style="stroke:#181818;stroke-width:0.5;" x1="272" x2="515" y1="182.0781" y2="182.0781"/><ellipse cx="282" cy="195.7266" fill="#84BE84" rx="3" ry="3" style="stroke:#038048;stroke-width:1.0;"/><text fill="#000000" font-family="sans-serif" font-size="14" lengthAdjust="spacing" textLength="152" x="291" y="199.0732">getActiveCandidates()</text><ellipse cx="282" cy="212.0234" fill="#84BE84" rx="3" ry="3" style="stroke:#038048;stroke-width:1.0;"/><text fill="#000000" font-family="sans-serif" font-size="14" lengthAdjust="spacing" textLength="122" x="291" y="215.3701">getHiringMetrics()</text></g><!--class Candidate--><g id="elem_Candidate"><rect codeLine="14" fill="#F1F1F1" height="194.6719" id="Candidate" rx="2.5" ry="2.5" style="stroke:#181818;stroke-width:0.5;" width="204" x="214.5" y="283.6769"/><ellipse cx="277.25" cy="299.6769" fill="#ADD1B2" rx="11" ry="11" style="stroke:#181818;stroke-width:1.0;"/><path d="M280.2188,305.3175 Q279.6406,305.6144 279,305.755 Q278.3594,305.9113 277.6563,305.9113 Q275.1563,305.9113 273.8281,304.2706 Q272.5156,302.6144 272.5156,299.4894 Q272.5156,296.3644 273.8281,294.7081 Q275.1563,293.0519 277.6563,293.0519 Q278.3594,293.0519 279,293.2081 Q279.6563,293.3644 280.2188,293.6613 L280.2188,296.38 Q279.5938,295.8019 279,295.5363 Q278.4063,295.255 277.7813,295.255 Q276.4375,295.255 275.75,296.3331 Q275.0625,297.3956 275.0625,299.4894 Q275.0625,301.5831 275.75,302.6613 Q276.4375,303.7238 277.7813,303.7238 Q278.4063,303.7238 279,303.4581 Q279.5938,303.1769 280.2188,302.5988 L280.2188,305.3175 Z " fill="#000000"/><text fill="#000000" font-family="sans-serif" font-size="14" lengthAdjust="spacing" textLength="70" x="297.75" y="304.5236">Candidate</text><line style="stroke:#181818;stroke-width:0.5;" x1="215.5" x2="417.5" y1="315.6769" y2="315.6769"/><rect fill="none" height="6" style="stroke:#C82930;stroke-width:1.0;" width="6" x="222.5" y="326.3253"/><text fill="#000000" font-family="sans-serif" font-size="14" lengthAdjust="spacing" textLength="123" x="234.5" y="332.672">candidateId: UUID</text><rect fill="none" height="6" style="stroke:#C82930;stroke-width:1.0;" width="6" x="222.5" y="342.6222"/><text fill="#000000" font-family="sans-serif" font-size="14" lengthAdjust="spacing" textLength="110" x="234.5" y="348.9689">vacancyId: UUID</text><rect fill="none" height="6" style="stroke:#C82930;stroke-width:1.0;" width="6" x="222.5" y="358.9191"/><text fill="#000000" font-family="sans-serif" font-size="14" lengthAdjust="spacing" textLength="178" x="234.5" y="365.2657">currentStage: HiringStage</text><rect fill="none" height="6" style="stroke:#C82930;stroke-width:1.0;" width="6" x="222.5" y="375.2159"/><text fill="#000000" font-family="sans-serif" font-size="14" lengthAdjust="spacing" textLength="89" x="234.5" y="381.5626">aiScore: float</text><rect fill="none" height="6" style="stroke:#C82930;stroke-width:1.0;" width="6" x="222.5" y="391.5128"/><text fill="#000000" font-family="sans-serif" font-size="14" lengthAdjust="spacing" textLength="177" x="234.5" y="397.8595">hrDecision: DecisionType</text><rect fill="none" height="6" style="stroke:#C82930;stroke-width:1.0;" width="6" x="222.5" y="407.8097"/><text fill="#000000" font-family="sans-serif" font-size="14" lengthAdjust="spacing" textLength="159" x="234.5" y="414.1564">lastUpdated: DateTime</text><line style="stroke:#181818;stroke-width:0.5;" x1="215.5" x2="417.5" y1="421.4581" y2="421.4581"/><ellipse cx="225.5" cy="435.1066" fill="#84BE84" rx="3" ry="3" style="stroke:#038048;stroke-width:1.0;"/><text fill="#000000" font-family="sans-serif" font-size="14" lengthAdjust="spacing" textLength="137" x="234.5" y="438.4532">moveToNextStage()</text><ellipse cx="225.5" cy="451.4034" fill="#84BE84" rx="3" ry="3" style="stroke:#038048;stroke-width:1.0;"/><text fill="#000000" font-family="sans-serif" font-size="14" lengthAdjust="spacing" textLength="103" x="234.5" y="454.7501">getFullHistory()</text><ellipse cx="225.5" cy="467.7003" fill="#84BE84" rx="3" ry="3" style="stroke:#038048;stroke-width:1.0;"/><text fill="#000000" font-family="sans-serif" font-size="14" lengthAdjust="spacing" textLength="138" x="234.5" y="471.047">compareWith(other)</text></g><!--class HiringWorkflow--><g id="elem_HiringWorkflow"><rect codeLine="26" fill="#F1F1F1" height="162.0781" id="HiringWorkflow" rx="2.5" ry="2.5" style="stroke:#181818;stroke-width:0.5;" width="278" x="147.5" y="811.0169"/><ellipse cx="231.75" cy="827.0169" fill="#ADD1B2" rx="11" ry="11" style="stroke:#181818;stroke-width:1.0;"/><path d="M234.7188,832.6575 Q234.1406,832.9544 233.5,833.095 Q232.8594,833.2512 232.1563,833.2512 Q229.6563,833.2512 228.3281,831.6106 Q227.0156,829.9544 227.0156,826.8294 Q227.0156,823.7044 228.3281,822.0481 Q229.6563,820.3919 232.1563,820.3919 Q232.8594,820.3919 233.5,820.5481 Q234.1563,820.7044 234.7188,821.0012 L234.7188,823.72 Q234.0938,823.1419 233.5,822.8762 Q232.9063,822.595 232.2813,822.595 Q230.9375,822.595 230.25,823.6731 Q229.5625,824.7356 229.5625,826.8294 Q229.5625,828.9231 230.25,830.0012 Q230.9375,831.0637 232.2813,831.0637 Q232.9063,831.0637 233.5,830.7981 Q234.0938,830.5169 234.7188,829.9387 L234.7188,832.6575 Z " fill="#000000"/><text fill="#000000" font-family="sans-serif" font-size="14" lengthAdjust="spacing" textLength="101" x="252.25" y="831.8636">HiringWorkflow</text><line style="stroke:#181818;stroke-width:0.5;" x1="148.5" x2="424.5" y1="843.0169" y2="843.0169"/><rect fill="none" height="6" style="stroke:#C82930;stroke-width:1.0;" width="6" x="155.5" y="853.6653"/><text fill="#000000" font-family="sans-serif" font-size="14" lengthAdjust="spacing" textLength="115" x="167.5" y="860.012">workflowId: UUID</text><rect fill="none" height="6" style="stroke:#C82930;stroke-width:1.0;" width="6" x="155.5" y="869.9622"/><text fill="#000000" font-family="sans-serif" font-size="14" lengthAdjust="spacing" textLength="110" x="167.5" y="876.3089">vacancyId: UUID</text><rect fill="none" height="6" style="stroke:#C82930;stroke-width:1.0;" width="6" x="155.5" y="886.2591"/><text fill="#000000" font-family="sans-serif" font-size="14" lengthAdjust="spacing" textLength="143" x="167.5" y="892.6057">stages: List&lt;Stage&gt;</text><rect fill="none" height="6" style="stroke:#C82930;stroke-width:1.0;" width="6" x="155.5" y="902.5559"/><text fill="#000000" font-family="sans-serif" font-size="14" lengthAdjust="spacing" textLength="222" x="167.5" y="908.9026">transitions: Map&lt;Stage, Stage&gt;</text><rect fill="none" height="6" style="stroke:#C82930;stroke-width:1.0;" width="6" x="155.5" y="918.8528"/><text fill="#000000" font-family="sans-serif" font-size="14" lengthAdjust="spacing" textLength="252" x="167.5" y="925.1995">automations: List&lt;AutomationRule&gt;</text><line style="stroke:#181818;stroke-width:0.5;" x1="148.5" x2="424.5" y1="932.5012" y2="932.5012"/><ellipse cx="158.5" cy="946.1497" fill="#84BE84" rx="3" ry="3" style="stroke:#038048;stroke-width:1.0;"/><text fill="#000000" font-family="sans-serif" font-size="14" lengthAdjust="spacing" textLength="154" x="167.5" y="949.4964">getNextStage(current)</text><ellipse cx="158.5" cy="962.4466" fill="#84BE84" rx="3" ry="3" style="stroke:#038048;stroke-width:1.0;"/><text fill="#000000" font-family="sans-serif" font-size="14" lengthAdjust="spacing" textLength="201" x="167.5" y="965.7932">applyAutomations(candidate)</text></g><!--class HRDecision--><g id="elem_HRDecision"><rect codeLine="36" fill="#F1F1F1" height="194.6719" id="HRDecision" rx="2.5" ry="2.5" style="stroke:#181818;stroke-width:0.5;" width="187" x="7" y="539.3469"/><ellipse cx="56.25" cy="555.3469" fill="#ADD1B2" rx="11" ry="11" style="stroke:#181818;stroke-width:1.0;"/><path d="M59.2188,560.9875 Q58.6406,561.2844 58,561.425 Q57.3594,561.5813 56.6563,561.5813 Q54.1563,561.5813 52.8281,559.9406 Q51.5156,558.2844 51.5156,555.1594 Q51.5156,552.0344 52.8281,550.3781 Q54.1563,548.7219 56.6563,548.7219 Q57.3594,548.7219 58,548.8781 Q58.6563,549.0344 59.2188,549.3313 L59.2188,552.05 Q58.5938,551.4719 58,551.2063 Q57.4063,550.925 56.7813,550.925 Q55.4375,550.925 54.75,552.0031 Q54.0625,553.0656 54.0625,555.1594 Q54.0625,557.2531 54.75,558.3313 Q55.4375,559.3938 56.7813,559.3938 Q57.4063,559.3938 58,559.1281 Q58.5938,558.8469 59.2188,558.2688 L59.2188,560.9875 Z " fill="#000000"/><text fill="#000000" font-family="sans-serif" font-size="14" lengthAdjust="spacing" textLength="80" x="76.75" y="560.1936">HRDecision</text><line style="stroke:#181818;stroke-width:0.5;" x1="8" x2="193" y1="571.3469" y2="571.3469"/><rect fill="none" height="6" style="stroke:#C82930;stroke-width:1.0;" width="6" x="15" y="581.9953"/><text fill="#000000" font-family="sans-serif" font-size="14" lengthAdjust="spacing" textLength="113" x="27" y="588.342">decisionId: UUID</text><rect fill="none" height="6" style="stroke:#C82930;stroke-width:1.0;" width="6" x="15" y="598.2922"/><text fill="#000000" font-family="sans-serif" font-size="14" lengthAdjust="spacing" textLength="123" x="27" y="604.6389">candidateId: UUID</text><rect fill="none" height="6" style="stroke:#C82930;stroke-width:1.0;" width="6" x="15" y="614.5891"/><text fill="#000000" font-family="sans-serif" font-size="14" lengthAdjust="spacing" textLength="99" x="27" y="620.9357">madeBy: UUID</text><rect fill="none" height="6" style="stroke:#C82930;stroke-width:1.0;" width="6" x="15" y="630.8859"/><text fill="#000000" font-family="sans-serif" font-size="14" lengthAdjust="spacing" textLength="161" x="27" y="637.2326">decision: DecisionType</text><rect fill="none" height="6" style="stroke:#C82930;stroke-width:1.0;" width="6" x="15" y="647.1828"/><text fill="#000000" font-family="sans-serif" font-size="14" lengthAdjust="spacing" textLength="149" x="27" y="653.5295">timestamp: DateTime</text><rect fill="none" height="6" style="stroke:#C82930;stroke-width:1.0;" width="6" x="15" y="663.4797"/><text fill="#000000" font-family="sans-serif" font-size="14" lengthAdjust="spacing" textLength="96" x="27" y="669.8264">reason: string</text><rect fill="none" height="6" style="stroke:#C82930;stroke-width:1.0;" width="6" x="15" y="679.7766"/><text fill="#000000" font-family="sans-serif" font-size="14" lengthAdjust="spacing" textLength="115" x="27" y="686.1232">confidence: float</text><line style="stroke:#181818;stroke-width:0.5;" x1="8" x2="193" y1="693.425" y2="693.425"/><ellipse cx="18" cy="707.0734" fill="#84BE84" rx="3" ry="3" style="stroke:#038048;stroke-width:1.0;"/><text fill="#000000" font-family="sans-serif" font-size="14" lengthAdjust="spacing" textLength="52" x="27" y="710.4201">isFinal()</text><ellipse cx="18" cy="723.3703" fill="#84BE84" rx="3" ry="3" style="stroke:#038048;stroke-width:1.0;"/><text fill="#000000" font-family="sans-serif" font-size="14" lengthAdjust="spacing" textLength="120" x="27" y="726.717">canBeReversed()</text></g><!--class InterviewSchedule--><g id="elem_InterviewSchedule"><rect codeLine="48" fill="#F1F1F1" height="194.6719" id="InterviewSchedule" rx="2.5" ry="2.5" style="stroke:#181818;stroke-width:0.5;" width="189" x="229" y="539.3469"/><ellipse cx="257.95" cy="555.3469" fill="#ADD1B2" rx="11" ry="11" style="stroke:#181818;stroke-width:1.0;"/><path d="M260.9188,560.9875 Q260.3406,561.2844 259.7,561.425 Q259.0594,561.5813 258.3563,561.5813 Q255.8563,561.5813 254.5281,559.9406 Q253.2156,558.2844 253.2156,555.1594 Q253.2156,552.0344 254.5281,550.3781 Q255.8563,548.7219 258.3563,548.7219 Q259.0594,548.7219 259.7,548.8781 Q260.3563,549.0344 260.9188,549.3313 L260.9188,552.05 Q260.2938,551.4719 259.7,551.2063 Q259.1063,550.925 258.4813,550.925 Q257.1375,550.925 256.45,552.0031 Q255.7625,553.0656 255.7625,555.1594 Q255.7625,557.2531 256.45,558.3313 Q257.1375,559.3938 258.4813,559.3938 Q259.1063,559.3938 259.7,559.1281 Q260.2938,558.8469 260.9188,558.2688 L260.9188,560.9875 Z " fill="#000000"/><text fill="#000000" font-family="sans-serif" font-size="14" lengthAdjust="spacing" textLength="126" x="275.05" y="560.1936">InterviewSchedule</text><line style="stroke:#181818;stroke-width:0.5;" x1="230" x2="417" y1="571.3469" y2="571.3469"/><rect fill="none" height="6" style="stroke:#C82930;stroke-width:1.0;" width="6" x="237" y="581.9953"/><text fill="#000000" font-family="sans-serif" font-size="14" lengthAdjust="spacing" textLength="119" x="249" y="588.342">scheduleId: UUID</text><rect fill="none" height="6" style="stroke:#C82930;stroke-width:1.0;" width="6" x="237" y="598.2922"/><text fill="#000000" font-family="sans-serif" font-size="14" lengthAdjust="spacing" textLength="123" x="249" y="604.6389">candidateId: UUID</text><rect fill="none" height="6" style="stroke:#C82930;stroke-width:1.0;" width="6" x="237" y="614.5891"/><text fill="#000000" font-family="sans-serif" font-size="14" lengthAdjust="spacing" textLength="130" x="249" y="620.9357">interviewerId: UUID</text><rect fill="none" height="6" style="stroke:#C82930;stroke-width:1.0;" width="6" x="237" y="630.8859"/><text fill="#000000" font-family="sans-serif" font-size="14" lengthAdjust="spacing" textLength="163" x="249" y="637.2326">scheduledAt: DateTime</text><rect fill="none" height="6" style="stroke:#C82930;stroke-width:1.0;" width="6" x="237" y="647.1828"/><text fill="#000000" font-family="sans-serif" font-size="14" lengthAdjust="spacing" textLength="83" x="249" y="653.5295">duration: int</text><rect fill="none" height="6" style="stroke:#C82930;stroke-width:1.0;" width="6" x="237" y="663.4797"/><text fill="#000000" font-family="sans-serif" font-size="14" lengthAdjust="spacing" textLength="132" x="249" y="669.8264">meetingLink: string</text><rect fill="none" height="6" style="stroke:#C82930;stroke-width:1.0;" width="6" x="237" y="679.7766"/><text fill="#000000" font-family="sans-serif" font-size="14" lengthAdjust="spacing" textLength="161" x="249" y="686.1232">status: ScheduleStatus</text><line style="stroke:#181818;stroke-width:0.5;" x1="230" x2="417" y1="693.425" y2="693.425"/><ellipse cx="240" cy="707.0734" fill="#84BE84" rx="3" ry="3" style="stroke:#038048;stroke-width:1.0;"/><text fill="#000000" font-family="sans-serif" font-size="14" lengthAdjust="spacing" textLength="114" x="249" y="710.4201">sendInvitations()</text><ellipse cx="240" cy="723.3703" fill="#84BE84" rx="3" ry="3" style="stroke:#038048;stroke-width:1.0;"/><text fill="#000000" font-family="sans-serif" font-size="14" lengthAdjust="spacing" textLength="88" x="249" y="726.717">reschedule()</text></g><!--reverse link Vacancy to Candidate--><g id="link_Vacancy_Candidate"><path codeLine="60" d="M362.1083,234.5768 C355.9883,254.0868 353.08,263.3869 346.86,283.1969 " fill="none" id="Vacancy-backto-Candidate" style="stroke:#181818;stroke-width:1.0;"/><polygon fill="#181818" points="365.7,223.1269,360.0875,227.6546,362.1083,234.5768,367.7208,230.049,365.7,223.1269" style="stroke:#181818;stroke-width:1.0;"/><text fill="#000000" font-family="sans-serif" font-size="13" lengthAdjust="spacing" textLength="8" x="355.2653" y="242.6363">1</text><text fill="#000000" font-family="sans-serif" font-size="13" lengthAdjust="spacing" textLength="23" x="325.245" y="272.5345">0..*</text></g><!--reverse link Vacancy to HiringWorkflow--><g id="link_Vacancy_HiringWorkflow"><path codeLine="61" d="M426.3825,234.5791 C461.4025,354.9391 503.64,563.2069 435.5,734.0169 C424.22,762.2969 405.16,788.3969 384.38,810.8769 " fill="none" id="Vacancy-backto-HiringWorkflow" style="stroke:#181818;stroke-width:1.0;"/><polygon fill="#181818" points="423.03,223.0569,420.8655,229.9355,426.3825,234.5791,428.547,227.7005,423.03,223.0569" style="stroke:#181818;stroke-width:1.0;"/><text fill="#000000" font-family="sans-serif" font-size="13" lengthAdjust="spacing" textLength="8" x="417.0644" y="242.8645">1</text><text fill="#000000" font-family="sans-serif" font-size="13" lengthAdjust="spacing" textLength="8" x="384.7412" y="800.0517">1</text></g><!--reverse link Candidate to HRDecision--><g id="link_Candidate_HRDecision"><path codeLine="62" d="M226.4399,487.7731 C209.6299,507.5131 199.72,519.1569 182.91,538.9069 " fill="none" id="Candidate-backto-HRDecision" style="stroke:#181818;stroke-width:1.0;"/><polygon fill="#181818" points="234.22,478.6369,227.2846,480.6116,226.4399,487.7731,233.3753,485.7983,234.22,478.6369" style="stroke:#181818;stroke-width:1.0;"/><text fill="#000000" font-family="sans-serif" font-size="13" lengthAdjust="spacing" textLength="8" x="219.8838" y="498.4287">1</text><text fill="#000000" font-family="sans-serif" font-size="13" lengthAdjust="spacing" textLength="23" x="165.1175" y="528.2474">0..*</text></g><!--reverse link Candidate to InterviewSchedule--><g id="link_Candidate_InterviewSchedule"><path codeLine="63" d="M319.4981,490.6324 C320.0381,510.3724 320.28,519.1569 320.83,538.9069 " fill="none" id="Candidate-backto-InterviewSchedule" style="stroke:#181818;stroke-width:1.0;"/><polygon fill="#181818" points="319.17,478.6369,315.3356,484.744,319.4981,490.6324,323.3326,484.5252,319.17,478.6369" style="stroke:#181818;stroke-width:1.0;"/><text fill="#000000" font-family="sans-serif" font-size="13" lengthAdjust="spacing" textLength="8" x="311.0723" y="498.4287">1</text><text fill="#000000" font-family="sans-serif" font-size="13" lengthAdjust="spacing" textLength="23" x="296.7894" y="528.2474">0..*</text></g><!--link HRDecision to HiringWorkflow--><g id="link_HRDecision_HiringWorkflow"><path codeLine="64" d="M171.35,734.1969 C189.93,759.5069 206.2198,781.69 224.0998,806.05 " fill="none" id="HRDecision-to-HiringWorkflow" style="stroke:#181818;stroke-width:1.0;"/><polygon fill="#181818" points="227.65,810.8869,225.5492,801.2647,224.6915,806.8561,219.1,805.9983,227.65,810.8869" style="stroke:#181818;stroke-width:1.0;"/><text fill="#000000" font-family="sans-serif" font-size="13" lengthAdjust="spacing" textLength="83" x="205.64" y="777.0838">affects stage</text><text fill="#000000" font-family="sans-serif" font-size="13" lengthAdjust="spacing" textLength="8" x="168.2593" y="753.9806">1</text><text fill="#000000" font-family="sans-serif" font-size="13" lengthAdjust="spacing" textLength="8" x="214.0524" y="800.0626">1</text></g><!--SRC=[ZLJDJjj04BxdALOvKI2elLe8AJH2H88U-2ddrUuaMM6ltTsnQLHLwi-nXzxx516Y4YhGliBcZJhshcCRWbf5aJq_EzzyyyqQ5SR0t0ztvnRBp_Jxnjoz- -rkbb_TtV8xeyUVvIUtSDUKyTCzk5jokb_aU70txfR-Y-KNikxTRQydOcujUyi5rsBEFlGO6x32MsCPiVFpyQZoOGaQCOj6wMdbaP1nWmbexBXdgdmzvffFmRGAMEIOswY6EgtCAcBWNQuCb9KeViopNLzkcocDUvIonQQ0Gu6gWDTSIoKvWjruKKSEFIBG8L6wFzQiLic1bwZj3hDrR4Lk3BL3JKw9j0UeZ2hArQb83GKcSShHipOZ4CggL4UiVZkRPpwVci7ph0GcZ14zpbG2LVT9Mi1P-WRUUwY6qq4UnuVAOchcmIdIXEOD5mfd6odEmBI8-WOlKdD97Lq5jbV1_2TPMqBJv8y8RxVgOyzBRhYs2eb9aAMARRDM2iynJNX8gSuFLvwJF8QLUWt5C5fFYcTPF6-Es8sLH6rs9_L40pCPpAvaQyLDk8JzUSiXdvS9IHMQHP9rH2htazloG6l9HQedIe8MhINOOieUACtZMZ2kz-442Z0MP7ijnnh150gkJiKC94qfqBB1_0zQgYu1fYjbA267-8Y4p4qrugWywqS3WCJdIEdB3hVwejRThMxg5hEWvLWN2eDQdgY16jQph3yc_LTzjZaOiFxBdPtDVdCRdoRGixl2lURgFghIBCFpEKy6t6kjK9ax6Eoj0MKHuvC92BJ-Ilm5]--></g></svg>