<svg xmlns="http://www.w3.org/2000/svg" xmlns:xlink="http://www.w3.org/1999/xlink" width="964pt" height="360pt" viewBox="0.0 0.0 964.0 360.0" id="preview">
<style type="text/css">
  svg {
    background-color: white;
  }
  text {
    font-family: "Helvetica Neue", Helvetica, Arial, sans-serif;
    font-size: 12px;
  }
</style>
<g>
  <rect x="318" y="120" width="304" height="100" fill="none" stroke="black"/>
<text text-anchor="middle" x="470" y="170">Управление кандидатами и принятие HR-решений</text>

  <line x1="20" y1="190" x2="318" y2="190" stroke="black" stroke-dasharray="5,5"/>
<polygon fill="black" stroke="black" points="318,190 312,193 312,187 318,190"/>
<text text-anchor="start" x="25" y="185">Структурированные отчеты по кандидатам</text>

<line x1="20" y1="170" x2="318" y2="170" stroke="black" stroke-dasharray="5,5"/>
<polygon fill="black" stroke="black" points="318,170 312,173 312,167 318,170"/>
<text text-anchor="start" x="25" y="165">Заявки на вакансии из ATS</text>

<line x1="20" y1="150" x2="318" y2="150" stroke="black" stroke-dasharray="5,5"/>
<polygon fill="black" stroke="black" points="318,150 312,153 312,147 318,150"/>
<text text-anchor="start" x="25" y="145">Запросы и фильтры от HR</text>

<line x1="622" y1="160" x2="944" y2="160" stroke="black" stroke-dasharray="5,5"/>
<polygon fill="black" stroke="black" points="944,160 938,163 938,157 944,160"/>
<text text-anchor="end" x="939" y="155">Ранжированные списки кандидатов</text>

<line x1="622" y1="180" x2="944" y2="180" stroke="black" stroke-dasharray="5,5"/>
<polygon fill="black" stroke="black" points="944,180 938,183 938,177 944,180"/>
<text text-anchor="end" x="939" y="175">Решения по кандидатам (одобрить/отклонить)</text>

<line x1="622" y1="140" x2="944" y2="140" stroke="black" stroke-dasharray="5,5"/>
<polygon fill="black" stroke="black" points="944,140 938,143 938,137 944,140"/>
<text text-anchor="end" x="939" y="135">Аналитика по процессу найма</text>

<line x1="622" y1="200" x2="944" y2="200" stroke="black" stroke-dasharray="5,5"/>
<polygon fill="black" stroke="black" points="944,200 938,203 938,197 944,200"/>
<text text-anchor="end" x="939" y="195">Экспорт данных в ATS</text>

<line x1="470" y1="60" x2="470" y2="120" stroke="black" stroke-dasharray="5,5"/>
<polygon fill="black" stroke="black" points="470,120 467,114 473,114 470,120"/>
<text text-anchor="middle" x="470" y="55">Бюджет найма и лимиты</text>

<line x1="490" y1="80" x2="490" y2="120" stroke="black" stroke-dasharray="5,5"/>
<polygon fill="black" stroke="black" points="490,120 487,114 493,114 490,120"/>
<text text-anchor="middle" x="490" y="75">Приоритеты вакансий</text>

<line x1="450" y1="40" x2="450" y2="120" stroke="black" stroke-dasharray="5,5"/>
<polygon fill="black" stroke="black" points="450,120 447,114 453,114 450,120"/>
<text text-anchor="middle" x="450" y="35">SLA</text>

<line x1="440" y1="300" x2="440" y2="220" stroke="black" stroke-dasharray="5,5"/>
<polygon fill="black" stroke="black" points="440,220 437,226 443,226 440,220"/>
<text text-anchor="middle" x="440" y="315">Swipe-интерфейс (Vue+Tauri)</text>

<line x1="460" y1="280" x2="460" y2="220" stroke="black" stroke-dasharray="5,5"/>
<polygon fill="black" stroke="black" points="460,220 457,226 463,226 460,220"/>
<text text-anchor="middle" x="460" y="295">Интеграция с ATS (1C, Workable)</text>

<line x1="500" y1="260" x2="500" y2="220" stroke="black" stroke-dasharray="5,5"/>
<polygon fill="black" stroke="black" points="500,220 497,226 503,226 500,220"/>
<text text-anchor="middle" x="500" y="275">Система уведомлений</text>

<line x1="480" y1="320" x2="480" y2="220" stroke="black" stroke-dasharray="5,5"/>
<polygon fill="black" stroke="black" points="480,220 477,226 483,226 480,220"/>
<text text-anchor="middle" x="480" y="335">Панель аналитики</text>

</g>
</svg>