<svg xmlns="http://www.w3.org/2000/svg" xmlns:xlink="http://www.w3.org/1999/xlink" width="970pt" height="480pt" viewBox="0.0 0.0 970.0 480.0" id="preview">
<style type="text/css">
  svg {
    background-color: white;
  }
  text {
    font-family: "Helvetica Neue", Helvetica, Arial, sans-serif;
    font-size: 12px;
  }
</style>
<g>
  <rect x="342" y="120" width="256" height="80" fill="none" stroke="black"/>
<text text-anchor="middle" x="470" y="160">Организация и проведение AI-интервью</text>

  <line x1="20" y1="160" x2="342" y2="160" stroke="black" stroke-dasharray="5,5"/>
<polygon fill="black" stroke="black" points="342,160 336,163 336,157 342,160"/>
<text text-anchor="start" x="25" y="155">Пригласительная ссылка для кандидата</text>

<line x1="20" y1="180" x2="342" y2="180" stroke="black" stroke-dasharray="5,5"/>
<polygon fill="black" stroke="black" points="342,180 336,183 336,177 342,180"/>
<text text-anchor="start" x="25" y="175">Профиль вакансии (компетенции, требования)</text>

<line x1="20" y1="140" x2="342" y2="140" stroke="black" stroke-dasharray="5,5"/>
<polygon fill="black" stroke="black" points="342,140 336,143 336,137 342,140"/>
<text text-anchor="start" x="25" y="135">Настройки интервью (время, сложность)</text>

<line x1="598" y1="180" x2="950" y2="180" stroke="black" stroke-dasharray="5,5"/>
<polygon fill="black" stroke="black" points="950,180 944,183 944,177 950,180"/>
<text text-anchor="end" x="945" y="175">Сырые данные интервью (текст, эмоции, тайминги)</text>

<line x1="598" y1="140" x2="950" y2="140" stroke="black" stroke-dasharray="5,5"/>
<polygon fill="black" stroke="black" points="950,140 944,143 944,137 950,140"/>
<text text-anchor="end" x="945" y="135">Интерактивный 3D-аватар в реальном времени</text>

<line x1="598" y1="160" x2="950" y2="160" stroke="black" stroke-dasharray="5,5"/>
<polygon fill="black" stroke="black" points="950,160 944,163 944,157 950,160"/>
<text text-anchor="end" x="945" y="155">Статус завершения интервью</text>

<line x1="450" y1="60" x2="450" y2="120" stroke="black" stroke-dasharray="5,5"/>
<polygon fill="black" stroke="black" points="450,120 447,114 453,114 450,120"/>
<text text-anchor="middle" x="450" y="55">Техническое задание на интервью</text>

<line x1="470" y1="80" x2="470" y2="120" stroke="black" stroke-dasharray="5,5"/>
<polygon fill="black" stroke="black" points="470,120 467,114 473,114 470,120"/>
<text text-anchor="middle" x="470" y="75">Требования к задержке (&lt;2 сек)</text>

<line x1="490" y1="40" x2="490" y2="120" stroke="black" stroke-dasharray="5,5"/>
<polygon fill="black" stroke="black" points="490,120 487,114 493,114 490,120"/>
<text text-anchor="middle" x="490" y="35">Этические стандарты взаимодействия</text>

<line x1="450" y1="420" x2="450" y2="200" stroke="black" stroke-dasharray="5,5"/>
<polygon fill="black" stroke="black" points="450,200 447,206 453,206 450,200"/>
<text text-anchor="middle" x="450" y="435">Unity WebAssembly 3D-движок</text>

<line x1="470" y1="400" x2="470" y2="200" stroke="black" stroke-dasharray="5,5"/>
<polygon fill="black" stroke="black" points="470,200 467,206 473,206 470,200"/>
<text text-anchor="middle" x="470" y="415">Whisper (распознавание речи)</text>

<line x1="430" y1="380" x2="430" y2="200" stroke="black" stroke-dasharray="5,5"/>
<polygon fill="black" stroke="black" points="430,200 427,206 433,206 430,200"/>
<text text-anchor="middle" x="430" y="395">Ollama/Qwen3 (генерация вопросов)</text>

<line x1="490" y1="240" x2="490" y2="200" stroke="black" stroke-dasharray="5,5"/>
<polygon fill="black" stroke="black" points="490,200 487,206 493,206 490,200"/>
<text text-anchor="middle" x="490" y="255">Видео-аудио оборудование кандидата</text>

<line x1="510" y1="440" x2="510" y2="200" stroke="black" stroke-dasharray="5,5"/>
<polygon fill="black" stroke="black" points="510,200 507,206 513,206 510,200"/>
<text text-anchor="middle" x="510" y="455">Серверы реального времени</text>

</g>
</svg>