<svg xmlns="http://www.w3.org/2000/svg" xmlns:xlink="http://www.w3.org/1999/xlink" width="2298pt" height="760pt" viewBox="0.0 0.0 2298.0 760.0" id="preview">
<style type="text/css">
  svg {
    background-color: white;
  }
  text {
    font-family: "Helvetica Neue", Helvetica, Arial, sans-serif;
    font-size: 12px;
  }
</style>
<g>
  <rect x="398" y="100" width="232" height="60" fill="none" stroke="black"/>
<text text-anchor="middle" x="514" y="130">ПРИЕМ И РАСПРЕДЕЛЕНИЕ КАНдидАТОВ</text>

<rect x="650" y="200" width="244" height="60" fill="none" stroke="black"/>
<text text-anchor="middle" x="772" y="230">ФОРМИРОВАНИЕ АНАЛИТИКИ ПО ПРОЦЕССУ</text>

<rect x="914" y="300" width="208" height="60" fill="none" stroke="black"/>
<text text-anchor="middle" x="1018" y="330">СИНХРОНИЗАЦИЯ С ВНЕШНИМИ ATS</text>

<rect x="1142" y="400" width="160" height="60" fill="none" stroke="black"/>
<text text-anchor="middle" x="1222" y="430">ОБРАБОТКА РЕШЕНИЙ HR</text>

<rect x="1322" y="500" width="256" height="60" fill="none" stroke="black"/>
<text text-anchor="middle" x="1450" y="530">ПРЕДОСТАВЛЕНИЕ ИНТЕРФЕЙСА ДЛЯ ОЦЕНКИ</text>

<rect x="1598" y="600" width="232" height="60" fill="none" stroke="black"/>
<text text-anchor="middle" x="1714" y="630">ПРИЕМ И РАСПРЕДЕЛЕНИЕ КАНДИДАТОВ</text>

  <line x1="20" y1="230" x2="650" y2="230" stroke="black" stroke-dasharray="5,5"/>
<polygon fill="black" stroke="black" points="650,230 644,233 644,227 650,230"/>
<text text-anchor="start" x="25" y="225">Данные О Кандидатах Решениях HR Метрики Системы</text>

<line x1="20" y1="330" x2="914" y2="330" stroke="black" stroke-dasharray="5,5"/>
<polygon fill="black" stroke="black" points="914,330 908,333 908,327 914,330"/>
<text text-anchor="start" x="25" y="325">Изменения Статусов Данные Кандидатов</text>

<line x1="20" y1="430" x2="1142" y2="430" stroke="black" stroke-dasharray="5,5"/>
<polygon fill="black" stroke="black" points="1142,430 1136,433 1136,427 1142,430"/>
<text text-anchor="start" x="25" y="425">Действия HR Свайпы Оценки Комментарии</text>

<line x1="20" y1="530" x2="1322" y2="530" stroke="black" stroke-dasharray="5,5"/>
<polygon fill="black" stroke="black" points="1322,530 1316,533 1316,527 1322,530"/>
<text text-anchor="start" x="25" y="525">Отчеты По Кандидатам Фильтры HR</text>

<line x1="20" y1="630" x2="1598" y2="630" stroke="black" stroke-dasharray="5,5"/>
<polygon fill="black" stroke="black" points="1598,630 1592,633 1592,627 1598,630"/>
<text text-anchor="start" x="25" y="625">Заявки Из ATS Новые Отчеты AI</text>

<line x1="894" y1="230" x2="2278" y2="230" stroke="black" stroke-dasharray="5,5"/>
<polygon fill="black" stroke="black" points="2278,230 2272,233 2272,227 2278,230"/>
<text text-anchor="end" x="2273" y="225">Дашборды Метрики Time To Hire Конверсия Прогнозные Отчеты</text>

<line x1="1122" y1="330" x2="2278" y2="330" stroke="black" stroke-dasharray="5,5"/>
<polygon fill="black" stroke="black" points="2278,330 2272,333 2272,327 2278,330"/>
<text text-anchor="end" x="2273" y="325">Обновления В 1C Workable Greenhouse Подтверждения Синхронизации</text>

<line x1="1302" y1="430" x2="2278" y2="430" stroke="black" stroke-dasharray="5,5"/>
<polygon fill="black" stroke="black" points="2278,430 2272,433 2272,427 2278,430"/>
<text text-anchor="end" x="2273" y="425">Статусы Кандидатов Комментарии HR Автоматические Уведомления</text>

<line x1="1578" y1="530" x2="2278" y2="530" stroke="black" stroke-dasharray="5,5"/>
<polygon fill="black" stroke="black" points="2278,530 2272,533 2272,527 2278,530"/>
<text text-anchor="end" x="2273" y="525">Swipe Интерфейс С Карточками Детальные Просмотры Отчетов</text>

<line x1="1830" y1="630" x2="2278" y2="630" stroke="black" stroke-dasharray="5,5"/>
<polygon fill="black" stroke="black" points="2278,630 2272,633 2272,627 2278,630"/>
<text text-anchor="end" x="2273" y="625">Ранжированный Пул Кандидатов На Вакансию</text>

<line x1="772" y1="60" x2="772" y2="200" stroke="black" stroke-dasharray="5,5"/>
<polygon fill="black" stroke="black" points="772,200 769,194 775,194 772,200"/>
<text text-anchor="middle" x="772" y="55">Целевые Показатели Сокращение 70% Времени</text>

<line x1="1018" y1="80" x2="1018" y2="300" stroke="black" stroke-dasharray="5,5"/>
<polygon fill="black" stroke="black" points="1018,300 1015,294 1021,294 1018,300"/>
<text text-anchor="middle" x="1018" y="75">API Контракты ATS Карта Трансформации Данных</text>

<line x1="1222" y1="40" x2="1222" y2="400" stroke="black" stroke-dasharray="5,5"/>
<polygon fill="black" stroke="black" points="1222,400 1219,394 1225,394 1222,400"/>
<text text-anchor="middle" x="1222" y="35">Workflow Найма Компании Правила Уведомлений</text>

<line x1="1450" y1="40" x2="1450" y2="500" stroke="black" stroke-dasharray="5,5"/>
<polygon fill="black" stroke="black" points="1450,500 1447,494 1453,494 1450,500"/>
<text text-anchor="middle" x="1450" y="35">Требования UX Простота Скорость</text>

<line x1="1714" y1="40" x2="1714" y2="600" stroke="black" stroke-dasharray="5,5"/>
<polygon fill="black" stroke="black" points="1714,600 1711,594 1717,594 1714,600"/>
<text text-anchor="middle" x="1714" y="35">Приоритеты Вакансий Квоты Найма</text>

<line x1="514" y1="700" x2="514" y2="160" stroke="black" stroke-dasharray="5,5"/>
<polygon fill="black" stroke="black" points="514,160 511,166 517,166 514,160"/>
<text text-anchor="middle" x="514" y="715">Алгоритм Ранжирования Система Распределения PostgreSQL</text>

<line x1="772" y1="680" x2="772" y2="260" stroke="black" stroke-dasharray="5,5"/>
<polygon fill="black" stroke="black" points="772,260 769,266 775,266 772,260"/>
<text text-anchor="middle" x="772" y="695">OLAP Хранилище Библиотеки Визуализации Grafana</text>

<line x1="1018" y1="700" x2="1018" y2="360" stroke="black" stroke-dasharray="5,5"/>
<polygon fill="black" stroke="black" points="1018,360 1015,366 1021,366 1018,360"/>
<text text-anchor="middle" x="1018" y="715">Интеграционные Адаптеры Очередь Сообщений Kafka REST Клиенты</text>

<line x1="1222" y1="680" x2="1222" y2="460" stroke="black" stroke-dasharray="5,5"/>
<polygon fill="black" stroke="black" points="1222,460 1219,466 1225,466 1222,460"/>
<text text-anchor="middle" x="1222" y="695">Движок Workflow Сервис Уведомлений SMTP Telegram API</text>

<line x1="1450" y1="720" x2="1450" y2="560" stroke="black" stroke-dasharray="5,5"/>
<polygon fill="black" stroke="black" points="1450,560 1447,566 1453,566 1450,560"/>
<text text-anchor="middle" x="1450" y="735">Vue Tauri Фронтенд API Отчетов Веб Сервер</text>

</g>
</svg>