<?xml version="1.0" encoding="UTF-8"?>
<svg xmlns="http://www.w3.org/2000/svg" xmlns:xlink="http://www.w3.org/1999/xlink" 
     width="1400" height="1150" viewBox="0 0 1400 1150">
  
  <!-- Стили -->
  <defs>
    <style>
      .pool { fill: #F3E5F5; stroke: #6A1B9A; stroke-width: 2; }
      .pool-label { font-family: Arial; font-size: 14px; font-weight: bold; fill: #6A1B9A; }
      .task { fill: #FFF; stroke: #000; stroke-width: 1.5; rx: 10; ry: 10; }
      .task-text { font-family: Arial; font-size: 11px; fill: #000; text-anchor: middle; }
      .gateway { fill: #FFFFCC; stroke: #000; stroke-width: 1.5; }
      .gateway-text { font-family: Arial; font-size: 10px; fill: #000; text-anchor: middle; }
      .event-start { fill: #FFF; stroke: #000; stroke-width: 1; }
      .event-end { fill: #000; stroke: #000; stroke-width: 3; }
      .event-message { fill: #FFF; stroke: #000; stroke-width: 1; }
      .sequence-flow { fill: none; stroke: #000; stroke-width: 1.5; marker-end: url(#arrowhead); }
      .message-flow { fill: none; stroke: #000; stroke-width: 1.5; stroke-dasharray: 5,5; marker-end: url(#arrowhead-white); }
    </style>
    
    <marker id="arrowhead" markerWidth="10" markerHeight="10" refX="9" refY="3" orient="auto">
      <polygon points="0 0, 10 3, 0 6" fill="#000" />
    </marker>
    <marker id="arrowhead-white" markerWidth="10" markerHeight="10" refX="9" refY="3" orient="auto">
      <polygon points="0 0, 10 3, 0 6" fill="#FFF" stroke="#000" stroke-width="1"/>
    </marker>
  </defs>
  
  <!-- Заголовок -->
  <text x="700" y="30" style="font-family: Arial; font-size: 18px; font-weight: bold; text-anchor: middle;">
    BPMN: Процесс управления кандидатами и HR-решений
  </text>
  
  <!-- Пул 1: HR-менеджер -->
  <rect class="pool" x="50" y="60" width="1300" height="240"/>
  <text class="pool-label" x="60" y="85" transform="rotate(-90 60 85)">HR-менеджер</text>
  
  <circle class="event-message" cx="120" cy="180" r="18"/>
  <circle class="event-message" cx="120" cy="180" r="14"/>
  <text x="110" y="188" style="font-size: 18px;">✉</text>
  <text class="task-text" x="120" y="220" style="font-size: 10px;">Уведомление</text>
  
  <rect class="task" x="180" y="150" width="110" height="60"/>
  <text class="task-text" x="235" y="175">Открыть панель</text>
  <text class="task-text" x="235" y="190">управления</text>
  
  <g transform="translate(340, 180) rotate(45)">
    <rect class="gateway" x="-22" y="-22" width="44" height="44"/>
  </g>
  <text class="gateway-text" x="340" y="230">Режим?</text>
  
  <rect class="task" x="390" y="110" width="110" height="60"/>
  <text class="task-text" x="445" y="135">Быстрый</text>
  <text class="task-text" x="445" y="150">просмотр (свайп)</text>
  
  <rect class="task" x="390" y="180" width="110" height="60"/>
  <text class="task-text" x="445" y="205">Детальный</text>
  <text class="task-text" x="445" y="220">анализ</text>
  
  <g transform="translate(550, 180) rotate(45)">
    <rect class="gateway" x="-22" y="-22" width="44" height="44"/>
  </g>
  
  <g transform="translate(650, 180) rotate(45)">
    <rect class="gateway" x="-22" y="-22" width="44" height="44"/>
  </g>
  <text class="gateway-text" x="650" y="230">Решение?</text>
  
  <rect class="task" x="700" y="150" width="110" height="60"/>
  <text class="task-text" x="755" y="175">Сформулировать</text>
  <text class="task-text" x="755" y="190">решение</text>
  
  <rect class="task" x="650" y="80" width="100" height="50"/>
  <text class="task-text" x="700" y="100">Консультация</text>
  <text class="task-text" x="700" y="113">с руководителем</text>
  
  <circle class="event-end" cx="870" cy="180" r="18"/>
  <circle class="event-end" cx="870" cy="180" r="14" fill="#FFF"/>
  
  <!-- Потоки -->
  <line class="sequence-flow" x1="138" y1="180" x2="180" y2="180"/>
  <line class="sequence-flow" x1="290" y1="180" x2="318" y2="180"/>
  <line class="sequence-flow" x1="362" y1="180" x2="390" y2="140"/>
  <line class="sequence-flow" x1="362" y1="180" x2="390" y2="210"/>
  <line class="sequence-flow" x1="500" y1="140" x2="528" y2="158"/>
  <line class="sequence-flow" x1="500" y1="210" x2="528" y2="202"/>
  <line class="sequence-flow" x1="572" y1="180" x2="628" y2="180"/>
  <line class="sequence-flow" x1="672" y1="180" x2="700" y2="180"/>
  <line class="sequence-flow" x1="650" y1="158" x2="650" y2="130"/>
  <line class="sequence-flow" x1="650" y1="80" x2="700" y2="80"/>
  <line class="sequence-flow" x1="700" y1="130" x2="700" y2="150"/>
  <line class="sequence-flow" x1="700" y1="150" x2="720" y2="150"/>
  <line class="sequence-flow" x1="720" y1="150" x2="720" y2="180"/>
  <line class="sequence-flow" x1="810" y1="180" x2="852" y2="180"/>
  
  <!-- Пул 2: Система workflow -->
  <rect class="pool" x="50" y="320" width="1300" height="280"/>
  <text class="pool-label" x="60" y="345" transform="rotate(-90 60 345)">Система workflow</text>
  
  <circle class="event-start" cx="120" cy="460" r="18"/>
  
  <rect class="task" x="180" y="430" width="110" height="60"/>
  <text class="task-text" x="235" y="455">Распределить</text>
  <text class="task-text" x="235" y="470">кандидатов</text>
  
  <rect class="task" x="330" y="430" width="110" height="60"/>
  <text class="task-text" x="385" y="455">Фильтрация</text>
  <text class="task-text" x="385" y="470">и сортировка</text>
  
  <rect class="task" x="480" y="430" width="110" height="60"/>
  <text class="task-text" x="535" y="455">Зафиксировать</text>
  <text class="task-text" x="535" y="470">решение HR</text>
  
  <g transform="translate(640, 460) rotate(45)">
    <rect class="gateway" x="-22" y="-22" width="44" height="44"/>
  </g>
  <text class="gateway-text" x="640" y="510">Тип решения?</text>
  
  <rect class="task" x="700" y="360" width="110" height="60"/>
  <text class="task-text" x="755" y="385">Приглашение</text>
  <text class="task-text" x="755" y="400">на собеседование</text>
  
  <rect class="task" x="700" y="430" width="110" height="60"/>
  <text class="task-text" x="755" y="455">Отклонение</text>
  <text class="task-text" x="755" y="470">кандидата</text>
  
  <rect class="task" x="700" y="500" width="110" height="60"/>
  <text class="task-text" x="755" y="525">Отложенное</text>
  <text class="task-text" x="755" y="540">решение</text>
  
  <g transform="translate(860, 460) rotate(45)">
    <rect class="gateway" x="-22" y="-22" width="44" height="44"/>
  </g>
  
  <rect class="task" x="910" y="430" width="110" height="60"/>
  <text class="task-text" x="965" y="455">Автоматизация</text>
  <text class="task-text" x="965" y="470">шагов</text>
  
  <circle class="event-end" cx="1080" cy="460" r="18"/>
  <circle class="event-end" cx="1080" cy="460" r="14" fill="#FFF"/>
  
  <!-- Потоки -->
  <line class="sequence-flow" x1="138" y1="460" x2="180" y2="460"/>
  <line class="sequence-flow" x1="290" y1="460" x2="330" y2="460"/>
  <line class="sequence-flow" x1="440" y1="460" x2="480" y2="460"/>
  <line class="sequence-flow" x1="590" y1="460" x2="618" y2="460"/>
  <line class="sequence-flow" x1="662" y1="460" x2="700" y2="390"/>
  <line class="sequence-flow" x1="662" y1="460" x2="700" y2="460"/>
  <line class="sequence-flow" x1="662" y1="460" x2="700" y2="530"/>
  <line class="sequence-flow" x1="810" y1="390" x2="838" y2="438"/>
  <line class="sequence-flow" x1="810" y1="460" x2="838" y2="460"/>
  <line class="sequence-flow" x1="810" y1="530" x2="838" y2="482"/>
  <line class="sequence-flow" x1="882" y1="460" x2="910" y2="460"/>
  <line class="sequence-flow" x1="1020" y1="460" x2="1062" y2="460"/>
  
  <!-- Пул 3: Интеграции -->
  <rect class="pool" x="50" y="620" width="1300" height="200"/>
  <text class="pool-label" x="60" y="645" transform="rotate(-90 60 645)">Интеграции</text>
  
  <circle class="event-start" cx="120" cy="720" r="18"/>
  
  <rect class="task" x="180" y="690" width="110" height="60"/>
  <text class="task-text" x="235" y="715">Синхронизация</text>
  <text class="task-text" x="235" y="730">с ATS</text>
  
  <g transform="translate(340, 720) rotate(45)">
    <rect class="gateway" x="-22" y="-22" width="44" height="44"/>
    <line x1="-10" y1="0" x2="10" y2="0" stroke="#000" stroke-width="2"/>
    <line x1="0" y1="-10" x2="0" y2="10" stroke="#000" stroke-width="2"/>
  </g>
  
  <rect class="task" x="390" y="660" width="100" height="50"/>
  <text class="task-text" x="440" y="680">Обновление</text>
  <text class="task-text" x="440" y="693">в 1C</text>
  
  <rect class="task" x="390" y="720" width="100" height="50"/>
  <text class="task-text" x="440" y="740">Экспорт</text>
  <text class="task-text" x="440" y="753">в Workable</text>
  
  <rect class="task" x="390" y="780" width="100" height="50"/>
  <text class="task-text" x="440" y="800">Синхронизация</text>
  <text class="task-text" x="440" y="813">Greenhouse</text>
  
  <g transform="translate(540, 720) rotate(45)">
    <rect class="gateway" x="-22" y="-22" width="44" height="44"/>
    <line x1="-10" y1="0" x2="10" y2="0" stroke="#000" stroke-width="2"/>
    <line x1="0" y1="-10" x2="0" y2="10" stroke="#000" stroke-width="2"/>
  </g>
  
  <rect class="task" x="590" y="690" width="120" height="60"/>
  <text class="task-text" x="650" y="715">Интеграция</text>
  <text class="task-text" x="650" y="730">с почтой</text>
  
  <circle class="event-end" cx="770" cy="720" r="18"/>
  <circle class="event-end" cx="770" cy="720" r="14" fill="#FFF"/>
  
  <!-- Потоки -->
  <line class="sequence-flow" x1="138" y1="720" x2="180" y2="720"/>
  <line class="sequence-flow" x1="290" y1="720" x2="318" y2="720"/>
  <line class="sequence-flow" x1="362" y1="720" x2="390" y2="685"/>
  <line class="sequence-flow" x1="362" y1="720" x2="390" y2="745"/>
  <line class="sequence-flow" x1="362" y1="720" x2="390" y2="805"/>
  <line class="sequence-flow" x1="490" y1="685" x2="518" y2="698"/>
  <line class="sequence-flow" x1="490" y1="745" x2="518" y2="720"/>
  <line class="sequence-flow" x1="490" y1="805" x2="518" y2="742"/>
  <line class="sequence-flow" x1="562" y1="720" x2="590" y2="720"/>
  <line class="sequence-flow" x1="710" y1="720" x2="752" y2="720"/>
  
  <!-- Пул 4: Аналитика и мониторинг -->
  <rect class="pool" x="50" y="840" width="1300" height="200"/>
  <text class="pool-label" x="60" y="865" transform="rotate(-90 60 865)">Аналитика и мониторинг</text>
  
  <circle class="event-start" cx="120" cy="940" r="18"/>
  
  <rect class="task" x="180" y="910" width="110" height="60"/>
  <text class="task-text" x="235" y="935">Собрать</text>
  <text class="task-text" x="235" y="950">метрики</text>
  
  <g transform="translate(340, 940) rotate(45)">
    <rect class="gateway" x="-22" y="-22" width="44" height="44"/>
    <line x1="-10" y1="0" x2="10" y2="0" stroke="#000" stroke-width="2"/>
    <line x1="0" y1="-10" x2="0" y2="10" stroke="#000" stroke-width="2"/>
  </g>
  
  <rect class="task" x="390" y="880" width="100" height="50"/>
  <text class="task-text" x="440" y="900">Расчет</text>
  <text class="task-text" x="440" y="913">time-to-hire</text>
  
  <rect class="task" x="390" y="940" width="100" height="50"/>
  <text class="task-text" x="440" y="960">Анализ</text>
  <text class="task-text" x="440" y="973">конверсии</text>
  
  <rect class="task" x="390" y="1000" width="100" height="50"/>
  <text class="task-text" x="440" y="1020">Оценка качества</text>
  <text class="task-text" x="440" y="1033">найма</text>
  
  <g transform="translate(540, 940) rotate(45)">
    <rect class="gateway" x="-22" y="-22" width="44" height="44"/>
    <line x1="-10" y1="0" x2="10" y2="0" stroke="#000" stroke-width="2"/>
    <line x1="0" y1="-10" x2="0" y2="10" stroke="#000" stroke-width="2"/>
  </g>
  
  <rect class="task" x="590" y="910" width="120" height="60"/>
  <text class="task-text" x="650" y="935">Формирование</text>
  <text class="task-text" x="650" y="950">отчетов</text>
  
  <g transform="translate(760, 940) rotate(45)">
    <rect class="gateway" x="-22" y="-22" width="44" height="44"/>
  </g>
  <text class="gateway-text" x="760" y="990">Отклонения?</text>
  
  <rect class="task" x="820" y="910" width="110" height="60"/>
  <text class="task-text" x="875" y="935">Генерация</text>
  <text class="task-text" x="875" y="950">предупреждений</text>
  
  <rect class="task" x="760" y="860" width="100" height="50"/>
  <text class="task-text" x="810" y="880">Стандартная</text>
  <text class="task-text" x="810" y="893">аналитика</text>
  
  <circle class="event-end" cx="1000" cy="940" r="18"/>
  <circle class="event-end" cx="1000" cy="940" r="14" fill="#FFF"/>
  
  <!-- Потоки -->
  <line class="sequence-flow" x1="138" y1="940" x2="180" y2="940"/>
  <line class="sequence-flow" x1="290" y1="940" x2="318" y2="940"/>
  <line class="sequence-flow" x1="362" y1="940" x2="390" y2="905"/>
  <line class="sequence-flow" x1="362" y1="940" x2="390" y2="965"/>
  <line class="sequence-flow" x1="362" y1="940" x2="390" y2="1025"/>
  <line class="sequence-flow" x1="490" y1="905" x2="518" y2="918"/>
  <line class="sequence-flow" x1="490" y1="965" x2="518" y2="940"/>
  <line class="sequence-flow" x1="490" y1="1025" x2="518" y2="962"/>
  <line class="sequence-flow" x1="562" y1="940" x2="590" y2="940"/>
  <line class="sequence-flow" x1="710" y1="940" x2="738" y2="940"/>
  <line class="sequence-flow" x1="782" y1="940" x2="820" y2="940"/>
  <line class="sequence-flow" x1="760" y1="918" x2="760" y2="910"/>
  <line class="sequence-flow" x1="760" y1="860" x2="810" y2="860"/>
  <line class="sequence-flow" x1="810" y1="910" x2="810" y2="930"/>
  <line class="sequence-flow" x1="810" y1="930" x2="820" y2="930"/>
  <line class="sequence-flow" x1="930" y1="940" x2="982" y2="940"/>
  
  <!-- Потоки сообщений между пулами -->
  <line class="message-flow" x1="870" y1="198" x2="120" y2="442"/>
  <line class="message-flow" x1="1080" y1="478" x2="120" y2="702"/>
  <line class="message-flow" x1="770" y1="738" x2="120" y2="922"/>
  <line class="message-flow" x1="1000" y1="958" x2="120" y2="162"/>
  
  <!-- Легенда -->
  <g transform="translate(50, 1060)">
    <text style="font-family: Arial; font-size: 12px; font-weight: bold;">Легенда BPMN:</text>
    <circle cx="20" cy="30" r="10" fill="#FFF" stroke="#000" stroke-width="1"/>
    <circle cx="20" cy="30" r="8"/>
    <text x="10" y="38" style="font-size: 14px;">✉</text>
    <text x="40" y="35" style="font-family: Arial; font-size: 10px;">Событие сообщения</text>
    
    <circle cx="220" cy="30" r="10" fill="#000" stroke="#000" stroke-width="3"/>
    <circle cx="220" cy="30" r="7" fill="#FFF"/>
    <text x="240" y="35" style="font-family: Arial; font-size: 10px;">Событие конца</text>
    
    <g transform="translate(380, 30) rotate(45)">
      <rect x="-10" y="-10" width="20" height="20" fill="#FFFFCC" stroke="#000" stroke-width="1"/>
    </g>
    <text x="400" y="35" style="font-family: Arial; font-size: 10px;">Исключающий шлюз</text>
    
    <g transform="translate(570, 30) rotate(45)">
      <rect x="-10" y="-10" width="20" height="20" fill="#FFFFCC" stroke="#000" stroke-width="1"/>
      <line x1="-5" y1="0" x2="5" y2="0" stroke="#000" stroke-width="1.5"/>
      <line x1="0" y1="-5" x2="0" y2="5" stroke="#000" stroke-width="1.5"/>
    </g>
    <text x="590" y="35" style="font-family: Arial; font-size: 10px;">Параллельный шлюз</text>
    
    <line x1="770" y1="30" x2="830" y2="30" stroke="#000" stroke-width="1.5" stroke-dasharray="5,5" marker-end="url(#arrowhead)"/>
    <text x="840" y="35" style="font-family: Arial; font-size: 10px;">Поток сообщений</text>
  </g>
  
</svg>